<?xml version="1.0" encoding="utf-8"?>
<!-- Generator: Adobe Illustrator 19.0.0, SVG Export Plug-In . SVG Version: 6.00 Build 0)  -->
<svg version="1.1" id="Ebene_1" xmlns="http://www.w3.org/2000/svg" xmlns:xlink="http://www.w3.org/1999/xlink" x="0px" y="0px"
	 viewBox="0 0 283.5 283.5" style="enable-background:new 0 0 283.5 283.5;" xml:space="preserve">
<style type="text/css">
	.st0{fill:#FFFFFF;stroke:#000000;stroke-miterlimit:10;}
	.st1{fill:none;stroke:#000000;stroke-miterlimit:10;}
	.st2{fill:#F4971B;stroke:#000000;stroke-miterlimit:10;}
	.st3{fill:#0C4692;stroke:#000000;stroke-miterlimit:10;}
</style>
<circle id="XMLID_2_" class="st0" cx="141.7" cy="141.7" r="141.7"/>
<g id="XMLID_1_">
	<path id="XMLID_34_" class="st1" d="M197.2,149.7c-20.8,0-41.6-0.1-62.4,0c-13.9,0.1-27.9,0-41.8,0.1c-0.2,0-0.4,0-0.7,0
		c-0.4,0-0.6-0.1-0.5-0.5c0-0.2,0-0.4,0-0.6c0-17.3,0-34.5,0-51.8c0-0.2,0-0.4,0-0.7c0-0.3,0.1-0.4,0.4-0.4c0.2,0,0.4,0,0.6,0
		c22.3,0,44.7,0,67,0c4.9,0,9.8,0,14.7,0c27.3,0.2,54.5,0,81.8,0.1c1.3,0,2.6,0,3.9,0c1,0,1,0,1,0.9c0,17.3,0,34.6,0,51.9
		c0,0.9,0,0.9-0.9,0.9c-16.3,0-32.6,0-48.9,0C206.7,149.7,201.9,149.7,197.2,149.7z"/>
	<path id="XMLID_31_" class="st2" d="M30.2,157.9c0-4.9,0-9.9,0-14.8c0-0.6,0.1-1.2,0.3-1.7c3.9-10.4,5.7-15.2,9.6-25.6
		c2.8-6.8,2.8-6.8,11.5-6.7c6.9,0,6,0,13,0.1c3.9,0,7.7,0,11.6,0c0.5,0,0.7,0.1,0.7,0.7c0,6.8,0,13.7-0.1,20.5
		c-0.1,7.5,0,15-0.1,22.6c0,0.6,0.2,0.8,0.8,0.8c13.9,0,27.9,0,41.8,0c3.3,0,6,1,8.5,3c3,2.4,5.2,5.4,7,8.7c1.7,3.1,3,6.4,3.5,9.9
		c0.1,0.6,0.1,1.1,0.2,1.7c0,0.4-0.1,0.6-0.5,0.6c-1.8,0-3.6,0-5.4,0c-0.4,0-0.5-0.2-0.6-0.5c-0.2-1.9-0.5-3.7-1.1-5.4
		c-2-5.8-5.9-9.6-12-10.8c-5.3-1.1-10.1,0.3-14.4,3.4c-2.4,1.7-4.4,4-6,6.5c-0.3,0.4-0.5,0.6-1.1,0.6c-7,0-14,0-21,0
		c-0.5,0-0.8-0.2-1-0.7c-1.8-3.4-4.2-6.3-7.5-8.4c-5.9-3.7-12.8-3.2-18.3,1.2c-3.8,3.1-6.1,7.1-7.6,11.6c-0.2,0.7-0.4,1.4-0.6,2.2
		c-0.1,0.4-0.3,0.6-0.7,0.6c-2.2,0-4.5,0-6.7,0c-2,0-3.6-1.7-3.8-3.7c-0.1-1.7-0.1-3.4-0.1-5.1C30.2,165.3,30.2,161.6,30.2,157.9z
		 M34.6,140.1c0,0,0.1,0,0.1,0c4.6-0.5,9.2-0.9,13.8-1.4c4.8-0.5,9.6-1.1,14.5-1.5c0.6-0.1,0.7-0.3,0.7-0.8c0-6.2,0-12.4,0-18.5
		c0-0.8,0-0.8-0.9-0.8c-6.4,0-12.9,0-19.3,0c-0.5,0-0.8,0.2-1,0.7c-2.6,7.3-5.2,14.6-7.8,21.9C34.7,139.7,34.5,139.9,34.6,140.1z"/>
	<path id="XMLID_30_" class="st1" d="M222.7,153.8c6.5,0,12.9,0.1,19.4,0c3.9-0.1,7.1,1.4,9.8,3.9c5,4.8,8.1,10.6,9.5,17.4
		c0.1,0.7,0.2,1.3,0.2,2c0,0.4-0.1,0.6-0.5,0.6c-1.8,0-3.6,0-5.4,0c-0.5,0-0.5-0.3-0.5-0.6c-0.2-2.8-0.9-5.5-2.2-8
		c-2.6-4.9-6.8-7.8-12.2-8.8c-3.4-0.7-6.9-0.4-10.1,1c-1.7,0.7-3.2,1.7-4.3,3.1c-0.1,0.2-0.3,0.3-0.3,0.5c0.1,0.6-0.3,0.7-0.8,0.7
		c-1.7,0-3.3,0-5,0c-0.4,0-0.7,0-0.7-0.5c0-0.4-0.3-0.7-0.6-1c-1.8-1.9-4-3-6.5-3.6c-5.7-1.2-10.9-0.2-15.5,3.4
		c-3.5,2.7-5.4,6.4-6.2,10.7c-0.2,0.9-0.3,1.8-0.4,2.7c0,0.4-0.2,0.6-0.6,0.5c-1.8,0-3.5,0-5.3,0c-0.5,0-0.6-0.2-0.6-0.6
		c0.1-1.7,0.4-3.3,0.9-4.9c1.7-5.5,4.4-10.4,8.7-14.4c2-1.9,4.3-3.4,7.1-3.9c0.7-0.1,1.3-0.2,2-0.2
		C209.3,153.8,216,153.8,222.7,153.8z"/>
	<path id="XMLID_29_" class="st1" d="M237.8,163c7.3-0.1,14.1,5.7,14.1,14c0,8.2-6.7,14-14,14.1c-7.4,0-14.1-5.8-14.1-14.1
		C223.7,168.9,230.5,163,237.8,163z"/>
	<path id="XMLID_28_" class="st3" d="M59.5,163c7.7,0,14.1,6.3,14,14.1c0,7.8-6.4,14-14.2,14c-7.5,0-14-6.1-14-14
		C45.4,169,52,163,59.5,163z"/>
	<path id="XMLID_27_" class="st3" d="M128.6,177.1c0.1,7.4-6,14-14,14c-7.8,0-14.1-6.3-14.1-14.1c0-7.8,6.3-14,14.1-14
		C122.6,163.1,128.7,169.7,128.6,177.1z"/>
	<path id="XMLID_26_" class="st1" d="M221,177.1c0,8-6.7,14.4-14.8,14c-7.5-0.4-13.6-6.7-13.3-14.5c0.3-7.8,6.9-14,14.9-13.5
		C215.4,163.5,221,169.9,221,177.1z"/>
</g>
</svg>
