<?xml version="1.0" encoding="utf-8"?>
<!-- Generator: Adobe Illustrator 19.0.0, SVG Export Plug-In . SVG Version: 6.00 Build 0)  -->
<svg version="1.1" id="Ebene_1" xmlns="http://www.w3.org/2000/svg" xmlns:xlink="http://www.w3.org/1999/xlink" x="0px" y="0px"
	 viewBox="0 0 283.5 283.5" style="enable-background:new 0 0 283.5 283.5;" xml:space="preserve">
<style type="text/css">
	.st0{fill:#FFFFFF;stroke:#000000;stroke-miterlimit:10;}
	.st1{fill:#F4971B;stroke:#020203;stroke-miterlimit:10;}
	.st2{fill:none;stroke:#020203;stroke-miterlimit:10;}
	.st3{fill:#0D4692;stroke:#020203;stroke-miterlimit:10;}
</style>
<circle id="XMLID_2_" class="st0" cx="141.7" cy="141.7" r="141.7"/>
<g id="XMLID_1_">
	<path id="XMLID_45_" class="st1" d="M177.4,91.7c24.8,0,49.5,0,74.3,0c0.6,0,0.8,0.1,0.8,0.8c0,23.4,0,46.9,0,70.3
		c0,0.6-0.1,0.7-0.7,0.7c-49.6,0-99.1,0-148.7,0c-0.6,0-0.7-0.2-0.7-0.8c0-23.4,0-46.9,0-70.3c0-0.6,0.1-0.7,0.7-0.7
		C127.9,91.7,152.7,91.7,177.4,91.7z"/>
	<path id="XMLID_42_" class="st2" d="M186,168.7c-1,0.9-2,1.7-2.8,2.7c-3.3,3.6-5.2,7.9-5.7,12.7c-0.1,0.9-0.2,1.7-0.2,2.6
		c0,0.5-0.1,0.6-0.6,0.6c-8.5,0-16.9,0-25.4,0c-9.2,0-18.3,0-27.5,0c-12.8,0-25.5,0-38.3,0c-0.8,0-0.8,0-0.9-0.8
		c-0.1-3-0.7-6-1.9-8.8c-2.9-7-8.1-11.4-15.4-13.2c-7.4-1.8-14.3-0.5-20.4,4.2c-4.1,3.2-6.6,7.4-7.8,12.4c-0.4,1.8-0.7,3.6-0.7,5.4
		c0,0.4-0.1,0.6-0.6,0.6c-1,0-1.9-0.1-2.9-0.2c-2.6-0.4-3.8-1.7-4.1-4.3c-0.1-1.2-0.2-2.5-0.2-3.7c0-8.7,0-17.3,0-26
		c0-1.1-0.1-2.1-0.1-3.2c0.1-1.4,0.5-2.6,1.1-3.9c3.8-9,7.2-18.1,10.6-27.3c0.5-1.3,1-2.6,1.7-3.8c0.7-1.3,1.8-1.9,3.3-2
		c4.9-0.3,9.8-0.7,14.7-1c3.8-0.3,7.5-0.5,11.3-0.8c4.3-0.3,8.5-0.6,12.8-0.9c2.1-0.1,4.3-0.3,6.4-0.4c0.4,0,0.5,0.1,0.5,0.4
		c0,1.2,0,2.5,0,3.7c0,18.1,0,36.1,0,54.2c0,0.5,0.1,0.7,0.7,0.7c15.1,0,30.2,0,45.3,0c9.3,0,18.7,0,28,0c6.2,0,12.3,0,18.5,0
		C185.6,168.6,185.8,168.5,186,168.7z M74.4,131.8c0,0,0.1,0,0.1,0c0.1-4,0.1-8,0.2-11.9c0-0.5-0.1-0.6-0.6-0.6
		c-3.7,0.2-7.4,0.5-11.1,0.7c-4.5,0.3-9.1,0.6-13.6,0.8c-1.8,0.1-3,0.8-3.5,2.6c-0.3,0.9-0.6,1.9-0.9,2.8
		c-2.1,5.6-4.2,11.2-6.3,16.9c-0.4,1-0.8,2-0.8,3.1c0,1.1,0.4,1.7,1.5,1.9c0.6,0.1,1.3,0.2,1.9,0.1c3.1-0.3,6.2-0.7,9.3-1
		c3.7-0.4,7.4-0.9,11.1-1.3c4.1-0.5,8.1-1,12.2-1.4c0.4,0,0.6-0.2,0.6-0.6C74.4,139.7,74.4,135.8,74.4,131.8z"/>
	<path id="XMLID_41_" class="st3" d="M61.5,205.1c-10.1,0-18.3-8.2-18.3-18.3c0-10.1,8.3-18.4,18.4-18.3c10,0.1,18.2,8.2,18.2,18.4
		C79.9,197,71.7,205.1,61.5,205.1z"/>
	<path id="XMLID_40_" class="st3" d="M200.4,205.1c-10.1,0-18.3-8.2-18.3-18.3c0-10.2,8.2-18.3,18.4-18.3c10.1,0,18.3,8.2,18.3,18.3
		C218.7,196.9,210.5,205.1,200.4,205.1z"/>
	<path id="XMLID_39_" class="st2" d="M214.7,168.6c0.3,0,0.5,0,0.7,0c12.1,0,24.2,0,36.2,0c0.5,0,0.7,0.1,0.7,0.7c0,4,0,8,0.1,12.1
		c0,0.4-0.1,0.6-0.5,0.8c-4.8,1.7-9.7,3.4-14.5,5.1c-0.3,0.1-0.6,0.1-0.9,0.1c-4.2,0-8.3,0-12.5,0c-0.3,0-0.5,0-0.5-0.5
		c-0.1-7.3-2.9-13.4-8.6-18.1C214.9,168.8,214.9,168.8,214.7,168.6z"/>
</g>
</svg>
