<?xml version="1.0" encoding="utf-8"?>
<!-- Generator: Adobe Illustrator 19.0.0, SVG Export Plug-In . SVG Version: 6.00 Build 0)  -->
<svg version="1.1" id="Ebene_1" xmlns="http://www.w3.org/2000/svg" xmlns:xlink="http://www.w3.org/1999/xlink" x="0px" y="0px"
	 viewBox="0 0 283.5 283.5" style="enable-background:new 0 0 283.5 283.5;" xml:space="preserve">
<style type="text/css">
	.st0{fill:#FFFFFF;stroke:#000000;stroke-miterlimit:10;}
	.st1{fill:#F4971B;stroke:#020203;stroke-miterlimit:10;}
	.st2{fill:none;stroke:#020203;stroke-miterlimit:10;}
	.st3{fill:#0C4692;stroke:#020203;stroke-miterlimit:10;}
</style>
<circle id="XMLID_20_" class="st0" cx="141.7" cy="141.7" r="141.7"/>
<g id="XMLID_14_">
	<path id="XMLID_45_" class="st1" d="M109.8,108.6c15.4,0,30.7,0,46.1,0c0.4,0,0.5,0.1,0.5,0.5c0,14.5,0,29.1,0,43.6
		c0,0.4-0.1,0.5-0.5,0.5c-30.8,0-61.5,0-92.3,0c-0.4,0-0.5-0.1-0.4-0.5c0-14.5,0-29.1,0-43.6c0-0.4,0.1-0.5,0.5-0.5
		C79,108.6,94.4,108.6,109.8,108.6z"/>
	<path id="XMLID_42_" class="st2" d="M115.1,156.4c-0.6,0.5-1.2,1.1-1.8,1.7c-2,2.3-3.2,4.9-3.6,7.9c-0.1,0.5-0.1,1.1-0.1,1.6
		c0,0.3-0.1,0.4-0.4,0.4c-5.2,0-10.5,0-15.7,0c-5.7,0-11.4,0-17,0c-7.9,0-15.8,0-23.7,0c-0.5,0-0.5,0-0.5-0.5
		c-0.1-1.9-0.4-3.7-1.2-5.5c-1.8-4.3-5-7.1-9.6-8.2c-4.6-1.1-8.9-0.3-12.6,2.6c-2.5,2-4.1,4.6-4.8,7.7c-0.3,1.1-0.4,2.2-0.5,3.3
		c0,0.3-0.1,0.4-0.4,0.4c-0.6,0-1.2-0.1-1.8-0.2c-1.6-0.3-2.3-1-2.5-2.6c-0.1-0.8-0.1-1.5-0.1-2.3c0-5.4,0-10.8,0-16.2
		c0-0.7-0.1-1.3,0-2c0.1-0.8,0.3-1.6,0.7-2.4c2.4-5.6,4.5-11.2,6.5-16.9c0.3-0.8,0.6-1.6,1.1-2.4c0.5-0.8,1.1-1.2,2.1-1.2
		c3.1-0.2,6.1-0.4,9.2-0.6c2.3-0.2,4.7-0.3,7-0.5c2.6-0.2,5.3-0.4,7.9-0.6c1.3-0.1,2.6-0.2,4-0.3c0.2,0,0.3,0.1,0.3,0.3
		c0,0.8,0,1.5,0,2.3c0,11.2,0,22.4,0,33.6c0,0.3,0.1,0.4,0.4,0.4c9.4,0,18.8,0,28.1,0c5.8,0,11.6,0,17.4,0c3.8,0,7.6,0,11.5,0
		C114.8,156.3,114.9,156.3,115.1,156.4z M45.8,133.5C45.9,133.5,45.9,133.5,45.8,133.5c0.1-2.5,0.2-4.9,0.2-7.4
		c0-0.3-0.1-0.4-0.4-0.3c-2.3,0.2-4.6,0.3-6.9,0.4c-2.8,0.2-5.6,0.4-8.5,0.5c-1.1,0.1-1.9,0.5-2.2,1.6c-0.2,0.6-0.4,1.2-0.6,1.7
		c-1.3,3.5-2.6,7-3.9,10.5c-0.2,0.6-0.5,1.3-0.5,1.9c0,0.7,0.3,1.1,0.9,1.2c0.4,0.1,0.8,0.1,1.2,0.1c1.9-0.2,3.8-0.4,5.7-0.6
		c2.3-0.3,4.6-0.5,6.9-0.8c2.5-0.3,5-0.6,7.6-0.9c0.3,0,0.4-0.1,0.4-0.4C45.8,138.4,45.8,135.9,45.8,133.5z"/>
	<path id="XMLID_41_" class="st3" d="M37.9,179c-6.3,0-11.3-5.1-11.3-11.4c0-6.3,5.2-11.4,11.4-11.4c6.2,0,11.3,5.1,11.3,11.4
		C49.2,173.9,44.1,179,37.9,179z"/>
	<path id="XMLID_40_" class="st3" d="M124,179c-6.3,0-11.4-5.1-11.4-11.4c0-6.3,5.1-11.4,11.4-11.4c6.3,0,11.3,5.1,11.3,11.4
		C135.4,173.9,130.3,179,124,179z"/>
	<path id="XMLID_39_" class="st2" d="M132.9,156.3c0.2,0,0.3,0,0.4,0c7.5,0,15,0,22.5,0c0.3,0,0.4,0.1,0.4,0.4c0,2.5,0,5,0,7.5
		c0,0.2,0,0.4-0.3,0.5c-3,1.1-6,2.1-9,3.2c-0.2,0.1-0.4,0.1-0.5,0.1c-2.6,0-5.2,0-7.7,0c-0.2,0-0.3,0-0.3-0.3
		c-0.1-4.5-1.8-8.3-5.3-11.2C133,156.4,133,156.4,132.9,156.3z"/>
	<path id="XMLID_17_" class="st2" d="M211.3,108.6c15.4,0,30.7,0,46.1,0c0.4,0,0.5,0.1,0.5,0.5c0,14.5,0,29.1,0,43.6
		c0,0.4-0.1,0.5-0.5,0.5c-30.8,0-61.5,0-92.3,0c-0.4,0-0.5-0.1-0.4-0.5c0-14.5,0-29.1,0-43.6c0-0.4,0.1-0.5,0.5-0.5
		C180.5,108.6,195.9,108.6,211.3,108.6z"/>
	<path id="XMLID_16_" class="st2" d="M230.5,179c-6.3,0-11.4-5.1-11.4-11.4c0-6.3,5.1-11.4,11.4-11.4c6.3,0,11.3,5.1,11.3,11.4
		C241.8,173.9,236.7,179,230.5,179z"/>
	<path id="XMLID_15_" class="st2" d="M239.4,156.3c0.2,0,0.3,0,0.4,0c7.5,0,9.4,0,16.9,0c0.3,0,0.7,0.6,0.7,1c0,2.5,0.1,6.4,0.1,6.4
		c0,1.3,0.2,2.5-0.9,3c-3,1.1-0.2,0.1-3.2,1.1c-0.2,0.1-0.4,0.1-0.5,0.1c-2.6,0-5.2,0-7.7,0c-0.2,0-0.3,0-0.3-0.3
		c-0.1-4.5-1.8-8.3-5.3-11.2C239.5,156.4,239.5,156.4,239.4,156.3z"/>
	<path id="XMLID_18_" class="st2" d="M204.9,179.3c-6.3,0-11.4-5.1-11.4-11.4c0-6.3,5.1-11.4,11.4-11.4c6.3,0,11.3,5.1,11.3,11.4
		C216.2,174.3,211.1,179.3,204.9,179.3z"/>
	<path id="XMLID_19_" class="st2" d="M196.8,156.3c-0.2,0-0.3,0-0.4,0c-7.5,0-23.3,0-30.8,0c-0.3,0-0.9,0.1-0.9,0.4c0,2.5,0,5,0,7.5
		c0,0.2,0,0.2,0.5,0.5c1.4,0.9,2.6,1.7,5.2,3.2c0.1,0,0.3,0.1,0.5,0.1c2.6,0,17.6,0,20.2,0c0.2,0,0.3,0,0.3-0.3
		c0.1-4.5,1.8-8.3,5.3-11.2C196.7,156.4,196.7,156.4,196.8,156.3z"/>
</g>
</svg>
