<?xml version="1.0" encoding="utf-8"?>
<!-- Generator: Adobe Illustrator 19.0.0, SVG Export Plug-In . SVG Version: 6.00 Build 0)  -->
<svg version="1.1" id="Ebene_1" xmlns="http://www.w3.org/2000/svg" xmlns:xlink="http://www.w3.org/1999/xlink" x="0px" y="0px"
	 viewBox="0 0 283.5 283.5" style="enable-background:new 0 0 283.5 283.5;" xml:space="preserve">
<style type="text/css">
	.st0{fill:none;stroke:#000000;stroke-linecap:round;stroke-linejoin:round;stroke-miterlimit:10;}
</style>
<line id="XMLID_2_" class="st0" x1="140.2" y1="184.2" x2="140.2" y2="99.2"/>
<path id="XMLID_5_" class="st0" d="M154.4,195.1h-28.3c-1.6,0-2.8-1.3-2.8-2.8v-5.2c0-1.6,1.3-2.8,2.8-2.8h28.3
	c1.6,0,2.8,1.3,2.8,2.8v5.2C157.3,193.8,156,195.1,154.4,195.1z"/>
<path id="XMLID_1_" class="st0" d="M154.4,99.2h-28.3c-1.6,0-2.8-1.3-2.8-2.8v-5.2c0-1.6,1.3-2.8,2.8-2.8h28.3
	c1.6,0,2.8,1.3,2.8,2.8v5.2C157.3,97.9,156,99.2,154.4,99.2z"/>
</svg>
