<?xml version="1.0" encoding="utf-8"?>
<!-- Generator: Adobe Illustrator 19.0.0, SVG Export Plug-In . SVG Version: 6.00 Build 0)  -->
<svg version="1.1" id="Ebene_1" xmlns="http://www.w3.org/2000/svg" xmlns:xlink="http://www.w3.org/1999/xlink" x="0px" y="0px"
	 viewBox="0 0 283.5 283.5" style="enable-background:new 0 0 283.5 283.5;" xml:space="preserve">
<style type="text/css">
	.st0{fill:none;stroke:#000000;stroke-linecap:round;stroke-linejoin:round;stroke-miterlimit:10;}
</style>
<line id="XMLID_2_" class="st0" x1="141.7" y1="184.2" x2="141.7" y2="99.2"/>
<path id="XMLID_4_" class="st0" d="M156.7,90.2l-24.5,14.2c-1.4,0.8-3.1,0.3-3.9-1l-2.6-4.5c-0.8-1.4-0.3-3.1,1-3.9l24.5-14.2
	c1.4-0.8,3.1-0.3,3.9,1l2.6,4.5C158.5,87.6,158,89.4,156.7,90.2z"/>
<path id="XMLID_5_" class="st0" d="M156.7,188.4l-24.5,14.2c-1.4,0.8-3.1,0.3-3.9-1l-2.6-4.5c-0.8-1.4-0.3-3.1,1-3.9l24.5-14.2
	c1.4-0.8,3.1-0.3,3.9,1l2.6,4.5C158.5,185.9,158,187.6,156.7,188.4z"/>
</svg>
