<?xml version="1.0" encoding="utf-8"?>
<!-- Generator: Adobe Illustrator 19.0.0, SVG Export Plug-In . SVG Version: 6.00 Build 0)  -->
<svg version="1.1" id="Ebene_1" xmlns="http://www.w3.org/2000/svg" xmlns:xlink="http://www.w3.org/1999/xlink" x="0px" y="0px"
	 viewBox="-566 1013.8 283.5 99.2" style="enable-background:new -566 1013.8 283.5 99.2;" xml:space="preserve">
<style type="text/css">
	.st0{fill:#010202;}
	.st1{fill:#010203;}
	.st2{fill:#002620;}
	.st3{fill:#FFFFFF;}
	.st4{fill:none;stroke:#62F1AC;stroke-miterlimit:10;}
</style>
<g id="XMLID_3_">
	<path id="XMLID_83_" class="st0" d="M-473.3,1061.6c-0.1,0.5-0.3,0.9-0.4,1.4c-0.5,1.7-1,3.3-1.5,5c-0.1,0.2-0.1,0.3,0.2,0.3
		c0.2,0,0.5,0,0.7,0c0.6,0,0.9-0.2,1.1-0.7c0.2-0.6,0.3-1.2,0.5-1.8c1-3.3,1.9-6.6,2.9-9.8c0.1-0.2,0.1-0.2,0.3-0.2
		c0.7,0,1.3,0,2.1,0.1c1.5,0.3,2.1,1.2,2.2,2.7c0.1,1.1-0.3,2.2-1.1,3.1s-1.8,1.2-3,1.3c-0.2,0-0.4-0.1-0.4,0.3
		c0.3,0,0.6,0.1,0.9,0.2c1.2,0.3,1.9,1.3,1.9,2.6c-0.1,1.7-0.6,3.1-2,4.1c-0.8,0.6-1.7,0.9-2.7,1c-0.8,0.1-1.6,0.1-2.5,0.1
		c-3.1,0-6.1,0-9.2,0c-0.1,0-0.2,0-0.4,0c3.4-3.2,6.8-6.3,10.2-9.5C-473.4,1061.5-473.3,1061.5-473.3,1061.6z"/>
	<path id="XMLID_82_" class="st0" d="M-392.5,1058.5c1.1,0,2,0,2.9,0.2c1.6,0.3,2,1.5,1.8,2.7c-0.2,1.5-0.7,2.9-1.1,4.3
		c-0.3,1-0.5,2.1-1,3c-0.2,0.4-0.5,0.8-0.8,1.2c-0.6,0.8-1.5,1-2.5,1.1c-1.3,0.1-2.7,0.1-4.1,0c-0.7-0.1-1.3-0.2-1.7-0.7
		c-0.7-0.6-0.7-1.3-0.6-2.1c0.3-1.6,0.8-3.2,1.3-4.8c0.3-0.9,0.5-1.8,0.9-2.7c0.6-1.3,1.6-2,3-2.1
		C-393.7,1058.6-393.1,1058.6-392.5,1058.5z"/>
	<path id="XMLID_81_" class="st0" d="M-446.8,1071c-1.2,0-2.1,0-3.1,0c-0.2,0-0.3-0.1-0.2-0.3c1.1-3.9,2.3-7.9,3.4-11.8
		c0.1-0.1,0.1-0.2,0.3-0.2c1.9,0,3.8,0,5.8,0c0.4,0,0.7,0.1,1.1,0.1c1.5,0.3,1.9,1.5,1.8,2.7c-0.1,1.3-0.6,2.5-1,3.8
		c-0.3,1-0.5,2-0.9,3c-0.7,1.5-1.8,2.4-3.5,2.5C-444.4,1071.1-445.7,1071-446.8,1071z"/>
	<path id="XMLID_80_" class="st0" d="M-430,1058.7c-0.9,0.6-1.9,1.2-2.2,2.4c-0.6,2.2-1.3,4.4-1.9,6.6c-0.2,0.7,0.1,1.1,0.8,1.1
		c0.1,0,0.1,0,0.1,0c0.2,0.1,0.3-0.1,0.4-0.3c0.4-1.3,0.8-2.7,1.1-4c0.1-0.2,0.1-0.3,0.3-0.3c1.2,0,2.4,0,3.5,0
		c0.3,0,0.3,0.1,0.2,0.3c-0.6,2.1-1.2,4.1-1.8,6.3c-0.1,0.2-0.2,0.3-0.3,0.3c-1.5,0-3.1,0-4.7,0c-0.7,0-1.4-0.1-2.1-0.2
		c-1.2-0.3-2-1.3-1.9-2.6c0.1-1.4,0.6-2.7,1-4.1c0.3-1.1,0.6-2.2,1.1-3.3c0.4-0.9,0.9-1.7,1.9-2c0.7-0.3,1.4-0.3,2.1-0.3
		c0.7-0.1,1.4,0,2.1-0.1C-430,1058.6-430,1058.6-430,1058.7z"/>
	<path id="XMLID_79_" class="st0" d="M-410.1,1058.9c-0.2,0.2-0.3,0.3-0.6,0.5c-0.9,0.6-1.3,1.4-1.5,2.4c0,0.1-0.1,0.2-0.1,0.3
		c-0.1,0.4,0.1,0.6,0.4,0.8c0.3,0.2,0.8,0.2,1.2,0.3c0.6,0.1,1.2,0.3,1.8,0.6c0.7,0.3,0.9,0.8,1,1.5c0.1,1.2-0.2,2.3-0.7,3.4
		c-0.1,0.3-0.3,0.6-0.5,0.9c-0.5,0.9-1.2,1.3-2.1,1.5c-1.6,0.2-3.2,0.2-4.8,0.1c-1.5-0.2-2.2-1.3-1.9-2.8c0.1-0.5,0.2-0.9,0.4-1.4
		c0.1-0.1,0.1-0.2,0.2-0.2c1.3,0,2.5,0,3.8,0c-0.1,0.5-0.3,0.9-0.4,1.3c-0.1,0.4-0.1,0.7,0.2,0.7c0.3,0.2,0.9,0.1,1.1-0.2
		c0.3-0.6,0.5-1.2,0.6-1.9c0.1-0.3-0.1-0.5-0.4-0.6c-0.7-0.3-1.3-0.3-2-0.5c-0.2-0.1-0.4-0.1-0.6-0.2c-0.8-0.3-1.3-0.9-1.3-1.7
		c0-1.3,0.3-2.5,0.9-3.6c0.4-0.8,1.2-1.2,2.1-1.4c0.7-0.1,1.3-0.2,2.1-0.1c0.4-0.1,0.7,0,1.1-0.1c0.1,0,0.2,0.1,0.1,0.2
		C-410,1058.8-410.1,1058.9-410.1,1058.9z"/>
	<path id="XMLID_78_" class="st1" d="M-372.1,1064.6c0.2-0.2,0.4-0.3,0.6-0.5c0.5-0.4,1.1-0.7,1.7-0.7c0.6,0,1.3,0,1.9,0
		c0.2,0,0.2,0.1,0.2,0.2c-0.2,0.7-0.4,1.4-0.6,2.1c-0.1,0.2-0.1,0.2-0.3,0.2c-1.2,0-2.5,0-3.8,0c-0.2,0-0.3,0.1-0.3,0.3
		c-0.1,0.4-0.3,0.9-0.4,1.3c-0.2,0.7,0.1,0.9,0.7,1c1.1,0.1,2.1,0.1,3.2,0c0.2,0,0.3,0,0.2,0.3c-0.2,0.7-0.4,1.3-0.6,2
		c-0.1,0.2-0.1,0.3-0.3,0.3c-1.5,0-3.1,0-4.6,0c-0.5,0-1-0.1-1.5-0.3c-1-0.4-1.5-1.2-1.3-2.2c0.1-0.9,0.4-1.7,0.6-2.6
		c0.5-1.7,0.9-3.3,1.5-4.9c0.5-1.5,1.5-2.2,3.1-2.2c1.9,0,3.8,0,5.6,0c0.2,0,0.2,0.1,0.2,0.2c-0.2,0.7-0.4,1.3-0.6,2
		c-0.1,0.2-0.1,0.3-0.3,0.3c-1.1,0-2.1,0-3.1,0c-0.8,0-1.1,0.2-1.3,1C-371.6,1063.1-371.8,1063.8-372.1,1064.6
		C-372.1,1064.5-372.1,1064.6-372.1,1064.6z"/>
	<path id="XMLID_77_" class="st1" d="M-416.3,1058.7c-0.2,0.8-0.5,1.6-0.7,2.4c-0.1,0.2-0.2,0.1-0.3,0.1c-1,0-2.1,0-3.1,0
		c-0.1,0-0.3,0-0.4,0c-0.3,0.1-0.7,0.2-0.7,0.6c-0.3,0.9-0.6,1.9-0.9,2.9c0.3-0.3,0.6-0.5,0.9-0.7c0.4-0.3,1-0.5,1.5-0.5
		c0.7,0,1.5,0,2.2,0c-0.2,0.7-0.3,1.3-0.5,1.9c-0.1,0.5-0.1,0.5-0.7,0.5c-1.1,0-2.3,0-3.4,0c-0.2,0-0.3,0.1-0.3,0.2
		c-0.1,0.5-0.3,1-0.4,1.5c-0.2,0.6,0.1,0.9,0.7,0.9c1.1,0.1,2.2,0.1,3.3,0.1c0.2,0,0.3,0.1,0.2,0.3c-0.2,0.7-0.4,1.3-0.6,2.1
		c-0.1,0.2-0.1,0.2-0.3,0.2c-1.6,0-3.1,0-4.7,0c-0.5,0-1.1-0.1-1.5-0.3c-0.8-0.4-1.2-1.1-1.2-2c0.1-0.9,0.3-1.7,0.6-2.5
		c0.5-1.7,0.9-3.5,1.5-5.3c0.5-1.4,1.5-2.1,3-2.1C-420.2,1058.7-418.2,1058.7-416.3,1058.7z"/>
	<path id="XMLID_76_" class="st1" d="M-407.1,1071c0.2-0.7,0.4-1.4,0.6-2.1c0.5-1.7,1-3.5,1.5-5.2c0.2-0.7,0.7-1.3,1.3-1.8
		c0.3-0.2,0.5-0.4,0.8-0.7c-0.5,0-1,0-1.4,0c-0.6,0-1.2,0-1.8,0c-0.2,0-0.2-0.1-0.2-0.2c0.2-0.7,0.4-1.4,0.6-2.1
		c0.1-0.2,0.1-0.2,0.3-0.2c0.8,0,1.7,0,2.5,0c1.7,0,3.4,0,5.2,0c0.1,0,0.2,0,0.3,0c-0.2,0.8-0.5,1.6-0.7,2.4
		c-0.1,0.1-0.1,0.1-0.3,0.1c-0.5,0-1.1,0-1.6,0c-0.2,0-0.3,0.1-0.3,0.2c-0.9,3.1-1.8,6.2-2.7,9.2c-0.1,0.2-0.1,0.3-0.3,0.3
		C-404.5,1071-405.8,1071-407.1,1071z"/>
	<path id="XMLID_75_" class="st1" d="M-380,1058.9C-380,1058.9-380,1058.9-380,1058.9c-1,0.7-1.9,1.3-2.3,2.5
		c-0.8,3.1-1.8,6.2-2.7,9.4c-0.1,0.2-0.2,0.3-0.4,0.3c-1.2,0-2.5,0-3.8,0c0.2-0.7,0.4-1.4,0.6-2.1c1-3.3,1.9-6.7,2.9-10
		c0.1-0.2,0.1-0.3,0.3-0.3c2.1,0,4.2,0,6.3,0c0.1,0,0.3-0.1,0.4,0.1c-0.1,0.1-0.2,0.1-0.3,0.1
		C-379.2,1058.9-379.6,1058.9-380,1058.9z"/>
	<path id="XMLID_74_" class="st1" d="M-448.3,1058.7c-0.4,1.3-0.7,2.6-1.1,3.9c-0.8,2.7-1.6,5.4-2.4,8.2c-0.1,0.2-0.1,0.3-0.3,0.3
		c-1.3,0-2.5,0-3.9,0c-0.1-0.1,0.1-0.2,0.1-0.3c1.1-3.9,2.3-7.8,3.4-11.8c0.1-0.1,0.1-0.3,0.3-0.3
		C-450.9,1058.7-449.6,1058.7-448.3,1058.7C-448.4,1058.7-448.4,1058.7-448.3,1058.7z"/>
	<path id="XMLID_73_" class="st1" d="M-459.2,1059.7c-0.1,0.1-0.3,0.3-0.4,0.4c-0.3,0.3-0.4,0.6-0.6,1c-0.9,3.2-1.9,6.5-2.8,9.7
		c-0.1,0.2-0.1,0.3-0.3,0.3c-1.2,0-2.3,0-3.5,0c-0.2,0-0.3-0.1-0.2-0.3c1.1-3.9,2.3-7.9,3.4-11.8c0-0.1,0.1-0.1,0.1-0.1
		c0.1-0.1,0.1-0.1,0.2-0.1c1.6,0,3.3,0,4.9,0c0.1,0,0.1,0,0.1,0.1c-0.1,0.2-0.3,0.3-0.4,0.4
		C-458.8,1059.3-459.1,1059.5-459.2,1059.7z"/>
	<path id="XMLID_72_" class="st1" d="M-380,1058.9c0.1-0.1,0.2-0.1,0.4-0.1c0.3,0,0.7,0,1.1,0c1,0.1,1.8,0.6,2,1.5
		c0.1,0.6,0.1,1.2-0.1,1.8c-0.8,2.9-1.7,5.9-2.5,8.8c-0.1,0.2-0.1,0.2-0.3,0.2c-1.2,0-2.5,0-3.7,0c-0.2,0-0.3-0.1-0.2-0.3
		c1.1-3.9,2.2-7.8,3.4-11.7C-380,1059.1-380,1059-380,1058.9z"/>
	<path id="XMLID_71_" class="st1" d="M-459.2,1059.7c-0.1-0.2,0.1-0.3,0.2-0.4c0.2-0.1,0.4-0.3,0.7-0.5c-0.1,0-0.2,0-0.3,0
		c-1.5,0-3.1,0-4.5,0c-0.1,0-0.3,0-0.4,0.1c0-0.1,0.1-0.1,0.2-0.1c2.1,0,4.3,0,6.3,0c0.3,0,0.6,0.1,0.9,0.1c1.1,0.3,1.6,1.1,1.5,2.3
		c-0.1,0.6-0.2,1.2-0.5,1.7c-0.4,1-1.2,1.5-2.2,1.6c-0.2,0.1-0.4,0.1-0.7,0.1c-0.1,0-0.1,0.1-0.2,0.2s0.1,0.1,0.1,0.1
		c0.1,0.1,0.3,0.1,0.4,0.1c1.1,0.3,1.5,1.1,1.3,2.1c-0.2,1.3-0.6,2.5-0.9,3.7c-0.1,0.4-0.1,0.4-0.6,0.4c-1.3,0-2.5,0-3.9,0
		c1.2-4.1,2.3-8.1,3.5-12.2l-0.1-0.1C-458.4,1059.1-458.8,1059.4-459.2,1059.7z"/>
	<path id="XMLID_70_" class="st2" d="M-469.9,1055.7c-3.5,3.3-7.1,6.6-10.7,9.9c0,0-0.1,0-0.1-0.1c0.3-1.2,0.7-2.5,1.1-3.8
		c0.6-2,1.1-3.9,1.7-5.9c0.1-0.2,0.2-0.3,0.4-0.3c2.4,0,4.8,0,7.2,0C-470.1,1055.7-470,1055.6-469.9,1055.7z"/>
	<path id="XMLID_69_" class="st1" d="M-430,1058.7c-0.1-0.1-0.2-0.1-0.3-0.1c-0.7,0-1.3,0-1.9,0c0.4-0.1,0.8-0.1,1.3-0.1
		c1,0,1.9-0.1,2.9,0.2c1.1,0.2,1.7,1.1,1.5,2.2c-0.1,0.5-0.2,1-0.3,1.4c-0.1,0.2-0.1,0.3-0.3,0.3c-1.2,0-2.4,0-3.5,0
		c-0.3,0-0.3-0.1-0.2-0.3c0.3-1.1,0.7-2.3,1-3.4C-430,1058.9-430,1058.8-430,1058.7z"/>
	<path id="XMLID_68_" class="st1" d="M-410.1,1058.9c-0.1-0.1,0.1-0.2,0.1-0.3c-0.4,0-0.8,0-1.2,0c0.4-0.1,0.9-0.1,1.3-0.1
		c0.6,0,1.2,0.1,1.7,0.2c1.2,0.3,1.7,0.8,1.6,2c0,0.5-0.1,1.1-0.3,1.6c-0.1,0.1-0.1,0.2-0.2,0.2c-1.2,0-2.5,0-3.8,0
		c0.3-1.3,0.7-2.5,1.1-3.8C-409.9,1058.7-410,1058.9-410.1,1058.9z"/>
	<path id="XMLID_67_" class="st3" d="M-391.1,1058.7c0.1,0.1,0,0.2,0,0.3c-0.8,3-1.7,5.9-2.5,8.9c0,0.1-0.1,0.1-0.1,0.2
		c-0.2,0.7-0.5,0.8-1.2,0.7c-0.3-0.1-0.5-0.2-0.4-0.6c0.1-0.3,0.1-0.6,0.2-0.9c0.6-2.1,1.2-4.3,1.8-6.4c0.1-0.3,0.2-0.6,0.4-0.8
		C-392.3,1059.6-391.7,1059.1-391.1,1058.7z"/>
	<path id="XMLID_66_" class="st3" d="M-441.1,1058.9c-0.1,0.5-0.3,1-0.4,1.5c-0.7,2.5-1.4,4.9-2.1,7.4c-0.2,0.7-0.5,0.9-1.2,0.9
		c-0.6,0-0.6,0-0.4-0.6c0.7-2.3,1.3-4.7,2-7c0.2-0.7,0.6-1.1,1.1-1.5C-441.9,1059.4-441.5,1059.1-441.1,1058.9
		C-441.1,1058.9-441.1,1058.9-441.1,1058.9z"/>
</g>
<rect x="-551.8" y="1020.9" class="st4" width="255.1" height="85"/>
</svg>
