<?xml version="1.0" encoding="utf-8"?>
<!-- Generator: Adobe Illustrator 19.0.0, SVG Export Plug-In . SVG Version: 6.00 Build 0)  -->
<svg version="1.1" id="Ebene_1" xmlns="http://www.w3.org/2000/svg" xmlns:xlink="http://www.w3.org/1999/xlink" x="0px" y="0px"
	 viewBox="69 -663 1417.3 2126" style="enable-background:new 69 -663 1417.3 2126;" xml:space="preserve">
<style type="text/css">
	.st0{fill:#62F1AC;stroke:#FFFFFF;stroke-width:2;stroke-miterlimit:10;}
	.st1{fill:none;stroke:#FFFFFF;stroke-width:2;stroke-miterlimit:10;}
	.st2{fill:#62F1AC;stroke:#FFFFFF;stroke-width:5;stroke-miterlimit:10;}
	.st3{fill:none;stroke:#000000;stroke-width:5;stroke-linejoin:round;stroke-miterlimit:10;}
	.st4{fill:#FFFFFF;stroke:#1D1D1B;stroke-width:5;stroke-miterlimit:10;}
	.st5{fill:#FFFFFF;stroke:#000000;stroke-width:5;stroke-miterlimit:10;}
	.st6{fill:#62F1AC;stroke:#FFFFFF;stroke-linejoin:round;stroke-miterlimit:10;}
	.st7{fill:none;stroke:#000000;stroke-width:3;stroke-linejoin:round;stroke-miterlimit:10;}
	.st8{fill:none;stroke:#1D1D1B;stroke-linejoin:round;stroke-miterlimit:10;}
	.st9{fill:#FFFFFF;stroke:#1D1D1B;stroke-width:5;stroke-miterlimit:10;enable-background:new    ;}
	.st10{fill:none;stroke:#1D1D1B;stroke-miterlimit:10;}
	.st11{fill:none;stroke:#1D1D1B;stroke-width:3;stroke-linecap:round;stroke-miterlimit:10;}
	.st12{fill:#FFFFFF;stroke:#1D1D1B;stroke-width:3;stroke-linecap:round;stroke-linejoin:round;stroke-miterlimit:10;}
	.st13{fill:#62F1AC;}
	.st14{fill:none;stroke:#1D1D1B;stroke-width:5;stroke-miterlimit:10;}
</style>
<g id="XMLID_214_">
	<path id="XMLID_40_" class="st0" d="M1020.2,455.9h50.6c4.3,0,7.5-3.4,7.5-7.5v-15.2c0-4.3-3.4-7.5-7.5-7.5h-50.6
		c-4.3,0-7.5,3.4-7.5,7.5v15.2C1012.7,452.5,1016.4,455.9,1020.2,455.9z"/>
	<line id="XMLID_129_" class="st1" x1="1071.3" y1="451.3" x2="1019.7" y2="451.3"/>
	<line id="XMLID_128_" class="st1" x1="1071.3" y1="446.1" x2="1019.7" y2="446.1"/>
	<line id="XMLID_127_" class="st1" x1="1071.3" y1="440.9" x2="1019.7" y2="440.9"/>
	<line id="XMLID_126_" class="st1" x1="1071.3" y1="430.6" x2="1019.7" y2="430.6"/>
	<line id="XMLID_125_" class="st1" x1="1071.3" y1="435.8" x2="1019.7" y2="435.8"/>
</g>
<g id="XMLID_189_">
	<path id="XMLID_38_" class="st0" d="M1020.2,214.4h50.6c4.3,0,7.5-3.4,7.5-7.5v-15.2c0-4.3-3.4-7.5-7.5-7.5h-50.6
		c-4.3,0-7.5,3.4-7.5,7.5v15.2C1012.7,210.9,1016.4,214.4,1020.2,214.4z"/>
	<line id="XMLID_108_" class="st1" x1="1071.3" y1="209.8" x2="1019.7" y2="209.8"/>
	<line id="XMLID_107_" class="st1" x1="1071.3" y1="204.6" x2="1019.7" y2="204.6"/>
	<line id="XMLID_106_" class="st1" x1="1071.3" y1="199.4" x2="1019.7" y2="199.4"/>
	<line id="XMLID_105_" class="st1" x1="1071.3" y1="189.1" x2="1019.7" y2="189.1"/>
	<line id="XMLID_104_" class="st1" x1="1071.3" y1="194.2" x2="1019.7" y2="194.2"/>
</g>
<g id="XMLID_194_">
	<circle id="XMLID_12_" class="st2" cx="1032.3" cy="911.4" r="32.5"/>
	<path id="XMLID_142_" class="st3" d="M1112,809.7c-11.5-31.3-16.9-45.6-28.4-76.9c-8.3-20.4-8.3-20.4-34.3-20.3
		c-20.6-0.1-18-0.1-38.9,0l-49.5-0.6c-1.6,0-2.1,0.3-2.1,2.1c-0.1,20.4-0.2,41-0.1,61.4c0.1,22.5-0.3,45-0.1,67.7
		c0,1.9-0.5,2.4-2.4,2.4L817.3,845c-9.8-0.1-18,2.8-25.5,8.8c-9,7.1-15.7,16-21.1,26.1c-5.1,9.2-9.1,19.3-10.8,29.6
		c-0.3,1.9-0.3,3.2-0.6,5c0,1.3,0.3,1.9,1.6,1.9l15.3,0.1c1.3,0,1.6-0.5,1.9-1.6c0.6-5.8,3.6-18.8,5.7-23.8
		c4.8-11.3,10.7-18.2,25.8-22.6c13.5-4.2,26.5-0.4,35.4,7.1c7.6,6.4,9.7,12.2,13.9,20.5c0.8,1.3,1.6,1.9,3.2,1.9l125.7,1.3
		c1.6,0,2.4-0.5,2.9-2.1c2.4-6.6,8-16.6,22.6-25c0,0,24.1-9.4,40.5,3.9c11.3,9.3,16,17.8,17.8,35c0.3,2.1,1.3,4.2,1.8,6.6
		c0.3,1.3,0.8,1.9,2.1,1.9l24.9,0.1c6.1,0,10.9-5,11.4-11c0.3-5,0.3-10.3,0.4-15.3c0.1-11.9,0.1-23,0.2-34.1l0.3-44.5
		C1112.8,812.9,1112.5,811,1112,809.7z"/>
	<circle id="XMLID_10_" class="st2" cx="821.1" cy="910.1" r="32.5"/>
	<circle id="XMLID_9_" class="st2" cx="547.1" cy="908.5" r="32.5"/>
	<circle id="XMLID_8_" class="st2" cx="620.4" cy="908.9" r="32.5"/>
	<path id="XMLID_7_" class="st4" d="M435.9,829.7l486.6,2.9c4.2,0,7.4-3.4,7.5-7.4l1-158.8c0-4.2-3.4-7.4-7.4-7.5L437.2,656
		c-4.2,0-7.4,3.4-7.5,7.4l-1,158.8C428.5,826.2,431.9,829.7,435.9,829.7z"/>
	<path id="XMLID_6_" class="st5" d="M582.7,845c-16.9-0.1-104.3-0.2-121.2-0.6c-10.1-0.3-18.3,3.6-25.5,9.9
		c-13,12.4-21.1,27.4-24.9,44.8c-0.3,1.8-0.5,3.4-0.6,5.3c0,0.9,0.7,1.6,1.5,1.6l13.8,0.1c1.3,0,1.3-0.8,1.3-1.6
		c0.6-7.1,2.5-14.3,5.9-20.6c6.7-12.7,17.6-20,31.6-22.6c3.9-0.7,8.8-0.7,14.5-0.2c4.6,0.4,7.1,1.2,10,2.2c4.8,1.6,8.5,5.6,11,9.2
		c0.3,0.4,0.5,1.7,0.5,1.7c0.7,3.1,0.4,2,10,2.1c4.7,0.1,9.9,1,10-2.3l0.3-1.2c0,0,2-4,4.2-6.1c1.7-1.6,5-4.1,8.2-4.8
		c9.5-2.1,17.9-2.2,27.8,0.8c3.7,1.1,4.9,1.7,7.1,3.5c2.1,1.8,3.2,3.3,4.6,6.1c0.3,0.5,0.8,0.8,0.8,1.3c0.2,2.1,0.8,1.9,2.1,1.9
		l13,0.1c1.1,0,1.9,0,1.9-1.3c0-1.1,0.8-1.8,1.6-2.6c4.8-5,10.4-7.6,17-9.2c14.8-3.1,28.3-0.4,40.2,9c9,6.9,13.9,16.8,16,27.9
		c0.5,2.4,0.8,4.8,1,6.9c0,1.1,0.5,1.6,1.6,1.3l13.8,0.1c1.3,0,1.6-0.5,1.6-1.6c-0.2-4.5-1-8.5-2.3-12.7
		c-4.4-14.3-11.2-27.1-22.3-37.4c-5.3-5.1-11.1-8.8-18.2-10.2c-1.9-0.3-3.4-0.5-5.3-0.6C617.3,845.2,600.1,845.1,582.7,845z"/>
	<circle id="XMLID_16_" class="st2" cx="472.6" cy="908" r="32.5"/>
	<circle id="XMLID_132_" class="st6" cx="472.6" cy="908" r="21.5"/>
	<circle id="XMLID_134_" class="st6" cx="547.1" cy="908.5" r="21.5"/>
	<circle id="XMLID_135_" class="st6" cx="620.4" cy="908.9" r="21.5"/>
	<circle id="XMLID_136_" class="st6" cx="821.1" cy="910.1" r="21.5"/>
	<circle id="XMLID_137_" class="st6" cx="1032.3" cy="911.4" r="21.5"/>
	<path id="XMLID_141_" class="st7" d="M1099.4,805.7c-13.8-1.7-27.5-2.8-41.3-4.5c-14.3-1.7-28.8-3.3-43.4-4.8
		c-1.9-0.3-2.1-0.8-2.1-2.4l0.3-55.6c0-2.4,0-2.4,2.7-2.4l57.7,0.3c1.6,0,2.4,0.5,2.9,2.1c7.5,22,15.3,44,22.9,65.8
		C1099.4,804.6,1099.6,805.1,1099.4,805.7z"/>
	<g id="XMLID_11_">
		<line id="XMLID_157_" class="st8" x1="894.7" y1="671" x2="893.8" y2="821.6"/>
		<line id="XMLID_156_" class="st8" x1="836.8" y1="670.7" x2="835.9" y2="821.3"/>
		<line id="XMLID_155_" class="st8" x1="778.8" y1="670.3" x2="777.9" y2="820.9"/>
		<line id="XMLID_153_" class="st8" x1="720.9" y1="670" x2="720" y2="820.6"/>
		<line id="XMLID_152_" class="st8" x1="663" y1="669.6" x2="662.1" y2="820.2"/>
		<line id="XMLID_151_" class="st8" x1="605" y1="669.3" x2="604.1" y2="819.9"/>
		<line id="XMLID_150_" class="st8" x1="547.1" y1="668.9" x2="546.2" y2="819.5"/>
		<line id="XMLID_149_" class="st8" x1="518.1" y1="668.8" x2="517.2" y2="819.3"/>
		<line id="XMLID_148_" class="st8" x1="460.2" y1="668.4" x2="459.3" y2="819"/>
		<line id="XMLID_146_" class="st8" x1="865.8" y1="670.9" x2="864.9" y2="821.4"/>
		<line id="XMLID_145_" class="st8" x1="807.8" y1="670.5" x2="806.9" y2="821.1"/>
		<line id="XMLID_144_" class="st8" x1="749.9" y1="670.2" x2="749" y2="820.7"/>
		<line id="XMLID_143_" class="st8" x1="691.9" y1="669.8" x2="691" y2="820.4"/>
		<line id="XMLID_138_" class="st8" x1="634" y1="669.5" x2="633.1" y2="820"/>
		<line id="XMLID_131_" class="st8" x1="576.1" y1="669.1" x2="575.2" y2="819.7"/>
		<line id="XMLID_130_" class="st8" x1="489.1" y1="668.6" x2="488.2" y2="819.2"/>
	</g>
	<circle id="XMLID_158_" class="st6" cx="472.6" cy="908" r="14.5"/>
	<circle id="XMLID_159_" class="st6" cx="472.6" cy="908" r="7.7"/>
	<circle id="XMLID_162_" class="st6" cx="547.1" cy="908.5" r="14.5"/>
	<circle id="XMLID_160_" class="st6" cx="547.1" cy="908.5" r="7.7"/>
	<circle id="XMLID_164_" class="st6" cx="620.4" cy="908.9" r="14.5"/>
	<circle id="XMLID_163_" class="st6" cx="620.4" cy="908.9" r="7.7"/>
	<circle id="XMLID_166_" class="st6" cx="821.1" cy="910.1" r="14.5"/>
	<circle id="XMLID_165_" class="st6" cx="821.1" cy="910.1" r="7.7"/>
	<circle id="XMLID_169_" class="st6" cx="1032.3" cy="911.4" r="14.5"/>
	<circle id="XMLID_167_" class="st6" cx="1032.3" cy="911.4" r="7.7"/>
</g>
<rect id="XMLID_43_" x="823.5" y="204.4" class="st4" width="17.6" height="229.9"/>
<rect id="XMLID_42_" x="797.2" y="270.5" class="st4" width="170.3" height="97.7"/>
<path id="XMLID_41_" class="st9" d="M982.8,434.3h132c8.4,0,15.2-6.9,15.2-15.2V219.6c0-8.4-6.9-15.2-15.2-15.2h-132
	c-8.4,0-15.2,6.9-15.2,15.2v199.5C967.6,427.4,974.4,434.3,982.8,434.3z"/>
<g id="XMLID_197_">
	<line id="XMLID_124_" class="st10" x1="1076.6" y1="401.7" x2="994" y2="401.7"/>
	<line id="XMLID_123_" class="st10" x1="1076.6" y1="379.7" x2="994" y2="379.7"/>
	<line id="XMLID_122_" class="st10" x1="1076.6" y1="357.8" x2="994" y2="357.8"/>
	<line id="XMLID_121_" class="st10" x1="1076.6" y1="335.8" x2="994" y2="335.8"/>
	<line id="XMLID_120_" class="st10" x1="1076.6" y1="313.9" x2="994" y2="313.9"/>
	<line id="XMLID_119_" class="st10" x1="1076.6" y1="291.9" x2="994" y2="291.9"/>
	<line id="XMLID_118_" class="st10" x1="1076.6" y1="269.9" x2="994" y2="269.9"/>
	<line id="XMLID_117_" class="st10" x1="1076.6" y1="259" x2="994" y2="259"/>
	<line id="XMLID_116_" class="st10" x1="1076.6" y1="237" x2="994" y2="237"/>
	<line id="XMLID_115_" class="st10" x1="1076.6" y1="390.7" x2="994" y2="390.7"/>
	<line id="XMLID_114_" class="st10" x1="1076.6" y1="368.8" x2="994" y2="368.8"/>
	<line id="XMLID_113_" class="st10" x1="1076.6" y1="346.8" x2="994" y2="346.8"/>
	<line id="XMLID_112_" class="st10" x1="1076.6" y1="324.8" x2="994" y2="324.8"/>
	<line id="XMLID_111_" class="st10" x1="1076.6" y1="302.9" x2="994" y2="302.9"/>
	<line id="XMLID_110_" class="st10" x1="1076.6" y1="280.9" x2="994" y2="280.9"/>
	<line id="XMLID_109_" class="st10" x1="1076.6" y1="248" x2="994" y2="248"/>
</g>
<g id="XMLID_182_">
	<path id="XMLID_37_" class="st0" d="M807,455.9h50.6c4.3,0,7.5-3.4,7.5-7.5v-15.2c0-4.3-3.4-7.5-7.5-7.5H807
		c-4.3,0-7.5,3.4-7.5,7.5v15.2C799.5,452.5,803.2,455.9,807,455.9z"/>
	<line id="XMLID_103_" class="st1" x1="858.1" y1="451.3" x2="806.6" y2="451.3"/>
	<line id="XMLID_102_" class="st1" x1="858.1" y1="446.1" x2="806.6" y2="446.1"/>
	<line id="XMLID_101_" class="st1" x1="858.1" y1="440.9" x2="806.6" y2="440.9"/>
	<line id="XMLID_100_" class="st1" x1="858.1" y1="430.6" x2="806.6" y2="430.6"/>
	<line id="XMLID_99_" class="st1" x1="858.1" y1="435.8" x2="806.6" y2="435.8"/>
</g>
<g id="XMLID_175_">
	<path id="XMLID_36_" class="st0" d="M807,214.4h50.6c4.3,0,7.5-3.4,7.5-7.5v-15.2c0-4.3-3.4-7.5-7.5-7.5H807
		c-4.3,0-7.5,3.4-7.5,7.5v15.2C799.5,210.9,803.2,214.4,807,214.4z"/>
	<line id="XMLID_98_" class="st1" x1="858.1" y1="209.8" x2="806.6" y2="209.8"/>
	<line id="XMLID_97_" class="st1" x1="858.1" y1="204.6" x2="806.6" y2="204.6"/>
	<line id="XMLID_96_" class="st1" x1="858.1" y1="199.4" x2="806.6" y2="199.4"/>
	<line id="XMLID_95_" class="st1" x1="858.1" y1="189.1" x2="806.6" y2="189.1"/>
	<line id="XMLID_94_" class="st1" x1="858.1" y1="194.2" x2="806.6" y2="194.2"/>
</g>
<path id="XMLID_45_" class="st11" d="M985.8,416h95.5c5.1,0,9.2-4,9.2-8.9V231.6c0-4.9-4.1-8.9-9.2-8.9h-95.5"/>
<path id="XMLID_44_" class="st12" d="M1099.5,231.5v175.7c0,4.8,4,8.8,8.8,8.8h7.2c4.8,0,8.8-4,8.8-8.8V231.5c0-4.8-4-8.8-8.8-8.8
	h-7.2C1103.5,222.7,1099.5,226.7,1099.5,231.5z"/>
<g id="XMLID_191_">
	<path id="XMLID_192_" class="st13" d="M531.9-29h-61.1c-29.1,0-52.6-23.6-52.6-52.6v-105c0-29.1,23.5-52.6,52.6-52.6h61.1V-29
		L531.9-29z"/>
	<path id="XMLID_190_" class="st14" d="M1083.1-28.8H472.2c-29.7,0-54-24.3-54-54v-102.4c0-29.7,24.3-54,54-54h610.9
		c29.7,0,54,24.3,54,54v102.5C1137.1-53.1,1112.8-28.8,1083.1-28.8z"/>
</g>
</svg>
