<?xml version="1.0" encoding="utf-8"?>
<!-- Generator: Adobe Illustrator 19.0.0, SVG Export Plug-In . SVG Version: 6.00 Build 0)  -->
<svg version="1.1" id="Ebene_1" xmlns="http://www.w3.org/2000/svg" xmlns:xlink="http://www.w3.org/1999/xlink" x="0px" y="0px"
	 viewBox="0 0 1417.3 2126" style="enable-background:new 0 0 1417.3 2126;" xml:space="preserve">
<style type="text/css">
	.st0{fill:#62F1AC;stroke:#FFFFFF;stroke-width:5;stroke-miterlimit:10;}
	.st1{fill:none;stroke:#000000;stroke-width:5;stroke-linejoin:round;stroke-miterlimit:10;}
	.st2{fill:#FFFFFF;stroke:#1D1D1B;stroke-width:5;stroke-miterlimit:10;}
	.st3{fill:#FFFFFF;stroke:#000000;stroke-width:5;stroke-miterlimit:10;}
	.st4{fill:#62F1AC;stroke:#FFFFFF;stroke-linejoin:round;stroke-miterlimit:10;}
	.st5{fill:none;stroke:#000000;stroke-width:3;stroke-linejoin:round;stroke-miterlimit:10;}
	.st6{fill:#FFFFFF;stroke:#1D1D1B;stroke-linejoin:round;stroke-miterlimit:10;}
	.st7{opacity:0.9;fill:none;stroke:#1D1D1B;stroke-width:5;stroke-miterlimit:10;enable-background:new    ;}
	.st8{fill:#62F1AC;stroke:#FFFFFF;stroke-width:2;stroke-miterlimit:10;}
	.st9{fill:none;stroke:#FFFFFF;stroke-width:2;stroke-miterlimit:10;}
	.st10{fill:none;stroke:#1D1D1B;stroke-miterlimit:10;}
	.st11{fill:#FFFFFF;stroke:#1D1D1B;stroke-width:5;stroke-miterlimit:10;enable-background:new    ;}
	.st12{fill:none;stroke:#1D1D1B;stroke-width:3;stroke-linecap:round;stroke-miterlimit:10;}
	.st13{fill:#FFFFFF;stroke:#1D1D1B;stroke-width:3;stroke-linecap:round;stroke-linejoin:round;stroke-miterlimit:10;}
	.st14{fill:#62F1AC;}
	.st15{fill:none;stroke:#1D1D1B;stroke-width:5;stroke-miterlimit:10;}
</style>
<g id="XMLID_194_">
	<circle id="XMLID_12_" class="st0" cx="963.3" cy="1574.4" r="32.5"/>
	<path id="XMLID_142_" class="st1" d="M1043,1472.7c-11.5-31.3-16.9-45.6-28.4-76.9c-8.3-20.4-8.3-20.4-34.3-20.3
		c-20.6-0.1-18-0.1-38.9,0l-49.5-0.6c-1.6,0-2.1,0.3-2.1,2.1c-0.1,20.4-0.2,41-0.1,61.4c0.1,22.5-0.3,45-0.1,67.7
		c0,1.9-0.5,2.4-2.4,2.4l-138.9-0.5c-9.8-0.1-18,2.8-25.5,8.8c-9,7.1-15.7,16-21.1,26.1c-5.1,9.2-9.1,19.3-10.8,29.6
		c-0.3,1.9-0.3,3.2-0.6,5c0,1.3,0.3,1.9,1.6,1.9l15.3,0.1c1.3,0,1.6-0.5,1.9-1.6c0.6-5.8,3.6-18.8,5.7-23.8
		c4.8-11.3,10.7-18.2,25.8-22.6c13.5-4.2,26.5-0.4,35.4,7.1c7.6,6.4,9.7,12.2,13.9,20.5c0.8,1.3,1.6,1.9,3.2,1.9l125.7,1.3
		c1.6,0,2.4-0.5,2.9-2.1c2.4-6.6,8-16.6,22.6-25c0,0,24.1-9.4,40.5,3.9c11.3,9.3,16,17.8,17.8,35c0.3,2.1,1.3,4.2,1.8,6.6
		c0.3,1.3,0.8,1.9,2.1,1.9l24.9,0.1c6.1,0,10.9-5,11.4-11c0.3-5,0.3-10.3,0.4-15.3c0.1-11.9,0.1-23,0.2-34.1l0.3-44.5
		C1043.8,1475.9,1043.5,1474,1043,1472.7z"/>
	<circle id="XMLID_10_" class="st0" cx="752.1" cy="1573.1" r="32.5"/>
	<circle id="XMLID_9_" class="st0" cx="478.1" cy="1571.5" r="32.5"/>
	<circle id="XMLID_8_" class="st0" cx="551.4" cy="1571.9" r="32.5"/>
	<path id="XMLID_7_" class="st2" d="M366.9,1492.7l486.6,2.9c4.2,0,7.4-3.4,7.5-7.4l1-158.8c0-4.2-3.4-7.4-7.4-7.5l-486.4-2.9
		c-4.2,0-7.4,3.4-7.5,7.4l-1,158.8C359.5,1489.2,362.9,1492.7,366.9,1492.7z"/>
	<path id="XMLID_6_" class="st3" d="M513.7,1508c-16.9-0.1-104.3-0.2-121.2-0.6c-10.1-0.3-18.3,3.6-25.5,9.9
		c-13,12.4-21.1,27.4-24.9,44.8c-0.3,1.8-0.5,3.4-0.6,5.3c0,0.9,0.7,1.6,1.5,1.6l13.8,0.1c1.3,0,1.3-0.8,1.3-1.6
		c0.6-7.1,2.5-14.3,5.9-20.6c6.7-12.7,17.6-20,31.6-22.6c3.9-0.7,8.8-0.7,14.5-0.2c4.6,0.4,7.1,1.2,10,2.2c4.8,1.6,8.5,5.6,11,9.2
		c0.3,0.4,0.5,1.7,0.5,1.7c0.7,3.1,0.4,2,10,2.1c4.7,0.1,9.9,1,10-2.3l0.3-1.2c0,0,2-4,4.2-6.1c1.7-1.6,5-4.1,8.2-4.8
		c9.5-2.1,17.9-2.2,27.8,0.8c3.7,1.1,4.9,1.7,7.1,3.5c2.1,1.8,3.2,3.3,4.6,6.1c0.3,0.5,0.8,0.8,0.8,1.3c0.2,2.1,0.8,1.9,2.1,1.9
		l13,0.1c1.1,0,1.9,0,1.9-1.3c0-1.1,0.8-1.8,1.6-2.6c4.8-5,10.4-7.6,17-9.2c14.8-3.1,28.3-0.4,40.2,9c9,6.9,13.9,16.8,16,27.9
		c0.5,2.4,0.8,4.8,1,6.9c0,1.1,0.5,1.6,1.6,1.3l13.8,0.1c1.3,0,1.6-0.5,1.6-1.6c-0.2-4.5-1-8.5-2.3-12.7
		c-4.4-14.3-11.2-27.1-22.3-37.4c-5.3-5.1-11.1-8.8-18.2-10.2c-1.9-0.3-3.4-0.5-5.3-0.6C548.3,1508.2,531.1,1508.1,513.7,1508z"/>
	<circle id="XMLID_16_" class="st0" cx="403.6" cy="1571" r="32.5"/>
	<circle id="XMLID_132_" class="st4" cx="403.6" cy="1571" r="21.5"/>
	<circle id="XMLID_134_" class="st4" cx="478.1" cy="1571.5" r="21.5"/>
	<circle id="XMLID_135_" class="st4" cx="551.4" cy="1571.9" r="21.5"/>
	<circle id="XMLID_136_" class="st4" cx="752.1" cy="1573.1" r="21.5"/>
	<circle id="XMLID_137_" class="st4" cx="963.3" cy="1574.4" r="21.5"/>
	<path id="XMLID_141_" class="st5" d="M1030.4,1468.7c-13.8-1.7-27.5-2.8-41.3-4.5c-14.3-1.7-28.8-3.3-43.4-4.8
		c-1.9-0.3-2.1-0.8-2.1-2.4l0.3-55.6c0-2.4,0-2.4,2.7-2.4l57.7,0.3c1.6,0,2.4,0.5,2.9,2.1c7.5,22,15.3,44,22.9,65.8
		C1030.4,1467.6,1030.6,1468.1,1030.4,1468.7z"/>
	<g id="XMLID_11_">
		<line id="XMLID_157_" class="st6" x1="825.7" y1="1334" x2="824.8" y2="1484.6"/>
		<line id="XMLID_156_" class="st6" x1="767.8" y1="1333.7" x2="766.9" y2="1484.3"/>
		<line id="XMLID_155_" class="st6" x1="709.8" y1="1333.3" x2="708.9" y2="1483.9"/>
		<line id="XMLID_153_" class="st6" x1="651.9" y1="1333" x2="651" y2="1483.6"/>
		<line id="XMLID_152_" class="st6" x1="594" y1="1332.6" x2="593.1" y2="1483.2"/>
		<line id="XMLID_151_" class="st6" x1="536" y1="1332.3" x2="535.1" y2="1482.9"/>
		<line id="XMLID_150_" class="st6" x1="478.1" y1="1331.9" x2="477.2" y2="1482.5"/>
		<line id="XMLID_149_" class="st6" x1="449.1" y1="1331.8" x2="448.2" y2="1482.3"/>
		<line id="XMLID_148_" class="st6" x1="391.2" y1="1331.4" x2="390.3" y2="1482"/>
		<line id="XMLID_146_" class="st6" x1="796.8" y1="1333.9" x2="795.9" y2="1484.4"/>
		<line id="XMLID_145_" class="st6" x1="738.8" y1="1333.5" x2="737.9" y2="1484.1"/>
		<line id="XMLID_144_" class="st6" x1="680.9" y1="1333.2" x2="680" y2="1483.7"/>
		<line id="XMLID_143_" class="st6" x1="622.9" y1="1332.8" x2="622" y2="1483.4"/>
		<line id="XMLID_138_" class="st6" x1="565" y1="1332.5" x2="564.1" y2="1483"/>
		<line id="XMLID_131_" class="st6" x1="507.1" y1="1332.1" x2="506.2" y2="1482.7"/>
		<line id="XMLID_130_" class="st6" x1="420.1" y1="1331.6" x2="419.2" y2="1482.2"/>
	</g>
	<circle id="XMLID_158_" class="st4" cx="403.6" cy="1571" r="14.5"/>
	<circle id="XMLID_159_" class="st4" cx="403.6" cy="1571" r="7.7"/>
	<circle id="XMLID_162_" class="st4" cx="478.1" cy="1571.5" r="14.5"/>
	<circle id="XMLID_160_" class="st4" cx="478.1" cy="1571.5" r="7.7"/>
	<circle id="XMLID_164_" class="st4" cx="551.4" cy="1571.9" r="14.5"/>
	<circle id="XMLID_163_" class="st4" cx="551.4" cy="1571.9" r="7.7"/>
	<circle id="XMLID_166_" class="st4" cx="752.1" cy="1573.1" r="14.5"/>
	<circle id="XMLID_165_" class="st4" cx="752.1" cy="1573.1" r="7.7"/>
	<circle id="XMLID_169_" class="st4" cx="963.3" cy="1574.4" r="14.5"/>
	<circle id="XMLID_167_" class="st4" cx="963.3" cy="1574.4" r="7.7"/>
</g>
<g id="XMLID_193_">
	<rect id="XMLID_43_" x="754.5" y="867.4" class="st2" width="17.6" height="229.9"/>
	<rect id="XMLID_42_" x="728.2" y="933.5" class="st2" width="170.3" height="97.7"/>
	<path id="XMLID_41_" class="st7" d="M913.8,1097.3h132c8.4,0,15.2-6.9,15.2-15.2V882.6c0-8.4-6.9-15.2-15.2-15.2h-132
		c-8.4,0-15.2,6.9-15.2,15.2v199.5C898.6,1090.4,905.4,1097.3,913.8,1097.3z"/>
	<g id="XMLID_214_">
		<path id="XMLID_40_" class="st8" d="M951.2,1118.9h50.6c4.3,0,7.5-3.4,7.5-7.5v-15.2c0-4.3-3.4-7.5-7.5-7.5h-50.6
			c-4.3,0-7.5,3.4-7.5,7.5v15.2C943.7,1115.5,947.4,1118.9,951.2,1118.9z"/>
		<line id="XMLID_129_" class="st9" x1="1002.3" y1="1114.3" x2="950.7" y2="1114.3"/>
		<line id="XMLID_128_" class="st9" x1="1002.3" y1="1109.1" x2="950.7" y2="1109.1"/>
		<line id="XMLID_127_" class="st9" x1="1002.3" y1="1103.9" x2="950.7" y2="1103.9"/>
		<line id="XMLID_126_" class="st9" x1="1002.3" y1="1093.6" x2="950.7" y2="1093.6"/>
		<line id="XMLID_125_" class="st9" x1="1002.3" y1="1098.8" x2="950.7" y2="1098.8"/>
	</g>
	<g id="XMLID_197_">
		<line id="XMLID_124_" class="st10" x1="1007.6" y1="1064.7" x2="925" y2="1064.7"/>
		<line id="XMLID_123_" class="st10" x1="1007.6" y1="1042.7" x2="925" y2="1042.7"/>
		<line id="XMLID_122_" class="st10" x1="1007.6" y1="1020.8" x2="925" y2="1020.8"/>
		<line id="XMLID_121_" class="st10" x1="1007.6" y1="998.8" x2="925" y2="998.8"/>
		<line id="XMLID_120_" class="st10" x1="1007.6" y1="976.9" x2="925" y2="976.9"/>
		<line id="XMLID_119_" class="st10" x1="1007.6" y1="954.9" x2="925" y2="954.9"/>
		<line id="XMLID_118_" class="st10" x1="1007.6" y1="932.9" x2="925" y2="932.9"/>
		<line id="XMLID_117_" class="st10" x1="1007.6" y1="922" x2="925" y2="922"/>
		<line id="XMLID_116_" class="st10" x1="1007.6" y1="900" x2="925" y2="900"/>
		<line id="XMLID_115_" class="st10" x1="1007.6" y1="1053.7" x2="925" y2="1053.7"/>
		<line id="XMLID_114_" class="st10" x1="1007.6" y1="1031.8" x2="925" y2="1031.8"/>
		<line id="XMLID_113_" class="st10" x1="1007.6" y1="1009.8" x2="925" y2="1009.8"/>
		<line id="XMLID_112_" class="st10" x1="1007.6" y1="987.8" x2="925" y2="987.8"/>
		<line id="XMLID_111_" class="st10" x1="1007.6" y1="965.9" x2="925" y2="965.9"/>
		<line id="XMLID_110_" class="st10" x1="1007.6" y1="943.9" x2="925" y2="943.9"/>
		<line id="XMLID_109_" class="st10" x1="1007.6" y1="911" x2="925" y2="911"/>
	</g>
	<path id="XMLID_39_" class="st11" d="M365.8,1097.2h490.2c4.3,0,7.5-3.4,7.5-7.5V875c0-4.3-3.4-7.5-7.5-7.5H365.8
		c-4.3,0-7.5,3.4-7.5,7.5v214.7C358.1,1093.8,361.8,1097.2,365.8,1097.2z"/>
	<g id="XMLID_189_">
		<path id="XMLID_38_" class="st8" d="M951.2,877.4h50.6c4.3,0,7.5-3.4,7.5-7.5v-15.2c0-4.3-3.4-7.5-7.5-7.5h-50.6
			c-4.3,0-7.5,3.4-7.5,7.5v15.2C943.7,873.9,947.4,877.4,951.2,877.4z"/>
		<line id="XMLID_108_" class="st9" x1="1002.3" y1="872.8" x2="950.7" y2="872.8"/>
		<line id="XMLID_107_" class="st9" x1="1002.3" y1="867.6" x2="950.7" y2="867.6"/>
		<line id="XMLID_106_" class="st9" x1="1002.3" y1="862.4" x2="950.7" y2="862.4"/>
		<line id="XMLID_105_" class="st9" x1="1002.3" y1="852.1" x2="950.7" y2="852.1"/>
		<line id="XMLID_104_" class="st9" x1="1002.3" y1="857.2" x2="950.7" y2="857.2"/>
	</g>
	<g id="XMLID_182_">
		<path id="XMLID_37_" class="st8" d="M738,1118.9h50.6c4.3,0,7.5-3.4,7.5-7.5v-15.2c0-4.3-3.4-7.5-7.5-7.5H738
			c-4.3,0-7.5,3.4-7.5,7.5v15.2C730.5,1115.5,734.2,1118.9,738,1118.9z"/>
		<line id="XMLID_103_" class="st9" x1="789.1" y1="1114.3" x2="737.6" y2="1114.3"/>
		<line id="XMLID_102_" class="st9" x1="789.1" y1="1109.1" x2="737.6" y2="1109.1"/>
		<line id="XMLID_101_" class="st9" x1="789.1" y1="1103.9" x2="737.6" y2="1103.9"/>
		<line id="XMLID_100_" class="st9" x1="789.1" y1="1093.6" x2="737.6" y2="1093.6"/>
		<line id="XMLID_99_" class="st9" x1="789.1" y1="1098.8" x2="737.6" y2="1098.8"/>
	</g>
	<g id="XMLID_175_">
		<path id="XMLID_36_" class="st8" d="M738,877.4h50.6c4.3,0,7.5-3.4,7.5-7.5v-15.2c0-4.3-3.4-7.5-7.5-7.5H738
			c-4.3,0-7.5,3.4-7.5,7.5v15.2C730.5,873.9,734.2,877.4,738,877.4z"/>
		<line id="XMLID_98_" class="st9" x1="789.1" y1="872.8" x2="737.6" y2="872.8"/>
		<line id="XMLID_97_" class="st9" x1="789.1" y1="867.6" x2="737.6" y2="867.6"/>
		<line id="XMLID_96_" class="st9" x1="789.1" y1="862.4" x2="737.6" y2="862.4"/>
		<line id="XMLID_95_" class="st9" x1="789.1" y1="852.1" x2="737.6" y2="852.1"/>
		<line id="XMLID_94_" class="st9" x1="789.1" y1="857.2" x2="737.6" y2="857.2"/>
	</g>
	<g id="XMLID_168_">
		<path id="XMLID_35_" class="st8" d="M579.3,1118.9h50.6c4.3,0,7.5-3.4,7.5-7.5v-15.2c0-4.3-3.4-7.5-7.5-7.5h-50.6
			c-4.3,0-7.5,3.4-7.5,7.5v15.2C571.8,1115.5,575.5,1118.9,579.3,1118.9z"/>
		<line id="XMLID_93_" class="st9" x1="630.4" y1="1114.3" x2="578.8" y2="1114.3"/>
		<line id="XMLID_92_" class="st9" x1="630.4" y1="1109.1" x2="578.8" y2="1109.1"/>
		<line id="XMLID_91_" class="st9" x1="630.4" y1="1103.9" x2="578.8" y2="1103.9"/>
		<line id="XMLID_90_" class="st9" x1="630.4" y1="1093.6" x2="578.8" y2="1093.6"/>
		<line id="XMLID_89_" class="st9" x1="630.4" y1="1098.8" x2="578.8" y2="1098.8"/>
	</g>
	<g id="XMLID_161_">
		<path id="XMLID_34_" class="st8" d="M579.3,877.4h50.6c4.3,0,7.5-3.4,7.5-7.5v-15.2c0-4.3-3.4-7.5-7.5-7.5h-50.6
			c-4.3,0-7.5,3.4-7.5,7.5v15.2C571.8,873.9,575.5,877.4,579.3,877.4z"/>
		<line id="XMLID_88_" class="st9" x1="630.4" y1="872.8" x2="578.8" y2="872.8"/>
		<line id="XMLID_87_" class="st9" x1="630.4" y1="867.6" x2="578.8" y2="867.6"/>
		<line id="XMLID_86_" class="st9" x1="630.4" y1="862.4" x2="578.8" y2="862.4"/>
		<line id="XMLID_85_" class="st9" x1="630.4" y1="852.1" x2="578.8" y2="852.1"/>
		<line id="XMLID_84_" class="st9" x1="630.4" y1="857.2" x2="578.8" y2="857.2"/>
	</g>
	<g id="XMLID_154_">
		<path id="XMLID_33_" class="st8" d="M494.7,1118.9h50.6c4.3,0,7.5-3.4,7.5-7.5v-15.2c0-4.3-3.4-7.5-7.5-7.5h-50.6
			c-4.3,0-7.5,3.4-7.5,7.5v15.2C487.2,1115.5,490.8,1118.9,494.7,1118.9z"/>
		<line id="XMLID_83_" class="st9" x1="545.7" y1="1114.3" x2="494.2" y2="1114.3"/>
		<line id="XMLID_82_" class="st9" x1="545.7" y1="1109.1" x2="494.2" y2="1109.1"/>
		<line id="XMLID_81_" class="st9" x1="545.7" y1="1103.9" x2="494.2" y2="1103.9"/>
		<line id="XMLID_80_" class="st9" x1="545.7" y1="1093.6" x2="494.2" y2="1093.6"/>
		<line id="XMLID_79_" class="st9" x1="545.7" y1="1098.8" x2="494.2" y2="1098.8"/>
	</g>
	<g id="XMLID_147_">
		<path id="XMLID_32_" class="st8" d="M494.7,877.4h50.6c4.3,0,7.5-3.4,7.5-7.5v-15.2c0-4.3-3.4-7.5-7.5-7.5h-50.6
			c-4.3,0-7.5,3.4-7.5,7.5v15.2C487.2,873.9,490.8,877.4,494.7,877.4z"/>
		<line id="XMLID_78_" class="st9" x1="545.7" y1="872.8" x2="494.2" y2="872.8"/>
		<line id="XMLID_77_" class="st9" x1="545.7" y1="867.6" x2="494.2" y2="867.6"/>
		<line id="XMLID_76_" class="st9" x1="545.7" y1="862.4" x2="494.2" y2="862.4"/>
		<line id="XMLID_75_" class="st9" x1="545.7" y1="852.1" x2="494.2" y2="852.1"/>
		<line id="XMLID_74_" class="st9" x1="545.7" y1="857.2" x2="494.2" y2="857.2"/>
	</g>
	<g id="XMLID_140_">
		<path id="XMLID_31_" class="st8" d="M403.8,1118.9h50.6c4.3,0,7.5-3.4,7.5-7.5v-15.2c0-4.3-3.4-7.5-7.5-7.5h-50.6
			c-4.3,0-7.5,3.4-7.5,7.5v15.2C396.3,1115.5,400,1118.9,403.8,1118.9z"/>
		<line id="XMLID_73_" class="st9" x1="454.9" y1="1114.3" x2="403.4" y2="1114.3"/>
		<line id="XMLID_72_" class="st9" x1="454.9" y1="1109.1" x2="403.4" y2="1109.1"/>
		<line id="XMLID_71_" class="st9" x1="454.9" y1="1103.9" x2="403.4" y2="1103.9"/>
		<line id="XMLID_70_" class="st9" x1="454.9" y1="1093.6" x2="403.4" y2="1093.6"/>
		<line id="XMLID_69_" class="st9" x1="454.9" y1="1098.8" x2="403.4" y2="1098.8"/>
	</g>
	<g id="XMLID_133_">
		<path id="XMLID_28_" class="st8" d="M403.8,877.4h50.6c4.3,0,7.5-3.4,7.5-7.5v-15.2c0-4.3-3.4-7.5-7.5-7.5h-50.6
			c-4.3,0-7.5,3.4-7.5,7.5v15.2C396.3,873.9,400,877.4,403.8,877.4z"/>
		<line id="XMLID_68_" class="st9" x1="454.9" y1="872.8" x2="403.4" y2="872.8"/>
		<line id="XMLID_67_" class="st9" x1="454.9" y1="867.6" x2="403.4" y2="867.6"/>
		<line id="XMLID_66_" class="st9" x1="454.9" y1="862.4" x2="403.4" y2="862.4"/>
		<line id="XMLID_65_" class="st9" x1="454.9" y1="852.1" x2="403.4" y2="852.1"/>
		<line id="XMLID_64_" class="st9" x1="454.9" y1="857.2" x2="403.4" y2="857.2"/>
	</g>
	<path id="XMLID_45_" class="st12" d="M916.8,1079h95.5c5.1,0,9.2-4,9.2-8.9V894.6c0-4.9-4.1-8.9-9.2-8.9h-95.5"/>
	<path id="XMLID_44_" class="st13" d="M1030.5,894.5v175.7c0,4.8,4,8.8,8.8,8.8h7.2c4.8,0,8.8-4,8.8-8.8V894.5c0-4.8-4-8.8-8.8-8.8
		h-7.2C1034.5,885.7,1030.5,889.7,1030.5,894.5z"/>
	<g id="XMLID_170_">
		<line id="XMLID_188_" class="st6" x1="832.7" y1="887.1" x2="832.7" y2="1066.7"/>
		<line id="XMLID_187_" class="st6" x1="773.6" y1="887.1" x2="773.6" y2="1066.7"/>
		<line id="XMLID_186_" class="st6" x1="714.4" y1="887.1" x2="714.4" y2="1066.7"/>
		<line id="XMLID_185_" class="st6" x1="655.3" y1="887.1" x2="655.3" y2="1066.7"/>
		<line id="XMLID_184_" class="st6" x1="596.2" y1="887.1" x2="596.2" y2="1066.7"/>
		<line id="XMLID_183_" class="st6" x1="537" y1="887.1" x2="537" y2="1066.7"/>
		<line id="XMLID_181_" class="st6" x1="477.9" y1="887.1" x2="477.9" y2="1066.7"/>
		<line id="XMLID_180_" class="st6" x1="448.3" y1="887.1" x2="448.3" y2="1066.7"/>
		<line id="XMLID_179_" class="st6" x1="389.2" y1="887.1" x2="389.2" y2="1066.7"/>
		<line id="XMLID_178_" class="st6" x1="803.1" y1="887.1" x2="803.1" y2="1066.7"/>
		<line id="XMLID_177_" class="st6" x1="744" y1="887.1" x2="744" y2="1066.7"/>
		<line id="XMLID_176_" class="st6" x1="684.9" y1="887.1" x2="684.9" y2="1066.7"/>
		<line id="XMLID_174_" class="st6" x1="625.7" y1="887.1" x2="625.7" y2="1066.7"/>
		<line id="XMLID_173_" class="st6" x1="566.6" y1="887.1" x2="566.6" y2="1066.7"/>
		<line id="XMLID_172_" class="st6" x1="507.5" y1="887.1" x2="507.5" y2="1066.7"/>
		<line id="XMLID_171_" class="st6" x1="418.8" y1="887.1" x2="418.8" y2="1066.7"/>
	</g>
</g>
<g id="XMLID_191_">
	<path id="XMLID_192_" class="st14" d="M462.9,634h-61.1c-29.1,0-52.6-23.6-52.6-52.6V476.4c0-29.1,23.5-52.6,52.6-52.6h61.1
		L462.9,634L462.9,634z"/>
	<path id="XMLID_190_" class="st15" d="M1014.1,634.2H403.2c-29.7,0-54-24.3-54-54V477.8c0-29.7,24.3-54,54-54h610.9
		c29.7,0,54,24.3,54,54v102.5C1068.1,609.9,1043.8,634.2,1014.1,634.2z"/>
</g>
</svg>
