<?xml version="1.0" encoding="utf-8"?>
<!-- Generator: Adobe Illustrator 19.0.0, SVG Export Plug-In . SVG Version: 6.00 Build 0)  -->
<svg version="1.1" id="Ebene_1" xmlns="http://www.w3.org/2000/svg" xmlns:xlink="http://www.w3.org/1999/xlink" x="0px" y="0px"
	 viewBox="0 0 1417.3 2126" style="enable-background:new 0 0 1417.3 2126;" xml:space="preserve">
<style type="text/css">
	.st0{fill:none;stroke:#1D1D1B;stroke-width:5;stroke-miterlimit:10;}
	.st1{fill:#FFFFFF;stroke:#62F1AC;stroke-width:5;stroke-miterlimit:10;}
	.st2{fill:none;stroke:#62F1AC;stroke-miterlimit:10;}
	.st3{fill:#62F1AC;}
	.st4{fill:none;stroke:#62F1AC;}
	.st5{fill:#FFFFFF;stroke:#62F1AC;stroke-miterlimit:10;}
	.st6{fill:#FFFFFF;}
</style>
<path id="XMLID_1_" class="st0" d="M1087.9,1199.5H329.5c-46.8,0-85-38.3-85-85V722c0-46.8,38.3-85,85-85h758.4
	c46.8,0,85,38.3,85,85v392.4C1172.9,1161.2,1134.6,1199.5,1087.9,1199.5z"/>
<path id="XMLID_2_" class="st1" d="M567,954.4H330.6c-7.8,0-14.2-6.4-14.2-14.2V909c0-7.8,6.4-14.2,14.2-14.2H567
	c7.8,0,14.2,6.4,14.2,14.2v31.3C581.2,948.1,574.8,954.4,567,954.4z"/>
<path id="XMLID_72_" class="st1" d="M1092.9,954.4H917c-7.8,0-14.2-6.4-14.2-14.2V909c0-7.8,6.4-14.2,14.2-14.2h175.8
	c7.8,0,14.2,6.4,14.2,14.2v31.3C1107,948.1,1100.7,954.4,1092.9,954.4z"/>
<path id="XMLID_69_" class="st1" d="M861.3,954.4H624.9c-7.8,0-14.2-6.4-14.2-14.2V909c0-7.8,6.4-14.2,14.2-14.2h236.4
	c7.8,0,14.2,6.4,14.2,14.2v31.3C875.5,948.1,869.1,954.4,861.3,954.4z"/>
<g id="XMLID_3_">
	<g id="f4tWYY.tif_1_">
		<g id="XMLID_119_">
			<path id="XMLID_121_" class="st2" d="M-497.6,733.3c0.7,4.4,1.3,8.4,1.9,12.7c1.1-1,2-1.9,2.9-2.7c2.9,3.2,2.8,8.1-0.1,11.2
				c-3,3.2-7.9,3.7-11.4,1.1c-4.1-3.1-4.5-7.4-1.3-13c-1.6-1.6-3.1-3.2-4.7-4.8c-5.4,4.7-6,13.9-1.4,20.1c5.1,6.9,13.6,8.6,20.6,4.1
				c3.5-2.2,5.9-5.3,6.9-9.3c1.3-5.4,0.1-10.2-3.5-14.5c0.9-1,1.8-1.9,2.8-3C-489.2,734.6-493.2,734-497.6,733.3z"/>
			<path id="XMLID_120_" class="st2" d="M-497.6,733.3c4.4,0.7,8.4,1.3,12.7,1.9c-1.1,1.1-1.9,2-2.8,3c3.6,4.2,4.8,9.1,3.5,14.5
				c-1,4-3.4,7.1-6.9,9.3c-6.9,4.5-15.5,2.8-20.6-4.1c-4.6-6.2-3.9-15.4,1.4-20.1c1.5,1.6,3.1,3.2,4.7,4.8c-3.2,5.5-2.8,9.9,1.3,13
				c3.5,2.6,8.4,2.1,11.4-1.1c2.9-3.1,3-8,0.1-11.2c-0.9,0.9-1.8,1.7-2.9,2.7C-496.3,741.8-496.9,737.7-497.6,733.3z"/>
		</g>
	</g>
	<g id="XMLID_114_">
		<g id="_x34_7uhzS.tif_3_">
			<g id="XMLID_167_">
				<g id="XMLID_168_">
					<path id="XMLID_169_" class="st3" d="M-515.9,819.7c0-6,0-12,0-18c6.3,0,12.5,0,18.8,0c0-1.8,0-3.6,0-5.5
						c0.3,0.2,0.6,0.5,0.8,0.7c0.7,0.6,1.5,1.2,2.2,1.8c0.7,0.6,1.4,1.2,2.1,1.8c0.7,0.6,1.5,1.2,2.2,1.8c0.7,0.6,1.4,1.2,2.1,1.8
						c0.7,0.6,1.5,1.2,2.2,1.8c0.7,0.6,1.4,1.2,2.1,1.8c1,0.8,2,1.7,3,2.5c0.2,0.2,0.4,0.3,0.6,0.5c0,0,0,0,0,0
						c-0.1,0-0.1,0.1-0.2,0.1c-0.9,0.8-1.9,1.5-2.8,2.3c-1.5,1.2-2.9,2.4-4.4,3.7c-0.7,0.6-1.3,1.1-2,1.6c-0.6,0.5-1.3,1.1-1.9,1.6
						c-0.7,0.6-1.4,1.2-2.1,1.8c-1.2,1-2.3,1.9-3.5,2.9c-0.2,0.1-0.4,0.3-0.6,0.5c0-1.9,0-3.7,0-5.5
						C-503.4,819.7-509.6,819.7-515.9,819.7z"/>
				</g>
			</g>
		</g>
		<g id="_x34_7uhzS.tif_2_">
			<g id="XMLID_115_">
				<path id="XMLID_116_" class="st2" d="M-518.8,810.7c0-6,0-12,0-18c6.3,0,12.5,0,18.8,0c0-1.8,0-3.6,0-5.5
					c0.3,0.2,0.6,0.5,0.8,0.7c0.7,0.6,1.5,1.2,2.2,1.8c0.7,0.6,1.4,1.2,2.1,1.8c0.7,0.6,1.5,1.2,2.2,1.8c0.7,0.6,1.4,1.2,2.1,1.8
					c0.7,0.6,1.5,1.2,2.2,1.8c0.7,0.6,1.4,1.2,2.1,1.8c1,0.8,2,1.7,3,2.5c0.2,0.2,0.4,0.3,0.6,0.5c0,0,0,0,0,0
					c-0.1,0-0.1,0.1-0.2,0.1c-0.9,0.8-1.9,1.5-2.8,2.3c-1.5,1.2-2.9,2.4-4.4,3.7c-0.7,0.6-1.3,1.1-2,1.6c-0.6,0.5-1.3,1.1-1.9,1.6
					c-0.7,0.6-1.4,1.2-2.1,1.8c-1.2,1-2.3,1.9-3.5,2.9c-0.2,0.1-0.4,0.3-0.6,0.5c0-1.9,0-3.7,0-5.5
					C-506.3,810.7-512.6,810.7-518.8,810.7z"/>
			</g>
		</g>
	</g>
	<g id="XMLID_106_">
		<rect id="XMLID_113_" x="-517.5" y="848.2" style="fill:none;" width="35.7" height="13.3"/>
		
			<text id="XMLID_112_" transform="matrix(1 0 0 1 -517.5142 860.1461)" class="st4" style="font-family:'Helvetica-Bold'; font-size:16.6043px;">SOS</text>
		<g id="Do4P7F.tif_1_">
			<g id="XMLID_107_">
				<path id="XMLID_111_" class="st5" d="M-498.4,867.1c0.2,0,0.4,0,0.6,0c0.1,0,0.1,0,0.2,0c2.4,0.1,4.8,0.4,7.2,0.8
					c2,0.4,3.9,0.9,5.8,1.7c0.1,0,0.2,0.1,0.3,0.2c1.8,1.6,2.9,3.6,3.4,5.9c0.1,0.3,0.1,0.7,0.2,1c0,0.4,0,0.9,0,1.3
					c-1.3-0.2-2.6-0.4-3.9-0.6c-1.8-0.3-3.6-0.6-5.5-0.8c-0.1,0-0.2-0.1-0.2-0.2c0-0.2,0-0.4,0-0.6c-0.2-1.7-1.4-2.9-3.1-2.9
					c-4.1,0-8.2,0-12.3,0c-1.4,0-2.6,0.9-3,2.2c-0.1,0.4-0.1,0.8-0.2,1.2c0,0.2,0,0.2-0.2,0.3c-0.3,0-0.6,0.1-1,0.1
					c-2,0.3-4.1,0.6-6.1,1c-0.7,0.1-1.4,0.2-2.2,0.3c0-0.1-0.1-0.2-0.1-0.2c0-0.2,0-0.4,0-0.6c0-0.1,0-0.1,0-0.2
					c0.2-2.3,1-4.3,2.5-6c0.6-0.7,1.3-1.3,2.2-1.6c3.6-1.2,7.4-1.9,11.2-2.1c0.4,0,0.8-0.1,1.2-0.1c0.2,0,0.3,0,0.5,0
					c0.1,0,0.1,0,0.2,0c0.7,0,1.4,0,2,0C-498.6,867.2-498.5,867.1-498.4,867.1z"/>
				<path id="XMLID_110_" class="st5" d="M-482.7,882.5c-0.4-0.1-0.8-0.2-1.2-0.2c-2-0.3-4-0.6-6.1-0.9c-0.7-0.1-1.1-0.6-1-1.3
					c0.1-0.9,0.3-1.7,0.4-2.6c3.2,0.5,6.3,1,9.5,1.5c-0.1,0.4-0.1,0.9-0.2,1.3c-0.1,0.4-0.1,0.7-0.2,1.1c0,0.7-0.3,1.1-1,1.3
					C-482.4,882.5-482.6,882.5-482.7,882.5z"/>
				<path id="XMLID_109_" class="st5" d="M-517,882.5c-0.1,0-0.2-0.1-0.3-0.1c-0.4-0.2-0.6-0.4-0.7-0.8c-0.1-0.9-0.3-1.7-0.4-2.6
					c0,0,0-0.1,0-0.1c3.2-0.5,6.3-1,9.5-1.5c0.1,0.7,0.2,1.3,0.3,2c0,0.2,0.1,0.5,0.1,0.7c0.1,0.6-0.3,1.1-0.8,1.2
					c-1,0.2-1.9,0.3-2.9,0.5c-1.5,0.2-3,0.5-4.5,0.7c0,0-0.1,0-0.1,0C-516.7,882.5-516.9,882.5-517,882.5z"/>
				<path id="XMLID_108_" class="st5" d="M-498.4,867.1c-0.1,0-0.1,0-0.2,0c-0.7,0-1.4,0-2,0c-0.1,0-0.1,0-0.2,0
					C-500.1,867.1-499.2,867.1-498.4,867.1z"/>
			</g>
		</g>
	</g>
	<g id="HeknSC.tif_1_">
		<g id="XMLID_85_">
			<path id="XMLID_86_" class="st5" d="M-489.6,940c0,0.2,0,0.4,0,0.6c0,0,0,0.1,0,0.1c0,0.3,0,0.7-0.1,1c-0.1,0.7-0.3,1.5-0.6,2.1
				c-1.1,2.8-3.8,5.6-8,6c-0.1,0-0.3,0-0.4,0.1c-0.4,0-0.9,0-1.3,0c0,0-0.1,0-0.1,0c-0.3,0-0.7,0-1-0.1c-0.5-0.1-1-0.2-1.5-0.4
				c-3.1-1.3-5.2-3.5-6-6.9c-0.1-0.5-0.2-1-0.2-1.5c0-0.6,0-1.3,0.1-1.9c0.1-0.5,0.2-1,0.3-1.5c0.2-0.6,0.4-1.1,0.7-1.7
				c1.1-2.2,2.2-4.3,3.3-6.5c1-1.9,2-3.9,2.9-5.8c0.8-1.7,1.5-3.4,2.2-5.1c0-0.1,0.1-0.1,0.1-0.2c0.2,0.4,0.3,0.7,0.4,1.1
				c1,2.6,2.2,5.1,3.5,7.6c1.5,2.9,3,5.8,4.5,8.7c0.3,0.6,0.6,1.3,0.8,2c0.1,0.3,0.2,0.7,0.2,1c0.1,0.3,0.1,0.6,0.1,1
				C-489.7,939.7-489.7,939.8-489.6,940z"/>
		</g>
	</g>
	<g id="TF08hk.tif_1_">
		<g id="XMLID_79_">
			<path id="XMLID_84_" class="st5" d="M-515.7,985.7c0-0.2,0-0.3,0-0.5c0-0.2,0-0.2,0.2-0.2c2.6,0,5.1,0,7.7,0c3,0,5.9,0,8.9,0
				c5.3,0,10.5,0,15.8,0c0.2,0,0.2,0,0.2,0.2c0,0.6,0,1.2,0,1.8c0,0.1,0,0.2-0.2,0.2c-0.7,0-1.5,0-2.2,0c-0.2,0-0.2,0-0.2,0.2
				c0,0.6,0,1.3,0,1.9c0,0.1,0,0.2-0.2,0.2c-0.4,0-0.8,0-1.2,0c-0.1,0-0.2,0-0.2-0.2c0-0.6,0-1.3,0-1.9c0-0.2,0-0.2-0.2-0.2
				c-4.3,0-8.5,0-12.8,0c-3.7,0-7.4,0-11.2,0c0,0-0.1,0-0.1,0c-0.1,0-0.1,0-0.1,0.1c0,0.3,0,0.6,0,0.9c0,0.4,0,0.7,0,1.1
				c0,0.1,0,0.2-0.2,0.2c-0.4,0-0.8,0-1.3,0c-0.1,0-0.2,0-0.2-0.2c0-0.6,0-1.3,0-1.9c0-0.2,0-0.2-0.2-0.2c-0.8,0-1.6,0-2.4,0
				C-515.7,986.7-515.7,986.2-515.7,985.7z"/>
			<path id="XMLID_83_" class="st5" d="M-491.7,1010.7c-1,0-2,0-3,0c-1.1,0-2.2,0-3.3,0c-0.2,0-0.2,0-0.2-0.2c0-3.1,0-6.2,0-9.3
				c0-1.7,0-3.4,0-5.1c0-2.2,0-4.5,0-6.7c0-0.2,0-0.2,0.2-0.2c0.2,0,0.4,0,0.7,0c1.7,0,3.4,0,5.2,0c0.2,0,0.2,0,0.3,0.2
				c0.3,1.8,0.6,3.7,0.9,5.5c0.3,1.9,0.7,3.8,1,5.7c0.3,1.8,0.6,3.6,0.9,5.4c0.3,1.5,0.5,3,0.8,4.5c0,0.2,0,0.2-0.2,0.2
				C-489.6,1010.7-490.6,1010.7-491.7,1010.7C-491.7,1010.7-491.7,1010.7-491.7,1010.7z"/>
			<path id="XMLID_82_" class="st5" d="M-507.2,1010.7c-0.9,0-2,0-3.1,0c-0.2,0-0.2,0-0.2-0.2c0.3-2,0.7-3.9,1-5.9
				c0.4-2.1,0.7-4.2,1.1-6.3c0.4-2.1,0.7-4.1,1.1-6.2c0.2-1,0.3-1.9,0.5-2.9c0-0.2,0-0.2,0.2-0.2c0.9,0,1.8,0,2.6,0
				c1.1,0,2.1,0,3.2,0c0.2,0,0.2,0,0.2,0.2c0,2,0,4.1,0,6.1c0,5,0,9.9,0,14.9c0,0.3,0,0.3-0.3,0.3c-0.8,0-1.5,0-2.3,0
				C-504.4,1010.7-505.8,1010.7-507.2,1010.7z"/>
			<path id="XMLID_81_" class="st5" d="M-500.5,977.4c0,1.8,0,3.7,0,5.5c0,0.2,0,0.2-0.2,0.2c-1.6,0-3.2,0-4.9,0
				c-0.2,0-0.2,0-0.2-0.2c0.5-2.7,0.9-5.5,1.4-8.2c0.2-1,0.3-1.9,0.5-2.9c0-0.1,0.1-0.2,0.2-0.2c1,0,2,0,2.9,0c0.2,0,0.2,0,0.2,0.2
				C-500.5,973.8-500.5,975.6-500.5,977.4z"/>
			<path id="XMLID_80_" class="st5" d="M-498.1,977.4c0-1.8,0-3.7,0-5.5c0-0.2,0-0.2,0.2-0.2c1,0,2,0,2.9,0c0.1,0,0.2,0,0.2,0.2
				c0.3,1.6,0.6,3.3,0.8,4.9c0.3,1.6,0.6,3.3,0.8,4.9c0.1,0.4,0.1,0.8,0.2,1.3c0,0.1,0,0.1-0.1,0.1c-1.1,0-2.2,0-3.3,0
				c-0.6,0-1.1,0-1.7,0c-0.2,0-0.2,0-0.2-0.2C-498.1,981.1-498.1,979.3-498.1,977.4z"/>
		</g>
	</g>
	<g id="JfAT0t.tif_1_">
		<g id="XMLID_74_">
			<path id="XMLID_75_" class="st5" d="M-488.6,1064.7c-6.2,0-12.3,0-18.5,0c-0.6-0.2-0.7-0.4-0.7-1.1c0-2.8,0-5.7,0-8.5
				c0,0,0-0.1,0-0.1c0-0.1,0-0.1-0.1-0.1c-0.4,0-0.7,0.1-1.1,0.3c-0.5,0.3-0.7,0.7-0.6,1.3c0.2,1.1,0.2,2.2,0.2,3.3
				c-0.1,0.8-0.2,1.6-0.5,2.4c-0.5,1.1-1.2,1.8-2.4,2.1c-1,0.2-2,0.1-2.9-0.4c-1-0.6-1.6-1.4-1.8-2.5c0-0.2-0.1-0.4-0.1-0.6
				c0-0.2,0-0.3,0-0.5c0-0.2,0-0.3,0.1-0.5c0.1-1,0.5-1.9,0.9-2.7c0.3-0.6,0.6-1.1,0.9-1.6c0.5-1,0.9-2,1.3-3.1
				c0.9-2.6,1.3-5.4,1.2-8.1c0-0.1,0-0.2-0.1-0.1c-0.1,0-0.2-0.1-0.2-0.2c0-0.3,0-0.6,0-0.9c0-1.3,0-2.7,0-4c0-0.2,0-0.4,0-0.6
				c0.1-0.8,0.5-1.3,1.3-1.6c0.1,0,0.2-0.1,0.2-0.2c0.3-0.6,0.7-1.2,1.2-1.6c0.7-0.6,1.6-0.9,2.5-1c0.2,0,0.2,0,0.2-0.2
				c0-0.8,0-1.6,0-2.4c0-0.3,0.2-0.6,0.4-0.8c0.1-0.1,0.2-0.1,0.3-0.1c6.2,0,12.3,0,18.5,0c0.1,0,0.2,0.1,0.3,0.1
				c0.2,0.1,0.3,0.3,0.4,0.6c0,11,0,21.9,0,32.9c0,0.1,0,0.1-0.1,0.2C-488.1,1064.5-488.3,1064.6-488.6,1064.7z M-497.8,1034
				C-497.8,1034-497.8,1034-497.8,1034c-2.2,0-4.5,0-6.7,0c-0.2,0-0.2,0-0.2,0.2c0,2.6,0,5.2,0,7.8c0,0.2,0,0.2,0.2,0.2
				c4.5,0,8.9,0,13.4,0c0.2,0,0.2,0,0.2-0.2c0-2.6,0-5.2,0-7.8c0-0.2,0-0.2-0.2-0.2C-493.4,1034-495.6,1034-497.8,1034z
				 M-507.8,1044.2c0-0.7,0-1.5,0-2.2c0-2.2,0-4.4,0-6.5c0-0.2,0-0.2-0.1-0.1c-1.6,0.2-2.4,1.2-2.7,2.8c0,0.1,0,0.1,0.1,0.1
				c0.1,0,0.2,0,0.3,0c0.2,0,0.2,0,0.2,0.2c0,1.2,0,2.4,0,3.6c0,0.1,0,0.2,0,0.2c0,0.1,0,0.1-0.1,0.1c-0.1,0-0.2,0-0.3,0
				c-0.2,0-0.2,0-0.2,0.2c0,0.4,0,0.8,0,1.1c0,0.2,0,0.2-0.2,0.2c0,0,0,0,0,0c-0.2,0-0.2,0-0.2,0.2c0,0.7,0,1.4,0,2
				c0,0.9-0.1,1.7-0.3,2.6c-0.3,1.6-0.7,3.1-1.2,4.6c-0.4,1.1-0.8,2.2-1.4,3.2c-0.2,0.4-0.4,0.8-0.6,1.2c-0.4,0.8-0.7,1.5-0.7,2.4
				c-0.1,0.5,0,1.1,0.3,1.5c0.4,0.6,1.1,1,1.9,0.9c0.6,0,1.1-0.3,1.4-0.8c0.2-0.4,0.4-0.8,0.5-1.2c0.2-1.1,0.2-2.2,0.1-3.4
				c0-0.4-0.1-0.8-0.1-1.2c0.1-1.2,0.8-2.1,1.9-2.6c0.5-0.2,1-0.3,1.5-0.3c0.1,0,0.2,0,0.2-0.2c0,0,0-0.1,0-0.1
				C-507.8,1050-507.8,1047.1-507.8,1044.2z"/>
		</g>
	</g>
	<line id="XMLID_73_" class="st5" x1="-482" y1="903.6" x2="-516.6" y2="903.6"/>
</g>
<g id="dSG00T.tif_1_">
	<g id="XMLID_124_">
		<g id="XMLID_136_">
			<path id="XMLID_141_" class="st6" d="M923.2,754.4c0-18.4,0-36.8,0-55.2c62.9,0,125.9,0,188.8,0c0,18.4,0,36.8,0,55.2
				C1049.1,754.4,986.2,754.4,923.2,754.4z M983.3,751.6c0.5,0.1,0.8,0.2,1,0.2c6,0,12,0,18,0c1.3,0,1.5-0.9,1.7-1.7
				c1.7-6.2,3.3-12.4,5-18.5c0.3-1,0.7-1.9,1.2-3c0.4,0.3,0.6,0.4,0.6,0.6c4.6,7.1,9.3,14.2,13.9,21.3c0.6,1,1.3,1.4,2.5,1.4
				c6-0.1,12,0,18,0c0.4,0,0.9-0.1,1.6-0.2c-0.5-0.7-0.8-1.2-1.1-1.7c-5.2-7.5-10.3-15-15.6-22.4c-0.7-1.1-0.7-1.6,0.3-2.4
				c4.4-3.9,8.8-8,13.2-12c1.1-1,2.2-1.9,3.6-3.2c2.6,14.2,5.2,27.9,7.7,41.8c6.2,0,12.2,0,18.2,0c0.5,0,1.1-0.5,1.4-0.9
				c3.1-4.5,6.1-9,9.2-13.5c6.4-9.4,12.8-18.7,19.2-28.1c1.9-2.8,3.8-5.6,5.8-8.7c-6.1,0-11.8-0.1-17.4,0.1c-1,0-2.1,1.2-2.8,2.1
				c-5.8,8.6-11.5,17.2-17.3,25.8c-0.7,1-1.5,2-2.3,3c-0.8-2.9-1.3-5.5-1.7-8.2c-1.2-7-2.3-14-3.5-21c-0.2-1-0.2-2-1.8-2
				c-8.2,0.1-16.4,0-24.7,0.1c-1.1,0-2.3,0.5-3.1,1.2c-5.5,4.8-10.9,9.6-16.3,14.5c-1.7,1.5-3.5,3.1-5.2,4.6
				c-0.1-0.1-0.3-0.2-0.4-0.3c2-6.5,4.1-13.1,6.1-19.7c-0.6-0.2-0.8-0.3-1-0.3c-5.5,0-11-0.1-16.6,0.1c-0.8,0-2,0.6-2.4,1.3
				c-0.9,1.5-1.4,3.2-1.9,4.8c-1,3.5-1.9,7.1-2.9,10.7c-0.8-1.6-1.2-3.2-1.6-4.8c-1.7-6.5-8.1-11.6-14.7-11.8
				c-11.3-0.4-22.6-0.2-33.9-0.2c-1.9,0-3.1,1.1-3.7,2.8c-2.4,7.1-4.7,14.1-7,21.2c-2.3,6.9-4.6,13.8-6.9,20.7
				c-0.7,2.1-1.3,4.3-2,6.6c1,0,1.7,0,2.3,0c10.3,0,20.6,0.1,30.9,0c3.1,0,6.2-0.4,9.2-1.1c6.9-1.7,12.6-5.7,17.5-10.8
				c1.5-1.6,2.8-3.3,4.2-5c0.1,0.1,0.1,0.1,0.2,0.2C986.6,740.5,985,746,983.3,751.6z"/>
			<path id="XMLID_138_" d="M983.3,751.6c1.7-5.6,3.4-11.1,5-16.6c-0.1-0.1-0.1-0.1-0.2-0.2c-1.4,1.7-2.7,3.4-4.2,5
				c-4.8,5.2-10.5,9.1-17.5,10.8c-3,0.7-6.1,1.1-9.2,1.1c-10.3,0.1-20.6,0.1-30.9,0c-0.7,0-1.3,0-2.3,0c0.7-2.4,1.3-4.5,2-6.6
				c2.3-6.9,4.6-13.8,6.9-20.7c2.3-7.1,4.7-14.1,7-21.2c0.6-1.7,1.7-2.8,3.7-2.8c11.3,0.1,22.6-0.1,33.9,0.2
				c6.5,0.2,13,5.3,14.7,11.8c0.4,1.6,0.8,3.2,1.6,4.8c0.9-3.6,1.8-7.1,2.9-10.7c0.5-1.7,1-3.4,1.9-4.8c0.4-0.7,1.6-1.2,2.4-1.3
				c5.5-0.1,11-0.1,16.6-0.1c0.2,0,0.5,0.1,1,0.3c-2,6.6-4.1,13.1-6.1,19.7c0.1,0.1,0.3,0.2,0.4,0.3c1.7-1.5,3.5-3.1,5.2-4.6
				c5.4-4.8,10.8-9.7,16.3-14.5c0.8-0.7,2.1-1.2,3.1-1.2c8.2-0.1,16.4,0,24.7-0.1c1.6,0,1.6,1,1.8,2c1.2,7,2.3,14,3.5,21
				c0.4,2.6,0.8,5.3,1.7,8.2c0.8-1,1.6-2,2.3-3c5.8-8.6,11.5-17.3,17.3-25.8c0.6-0.9,1.8-2,2.8-2.1c5.7-0.2,11.4-0.1,17.4-0.1
				c-2,3.1-3.9,5.9-5.8,8.7c-6.4,9.4-12.8,18.7-19.2,28.1c-3.1,4.5-6.1,9-9.2,13.5c-0.3,0.4-0.9,0.9-1.4,0.9c-6,0.1-12,0-18.2,0
				c-2.6-13.9-5.1-27.6-7.7-41.8c-1.4,1.2-2.5,2.2-3.6,3.2c-4.4,4-8.7,8-13.2,12c-0.9,0.8-1,1.3-0.3,2.4
				c5.2,7.4,10.4,14.9,15.6,22.4c0.3,0.5,0.6,1,1.1,1.7c-0.7,0.1-1.1,0.2-1.6,0.2c-6,0-12,0-18,0c-1.2,0-1.9-0.4-2.5-1.4
				c-4.6-7.1-9.2-14.2-13.9-21.3c-0.1-0.1-0.3-0.2-0.6-0.6c-0.4,1.1-0.9,2-1.2,3c-1.7,6.2-3.3,12.4-5,18.5c-0.2,0.8-0.4,1.7-1.7,1.7
				c-6-0.1-12,0-18,0C984.1,751.8,983.8,751.7,983.3,751.6z M947.7,741.5c2,0,3.7-0.1,5.3,0c8.7,0.6,19.3-7.4,21.6-17
				c1.3-5.6-0.8-11-5.4-13.4c-3-1.6-6.3-1.3-9.5-1.4c-1.2,0-1.8,0.3-2.2,1.6c-2.4,7.7-5,15.3-7.5,23
				C949.3,736.6,948.6,738.9,947.7,741.5z"/>
			<path id="XMLID_137_" class="st6" d="M947.7,741.5c0.9-2.6,1.6-4.9,2.3-7.2c2.5-7.6,5.1-15.3,7.5-23c0.4-1.2,0.9-1.6,2.2-1.6
				c3.2,0.1,6.5-0.2,9.5,1.4c4.6,2.5,6.7,7.8,5.4,13.4c-2.3,9.6-12.9,17.6-21.6,17C951.4,741.4,949.8,741.5,947.7,741.5z"/>
		</g>
	</g>
</g>
</svg>
