<?xml version="1.0" encoding="utf-8"?>
<!-- Generator: Adobe Illustrator 19.0.0, SVG Export Plug-In . SVG Version: 6.00 Build 0)  -->
<svg version="1.1" id="Ebene_1" xmlns="http://www.w3.org/2000/svg" xmlns:xlink="http://www.w3.org/1999/xlink" x="0px" y="0px"
	 viewBox="0 0 1417.3 2126" style="enable-background:new 0 0 1417.3 2126;" xml:space="preserve">
<style type="text/css">
	.st0{fill:#62F1AC;}
	.st1{fill:none;stroke:#62F1AC;stroke-width:5;stroke-miterlimit:10;}
</style>
<g id="XMLID_4_">
	<path id="XMLID_2_" class="st0" d="M423.6,423.1c7.7-0.8,14.3-2.7,19.9-5.7c5.6-3,10.3-7.5,14.1-13.6c3.8-6.1,6.5-14.6,8.1-25.6
		h17.5v240.6h-21.7V440.1H398v-15.5C407.4,424.4,415.9,423.9,423.6,423.1z"/>
	<path id="XMLID_8_" class="st0" d="M597.2,439.5h18.1l33.7,44.9l33-44.9h18.1l-42.6,56.6l46,61.6h-18.3l-37.1-49.7l-36.4,49.7
		h-17.9l45.8-61.4L597.2,439.5z"/>
</g>
<g id="XMLID_6_">
	<path id="XMLID_38_" class="st1" d="M985.8,604c-1-0.2-2-0.6-3-0.8c-1.6-0.5-3-0.2-4.3,0.6c-1.6,1.1-3,2.2-4.6,3.1
		c-1.7,1.1-2.5,2.4-2.3,4.3c0.2,2.5-0.8,4-3.4,4.9c-10,4.1-19.9,8.3-29.9,12.5c-1.7,0.7-3,0.6-4.3-0.7c-2-2-4.3-2.8-7.1-1.9
		c-0.7,0.2-1.4,0.4-2.2,0.5c-3,0.2-5,1.7-6,4.7c-0.5,1.7-2,2.2-3.6,2.2c-4.3,0-8.5-0.1-12.8-0.1c-6.5,0-13,0-19.4,0.1
		c-2.3,0-3.8-0.6-4.8-2.9c-0.8-2.3-2.5-3.5-4.9-3.8c-0.8-0.1-1.7-0.2-2.5-0.5c-2.9-1-5.4-0.4-7.3,2c-1,1.1-2.2,1.2-3.5,0.7
		c-10.6-4.4-21.1-8.8-31.7-13.2c-1.6-0.6-2.2-1.8-2-3.4c0.1-3-1.2-5-3.8-6.5c-1.2-0.6-2.3-1.4-3.2-2.3c-1.7-1.3-3.6-1.6-5.5-0.7
		c-2.3,1.1-3.8,0.6-5.5-1.2c-7.3-7.7-14.9-15.4-22.3-22.9c-1.6-1.6-2-3-1.2-4.9c1.1-2.3,1-4.6-0.8-6.7c-0.5-0.6-0.8-1.2-1.2-1.9
		c-1.3-2.4-3.1-3.7-6-3.5c-1.8,0.1-2.9-0.8-3.5-2.5c-4.1-10.3-8.2-20.6-12.4-30.8c-0.7-1.8-0.4-3.1,0.7-4.4c2.6-3,3-6.7,1.1-10.2
		c-0.7-1.2-1.8-1.9-3.1-2.4c-1.7-0.6-2.6-1.7-2.6-3.6c-0.2-7.6-0.1-15.2,0-22.8c0-3.7-0.2-7.6,0.1-11.3c0.1-1.4,0.7-2.4,2-2.9
		c2.9-1.1,4.4-3.1,4.7-6.2c0.1-1,0.4-1.8,0.6-2.8c0.5-2,0-3.8-1.6-5.4c-2-1.9-2-2.6-1-5.2c4.2-10,8.3-19.9,12.4-29.9
		c0.7-1.8,1.8-2.8,3.8-2.9c4-0.2,7-2.9,7.9-6.7c0.4-1.3,0.1-2.6-0.6-3.8c-1.1-2-0.5-3.5,1.1-5c7.7-7.7,15.2-15.5,22.8-23.2
		c1.3-1.3,2.6-1.9,4.3-1.1c2.9,1.2,5.3,0.7,7.6-1.2c0.6-0.5,1.2-1,1.8-1.3c2.6-1.3,3.7-3.2,3.5-6.2c-0.1-1.8,0.8-2.8,2.5-3.5
		c10.2-4.2,20.3-8.5,30.5-12.8c1.8-0.7,3.2-0.6,4.6,0.7c1.9,2,4.3,2.6,7,1.8c0.6-0.2,1.3-0.4,2-0.4c3.1-0.2,5.2-1.7,6.1-4.7
		c0.6-1.8,2.2-2.2,3.8-2.2c5.6,0,11.4,0,17,0c5.2,0,10.2,0,15.4,0c2.2,0,3.7,0.6,4.4,2.8c0.8,2.4,2.6,3.7,5.3,4
		c1,0.1,1.8,0.4,2.8,0.6c2.5,0.7,4.8,0.4,6.6-1.8c1.2-1.4,2.6-1.6,4.3-0.8c10.2,4.3,20.4,8.5,30.7,12.8c1.8,0.7,2.6,1.9,2.5,3.7
		c0,2.8,1,4.8,3.5,6.1c1.3,0.7,2.5,1.7,3.7,2.5c1.7,1.3,3.6,1.4,5.4,0.6c2.3-1.1,3.8-0.6,5.5,1.2c7.4,7.8,14.9,15.5,22.4,23
		c1.4,1.4,1.8,2.9,1.1,4.8c-1.1,2.4-1,4.7,0.8,6.8c0.5,0.5,0.8,1.2,1.1,1.8c1.3,2.4,3.1,3.7,6,3.5c1.8-0.1,2.9,0.7,3.5,2.5
		c4.1,10.3,8.2,20.6,12.4,30.8c0.7,1.7,0.5,3.1-0.7,4.4c-2.6,3.1-3,6.7-1.1,10.2c0.7,1.2,1.8,1.9,3.1,2.4c1.7,0.6,2.6,1.7,2.6,3.6
		c0,4.1,0.1,8.3,0.1,12.4c0,7.2,0.1,14.5-0.1,21.7c0,1.4-0.7,2.4-2,2.9c-3,1.1-4.6,3.2-4.8,6.5c0,0.8-0.2,1.6-0.5,2.4
		c-0.6,2.2-0.1,4.1,1.7,5.6c2,1.9,2,2.4,1,5c-4.1,9.8-8.2,19.6-12.2,29.4c-0.8,2-1.9,3.5-4.4,3.4c-4.4-0.1-6,3.5-7.6,6.6
		c-0.6,1.2-0.1,2.6,0.5,3.8c1.1,1.9,0.6,3.5-1,4.9c-2.8,2.8-5.5,5.5-8.2,8.3c-4.9,5-10,10.1-14.9,15.1
		C987.9,603.4,987,604.1,985.8,604z M898.6,578c47.9,0,87-38.9,87.1-86.5c0-48.4-38.8-87.5-86.7-87.5s-87.1,38.9-87.1,86.7
		C811.7,539,850.6,578,898.6,578z"/>
	<path id="XMLID_30_" class="st1" d="M898.7,409c45.1-0.4,82.1,36.8,82.1,82.1c0,43.9-35.3,81.9-82.1,81.9
		c-46.2,0-81.8-37.7-81.9-81.9C816.7,446,853.7,408.8,898.7,409z"/>
</g>
<path id="XMLID_5_" class="st1" d="M898.6,618.8c70.3,0,127.8-57,127.8-126.9c0-71-56.9-128.4-127.4-128.4s-127.9,57-127.9,127.3
	C771.1,561.4,828.1,618.8,898.6,618.8z"/>
</svg>
