<?xml version="1.0" encoding="utf-8"?>
<!-- Generator: Adobe Illustrator 19.0.0, SVG Export Plug-In . SVG Version: 6.00 Build 0)  -->
<svg version="1.1" id="Ebene_1" xmlns="http://www.w3.org/2000/svg" xmlns:xlink="http://www.w3.org/1999/xlink" x="0px" y="0px"
	 viewBox="0 0 1417.3 2126" style="enable-background:new 0 0 1417.3 2126;" xml:space="preserve">
<style type="text/css">
	.st0{fill:#62F1AC;}
	.st1{fill:none;stroke:#62F1AC;stroke-width:5;stroke-miterlimit:10;}
	.st2{font-family:'HelveticaNeue-Bold';}
	.st3{font-size:50px;}
	.st4{letter-spacing:19;}
	.st5{letter-spacing:22;}
	.st6{font-family:'HelveticaNeue-Medium';}
	.st7{font-family:'HelveticaNeue-Thin';}
	.st8{letter-spacing:4;}
	.st9{letter-spacing:-3;}
	.st10{letter-spacing:8;}
	.st11{letter-spacing:-1;}
	.st12{letter-spacing:-10;}
	.st13{letter-spacing:10;}
	.st14{letter-spacing:21;}
	.st15{letter-spacing:-7;}
	.st16{font-size:30px;}
	.st17{fill:none;stroke:#62F1AC;stroke-width:9;stroke-miterlimit:10;}
</style>
<g id="XMLID_4_">
	<path id="XMLID_2_" class="st0" d="M123.4,208.5c4.8-0.5,8.9-1.7,12.4-3.5s6.4-4.7,8.8-8.4c2.4-3.8,4-9.1,5-15.9h10.9v149.5H147
		V219.1h-39.5v-9.6C113.3,209.3,118.6,209,123.4,208.5z"/>
	<path id="XMLID_8_" class="st0" d="M219.1,218.8h11.3l20.9,27.9l20.5-27.9h11.3L256.6,254l28.6,38.3h-11.4l-23.1-30.9l-22.6,30.9
		H217l28.5-38.2L219.1,218.8z"/>
</g>
<g id="XMLID_6_">
	<path id="XMLID_38_" class="st1" d="M473.9,326c-0.6-0.1-1.3-0.4-1.9-0.5c-1-0.3-1.9-0.2-2.7,0.4c-1,0.7-1.9,1.4-2.9,2
		c-1.1,0.7-1.6,1.5-1.4,2.7c0.2,1.6-0.5,2.5-2.1,3.1c-6.2,2.6-12.5,5.2-18.7,7.8c-1.1,0.5-1.9,0.4-2.7-0.5c-1.3-1.3-2.7-1.7-4.4-1.2
		c-0.5,0.2-0.9,0.2-1.4,0.3c-1.9,0.1-3.2,1.1-3.8,2.9c-0.3,1.1-1.3,1.4-2.3,1.4c-2.7,0-5.3-0.1-8-0.1c-4.1,0-8.1,0-12.2,0.1
		c-1.4,0-2.4-0.4-3-1.8c-0.5-1.4-1.6-2.2-3.1-2.4c-0.5-0.1-1.1-0.2-1.6-0.3c-1.8-0.6-3.4-0.2-4.6,1.3c-0.6,0.7-1.4,0.8-2.2,0.5
		c-6.6-2.8-13.2-5.5-19.8-8.3c-1-0.4-1.4-1.1-1.3-2.1c0.1-1.9-0.8-3.2-2.4-4.1c-0.8-0.4-1.4-0.9-2-1.4c-1.1-0.8-2.3-1-3.5-0.5
		c-1.4,0.7-2.4,0.4-3.5-0.8c-4.6-4.8-9.3-9.6-14-14.3c-1-1-1.3-1.9-0.8-3.1c0.7-1.4,0.6-2.9-0.5-4.2c-0.3-0.4-0.5-0.8-0.8-1.2
		c-0.8-1.5-2-2.3-3.8-2.2c-1.1,0.1-1.8-0.5-2.2-1.6c-2.6-6.5-5.1-12.9-7.7-19.3c-0.5-1.1-0.2-2,0.5-2.8c1.7-1.9,1.9-4.2,0.7-6.4
		c-0.5-0.8-1.1-1.2-2-1.5c-1.1-0.4-1.7-1.1-1.7-2.3c-0.2-4.7-0.1-9.5,0-14.3c0-2.3-0.2-4.7,0.1-7.1c0.1-0.9,0.5-1.5,1.3-1.8
		c1.8-0.7,2.8-2,2.9-3.9c0.1-0.6,0.2-1.1,0.4-1.7c0.3-1.3,0-2.4-1-3.4c-1.3-1.2-1.3-1.7-0.6-3.2c2.6-6.2,5.2-12.5,7.7-18.7
		c0.5-1.1,1.1-1.7,2.4-1.8c2.5-0.2,4.4-1.8,5-4.2c0.2-0.8,0.1-1.7-0.4-2.4c-0.7-1.3-0.3-2.2,0.7-3.2c4.8-4.8,9.5-9.7,14.3-14.5
		c0.8-0.8,1.7-1.2,2.7-0.7c1.8,0.8,3.3,0.5,4.7-0.8c0.4-0.3,0.8-0.6,1.1-0.8c1.7-0.8,2.3-2,2.2-3.9c-0.1-1.1,0.5-1.7,1.6-2.2
		c6.4-2.6,12.7-5.3,19.1-8c1.1-0.5,2-0.4,2.9,0.5c1.2,1.3,2.7,1.7,4.4,1.1c0.4-0.2,0.8-0.2,1.3-0.2c2-0.2,3.2-1.1,3.8-2.9
		c0.4-1.1,1.4-1.4,2.4-1.4c3.5,0,7.1,0,10.7,0c3.2,0,6.4,0,9.6,0c1.4,0,2.3,0.4,2.8,1.7c0.5,1.5,1.7,2.3,3.3,2.5
		c0.6,0.1,1.1,0.2,1.7,0.4c1.6,0.5,3,0.2,4.1-1.1c0.8-0.9,1.7-1,2.7-0.5c6.4,2.7,12.8,5.3,19.2,8c1.1,0.5,1.7,1.2,1.6,2.3
		c0,1.7,0.6,3,2.2,3.8c0.8,0.5,1.6,1.1,2.3,1.6c1.1,0.8,2.3,0.9,3.4,0.4c1.4-0.7,2.4-0.4,3.5,0.8c4.7,4.9,9.3,9.7,14,14.4
		c0.9,0.9,1.1,1.8,0.7,3c-0.7,1.5-0.6,2.9,0.5,4.3c0.3,0.3,0.5,0.8,0.7,1.1c0.8,1.5,2,2.3,3.8,2.2c1.1-0.1,1.8,0.5,2.2,1.6
		c2.6,6.5,5.1,12.9,7.7,19.3c0.5,1.1,0.3,2-0.5,2.8c-1.7,2-1.9,4.2-0.7,6.4c0.5,0.8,1.1,1.2,2,1.5c1.1,0.4,1.7,1.1,1.7,2.3
		c0,2.6,0.1,5.2,0.1,7.7c0,4.5,0.1,9.1-0.1,13.6c0,0.9-0.5,1.5-1.3,1.8c-1.9,0.7-2.9,2-3,4.1c0,0.5-0.2,1-0.3,1.5
		c-0.4,1.4-0.1,2.6,1.1,3.5c1.3,1.2,1.3,1.5,0.6,3.2c-2.6,6.2-5.1,12.2-7.7,18.4c-0.5,1.3-1.2,2.2-2.8,2.1c-2.8-0.1-3.8,2.2-4.7,4.1
		c-0.4,0.8-0.1,1.7,0.3,2.4c0.7,1.2,0.4,2.2-0.6,3.1c-1.7,1.7-3.5,3.5-5.1,5.2c-3.1,3.2-6.2,6.3-9.3,9.5
		C475.2,325.7,474.7,326.1,473.9,326z M419.4,309.8c29.9,0,54.4-24.3,54.5-54.1c0-30.2-24.2-54.7-54.2-54.7s-54.5,24.3-54.5,54.2
		C365.1,285.4,389.4,309.8,419.4,309.8z"/>
	<path id="XMLID_30_" class="st1" d="M419.5,204.1c28.2-0.2,51.3,23,51.3,51.3c0,27.5-22.1,51.2-51.3,51.2
		c-28.9,0-51.2-23.6-51.2-51.2C368.2,227.3,391.3,204,419.5,204.1z"/>
</g>
<path id="XMLID_5_" class="st1" d="M419.4,335.3c44,0,79.9-35.6,79.9-79.4c0-44.4-35.6-80.3-79.7-80.3s-80,35.6-80,79.6
	C339.7,299.4,375.3,335.3,419.4,335.3z"/>
<text transform="matrix(1 0 0 1 111.6564 1062.9701)" class="st2 st3">Travel costs</text>
<text transform="matrix(1 0 0 1 402.3564 1062.9701)" class="st2 st3 st4"> </text>
<text transform="matrix(1 0 0 1 435.6564 1062.9701)" class="st2 st3 st5"> </text>
<text transform="matrix(1 0 0 1 471.6564 1062.9701)" class="st6 st3 st5">        </text>
<text transform="matrix(1 0 0 1 759.6564 1062.9701)" class="st7 st3">Zone 2 </text>
<text transform="matrix(1 0 0 1 920.8564 1062.9701)" class="st7 st3 st8"> </text>
<text transform="matrix(1 0 0 1 939.6564 1062.9701)" class="st6 st3 st5">   </text>
<text transform="matrix(1 0 0 1 1047.6564 1062.9701)" class="st6 st3"> </text>
<text transform="matrix(1 0 0 1 111.6564 1122.9701)" class="st2 st3">Intervention costs  </text>
<text transform="matrix(1 0 0 1 569.0564 1122.9701)" class="st6 st3 st9"> </text>
<text transform="matrix(1 0 0 1 579.6564 1122.9701)" class="st6 st3"> </text>
<text transform="matrix(1 0 0 1 593.5564 1122.9701)" class="st6 st3 st10"> </text>
<text transform="matrix(1 0 0 1 615.6564 1122.9701)" class="st6 st3 st5">   </text>
<text transform="matrix(1 0 0 1 723.6564 1122.9701)" class="st7 st3">1h a € 65</text>
<text transform="matrix(1 0 0 1 927.5564 1122.9701)" class="st6 st3 st11"> </text>
<text transform="matrix(1 0 0 1 939.6564 1122.9701)" class="st6 st3 st5">  </text>
<text transform="matrix(1 0 0 1 111.6564 1182.9701)" class="st2 st3">Supplements 25%</text>
<text transform="matrix(1 0 0 1 544.0564 1182.9701)" class="st6 st3">* </text>
<text transform="matrix(1 0 0 1 576.4564 1182.9701)" class="st6 st3 st12"> </text>
<text transform="matrix(1 0 0 1 579.6564 1182.9701)" class="st6 st3 st5">    </text>
<text transform="matrix(1 0 0 1 723.6564 1182.9701)" class="st7 st3">1h</text>
<text transform="matrix(1 0 0 1 777.4564 1182.9701)" class="st6 st3 st8"> </text>
<text transform="matrix(1 0 0 1 795.6564 1182.9701)" class="st6 st3 st5">     </text>
<text transform="matrix(1 0 0 1 111.6564 1242.9701)" class="st2 st3">Spare part </text>
<text transform="matrix(1 0 0 1 375.5564 1242.9701)" class="st6 st3 st13"> </text>
<text transform="matrix(1 0 0 1 399.6564 1242.9701)" class="st6 st3 st5">   </text>
<text transform="matrix(1 0 0 1 507.6564 1242.9701)" class="st6 st3"> </text>
<text transform="matrix(1 0 0 1 521.5564 1242.9701)" class="st6 st3 st10"> </text>
<text transform="matrix(1 0 0 1 543.6564 1242.9701)" class="st6 st3 st5">     </text>
<text transform="matrix(1 0 0 1 723.6564 1242.9701)" class="st7 st3">Tire</text>
<text transform="matrix(1 0 0 1 111.6564 1362.9701)" class="st7 st3"> </text>
<text transform="matrix(1 0 0 1 125.5564 1362.9701)" class="st6 st3 st10"> </text>
<text transform="matrix(1 0 0 1 147.6564 1362.9701)" class="st6 st3 st5">    </text>
<text transform="matrix(1 0 0 1 111.6564 1482.9701)" class="st7 st3">Invoice amount net VAT 19%</text>
<text transform="matrix(1 0 0 1 710.2563 1482.9701)" class="st6 st3"> </text>
<text transform="matrix(1 0 0 1 724.1564 1482.9701)" class="st6 st3 st14"> </text>
<text transform="matrix(1 0 0 1 759.6564 1482.9701)" class="st6 st3 st5">     </text>
<text transform="matrix(1 0 0 1 111.6564 1542.9701)" class="st6 st3">Invoice amount gross</text>
<text transform="matrix(1 0 0 1 609.0564 1542.9701)" class="st6 st3 st15"> </text>
<text transform="matrix(1 0 0 1 615.6564 1542.9701)" class="st6 st3 st5">       </text>
<text transform="matrix(1 0 0 1 111.6564 1686.9701)" class="st6 st16">*(After the end of regular working hours until 10pm)</text>
<text transform="matrix(1 0 0 1 1081.3306 1062.9698)" class="st6 st3">130,00€</text>
<text transform="matrix(1 0 0 1 1109.1306 1122.9698)" class="st6 st3">65,00€</text>
<text transform="matrix(1 0 0 1 1109.1306 1182.9698)" class="st6 st3">16,25€</text>
<text transform="matrix(1 0 0 1 1081.3306 1242.9698)" class="st6 st3">249,00€</text>
<text transform="matrix(1 0 0 1 1109.1306 1482.9698)" class="st7 st3">87,45€</text>
<text transform="matrix(1 0 0 1 1081.3306 1542.9698)" class="st6 st3">460,25€</text>
<line id="XMLID_1_" class="st17" x1="111.7" y1="1359.8" x2="1262" y2="1359.8"/>
</svg>
