<?xml version="1.0" encoding="utf-8"?>
<!-- Generator: Adobe Illustrator 19.0.0, SVG Export Plug-In . SVG Version: 6.00 Build 0)  -->
<svg version="1.1" id="Ebene_1" xmlns="http://www.w3.org/2000/svg" xmlns:xlink="http://www.w3.org/1999/xlink" x="0px" y="0px"
	 viewBox="0 0 1417.3 2126" style="enable-background:new 0 0 1417.3 2126;" xml:space="preserve">
<style type="text/css">
	.st0{fill:none;stroke:#000000;stroke-width:5;stroke-miterlimit:10;}
	.st1{fill:none;stroke:#62F1AC;stroke-width:5;stroke-miterlimit:10;}
	.st2{fill:#62F1AC;}
</style>
<g id="XMLID_1_">
	<path id="XMLID_38_" class="st0" d="M1061.7,1480.8c-3.7-0.9-8-2.3-11.7-3.3c-6.1-1.9-11.7-0.9-16.8,2.3
		c-6.1,4.2-11.7,8.4-17.8,12.2c-6.5,4.2-9.8,9.4-8.9,16.8c0.9,9.8-3.3,15.4-13.1,19.2c-38.8,15.9-77.6-5.1-116.5,11.2
		c-6.5,2.8-11.7,2.3-16.8-2.8c-8-8-16.8-10.8-27.6-7.5c-2.8,0.9-5.6,1.4-8.4,1.9c-11.7,0.9-19.6,6.5-23.4,18.2
		c-1.9,6.5-8,8.4-14,8.4c-16.8,0-33.2-0.5-50-0.5c-25.3,0-50.5,0-75.8,0.5c-8.9,0-15-2.3-18.7-11.2c-3.3-8.9-9.8-13.6-19.2-15
		c-3.3-0.5-6.5-0.9-9.8-1.9c-11.2-3.7-21-1.4-28.5,8c-3.7,4.2-8.4,4.7-13.6,2.8c-41.2-17.3-82.3,3.3-123.5-14c-6.1-2.3-8.4-7-8-13.1
		c0.5-11.7-4.7-19.6-15-25.3c-4.7-2.3-8.9-5.6-12.6-8.9c-6.5-5.1-14-6.1-21.5-2.8c-8.9,4.2-15,2.3-21.5-4.7
		c-28.5-29.9-53.3-17.8-82.3-47.2c-6.1-6.1-8-11.7-4.7-19.2c4.2-8.9,3.7-17.8-3.3-26.2c-1.9-2.3-3.3-4.7-4.7-7.5
		c-5.1-9.4-12.2-14.5-23.4-13.6c-7,0.5-11.2-3.3-13.6-9.8c-15.9-40.2-31.8-80.4-48.2-120.2c-2.8-7-1.4-12.2,2.8-17.3
		c10.3-11.7,11.7-26.2,4.2-39.8c-2.8-4.7-7-7.5-12.2-9.4c-6.5-2.3-10.3-6.5-10.3-14c-0.9-29.5-0.5-59.4,0-88.9
		c0-14.5-0.9-29.5,0.5-44c0.5-5.6,2.8-9.4,8-11.2c11.2-4.2,17.3-12.2,18.2-24.3c0.5-3.7,1.4-7,2.3-10.8c1.9-8,0-15-6.1-21
		c-8-7.5-8-10.3-3.7-20.1c16.4-38.8,32.3-77.6,48.2-116.5c2.8-7,7-10.8,15-11.2c15.4-0.9,27.1-11.2,30.9-26.2
		c1.4-5.1,0.5-10.3-2.3-15c-4.2-8-1.9-13.6,4.2-19.6c29.9-29.9,59.4-60.3,88.9-90.3c5.1-5.1,10.3-7.5,16.8-4.2
		c11.2,4.7,20.6,2.8,29.5-4.7c2.3-1.9,4.7-3.7,7-5.1c10.3-5.1,14.5-12.6,13.6-24.3c-0.5-7,3.3-10.8,9.8-13.6
		c39.8-16.4,79-33.2,118.8-50c7-2.8,12.6-2.3,17.8,2.8c7.5,8,16.8,10.3,27.1,7c2.3-0.9,5.1-1.4,8-1.4c12.2-0.9,20.1-6.5,23.9-18.2
		c2.3-7,8.4-8.4,15-8.4c22,0,44.4,0,66.4,0c20.1,0,39.8,0,59.9,0c8.4,0,14.5,2.3,17.3,10.8c3.3,9.4,10.3,14.5,20.6,15.4
		c3.7,0.5,7,1.4,10.8,2.3c9.8,2.8,18.7,1.4,25.7-7c4.7-5.6,10.3-6.1,16.8-3.3c39.8,16.8,79.5,33.2,119.7,50c7,2.8,10.3,7.5,9.8,14.5
		c0,10.8,3.7,18.7,13.6,23.9c5.1,2.8,9.8,6.5,14.5,9.8c6.5,5.1,14,5.6,21,2.3c8.9-4.2,15-2.3,21.5,4.7c29,30.4,58,60.3,87.5,89.8
		c5.6,5.6,7,11.2,4.2,18.7c-4.2,9.4-3.7,18.2,3.3,26.7c1.9,1.9,3.3,4.7,4.2,7c5.1,9.4,12.2,14.5,23.4,13.6c7-0.5,11.2,2.8,13.6,9.8
		c15.9,40.2,31.8,80.4,48.2,120.2c2.8,6.5,1.9,12.2-2.8,17.3c-10.3,12.2-11.7,26.2-4.2,39.8c2.8,4.7,7,7.5,12.2,9.4
		c6.5,2.3,10.3,6.5,10.3,14c0,15.9,0.5,32.3,0.5,48.2c0,28.1,0.5,56.6-0.5,84.7c0,5.6-2.8,9.4-8,11.2c-11.7,4.2-17.8,12.6-18.7,25.3
		c0,3.3-0.9,6.1-1.9,9.4c-2.3,8.4-0.5,15.9,6.5,22c8,7.5,8,9.4,3.7,19.6c-15.9,38.4-31.8,76.2-47.7,114.6c-3.3,8-7.5,13.6-17.3,13.1
		c-17.3-0.5-23.4,13.6-29.5,25.7c-2.3,4.7-0.5,10.3,1.9,15c4.2,7.5,2.3,13.6-3.7,19.2c-10.8,10.8-21.5,7.5-31.8,18.2
		c-19.2,19.6-43.5,11.2-62.7,30.9C1069.6,1478.4,1066.3,1481.2,1061.7,1480.8z M726.3,1421.4c186.6,0,339.1-151.5,339.6-337.2
		c0-188.5-151.1-341-338.2-341s-339.6,151.5-339.6,338.2C387.7,1269.4,539.2,1421.4,726.3,1421.4z"/>
	<path id="XMLID_30_" class="st0" d="M726.8,762.8c175.9-1.4,319.9,143.6,319.9,319.9c0,171.2-137.5,319.4-319.9,319.4
		c-180.1,0-319-146.9-319.4-319.4C406.9,906.9,551.4,761.9,726.8,762.8z"/>
</g>
<path id="XMLID_2_" class="st0" d="M733.8,1512.1c274.1,0,490.6-154.3,490.6-427c0-276.9-221.7-500.5-496.7-500.5
	s-498.6,222.6-498.6,496.7C229.1,1356.8,458.8,1512.1,733.8,1512.1z"/>
<path id="XMLID_28_" class="st1" d="M501.3,1405l56.6,16.8c8.9,2.8,17.8,5.6,26.2,9.4c12.2,5.1,24.8,9.4,37.4,12.2
	c18.2,4.2,41.2,9.8,47.2,10.8l0,0c50.5,7.5,80,5.1,131.9-1.9c18.7-2.3,37.4-6.1,55.7-10.8c9.8-2.3,19.6-6.1,29-9.8
	c4.7-1.9,9.4-3.7,14.5-5.6l79.5-24.3"/>
<g id="XMLID_44_">
	<g id="XMLID_45_">
		<path id="XMLID_27_" class="st2" d="M452.7,800.2c-1.4-4.2-1.4-10.8,0.9-19.6c1.9-7.5,3.3-12.6,3.7-15c0.5-4.2-0.5-7.5-2.3-9.8
			c-1.9-1.9-3.7-3.3-6.5-3.3c-2.3,0-5.1,0.9-7.5,3.3c-3.3,3.3-4.7,6.1-4.2,9.4c0.5,1.9,1.9,4.2,4.2,7c-4.2,3.7-6.1,6.1-10.3,9.8
			c-3.7-3.7-5.6-8-6.5-11.7c-1.4-7.5,1.9-15,9.8-22c6.1-5.6,12.6-8.4,18.7-8.4c6.1,0,10.8,2.3,14.5,7c2.8,3.7,4.2,8,3.7,12.6
			c0,3.3-0.9,7.5-2.8,12.6c-0.9,2.3-1.4,3.7-1.9,6.5c-1.4,3.7-1.9,6.5-2.3,8.4c-0.5,1.4-0.5,3.3,0,4.7c8.9-8.4,13.6-12.2,22.9-19.6
			c2.8,3.3,4.2,5.1,6.5,8.4c-14.5,11.2-21.5,17.3-34.6,30.9C456,807.7,454.1,804,452.7,800.2z"/>
		<path id="XMLID_61_" class="st2" d="M470.5,726.3c1.4-6.1,5.1-11.7,11.7-15.9c9.8-6.5,18.7-7,26.7-1.9c4.7,2.8,8.9,8,12.6,14.5
			s6.1,12.6,7,18.2c1.4,10.3-1.9,18.2-10.8,23.9c-4.2,2.8-8.4,4.2-13.6,4.2c-4.7,0-9.4-1.9-13.1-5.6c4.2-3.3,6.5-4.7,10.8-8
			c1.4,1.4,2.8,1.9,4.7,2.3s3.7-0.5,5.6-1.4c3.7-2.3,5.1-6.1,4.2-10.8c-0.5-2.8-1.9-6.1-4.2-10.3c-0.5,1.9-0.9,3.3-1.9,4.7
			c-1.4,2.3-3.7,4.7-7,7c-4.7,3.3-9.8,4.7-15,4.2c-5.6,0-10.3-2.8-14.5-8C470.5,738.5,469.1,732.4,470.5,726.3z M504.6,732.9
			c1.9-3.3,1.4-6.5-0.9-10.3c-1.9-2.8-4.2-4.7-7-5.6c-2.8-0.5-5.6,0-8.4,1.9c-2.3,1.4-3.7,3.3-4.2,5.1c-1.4,3.3-0.5,6.5,1.9,10.3
			c2.3,3.3,4.7,4.7,7,5.6c2.3,0.5,5.1,0,8.4-2.3C502.3,736.2,503.7,734.8,504.6,732.9z"/>
		<path id="XMLID_24_" class="st2" d="M545.8,727.3c1.9,2.3,3.7,3.7,5.6,4.2c1.9,0.5,4.2,0.5,6.5-0.9c2.8-1.4,4.7-3.3,5.1-6.1
			c0.5-2.8,0.5-5.6-0.9-8.4c-1.4-2.8-3.3-5.1-5.6-6.5c-2.3-1.4-5.1-1.4-8.4,0.5c-1.4,0.9-2.8,1.4-3.7,2.3c-1.4,1.4-2.3,3.3-2.8,5.6
			c-4.7,1.9-6.5,3.3-11.2,5.1c-5.1-13.1-7.5-19.6-12.2-33.2c15-8,22.5-11.7,37.4-17.8c1.4,3.7,2.3,5.6,4.2,9.8
			c-11.2,4.7-16.4,7-27.1,12.6c1.4,5.6,2.3,8,3.7,13.6c1.4-1.9,2.3-3.7,3.3-4.7c1.4-1.4,3.7-2.8,6.1-4.2c5.1-2.3,10.8-3.3,16.4-1.4
			c5.6,1.9,9.4,5.6,11.7,11.7c2.3,5.6,2.3,10.8,0.5,16.8c-1.9,5.6-6.1,10.3-13.1,13.6c-5.6,2.8-10.8,3.7-15.9,2.8
			c-5.1-0.9-9.4-3.7-12.6-8.9C538.7,730.6,541.1,729.6,545.8,727.3z"/>
		<path id="XMLID_23_" class="st2" d="M612.2,649.2c4.7-1.4,7-1.9,11.7-2.8c-5.6,28.5-7,42.6-9.4,71.1c-4.2,1.4-6.1,1.9-9.8,3.3
			C606.1,691.7,607.5,677.7,612.2,649.2z"/>
		<path id="XMLID_56_" class="st2" d="M686.5,654.8c0-0.9-0.5-1.9-1.9-3.3c-1.9-1.9-4.2-2.3-7-2.3c-4.7,0.5-7.5,3.3-8.9,8
			c-0.5,2.8-0.9,6.5-0.5,11.2c1.4-1.9,3.3-3.7,5.1-4.7c2.3-0.9,4.7-1.9,7.5-2.3c6.1-0.5,11.7,0.9,15.9,4.2c4.2,3.3,6.5,8.4,7,14
			c0.5,6.1-1.4,11.2-4.2,15.9c-3.3,4.7-8.4,7.5-15.9,8.4c-8,0.9-14-1.4-19.2-7.5c-3.7-4.7-6.5-10.8-8-19.2
			c-0.9-4.7-1.4-8.4-1.4-11.7c0-5.6,0.5-10.3,2.3-14c1.4-3.3,3.7-6.1,7-8.4c3.3-2.3,7-3.7,11.7-4.2c7-0.9,12.6,0,16.8,2.8
			s7,6.5,7.5,11.7C695,653.9,692.2,654.3,686.5,654.8z M674.9,691.7c2.3,1.9,4.7,2.8,7.5,2.3c2.8-0.5,5.1-1.4,6.5-3.7
			c1.4-2.3,1.9-5.1,1.9-8.4c-0.5-3.7-1.4-6.5-3.7-8c-2.3-1.9-4.7-2.3-7.5-2.3c-2.3,0.5-4.2,0.9-5.6,2.8c-2.3,2.3-3.3,5.6-2.8,9.4
			C671.1,687.1,672.5,689.9,674.9,691.7z"/>
		<path id="XMLID_53_" class="st2" d="M753,645.4c3.3,6.1,4.7,14,3.7,24.3c-0.9,10.3-3.3,18.2-6.5,23.9c-3.7,5.6-9.4,8-17.3,8
			c-8,0-13.6-2.8-17.3-8.4c-3.3-5.6-5.6-13.6-6.1-23.9c-0.5-10.3,0.9-18.7,4.7-24.3c3.7-5.6,10.3-8.9,19.6-8.4
			C743.1,637,749.7,639.8,753,645.4z M725.4,685.7c1.4,3.7,3.7,5.6,7.5,5.6s6.5-1.9,7.5-5.6c1.4-3.7,2.3-9.4,2.3-16.4
			c0.5-7.5,0-13.1-1.4-16.8c-1.4-3.7-3.7-5.6-8-5.6c-4.2,0-7,1.9-8.4,5.6c-1.4,3.7-1.9,9.4-1.9,16.8
			C723.5,676.3,724.4,681.9,725.4,685.7z"/>
		<path id="XMLID_50_" class="st2" d="M847.4,653.9c2.3,1.9,4.2,3.7,5.6,6.1c0.9,1.9,1.9,4.2,1.9,6.1c0.5,2.3,0,4.2-0.5,7
			c-0.9,2.8-2.8,5.6-5.1,8c-2.3,2.3-5.6,3.3-9.8,3.7c2.8,1.9,4.7,4.2,5.1,6.5c0.5,2.3,0.5,6.1-0.9,10.3c-0.5,1.9-0.9,2.3-1.4,4.2
			c-0.9,2.8-1.4,4.7-1.4,5.6c0,1.9,0.5,3.3,1.4,4.2c0,0.5-0.5,0.9-0.5,1.4c-5.6-1.9-8.4-2.8-14.5-4.2c0-1.4,0-2.8,0-3.7
			c0-1.9,0.5-3.7,0.9-5.6c0.5-2.3,0.9-3.3,1.4-5.6c0.9-3.7,0.9-7,0-8.4c-0.9-1.9-3.7-2.8-7.5-3.7c-5.6-1.4-8.4-1.9-14-2.8
			c-1.9,9.8-2.8,15-5.1,24.8c-5.1-0.9-8-1.4-13.1-2.3c4.2-25.3,6.1-37.9,10.3-63.1c14.5,2.3,21.5,3.7,35.5,7.5
			C841.4,650.6,845.1,652,847.4,653.9z M813.8,655.3c-1.4,6.5-1.9,10.3-3.3,16.8c6.1,1.4,9.4,1.9,15.4,3.3c3.3,0.9,5.6,0.9,7,0.9
			c2.8-0.5,5.1-2.3,6.1-6.1c0.9-3.7,0.5-6.5-1.9-8.4c-1.4-0.9-3.7-1.9-6.5-2.8C823.6,657.6,820.3,656.7,813.8,655.3z"/>
		<path id="XMLID_16_" class="st2" d="M855.9,709c3.3-3.3,8.9-6.1,17.3-8c7.5-1.4,12.2-2.8,14.5-3.7c3.7-1.4,6.1-3.7,7.5-6.5
			c0.9-2.3,0.9-4.7,0.5-7c-0.9-2.3-2.8-4.2-5.6-5.1c-4.2-1.9-7.5-1.4-9.8,0.5c-1.4,1.4-2.8,3.3-4.2,6.5c-5.1-1.9-7.5-2.8-12.6-4.7
			c1.9-5.1,4.2-8.9,7.5-11.2c5.6-4.7,13.6-5.1,22.9-1.4c7.5,2.8,12.6,7.5,15.4,12.6c2.8,5.1,2.8,10.8,0,16.4
			c-1.9,4.2-5.1,7.5-9.4,9.4c-2.8,1.4-7,2.3-12.2,3.3c-2.3,0.5-3.7,0.5-6.5,0.9c-3.7,0.9-6.5,1.4-8,1.9s-2.8,1.4-4.2,1.9
			c10.8,4.2,16.4,6.5,26.7,11.2c-1.9,3.7-2.8,6.1-4.7,9.8c-15.9-7.5-24.3-10.8-41.2-16.4C850.7,715.6,853.1,711.8,855.9,709z"/>
		<path id="XMLID_15_" class="st2" d="M904.5,729.2c3.7-2.8,9.8-4.7,18.2-5.6c7.5-0.5,12.6-0.9,15-1.4c3.7-0.9,6.5-2.8,8.4-5.6
			c1.4-2.3,1.9-4.7,1.4-7c-0.5-2.3-2.3-4.7-5.1-6.1c-3.7-2.3-7-2.3-9.8-0.9c-1.4,0.9-3.3,2.8-5.1,6.1c-4.7-2.8-7.5-3.7-12.2-6.5
			c2.8-4.7,5.6-8,8.9-10.3c6.5-3.7,14-3.3,22.9,1.9c7,4.2,11.7,8.9,13.6,14.5c1.9,5.6,1.4,11.2-1.9,16.4c-2.3,3.7-6.1,6.5-10.8,8
			c-2.8,0.9-7.5,1.4-12.6,1.4c-2.8,0-3.7,0-6.5,0.5c-4.2,0-7,0.5-8.4,0.9c-1.4,0.5-2.8,0.9-4.2,1.4c10.3,5.6,15.4,8.9,25.3,15
			c-2.3,3.7-3.7,5.6-6.1,9.4c-15-9.8-22.9-14.5-38.8-22.5C898,735.2,901.2,732,904.5,729.2z"/>
		<path id="XMLID_14_" class="st2" d="M950.3,755.8c4.7,3.3,7,5.1,11.7,8.4c-3.3,4.2-4.7,6.1-8,10.3c-4.7-3.3-6.5-5.1-11.2-8
			C946.1,762.4,947.5,760,950.3,755.8z"/>
		<path id="XMLID_13_" class="st2" d="M982.1,775.5c-1.4,2.3-1.9,4.7-1.4,7c0,2.3,1.4,4.2,3.7,6.1c2.3,2.3,5.1,3.3,8,2.8
			c2.8-0.5,5.1-1.9,7.5-4.2s3.3-5.1,3.7-8c0-2.8-0.9-5.6-3.7-8c-1.4-0.9-2.8-1.9-3.7-2.3c-2.3-0.9-4.2-0.9-6.5-0.5
			c-3.7-3.3-5.6-5.1-9.4-8.4c10.3-9.8,15.4-14.5,25.7-23.9c13.6,10.8,19.6,16.8,32.3,29c-2.8,2.8-4.2,4.7-7.5,7.5
			c-8.9-8.9-13.6-13.1-23.4-21.5c-4.2,3.3-6.5,5.1-10.8,8.9c2.3,0.5,4.2,0.9,5.6,1.4c1.9,0.9,4.2,2.3,6.5,4.2
			c4.7,4.2,7.5,9.4,8.4,15c0.9,5.6-0.9,10.8-6.1,15.9c-4.2,4.2-9.4,6.1-15.4,6.5s-12.2-1.9-18.2-7.5c-4.7-4.2-8-8.9-8.9-14
			c-1.4-5.1,0-10.3,2.8-15C976.1,770.3,977.9,771.7,982.1,775.5z"/>
	</g>
</g>
<circle id="XMLID_12_" class="st0" cx="726.8" cy="1082.3" r="165.6"/>
<polygon id="XMLID_11_" class="st0" points="557.5,928.9 542.5,915.8 545.8,896.6 564.5,889.6 579.9,902.7 576.2,922.3 "/>
<polygon id="XMLID_10_" class="st0" points="712.7,862.9 707.6,843.7 721.2,829.7 740.8,834.4 745.9,853.6 732.4,867.6 "/>
<polygon id="XMLID_9_" class="st0" points="709.5,1324.5 709.5,1304.4 726.3,1294.1 744.1,1304 744.1,1323.6 727.2,1333.9 "/>
<polygon id="XMLID_8_" class="st0" points="882.5,1265.1 872.7,1247.8 882.5,1231 902.6,1231 912.5,1247.8 902.6,1265.1 "/>
<polygon id="XMLID_7_" class="st0" points="486.8,1094 475.1,1078.1 483.1,1059.8 502.7,1058 514.4,1073.9 506.5,1092.1 "/>
<polygon id="XMLID_6_" class="st0" points="553.7,1266.6 541.6,1251.1 548.6,1232.4 568.2,1229.6 580.8,1245 573.4,1263.7 "/>
<polygon id="XMLID_5_" class="st0" points="875.5,920 875,899.9 891.4,889.6 909.2,898.5 910.1,918.6 893.3,929.3 "/>
<polygon id="XMLID_4_" class="st0" points="958.8,1095.8 941.4,1085.5 941.9,1065.9 959.2,1056.1 976.1,1066.4 976.1,1086 "/>
<circle id="XMLID_3_" class="st0" cx="726.8" cy="1082.3" r="198.8"/>
</svg>
