<?xml version="1.0" encoding="utf-8"?>
<!-- Generator: Adobe Illustrator 19.0.0, SVG Export Plug-In . SVG Version: 6.00 Build 0)  -->
<svg version="1.1" id="Ebene_1" xmlns="http://www.w3.org/2000/svg" xmlns:xlink="http://www.w3.org/1999/xlink" x="0px" y="0px"
	 viewBox="-424 -426.4 1417.4 2126" style="enable-background:new -424 -426.4 1417.4 2126;" xml:space="preserve">
<style type="text/css">
	.st0{fill:none;stroke:#000000;stroke-width:5;stroke-linecap:round;stroke-miterlimit:10;}
	.st1{enable-background:new    ;}
	.st2{fill:#62F1AC;}
	.st3{fill:none;stroke:#62F1AC;stroke-width:5;stroke-linecap:round;stroke-miterlimit:10;}
	.st4{fill:#FFFFFF;stroke:#000000;stroke-width:5;stroke-miterlimit:10;}
	.st5{fill:#FFFFFF;stroke:#62F1AC;stroke-width:5;stroke-miterlimit:10;}
</style>
<path class="st0" d="M438.7,1522.3h-361c-16.6,0-30.1-13.6-30.1-30.1v-497c0-16.6,13.6-30.1,30.1-30.1h361
	c16.6,0,30.1,13.6,30.1,30.1v497C468.8,1508.7,455.3,1522.3,438.7,1522.3z"/>
<g class="st1">
	<path class="st2" d="M122.7,1108.8h-16.2l21.4-33.9l-20.4-32.7h16.6l11.9,21.7l12.2-21.7h16l-20.4,32.1l21.6,34.4h-16.9l-12.7-22.7
		L122.7,1108.8z"/>
	<path class="st2" d="M214.1,1064.9c4,4.2,6,10.4,6,18.7c0,8.6-1.9,15.3-5.9,19.8c-4,4.5-8.9,6.8-15.1,6.8c-4,0-7.2-1-9.8-2.9
		c-1.4-1.1-2.8-2.7-4.2-4.8v25.6h-12.8v-68.5h12.3v7.2c1.4-2.2,2.9-3.8,4.5-5.1c2.9-2.2,6.3-3.3,10.3-3.3
		C205.2,1058.5,210.1,1060.6,214.1,1064.9z M204.2,1074.1c-1.7-2.9-4.5-4.4-8.5-4.4c-4.7,0-8,2.2-9.7,6.6c-0.9,2.3-1.3,5.3-1.3,8.9
		c0,5.7,1.6,9.8,4.6,12.1c1.8,1.3,4,2,6.5,2c3.7,0,6.4-1.4,8.3-4.2s2.8-6.5,2.8-11C206.8,1080.4,206,1077,204.2,1074.1z"/>
	<path class="st2" d="M256.5,1058.5c0.1,0,0.5,0.1,1.1,0.1v13.2c-0.8-0.1-1.6-0.1-2.2-0.1s-1.1-0.1-1.6-0.1c-5.1,0-8.6,1.7-10.4,5.1
		c-1,1.9-1.5,4.8-1.5,8.7v23.5h-13v-49.2h12.3v8.6c2-3.3,3.7-5.5,5.2-6.7c2.4-2,5.5-3.1,9.4-3.1
		C256.2,1058.4,256.3,1058.5,256.5,1058.5z"/>
	<path class="st2" d="M297.2,1060.6c3.4,1.6,6.3,4,8.5,7.3c2,2.9,3.4,6.3,4,10.1c0.4,2.2,0.5,5.5,0.4,9.8h-35.9
		c0.2,4.9,1.9,8.4,5.1,10.4c1.9,1.3,4.3,1.9,7.1,1.9c2.9,0,5.3-0.7,7.2-2.2c1-0.8,1.9-1.9,2.7-3.4h13.1c-0.4,2.9-1.9,5.9-4.8,8.9
		c-4.4,4.8-10.6,7.2-18.5,7.2c-6.6,0-12.3-2-17.3-6c-5-4-7.5-10.6-7.5-19.7c0-8.5,2.2-15.1,6.8-19.6s10.4-6.9,17.6-6.9
		C289.9,1058.3,293.7,1059.1,297.2,1060.6z M277.9,1071.7c-1.8,1.9-3,4.4-3.4,7.6h22.1c-0.2-3.4-1.3-6-3.4-7.8
		c-2.1-1.8-4.6-2.7-7.6-2.7C282.3,1068.9,279.8,1069.8,277.9,1071.7z"/>
	<path class="st2" d="M326.6,1093.1c0.3,2.3,0.9,3.9,1.8,4.8c1.6,1.7,4.5,2.5,8.9,2.5c2.5,0,4.5-0.4,6-1.1c1.5-0.7,2.2-1.9,2.2-3.4
		c0-1.4-0.6-2.5-1.8-3.3s-5.7-2-13.4-3.9c-5.6-1.4-9.5-3.1-11.8-5.2c-2.3-2-3.4-5-3.4-8.9c0-4.5,1.8-8.4,5.4-11.7
		c3.6-3.3,8.6-4.9,15.1-4.9c6.1,0,11.2,1.2,15.1,3.7s6.1,6.7,6.6,12.7h-12.9c-0.1-1.6-0.7-3-1.4-4c-1.4-1.7-3.8-2.6-7.2-2.6
		c-2.8,0-4.8,0.4-6,1.3s-1.8,1.9-1.8,3.1c0,1.5,0.6,2.5,1.9,3.2c1.3,0.7,5.7,1.9,13.4,3.6c5.1,1.2,8.9,3.1,11.6,5.4
		c2.5,2.5,3.8,5.5,3.8,9.2c0,4.8-1.8,8.9-5.4,11.9c-3.7,3.1-9.2,4.6-16.9,4.6c-7.8,0-13.5-1.6-17.1-4.9c-3.7-3.3-5.5-7.5-5.5-12.5
		h13V1093.1z"/>
	<path class="st2" d="M377.9,1093.1c0.3,2.3,0.9,3.9,1.8,4.8c1.6,1.7,4.5,2.5,8.9,2.5c2.5,0,4.5-0.4,6-1.1s2.2-1.9,2.2-3.4
		c0-1.4-0.6-2.5-1.8-3.3c-1.2-0.7-5.7-2-13.4-3.9c-5.6-1.4-9.5-3.1-11.8-5.2c-2.3-2-3.4-5-3.4-8.9c0-4.5,1.8-8.4,5.4-11.7
		c3.6-3.3,8.6-4.9,15.1-4.9c6.1,0,11.2,1.2,15.1,3.7c3.9,2.5,6.1,6.7,6.6,12.7h-12.9c-0.1-1.6-0.7-3-1.4-4c-1.4-1.7-3.8-2.6-7.2-2.6
		c-2.8,0-4.8,0.4-6,1.3s-1.8,1.9-1.8,3.1c0,1.5,0.6,2.5,1.9,3.2s5.7,1.9,13.4,3.6c5.1,1.2,8.9,3.1,11.6,5.4c2.5,2.5,3.8,5.5,3.8,9.2
		c0,4.8-1.8,8.9-5.4,11.9c-3.7,3.1-9.2,4.6-16.9,4.6c-7.8,0-13.5-1.6-17.1-4.9c-3.7-3.3-5.5-7.5-5.5-12.5h13V1093.1z"/>
</g>
<path class="st0" d="M435.6,538.4h-361c-16.6,0-30.1-13.6-30.1-30.1v-497c0-16.6,13.6-30.1,30.1-30.1h361
	c16.6,0,30.1,13.6,30.1,30.1v497C465.7,524.8,452.2,538.4,435.6,538.4z"/>
<g>
	<line class="st0" x1="101.9" y1="165.5" x2="408.5" y2="165.5"/>
	<line class="st0" x1="101.9" y1="190.3" x2="408.5" y2="190.3"/>
	<line class="st0" x1="101.9" y1="215.2" x2="408.5" y2="215.2"/>
	<line class="st0" x1="101.9" y1="240" x2="408.5" y2="240"/>
	<line class="st0" x1="101.9" y1="264.8" x2="408.5" y2="264.8"/>
	<line class="st0" x1="101.9" y1="289.7" x2="408.5" y2="289.7"/>
	<line class="st0" x1="101.9" y1="314.5" x2="408.5" y2="314.5"/>
	<line class="st0" x1="101.9" y1="339.3" x2="408.5" y2="339.3"/>
</g>
<circle class="st3" cx="352.8" cy="413.6" r="59"/>
<g>
	<line class="st3" x1="321.2" y1="416.3" x2="347.5" y2="442.7"/>
	<line class="st3" x1="347.5" y1="442.7" x2="394.7" y2="396.7"/>
</g>
<g class="st1">
	<path class="st2" d="M119.6,124.9h-16.2L124.8,91l-20.4-32.7h16.6L133,80l12.2-21.7h16l-20.4,32.1l21.6,34.4h-16.9L133,102.1
		L119.6,124.9z"/>
	<path class="st2" d="M211,81c4,4.3,6,10.4,6,18.7c0,8.6-1.9,15.3-5.9,19.8s-8.9,6.8-15.1,6.8c-4,0-7.2-1-9.8-2.9
		c-1.4-1.1-2.8-2.7-4.2-4.8v25.6h-12.8V75.7h12.3V83c1.4-2.2,2.9-3.8,4.5-5.1c2.9-2.2,6.3-3.3,10.3-3.3C202.1,74.6,207,76.7,211,81z
		 M201.1,90.2c-1.7-2.9-4.5-4.4-8.5-4.4c-4.7,0-8,2.2-9.7,6.6c-0.9,2.3-1.3,5.3-1.3,8.9c0,5.7,1.6,9.8,4.6,12.1c1.8,1.3,4,2,6.5,2
		c3.7,0,6.4-1.4,8.3-4.2c1.9-2.8,2.8-6.5,2.8-11C203.7,96.5,202.9,93.1,201.1,90.2z"/>
	<path class="st2" d="M253.4,74.5c0.1,0,0.5,0.1,1.1,0.1v13.2c-0.8-0.1-1.6-0.1-2.2-0.1c-0.6,0-1.1-0.1-1.6-0.1
		c-5.1,0-8.6,1.7-10.4,5.1c-1,1.9-1.5,4.8-1.5,8.7v23.5h-13V75.7h12.3v8.6c2-3.3,3.7-5.5,5.2-6.7c2.4-2,5.5-3.1,9.4-3.1
		C253.1,74.5,253.2,74.5,253.4,74.5z"/>
	<path class="st2" d="M294.1,76.7c3.4,1.6,6.3,4,8.5,7.3c2,2.9,3.4,6.3,4,10.1c0.4,2.2,0.5,5.5,0.4,9.8h-35.9
		c0.2,4.9,1.9,8.4,5.1,10.4c1.9,1.3,4.3,1.9,7.1,1.9c2.9,0,5.3-0.7,7.2-2.2c1-0.8,1.9-1.9,2.7-3.4h13.1c-0.4,2.9-1.9,5.9-4.8,8.9
		c-4.4,4.8-10.6,7.2-18.5,7.2c-6.6,0-12.3-2-17.3-6c-5-4-7.5-10.6-7.5-19.7c0-8.5,2.2-15.1,6.8-19.6c4.5-4.5,10.4-6.9,17.6-6.9
		C286.9,74.4,290.7,75.1,294.1,76.7z M274.8,87.8c-1.8,1.9-3,4.4-3.4,7.6h22.1c-0.2-3.4-1.3-6-3.4-7.8c-2.1-1.8-4.6-2.7-7.6-2.7
		C279.2,85,276.7,85.9,274.8,87.8z"/>
	<path class="st2" d="M323.5,109.1c0.3,2.3,0.9,3.9,1.8,4.8c1.6,1.7,4.5,2.5,8.9,2.5c2.5,0,4.5-0.4,6-1.1c1.5-0.7,2.2-1.9,2.2-3.4
		c0-1.4-0.6-2.5-1.8-3.3c-1.2-0.7-5.7-2-13.4-3.9c-5.6-1.4-9.5-3.1-11.8-5.2c-2.3-2-3.4-5-3.4-8.9c0-4.5,1.8-8.4,5.4-11.7
		c3.6-3.3,8.6-4.9,15.1-4.9c6.1,0,11.2,1.2,15.1,3.7c3.9,2.5,6.1,6.7,6.6,12.7h-12.9c-0.1-1.6-0.7-3-1.4-4c-1.4-1.7-3.8-2.6-7.2-2.6
		c-2.8,0-4.8,0.4-6,1.3c-1.2,0.9-1.8,1.9-1.8,3.1c0,1.5,0.6,2.5,1.9,3.2c1.3,0.7,5.7,1.9,13.4,3.6c5.1,1.2,8.9,3.1,11.6,5.4
		c2.5,2.5,3.8,5.5,3.8,9.2c0,4.8-1.8,8.9-5.4,11.9c-3.7,3.1-9.2,4.6-16.9,4.6c-7.8,0-13.5-1.6-17.1-4.9c-3.7-3.3-5.5-7.5-5.5-12.5
		h13V109.1z"/>
	<path class="st2" d="M374.8,109.1c0.3,2.3,0.9,3.9,1.8,4.8c1.6,1.7,4.5,2.5,8.9,2.5c2.5,0,4.5-0.4,6-1.1c1.5-0.7,2.2-1.9,2.2-3.4
		c0-1.4-0.6-2.5-1.8-3.3c-1.2-0.7-5.7-2-13.4-3.9c-5.6-1.4-9.5-3.1-11.8-5.2c-2.3-2-3.4-5-3.4-8.9c0-4.5,1.8-8.4,5.4-11.7
		c3.6-3.3,8.6-4.9,15.1-4.9c6.1,0,11.2,1.2,15.1,3.7c3.9,2.5,6.1,6.7,6.6,12.7h-12.9c-0.1-1.6-0.7-3-1.4-4c-1.4-1.7-3.8-2.6-7.2-2.6
		c-2.8,0-4.8,0.4-6,1.3c-1.2,0.9-1.8,1.9-1.8,3.1c0,1.5,0.6,2.5,1.9,3.2c1.3,0.7,5.7,1.9,13.4,3.6c5.1,1.2,8.9,3.1,11.6,5.4
		c2.5,2.5,3.8,5.5,3.8,9.2c0,4.8-1.8,8.9-5.4,11.9c-3.7,3.1-9.2,4.6-16.9,4.6c-7.8,0-13.5-1.6-17.1-4.9c-3.7-3.3-5.5-7.5-5.5-12.5
		h13V109.1z"/>
</g>
<line class="st0" x1="-244.8" y1="690.2" x2="769.3" y2="690.2"/>
<path class="st4" d="M307.9,1290.8H124.4c-5.4,0-9.8-4.4-9.8-9.8v-21.3l-9.6-8.4l9.6-9.4v-27.1c0-5.4,4.4-9.8,9.8-9.8h183.5
	c5.4,0,9.8,4.4,9.8,9.8v66.2C317.7,1286.4,313.3,1290.8,307.9,1290.8z"/>
<g>
	<line class="st0" x1="143.4" y1="1235.4" x2="291.4" y2="1235.4"/>
	<line class="st0" x1="143.4" y1="1260.3" x2="291.4" y2="1260.3"/>
</g>
<path class="st4" d="M200.1,1440.8h183.5c5.4,0,9.8-4.4,9.8-9.8v-21.3l9.6-8.4l-9.6-9.4v-27.1c0-5.4-4.4-9.8-9.8-9.8H200.1
	c-5.4,0-9.8,4.4-9.8,9.8v66.2C190.3,1436.4,194.7,1440.8,200.1,1440.8z"/>
<g id="xvSUI5.tif">
	<g>
		<path class="st4" d="M347.7,1382.7c45.1-45.1,90.1-90.1,134.9-134.9c-10.2-10.2-20.5-20.5-30.7-30.7
			C407.1,1262,362,1307.1,317,1352C327.2,1362.2,337.5,1372.5,347.7,1382.7z M493.2,1237.9c0.2-0.2,0.5-0.4,0.8-0.7
			c6.4-6.4,12.9-12.7,19.2-19.2c5.4-5.5,5.3-12.1-0.1-17.7c-4.3-4.4-8.7-8.8-13.1-13.1c-6.1-6.1-12.6-6.1-18.7,0
			c-5.7,5.7-11.4,11.5-17.2,17.1c-0.8,0.8-1.8,1.2-2.6,1.7C472.4,1217.1,482.7,1227.4,493.2,1237.9z M308,1362.1
			c-2.3,12.1-4.7,24.3-7.1,36.9c12.6-2.4,24.8-4.8,36.9-7.1C327.8,1381.8,317.9,1372,308,1362.1z"/>
		<path class="st4" d="M347.7,1382.7c-10.2-10.2-20.5-20.5-30.7-30.7c45-45,90-90,134.9-134.9c10.1,10.1,20.5,20.5,30.7,30.7
			C437.8,1292.6,392.8,1337.7,347.7,1382.7z"/>
		<path class="st5" d="M493.2,1237.9c-10.5-10.5-20.8-20.8-31.8-31.8c0.8-0.5,1.8-1,2.6-1.7c5.8-5.7,11.5-11.4,17.2-17.1
			c6.1-6.1,12.6-6.1,18.7,0c4.4,4.4,8.8,8.7,13.1,13.1c5.5,5.6,5.5,12.2,0.1,17.7c-6.3,6.5-12.8,12.8-19.2,19.2
			C493.7,1237.5,493.4,1237.7,493.2,1237.9z"/>
		<path class="st5" d="M308,1362.1c9.9,9.9,19.8,19.8,29.7,29.7c-12.1,2.3-24.3,4.7-36.9,7.1C303.3,1386.4,305.7,1374.1,308,1362.1z
			"/>
	</g>
</g>
<path class="st0" d="M-1026.5,215.3h-361c-16.6,0-30.1-13.6-30.1-30.1v-497c0-16.6,13.6-30.1,30.1-30.1h361
	c16.6,0,30.1,13.6,30.1,30.1v497C-996.4,201.7-1009.9,215.3-1026.5,215.3z"/>
<g>
	<line class="st0" x1="-1360.2" y1="-157.6" x2="-1053.6" y2="-157.6"/>
	<line class="st0" x1="-1360.2" y1="-132.8" x2="-1053.6" y2="-132.8"/>
	<line class="st0" x1="-1360.2" y1="-108" x2="-1053.6" y2="-108"/>
	<line class="st0" x1="-1360.2" y1="-83.1" x2="-1053.6" y2="-83.1"/>
	<line class="st0" x1="-1360.2" y1="-58.3" x2="-1053.6" y2="-58.3"/>
	<line class="st0" x1="-1360.2" y1="-33.5" x2="-1053.6" y2="-33.5"/>
	<line class="st0" x1="-1360.2" y1="-8.7" x2="-1053.6" y2="-8.7"/>
	<line class="st0" x1="-1360.2" y1="16.2" x2="-1053.6" y2="16.2"/>
	<line class="st0" x1="-1360.2" y1="41" x2="-1199.8" y2="41"/>
	<line class="st0" x1="-1360.2" y1="65.8" x2="-1199.8" y2="65.8"/>
	<line class="st0" x1="-1360.2" y1="90.4" x2="-1199.8" y2="90.4"/>
	<line class="st0" x1="-1360.2" y1="115.3" x2="-1199.8" y2="115.3"/>
	<line class="st0" x1="-1360.2" y1="140.1" x2="-1199.8" y2="140.1"/>
</g>
<circle class="st3" cx="-1109.2" cy="90.4" r="59"/>
<g>
	<line class="st3" x1="-1140.9" y1="93.2" x2="-1114.5" y2="119.5"/>
	<line class="st3" x1="-1114.5" y1="119.5" x2="-1067.4" y2="73.5"/>
</g>
<g class="st1">
	<path class="st2" d="M-1342.5-198.3h-16.2l21.4-33.9l-20.4-32.7h16.6l11.9,21.7l12.2-21.7h16l-20.4,32.1l21.6,34.4h-16.9
		l-12.7-22.7L-1342.5-198.3z"/>
	<path class="st2" d="M-1251.1-242.2c4,4.3,6,10.4,6,18.7c0,8.6-1.9,15.3-5.9,19.8c-4,4.5-8.9,6.8-15.1,6.8c-4,0-7.2-1-9.8-2.9
		c-1.4-1.1-2.8-2.7-4.2-4.8v25.6h-12.8v-68.5h12.3v7.2c1.4-2.2,2.9-3.8,4.5-5.1c2.9-2.2,6.3-3.3,10.3-3.3
		C-1260-248.5-1255.1-246.4-1251.1-242.2z M-1261-232.9c-1.7-2.9-4.5-4.4-8.5-4.4c-4.7,0-8,2.2-9.7,6.6c-0.9,2.3-1.3,5.3-1.3,8.9
		c0,5.7,1.6,9.8,4.6,12.1c1.8,1.3,4,2,6.5,2c3.7,0,6.4-1.4,8.3-4.2c1.9-2.8,2.8-6.5,2.8-11C-1258.4-226.7-1259.2-230-1261-232.9z"/>
	<path class="st2" d="M-1208.6-248.6c0.1,0,0.5,0.1,1.1,0.1v13.2c-0.8-0.1-1.6-0.1-2.2-0.1c-0.6,0-1.1-0.1-1.6-0.1
		c-5.1,0-8.6,1.7-10.4,5.1c-1,1.9-1.5,4.8-1.5,8.7v23.5h-13v-49.2h12.3v8.6c2-3.3,3.7-5.5,5.2-6.7c2.4-2,5.5-3.1,9.4-3.1
		C-1209-248.7-1208.9-248.6-1208.6-248.6z"/>
	<path class="st2" d="M-1168-246.4c3.4,1.6,6.3,4,8.5,7.3c2,2.9,3.4,6.3,4,10.1c0.4,2.2,0.5,5.5,0.4,9.8h-35.9
		c0.2,4.9,1.9,8.4,5.1,10.4c1.9,1.3,4.3,1.9,7.1,1.9c2.9,0,5.3-0.7,7.2-2.2c1-0.8,1.9-1.9,2.7-3.4h13.1c-0.4,2.9-1.9,5.9-4.8,8.9
		c-4.4,4.8-10.6,7.2-18.5,7.2c-6.6,0-12.3-2-17.3-6c-5-4-7.5-10.6-7.5-19.7c0-8.5,2.2-15.1,6.8-19.6c4.5-4.5,10.4-6.9,17.6-6.9
		C-1175.2-248.7-1171.4-248-1168-246.4z M-1187.2-235.3c-1.8,1.9-3,4.4-3.4,7.6h22.1c-0.2-3.4-1.3-6-3.4-7.8
		c-2.1-1.8-4.6-2.7-7.6-2.7C-1182.8-238.2-1185.4-237.3-1187.2-235.3z"/>
	<path class="st2" d="M-1138.6-214c0.3,2.3,0.9,3.9,1.8,4.8c1.6,1.7,4.5,2.5,8.9,2.5c2.5,0,4.5-0.4,6-1.1c1.5-0.7,2.2-1.9,2.2-3.4
		c0-1.4-0.6-2.5-1.8-3.3c-1.2-0.7-5.7-2-13.4-3.9c-5.6-1.4-9.5-3.1-11.8-5.2c-2.3-2-3.4-5-3.4-8.9c0-4.5,1.8-8.4,5.4-11.7
		s8.6-4.9,15.1-4.9c6.1,0,11.2,1.2,15.1,3.7c3.9,2.5,6.1,6.7,6.6,12.7h-12.9c-0.1-1.6-0.7-3-1.4-4c-1.4-1.7-3.8-2.6-7.2-2.6
		c-2.8,0-4.8,0.4-6,1.3c-1.2,0.9-1.8,1.9-1.8,3.1c0,1.5,0.6,2.5,1.9,3.2c1.3,0.7,5.7,1.9,13.4,3.6c5.1,1.2,8.9,3.1,11.6,5.4
		c2.5,2.5,3.8,5.5,3.8,9.2c0,4.8-1.8,8.9-5.4,11.9c-3.7,3.1-9.2,4.6-16.9,4.6c-7.8,0-13.5-1.6-17.1-4.9c-3.7-3.3-5.5-7.5-5.5-12.5
		h13V-214z"/>
	<path class="st2" d="M-1087.2-214c0.3,2.3,0.9,3.9,1.8,4.8c1.6,1.7,4.5,2.5,8.9,2.5c2.5,0,4.5-0.4,6-1.1s2.2-1.9,2.2-3.4
		c0-1.4-0.6-2.5-1.8-3.3c-1.2-0.7-5.7-2-13.4-3.9c-5.6-1.4-9.5-3.1-11.8-5.2c-2.3-2-3.4-5-3.4-8.9c0-4.5,1.8-8.4,5.4-11.7
		s8.6-4.9,15.1-4.9c6.1,0,11.2,1.2,15.1,3.7c3.9,2.5,6.1,6.7,6.6,12.7h-12.9c-0.1-1.6-0.7-3-1.4-4c-1.4-1.7-3.8-2.6-7.2-2.6
		c-2.8,0-4.8,0.4-6,1.3c-1.2,0.9-1.8,1.9-1.8,3.1c0,1.5,0.6,2.5,1.9,3.2c1.3,0.7,5.7,1.9,13.4,3.6c5.1,1.2,8.9,3.1,11.6,5.4
		c2.5,2.5,3.8,5.5,3.8,9.2c0,4.8-1.8,8.9-5.4,11.9c-3.7,3.1-9.2,4.6-16.9,4.6c-7.8,0-13.5-1.6-17.1-4.9c-3.7-3.3-5.5-7.5-5.5-12.5
		h13V-214z"/>
</g>
</svg>
