<?xml version="1.0" encoding="utf-8"?>
<!-- Generator: Adobe Illustrator 19.0.0, SVG Export Plug-In . SVG Version: 6.00 Build 0)  -->
<svg version="1.1" id="Ebene_1" xmlns="http://www.w3.org/2000/svg" xmlns:xlink="http://www.w3.org/1999/xlink" x="0px" y="0px"
	 viewBox="0 0 283.5 283.5" style="enable-background:new 0 0 283.5 283.5;" xml:space="preserve">
<style type="text/css">
	.st0{clip-path:url(#SVGID_2_);}
	.st1{fill:#F00002;}
	.st2{fill:#FEFEFE;}
	.st3{fill:#092C70;}
	.st4{fill:#000E66;}
	.st5{fill:#001868;}
</style>
<g>
	<defs>
		<circle id="SVGID_1_" cx="141.7" cy="141.7" r="134.6"/>
	</defs>
	<clipPath id="SVGID_2_">
		<use xlink:href="#SVGID_1_"  style="overflow:visible;"/>
	</clipPath>
	<g class="st0">
		<path class="st1" d="M123.2,8.6c13.3,0,26.6,0,39.9,0c3.7,3.2,3.1,7.6,3.1,11.7c0.1,28.6,0,57.2,0.1,85.8
			c0,10.9,0.8,11.8,11.8,11.8c52.3,0.1,104.5,0,156.8,0.1c4.6,0,9.5-1,13.2,3.1c0,14.8,0,29.6,0,44.4c-3.4,3.9-8.1,3.1-12.4,3.1
			c-51.3,0.1-102.6,0-153.8,0c-15.5,0-15.5,0-15.5,15.5c0,27.6,0,55.2,0,82.8c0,3.9,0.4,8-3.1,11c-13.3,0-26.6,0-39.9,0
			c-3.7-3.2-3.1-7.6-3.1-11.7c-0.1-28.6,0-57.2-0.1-85.8c0-10.9-0.8-11.8-11.8-11.8c-52.3-0.1-104.5,0-156.8-0.1
			c-4.6,0-9.5,1-13.2-3.1c0-14.8,0-29.6,0-44.4c3.4-3.9,8.1-3.1,12.4-3.1c51.3-0.1,102.6,0,153.8,0c15.5,0,15.5,0,15.5-15.5
			c0-27.6,0-55.2,0-82.8C120.1,15.6,119.8,11.5,123.2,8.6z"/>
		<path class="st2" d="M163.2,277.9c0.1-29,0.2-58,0.5-87.1c0.1-8-3.5-18.4,1.5-23.4c4.7-4.6,15-1.3,22.8-1.3
			c50.7-0.1,101.4,0,152.1-0.1c2.7,0,5.3-0.4,8-0.6c0,3,0,5.9,0,8.9c-2.8,2.9-6.4,2.2-9.8,2.2c-28.8,0-57.6,0-86.4,0
			c-2.9,0-5.9-0.5-8.6,0.7c-0.1,2.7,2.4,2.9,3.8,3.9c31.4,21.9,62.8,43.8,94.4,65.4c3,2,5,4.6,6.6,7.7c0,3.9,0,7.9,0,11.8
			c-3.9,1.9-6.7-0.7-9.4-2.6c-33.2-23-66.7-45.6-100.1-68.4c-2.8-1.9-5.6-4.1-8.5-5.9c-9.3-5.8-17.4-14.3-28.2-12.6
			c0.1,0,1.7,0.7,3.2,1.7c45,30.2,90,60.3,134.8,90.9c3.1,2.1,7.3,3.6,6.7,8.7c-15.3,0-30.6,0-45.9,0c-4.2-1.5-8-3.5-11.6-6.1
			c-31.4-22.8-62.8-45.5-93.9-68.8c-4.9-3.7-10.2-6.9-15-10.7c-1.3-1-2.8-2.3-4.4-0.5c-1.8,3.2-1.5,6.7-1.5,10.1
			c0,22.1,0,44.2,0,66.2c0,3.4,0.7,7-2.2,9.7C169.1,277.9,166.1,277.9,163.2,277.9z"/>
		<path class="st2" d="M123.2,8.6c-0.1,29-0.2,58-0.5,87.1c-0.1,8,3.5,18.4-1.5,23.4c-4.7,4.6-15,1.3-22.8,1.3
			c-50.7,0.1-101.4,0-152.1,0.1c-2.7,0-5.3,0.4-8,0.6c0-3,0-5.9,0-8.9c2.8-2.9,6.4-2.2,9.8-2.2c28.3,0,56.6,0,84.9,0
			c2.9,0,5.9,0.4,8.6-0.9c0-3.6-3.3-4-5.3-5.4C15.2,88.7-6.1,74-27.4,59.4c-9.1-6.3-17.9-13.1-27.4-18.8c-3.3-2-5.3-5-7-8.4
			c0-3.9,0-7.9,0-11.8c3.9-1.9,6.7,0.7,9.4,2.6c33.2,23,66.7,45.5,100,68.3c5.9,4,11.9,7.9,17.7,12.1c5.3,3.8,10.9,6.8,17.9,6
			C40.9,81.5-0.9,52.6-43.2,24.6c-6.5-4.3-13.5-8.2-18.5-14.5c0.1-3.3,2.6-1.4,3.7-1.4c14.5-0.2,29.1-0.1,43.6-0.1
			c15.9,7.6,28.9,19.3,43,29.4c25,17.9,49.5,36.3,74.5,54.2c2.1,1.5,3.9,4.9,7.5,2.5c1.8-3.2,1.6-6.7,1.6-10.1c0-22.1,0-44.2,0-66.3
			c0-3.4-0.7-7,2.2-9.7C117.3,8.6,120.3,8.6,123.2,8.6z"/>
		<path class="st2" d="M-61.7,165.4c2.7,0.2,5.3,0.6,8,0.6c55.9,0,111.7,0.2,167.6-0.2c7.8-0.1,9.2,2.3,9.1,9.4
			c-0.4,31.5-0.2,63-0.1,94.5c0,2.7,0.3,5.4,0.4,8.1c-3,0-5.9,0-8.9,0c-2.7-2.5-2.2-5.8-2.2-9c0-18,0-35.9,0-53.9
			c0-3.2,0.5-6.5-1.9-9.1c-3.5-1.1-5.5,1.7-7.8,3.3c-29.8,20.9-59.8,41.5-89.7,62.3c-3.9,2.7-8.1,4.5-12.3,6.3c-6.9,0-13.8,0-20.7,0
			c-0.7-4.5,3.2-5.7,5.9-7.5c23.9-16.1,47.6-32.6,71.5-48.7c15.3-10.3,30.4-21,45.8-31.2c3.3-2.2,7.3-4.1,8.5-9.5
			c-3.4,0.6-5.3,2.6-7.4,4c-41.4,27.6-82.7,55.4-123.8,83.5c-5.7,3.9-11.4,7.6-18.2,9.4c-5.9,0-11.9-0.4-17.7,0.1
			c-5.1,0.5-7-1-6-6.1c0.3-1.4,0-3,0-4.4c12.8-11.6,27.3-20.9,41.2-31.1c26-19,51.9-38.2,78-57.1c0.7-0.5,1.9-0.9,1.3-2.2
			c-2.7-1.1-5.5-0.6-8.1-0.6c-34.2,0-68.4,0-102.6,0c-3.4,0-7,0.7-9.7-2.2C-61.7,171.3-61.7,168.4-61.7,165.4z"/>
		<path class="st2" d="M348.1,121c-2.7-0.2-5.3-0.6-8-0.6c-55.9,0-111.7-0.2-167.6,0.2c-7.8,0.1-9.2-2.3-9.1-9.4
			c0.4-31.5,0.2-63,0.1-94.5c0-2.7-0.3-5.4-0.4-8.1c3,0,5.9,0,8.9,0c2.9,2.8,2.2,6.4,2.2,9.8c0.1,22.7,0,45.3,0,68
			c0,3.2-0.4,6.5,1.6,9.2c3,1.3,4.6-1.3,6.4-2.6c35.1-25.1,69.7-50.9,104.5-76.2c4.4-3.2,9-5.9,14-8.1c14.5,0,29.1-0.1,43.6,0.1
			c1.1,0,3.6-1.9,3.7,1.4c-4.1,5.5-9.9,8.8-15.4,12.4c-43.3,28.7-86,58.3-129.4,86.8c6.6,0.9,11.9-1.9,17.1-5.5
			c38-26,76.2-51.7,114.1-77.9c4-2.8,7.6-7.5,13.7-5.5c0,3.9,0,7.9,0,11.8c-1.7,4.5-5.4,6.8-9.1,9.3c-31.5,21.6-62.8,43.5-94.2,65.3
			c-0.8,0.6-2.6,0.8-1.6,2.6c8.9,1.1,17.8,0.4,26.6,0.5c22.9,0.1,45.7,0,68.6,0.1c3.4,0,7-0.7,9.7,2.2
			C348.1,115.1,348.1,118.1,348.1,121z"/>
		<path class="st3" d="M111.4,101.6c-29.3-21.1-58.6-42.2-87.4-64C12.6,28.8,0.5,20.8-11.3,12.4c-1.3-1-3.1-1.8-3.1-3.8
			c42.4,0,84.8,0,127.2,0c1.2,1.8,0.7,3.8,0.7,5.7c0,26.7,0,53.4,0,80.1C113.6,96.9,114.6,99.9,111.4,101.6z"/>
		<path class="st3" d="M300.8,8.6c-4,5.6-10.1,8.8-15.5,12.8c-24.8,18.3-49.7,36.5-74.7,54.6c-11.8,8.6-23.8,17.1-35.7,25.6
			c-2.2-1-2.2-3-2.2-5c0-28.7-0.1-57.3,0-86c0-0.8,0.4-1.4,0.7-2.1C216,8.6,258.4,8.6,300.8,8.6z"/>
		<path class="st3" d="M64.2,177.6c-16.7,12.3-33.3,24.7-50,37c-22.4,16.5-44.9,32.9-67.5,49.3c-2.5,1.8-4.7,4.5-8.4,3.6
			c0-30.6,0-61.2,0-91.7c1.8-1.2,3.8-0.7,5.8-0.7c38,0,75.9-0.1,113.9,0.1C60,175.1,63.7,172.9,64.2,177.6z"/>
		<path class="st3" d="M175,184.8c17.3,12.8,34.6,25.7,52,38.5c17.2,12.6,34.5,25,51.6,37.6c7.5,5.5,16,9.7,22.1,16.9
			c-42.4,0-84.8,0-127.2,0c-1.2-1.8-0.7-3.8-0.7-5.7c0-26.7,0-53.4,0-80.1C172.8,189.5,171.8,186.5,175,184.8z"/>
		<path class="st3" d="M0.4,277.9c8.7-8.8,19.6-14.6,29.6-21.7c25.7-18.2,51.7-35.9,77.5-53.8c1-0.7,2.1-1.1,3.2-1.7
			c2-0.5,2.8,0.5,2.8,2.2c-0.3,25,1,50-0.7,74.9C75.4,277.9,37.9,277.9,0.4,277.9z"/>
		<path class="st3" d="M235.3,110.5c15.4-10.9,30.8-21.8,46.3-32.6c22.1-15.3,44.4-30.4,66.5-45.6c0,26.1,0,52.3,0,78.4
			c-1.5,1.1-3.3,0.7-5,0.7c-34.1,0-68.1,0-102.2,0C239,111.4,237,112,235.3,110.5z"/>
		<path class="st3" d="M348.1,254.2c-36.3-25-72.6-50-108.9-75.1c-1.4-1-2.6-2.1-3.9-3.2c1.4-1.4,3.2-0.9,4.9-0.9
			c34.6,0,69.1,0,103.7,0c1.5,0,3-0.2,4.3,0.7C348.1,201.9,348.1,228,348.1,254.2z"/>
		<path class="st3" d="M-61.7,32.2c29.4,20.5,59.1,40.4,88.2,61.4c8,5.8,16.4,11,24.2,17.1c-1.5,1.1-3.3,0.7-5,0.7
			c-34.1,0-68.2,0-102.4,0c-1.7,0-3.5,0.4-5-0.7C-61.7,84.5-61.7,58.4-61.7,32.2z"/>
		<path class="st1" d="M346.7,277.9c-2-3.7-5.9-5-9.1-7.2c-47.1-31.8-94.2-63.5-142.6-96.2c9.4-0.2,16.8-1.4,24.6,3.9
			c40.6,28.2,81.6,55.8,122.5,83.7c2,1.4,4.1,2.6,6.2,3.9C347.4,269.9,349.8,274.2,346.7,277.9z"/>
		<path class="st1" d="M348.1,20.4c-37.2,25.2-74.4,50.5-111.6,75.7c-4.3,2.9-9,5.3-12.7,8.8c-8,7.3-17.2,8.5-28.5,6.8
			c4.6-3.1,8.6-5.8,12.5-8.4c44.6-30.1,89.3-60.2,133.9-90.3c1.9-1.3,3.6-3.6,6.5-3C348.1,13.5,348.1,16.9,348.1,20.4z"/>
		<path class="st1" d="M-61.7,10c1.6-0.3,2.7,0.5,4,1.3C-8.4,44.6,40.9,77.8,91.4,111.8c-9.6,0.5-17.3,1.2-25.2-4.3
			C25.9,79.5-14.9,52-55.5,24.3c-2-1.4-4.1-2.6-6.2-3.9C-61.7,16.9-61.7,13.5-61.7,10z"/>
		<path class="st1" d="M-38,277.9c20.9-14.3,41.7-28.6,62.6-42.8c27.5-18.6,55-37.1,82.6-55.7c2.2-1.5,4.4-2.8,6.8-4.3
			c2.6,7.5-0.3,11.6-6.1,15.6c-42.8,28.9-85.4,58.1-128,87.2C-26.2,277.9-32.1,277.9-38,277.9z"/>
		<path class="st4" d="M64.2,177.6c-2.6-2.8-6-1.8-9.1-1.8c-38.9-0.1-77.9,0-116.8,0c0-0.5,0-1,0-1.5c43.1,0,86.1,0,131.3,0
			C66.7,176,65.5,176.8,64.2,177.6z"/>
		<path class="st4" d="M235.3,110.5c37.6,0.1,75.2,0.1,112.8,0.2c0,0.5,0,1,0,1.5c-36.2,0-72.4,0.1-108.6,0.1
			c-1.6,0-3.4,0.8-4.9-0.7c-0.1-0.1,0-0.4,0.1-0.5C234.9,110.8,235.1,110.6,235.3,110.5z"/>
		<path class="st4" d="M348.1,175.8c-37.6,0.1-75.2,0.1-112.9,0.2c0.2-3.6,2.9-1.7,4.3-1.7c36.2-0.1,72.4,0,108.6,0
			C348.1,174.8,348.1,175.3,348.1,175.8z"/>
		<path class="st4" d="M-61.7,110.7c37.5,0,74.9,0,112.4,0c-0.9,2.9-3.3,1.5-4.9,1.5c-35.8,0.1-71.6,0-107.4,0
			C-61.7,111.6-61.7,111.2-61.7,110.7z"/>
		<path class="st5" d="M173.5,8.6c0,27.9,0,55.8,0,83.7c0,3.2-0.3,6.4,1.4,9.3c-0.8,0.8-1.7,2.2-2.9,1c-0.5-0.5-0.4-1.9-0.4-2.8
			c0.1-30.4,0.2-60.8,0.3-91.2C172.6,8.6,173,8.6,173.5,8.6z"/>
		<path class="st5" d="M175,184.8c-1.8,2.9-1.5,6.1-1.5,9.3c0,27.9,0,55.8,0,83.7c-0.5,0-1,0-1.5,0c-0.1-29.8-0.2-59.6-0.3-89.4
			C171.7,186.4,171.1,183.5,175,184.8z"/>
		<path class="st5" d="M111.4,101.6c1.8-2.9,1.5-6.1,1.5-9.3c0-27.9,0-55.8,0-83.7c0.5,0,1,0,1.5,0c0.1,29.8,0.2,59.6,0.3,89.4
			C114.7,100,115.3,102.8,111.4,101.6z"/>
		<path class="st5" d="M112.9,277.9c0-22.8,0-45.6,0-68.3c0-3.1,1-6.5-2.1-8.9c0.9-0.8,1.9-2.3,2.7-2.2c2.1,0.2,1.3,2.3,1.3,3.5
			c-0.1,25.3-0.2,50.6-0.3,75.9C113.9,277.9,113.4,277.9,112.9,277.9z"/>
	</g>
</g>
</svg>
