<?xml version="1.0" encoding="utf-8"?>
<!-- Generator: Adobe Illustrator 19.0.0, SVG Export Plug-In . SVG Version: 6.00 Build 0)  -->
<svg version="1.1" id="Ebene_1" xmlns="http://www.w3.org/2000/svg" xmlns:xlink="http://www.w3.org/1999/xlink" x="0px" y="0px"
	 viewBox="0 0 283.5 283.5" style="enable-background:new 0 0 283.5 283.5;" xml:space="preserve">
<style type="text/css">
	.st0{clip-path:url(#XMLID_8_);}
	.st1{fill:#FFFFFF;}
	.st2{fill:#009246;}
	.st3{fill:#CE2D38;}
	.st4{fill:#07903E;}
	.st5{fill:#CD212D;}
</style>
<g id="XMLID_1_">
	<defs>
		<circle id="XMLID_6_" cx="141.7" cy="144.4" r="134.6"/>
	</defs>
	<clipPath id="XMLID_8_">
		<use xlink:href="#XMLID_6_"  style="overflow:visible;"/>
	</clipPath>
	<g id="XMLID_2_" class="st0">
		<g id="XMLID_12_">
			<path id="XMLID_19_" class="st1" d="M194.4,282.3c-34.4,0-68.7,0-103.1,0c-1.8-2.7-1.6-6.1-1.6-9.4c0-86.4,0-172.9,0-259.3
				c0-3.3-0.2-6.6,1.6-9.4c34.4,0,68.7,0,103.1,0c1.8,2.7,1.6,6.1,1.6,9.4c0,86.4,0,172.9,0,259.3
				C196,276.2,196.2,279.6,194.4,282.3z"/>
			<path id="XMLID_18_" class="st2" d="M89,282.3c-32.4,0-64.9-0.1-97.3,0.1c-3.6,0-4.8-0.4-4.8-6c0.2-88.8,0.2-177.5,0-266.3
				c0-5.6,1.2-6,4.8-6C24.2,4.3,56.6,4.2,89,4.2c1.6,2.7,1.1,5.8,1.1,8.8c0,86.8,0,173.7,0,260.5C90.2,276.5,90.6,279.6,89,282.3z"
				/>
			<path id="XMLID_15_" class="st3" d="M196.7,4.2c32.4,0,64.9,0.1,97.3-0.1c3.6,0,4.8,0.4,4.8,6c-0.2,88.8-0.2,177.5,0,266.3
				c0,5.6-1.2,6-4.8,6c-32.4-0.2-64.9-0.1-97.3-0.1c-1.6-2.7-1.1-5.8-1.1-8.8c0-86.8,0-173.7,0-260.5C195.6,10,195.1,6.9,196.7,4.2z
				"/>
			<path id="XMLID_14_" class="st4" d="M89,282.3c0-92.7,0-185.4,0-278.1c0.8,0,1.5,0,2.3,0c-0.1,2-0.4,4-0.4,6
				c0,88.7,0,177.4,0,266.1c0,2,0.2,4,0.4,6C90.6,282.3,89.8,282.3,89,282.3z"/>
			<path id="XMLID_13_" class="st5" d="M196.7,4.2c0,92.7,0,185.4,0,278.1c-0.8,0-1.5,0-2.3,0c0.2-2.2,0.4-4.5,0.4-6.7
				c0-88.2,0-176.4,0-264.6c0-2.2-0.3-4.5-0.4-6.7C195.2,4.2,195.9,4.2,196.7,4.2z"/>
		</g>
	</g>
</g>
</svg>
