<?xml version="1.0" encoding="utf-8"?>
<!-- Generator: Adobe Illustrator 19.0.0, SVG Export Plug-In . SVG Version: 6.00 Build 0)  -->
<svg version="1.1" id="Ebene_1" xmlns="http://www.w3.org/2000/svg" xmlns:xlink="http://www.w3.org/1999/xlink" x="0px" y="0px"
	 viewBox="0 0 283.5 283.5" style="enable-background:new 0 0 283.5 283.5;" xml:space="preserve">
<style type="text/css">
	.st0{clip-path:url(#XMLID_4_);}
	.st1{fill:#FFFFFF;}
	.st2{fill:#DC173D;}
	.st3{fill:#E54766;}
</style>
<g id="XMLID_5_">
	<defs>
		<circle id="XMLID_3_" cx="141.7" cy="141.6" r="134.6"/>
	</defs>
	<clipPath id="XMLID_4_">
		<use xlink:href="#XMLID_3_"  style="overflow:visible;"/>
	</clipPath>
	<g id="XMLID_2_" class="st0">
		<path id="XMLID_19_" class="st1" d="M-82.9,142.2c0-45.7,0-91.4-0.1-137.1c0-3.4,0.7-4,4-4C68.9,1.1,216.8,1.1,364.6,1
			c3.4,0,4.1,0.7,4,4c-0.1,45.7-0.1,91.4-0.1,137.1C218.1,142.2,67.6,142.2-82.9,142.2z"/>
		<path id="XMLID_18_" class="st2" d="M368.6,143.3c0,45.7,0,91.3,0.1,137c0,3.1-0.2,4.2-3.9,4.2c-147.9-0.1-295.9-0.1-443.8,0
			c-3.7,0-3.9-1.1-3.9-4.2c0.1-45.7,0.1-91.3,0.1-137C67.6,143.3,218.1,143.3,368.6,143.3z"/>
		<path id="XMLID_17_" class="st3" d="M368.6,143.3c-150.5,0-301,0-451.5,0c0-0.4,0-0.8,0-1.1c150.5,0,301,0,451.5,0
			C368.6,142.6,368.6,143,368.6,143.3z"/>
	</g>
</g>
</svg>
