<?xml version="1.0" encoding="utf-8"?>
<!-- Generator: Adobe Illustrator 19.0.0, SVG Export Plug-In . SVG Version: 6.00 Build 0)  -->
<svg version="1.1" id="Ebene_1" xmlns="http://www.w3.org/2000/svg" xmlns:xlink="http://www.w3.org/1999/xlink" x="0px" y="0px"
	 viewBox="-566 1013.8 283.5 99.2" style="enable-background:new -566 1013.8 283.5 99.2;" xml:space="preserve">
<style type="text/css">
	.st0{fill:#FFFFFF;}
	.st1{fill:none;stroke:#62F1AC;stroke-miterlimit:10;}
</style>
<g id="XMLID_3_">
	<path id="XMLID_71_" d="M-456.3,1070.5c0.2,0.6-0.1,1-0.5,1.5c-1.3,1.3-2.9,2.1-4.7,2.3c-2.7,0.5-5.2,0.2-7.4-1.3
		c-3.1-1.9-4.5-4.8-4.4-8.4c0.2-4.5,3.6-8.4,8.1-9.1c1.7-0.2,3.4-0.2,5,0.3c0.1,0,0.2,0.1,0.2,0.1c0.1,0,0.1,0,0.1,0
		c0-0.4,0-0.8,0-1.3c0.6,0.6,1.1,1.1,1.7,1.7c0.5,0.5,1,1,1.5,1.5c0.4,0.4,0.4,0.8,0.4,1.4c-0.6-0.6-1.3-1-1.9-1.3
		c-2.7-1.1-5.3-1-7.7,0.7c-1.7,1.2-2.6,3-2.8,5c-0.2,1.9,0,3.9,1,5.6c1.1,1.9,2.9,2.9,5.1,3.2
		C-460.3,1072.9-458.2,1072.2-456.3,1070.5C-456.4,1070.5-456.3,1070.5-456.3,1070.5z"/>
	<path id="XMLID_70_" d="M-451.3,1061.4c1-1.5,2.3-1.8,3.6-1.5c1.1,0.3,1.9,1.4,1.9,2.7c0.1,2,0.1,4,0,6c0,0.4,0.1,0.5,0.5,0.5
		c0.1,0,0.1,0,0.1,0c0.6,0,0.6,0,0.6,0.6c0,0.2-0.1,0.4-0.4,0.4c-1.3,0-2.5,0-3.7,0c-0.3,0-0.4-0.1-0.4-0.4c0-2.1,0-4.4,0-6.5
		c0-0.3,0-0.6-0.2-1c-0.2-0.4-0.5-0.7-1-0.7c-0.4,0-0.7,0.2-1,0.6c-0.2,0.2-0.2,0.6-0.2,0.8c0,1.9,0,3.8,0,5.6
		c0,0.3,0.1,0.4,0.4,0.4c0.2,0,0.4-0.1,0.5,0.1c0.1,0.2,0.1,0.5,0.1,0.8c0,0.2-0.2,0.1-0.2,0.1c-1.5,0-3.1,0-4.7,0
		c-0.2,0-0.2-0.1-0.2-0.2c0-0.1,0-0.1,0-0.2c0-0.6-0.1-0.6,0.6-0.6c0.3,0,0.4-0.1,0.4-0.4c0-2.5,0-5,0-7.4c0-0.2-0.1-0.4-0.4-0.4
		c-0.1,0-0.2,0-0.3,0c-0.2,0.1-0.2-0.1-0.2-0.2c0-0.8-0.1-0.6,0.6-0.6c1,0,2,0,3,0c0.3,0,0.4,0.1,0.4,0.4
		C-451.3,1060.7-451.3,1061-451.3,1061.4z"/>
	<path id="XMLID_69_" d="M-428.3,1061.4c0.5-0.7,1.1-1.3,1.9-1.5c1.9-0.5,3.5,0.7,3.6,2.8c0.1,1.9,0,3.7,0.1,5.6c0,0.1,0,0.2,0,0.3
		c0,0.6-0.1,0.5,0.5,0.6h0.1c0.6,0,0.8,0.2,0.6,0.8c-0.1,0.2-0.1,0.2-0.2,0.2c-1.4,0-2.7,0-4,0c-0.2,0-0.2-0.2-0.2-0.2
		c0-0.7,0-1.5,0-2.2c0-1.5,0-2.9,0-4.4c0-0.4,0-0.7-0.2-1c-0.2-0.4-0.5-0.6-0.9-0.6c-0.4,0-0.7,0.2-1,0.6c-0.2,0.4-0.2,0.7-0.2,1.1
		c0,1.8,0,3.6,0,5.4c0,0.2,0.1,0.4,0.4,0.4c0.2,0,0.5-0.1,0.5,0.1c0.1,0.2,0.1,0.5,0.1,0.8c0,0.2-0.2,0.1-0.2,0.1
		c-1.5,0-3.1,0-4.6,0c-0.2,0-0.2-0.1-0.2-0.2c0-0.1,0-0.1,0-0.2c0-0.6-0.1-0.6,0.6-0.6c0.2,0,0.4-0.1,0.4-0.4c0-2.5,0-4.9,0-7.4
		c0-0.3-0.1-0.4-0.4-0.4c-0.2,0-0.5,0.2-0.5-0.1c-0.1-0.2-0.1-0.5,0-0.7c0-0.1,0.2-0.1,0.2-0.1c1.1,0,2.3,0,3.6,0
		c0.2,0,0.2,0.1,0.2,0.2C-428.3,1060.6-428.3,1061-428.3,1061.4z"/>
	<path id="XMLID_68_" d="M-407.9,1061.4c0.4-0.6,1-1.1,1.6-1.5c1.6-0.6,3.6,0.2,3.8,2.3c0.2,1.1,0.1,2.3,0.1,3.3c0,1,0,2.1,0,3.1
		c0,0.3,0.1,0.4,0.4,0.4c0.1,0,0.2,0,0.3,0c0.6,0,0.5-0.1,0.5,0.5c0.1,0.4-0.1,0.5-0.5,0.5c-1.1-0.1-2.3-0.1-3.5,0
		c-0.4,0-0.5-0.2-0.5-0.5c0-2.1,0-4.4,0-6.5c0-0.3-0.1-0.6-0.2-1c-0.2-0.4-0.4-0.6-0.8-0.6c-0.4,0-0.7,0.2-1,0.6
		c-0.2,0.3-0.2,0.7-0.2,1c0,1.9,0,3.6,0,5.5c0,0.4,0.1,0.5,0.4,0.4c0.2,0,0.4-0.2,0.5,0.1c0.1,0.2,0.1,0.5,0,0.8
		c0,0.1-0.2,0.1-0.2,0.1c-1.5,0-3,0-4.5,0c-0.2,0-0.2-0.1-0.2-0.2c0-0.1,0-0.2,0-0.2c0-0.6-0.1-0.6,0.6-0.6c0.3,0,0.4-0.1,0.4-0.4
		c0-2.5,0-4.9,0-7.4c0-0.3-0.1-0.4-0.4-0.4c-0.2,0-0.4,0.1-0.5-0.1c-0.1-0.2-0.1-0.5-0.1-0.7c0-0.2,0.2-0.2,0.2-0.2
		c1.1,0,2.3,0,3.5,0c0.2,0,0.2,0.1,0.2,0.2C-407.9,1060.6-407.9,1061-407.9,1061.4z"/>
	<path id="XMLID_67_" d="M-466.3,1064.7c0.1-1.5,0.6-3.1,1.9-4.2c2.3-1.9,7.2-1.5,8.1,3.1c0.3,1.8,0.1,3.5-1,5
		c-1,1.4-2.6,1.9-4.3,1.9C-464.6,1070.4-466.4,1068-466.3,1064.7z"/>
	<path id="XMLID_66_" d="M-389.8,1068.9c-0.6,0.8-1.3,1.3-2.2,1.4c-1.5,0.2-2.7-0.6-3.1-2.2c-0.5-2.3,0.9-4,3.2-4.2
		c0.5-0.1,1,0,1.5,0.1c0.2,0.1,0.2,0.1,0.2-0.2c0.1-1.1-0.4-1.9-1.3-2.1c-0.6-0.2-1.3-0.1-1.9,0.2c-0.3,0.2-0.6,0.4-0.8,0.6
		c-0.2,0.2-0.2,0.2-0.3,0c-0.5-0.6-0.5-0.4-0.1-1c1.4-1.6,3-2.1,5-1.6c1.5,0.4,2.5,1.7,2.5,3.3c0,1.8,0,3.6,0,5.4
		c0,0.3,0.1,0.5,0.4,0.4h0.1c0.6,0,0.7,0.2,0.6,0.8c-0.1,0.2-0.2,0.2-0.2,0.2c-1.2,0-2.4,0-3.6,0c-0.2,0-0.2-0.1-0.2-0.2
		C-389.8,1069.5-389.8,1069.3-389.8,1068.9z"/>
	<path id="XMLID_65_" d="M-415.4,1065.5c-0.8,0-1.6,0-2.3,0c-0.2,0-0.3,0.1-0.2,0.3c0.2,1,0.5,1.9,1.5,2.3c1,0.4,2,0.2,2.9-0.6
		c0.1-0.1,0.2-0.3,0.4-0.1c0.2,0.2,0.5,0.2,0.2,0.6c-1,1.6-2.3,2.2-4.2,2.1c-2.6-0.2-4-2-4.2-4.4c-0.2-1.3,0-2.6,0.6-3.7
		c0.8-1.5,2.1-2.3,3.8-2.3c1-0.1,1.8,0.1,2.6,0.6c1,0.6,1.5,1.6,1.7,2.7c0.2,0.7,0.2,1.4,0.2,2.1c0,0.2-0.1,0.3-0.3,0.2
		C-413.7,1065.5-414.5,1065.5-415.4,1065.5z"/>
	<path id="XMLID_64_" d="M-384.6,1063.6c0-2,0-4,0-6c0-0.4-0.2-0.5-0.5-0.5c-0.1,0-0.1,0-0.2,0c-0.4,0.1-0.5-0.1-0.5-0.5
		s0.1-0.5,0.5-0.5c1.1,0.1,2.3,0.1,3.5,0c0.4,0,0.4,0.1,0.4,0.4c0,4,0,8,0,12c0,0.4,0.1,0.5,0.4,0.4c0.1,0,0.1,0,0.1,0
		c0.7,0,0.7,0,0.7,0.7c0,0.2-0.1,0.2-0.2,0.2c-1.3,0-2.6,0-3.9,0c-0.3,0-0.2-0.2-0.2-0.4C-384.6,1067.6-384.6,1065.6-384.6,1063.6z"
		/>
	<path id="XMLID_63_" d="M-372.7,1057.3c-0.4,0.1-0.8,0.2-1.1,0.2c-0.2,0.1-0.5,0.1-0.6-0.2c-0.1-0.2-0.2-0.5,0.2-0.7
		c0.5-0.3,1-0.7,1.5-1c0.2-0.2,0.4-0.2,0.2-0.6c-0.1-0.2,0.1-0.2,0.2-0.2c0.6,0.3,1.5,1.6,1.4,2.3c-0.1,0.7-0.2,1.4-0.4,2
		c-0.1,0.2-0.1,0.2,0.1,0.4c0.5,0.6,1,1.3,1.5,1.8c0.3,0.3,0.7,0.5,1.1,0.7c0.7,0.5,1,1.1,0.8,1.9c-0.1,0.3-0.2,0.6-0.4,1
		c-0.2,0.2-0.2,0.3-0.1,0.5c0.5,1,0.2,1.7-0.5,2.3c-0.4,0.3-0.8,0.7-0.8,1.3c0,0.2-0.1,0.2-0.2,0.2c-0.2,0-0.5,0-0.7,0
		c-0.4,0-0.4-0.1-0.2-0.5c0.1-0.2,0.2-0.4,0.4-0.5c0.5-0.4,0.8-1,1.1-1.4c0.2-0.2,0-0.2-0.1-0.3c-0.4-0.4-0.8-0.9-1.3-1.3
		c-0.3-0.2-0.5-0.6-0.6-1c-0.1-0.4-0.2-0.6-0.6-0.8c-0.2-0.2-0.5-0.3-0.8-0.5c-0.7-0.4-1.1-1-1.6-1.7c-0.4-0.6-1-0.8-1.5-1.2
		c-0.2-0.1-0.6,0.2-0.6,0.5c-0.1,0.4-0.1,0.8,0.2,1.2c0.2,0.3-0.2,0.5-0.2,0.7c-0.1,0.1-0.1,0.2-0.2,0.2c-0.2,0-0.2-0.2-0.2-0.3
		c-0.2-0.5-0.1-1-0.1-1.5c-0.1-0.6,0.2-1.1,0.6-1.5c0.3-0.3,0.6-0.5,1-0.2c0.2,0.1,0.5,0.2,0.7,0.2c0.4-0.2,0.7-0.4,1-0.7
		C-373.2,1058.1-373,1057.8-372.7,1057.3z"/>
	<path id="XMLID_62_" d="M-397,1064.8c0,1.1,0,2.3,0,3.5c0,0.6,0.2,0.8,0.8,0.7c0.3-0.1,0.4,0,0.4,0.3c0,0.6,0,0.6-0.6,0.8
		c-0.6,0.2-1.3,0.2-1.9,0.1c-1.2-0.2-1.9-1-1.9-2.2c0-1.5,0-3.1,0-4.7c0-0.7,0-1.4,0-2.1c0-0.2-0.1-0.4-0.3-0.3c-0.1,0-0.2,0-0.2,0
		c-0.2-0.1-0.4,0.2-0.5-0.1c-0.1-0.2-0.2-0.6,0.2-0.8c1.1-0.9,2.2-1.7,3.3-2.7c0.2-0.2,0.4-0.2,0.6-0.2c0.2,0,0.2,0.2,0.2,0.2
		c0,0.7,0,1.4,0,2.1c0,0.2,0.1,0.4,0.4,0.4c0.2,0,0.4,0,0.6,0c0.6,0,0.7,0.2,0.6,0.8c-0.1,0.2-0.2,0.2-0.2,0.2c-0.3,0-0.6,0-1,0
		c-0.2,0-0.3,0.1-0.3,0.3C-397,1062.4-397,1063.6-397,1064.8z"/>
	<path id="XMLID_61_" d="M-439.1,1068.9L-439.1,1068.9c0.1,1,0.2,1-0.8,1.1c-0.6,0.2-1.1,0.2-1.8,0.1c-1.1-0.2-1.9-1-1.9-2.1
		c-0.1-2.3,0-4.4,0-6.7c0-0.6,0.1-0.5-0.5-0.5c-0.1,0-0.1,0-0.1,0c-0.2-0.1-0.4,0.2-0.5-0.2c-0.1-0.2-0.1-0.5,0.2-0.7
		c1.1-0.9,2.3-1.8,3.3-2.7c0.2-0.2,0.4-0.1,0.6-0.1c0.2,0,0.1,0.2,0.1,0.2c0,0.7,0,1.4,0,2.1c0,0.2,0.1,0.4,0.3,0.3
		c0.2,0,0.2,0,0.4,0c0.4-0.1,0.5,0.1,0.5,0.5c0,0.4-0.2,0.5-0.5,0.5c-0.7-0.1-0.7,0-0.7,0.7c0,2.1,0,4.3,0,6.4c0,0.8,0.2,1,1,0.9
		C-439.2,1068.9-439.2,1068.9-439.1,1068.9z"/>
	<path id="XMLID_60_" d="M-434.1,1064.6c0,1.4,0,2.7,0,4.1c0,0.3,0.1,0.4,0.4,0.4c0.2,0,0.5-0.2,0.5,0.1c0.1,0.2,0.1,0.5,0,0.8
		c0,0.1-0.2,0.1-0.2,0.1c-1.5,0-3.1,0-4.6,0c-0.2,0-0.2-0.1-0.2-0.2c0-0.1,0-0.2,0-0.2c0-0.6,0-0.6,0.6-0.6c0.3,0,0.4-0.1,0.4-0.4
		c0-2.5,0-5,0-7.4c0-0.3-0.1-0.4-0.4-0.4c-0.2,0-0.5,0.1-0.5-0.1c-0.1-0.2-0.1-0.5-0.1-0.8c0-0.2,0.2-0.1,0.2-0.1c1.2,0,2.4,0,3.6,0
		c0.2,0,0.2,0.2,0.2,0.3C-434.1,1061.8-434.1,1063.1-434.1,1064.6z"/>
	<path id="XMLID_59_" d="M-435.6,1058.8c-0.5,0-0.9-0.1-1.3-0.2c-0.5-0.2-0.7-0.6-0.7-1.2c0-0.5,0.2-1,0.7-1.1
		c0.8-0.4,1.7-0.4,2.5,0c0.5,0.2,0.7,0.6,0.7,1.2s-0.2,1-0.7,1.2C-434.8,1058.8-435.2,1058.8-435.6,1058.8z"/>
	<path id="XMLID_58_" d="M-371.6,1069.6c2.3,0,4.7,0,7,0c0.2,0,0.4,0,0.4,0.3c0,0.2-0.1,0.2-0.2,0.2c-0.1,0-0.2,0-0.2,0
		c-4.7,0-9.4,0-14,0c-0.2,0-0.4,0.2-0.4-0.2c-0.1-0.2,0.2-0.3,0.4-0.3C-376.4,1069.6-374,1069.6-371.6,1069.6z"/>
	<path id="XMLID_57_" d="M-367.6,1062.7c0.6,0.3,1.2,0.6,1.4,1.4c0.2,1,0.3,2,0.4,3c-0.4-0.2-0.8-0.4-1.1-0.6
		c-0.1-0.1-0.1-0.2-0.2-0.3c-0.1-0.5-0.1-1-0.1-1.4C-367.3,1064-367.3,1063.4-367.6,1062.7z"/>
	<path id="XMLID_56_" d="M-372,1068.3c-0.2-0.1-0.5,0.1-0.5-0.1c-0.1-0.2,0.2-0.4,0.2-0.6c0.6-0.6,1.3-1.1,1.9-1.7
		c0.1-0.1,0.2-0.1,0.2,0c0.5,0.4,0.5,0.5,0.1,0.9c-0.2,0.2-0.6,0.5-0.9,0.7c-0.1,0.1-0.2,0.2-0.2,0.2
		C-371.4,1068.3-371.6,1068.4-372,1068.3z"/>
	<path id="XMLID_55_" d="M-376.1,1058.8c-0.4,0.6-1,1-1.5,1.4c-0.1,0.1-1-0.1-1-0.2c-0.1-0.1,0-0.2,0.1-0.2c0.2-0.2,0.5-0.4,0.7-0.6
		C-377.3,1059-376.8,1058.9-376.1,1058.8z"/>
	<path id="XMLID_54_" class="st0" d="M-459.9,1065c0,1.1,0.1,2.3-0.2,3.3c-0.1,0.2-0.2,0.5-0.2,0.6c-0.4,0.6-1.1,0.6-1.6,0
		c-0.3-0.5-0.4-1-0.4-1.6c-0.2-1.7-0.2-3.4,0.1-5.1c0.1-0.4,0.2-0.7,0.3-1.1c0.4-0.7,1.3-0.7,1.7-0.1c0.2,0.4,0.3,1,0.4,1.5
		c0.1,0.2,0.1,0.5,0.1,0.8C-459.9,1063.9-459.9,1064.4-459.9,1065z"/>
	<path id="XMLID_53_" class="st0" d="M-389.9,1066.7c0,0.4,0,0.9,0,1.3c0,0.2-0.1,0.3-0.2,0.4c-0.6,0.2-1.1,0-1.4-0.6
		c-0.2-0.7-0.2-1.5,0-2.3c0.2-0.4,0.5-0.6,0.9-0.7c0.6-0.1,0.7,0.2,0.7,0.7C-389.9,1065.9-389.9,1066.3-389.9,1066.7z"/>
	<path id="XMLID_52_" class="st0" d="M-416.9,1064.5c-0.2,0-0.6,0-0.9,0c-0.2,0-0.2,0-0.2-0.2c0-0.9,0-1.8,0.2-2.7
		c0.1-0.3,0.2-0.6,0.6-0.7c0.5-0.1,0.8,0.1,1,0.6c0.2,0.6,0.2,1.3,0.2,2c0,0.3,0.2,0.7-0.1,1
		C-416.1,1064.6-416.5,1064.4-416.9,1064.5C-416.8,1064.5-416.9,1064.5-416.9,1064.5z"/>
</g>
<rect x="-551.8" y="1020.9" class="st1" width="255.1" height="85"/>
</svg>
