<?xml version="1.0" encoding="utf-8"?>
<!-- Generator: Adobe Illustrator 19.0.0, SVG Export Plug-In . SVG Version: 6.00 Build 0)  -->
<svg version="1.1" id="Ebene_1" xmlns="http://www.w3.org/2000/svg" xmlns:xlink="http://www.w3.org/1999/xlink" x="0px" y="0px"
	 viewBox="-566 1013.6 283.5 99.2" style="enable-background:new -566 1013.6 283.5 99.2;" xml:space="preserve">
<style type="text/css">
	.st0{fill:#1D1D1B;}
	.st1{fill:#010203;}
	.st2{fill:#FFFFFF;}
	.st3{fill:#020203;}
	.st4{fill:#FEFEFE;}
	.st5{fill:none;stroke:#62F1AC;stroke-miterlimit:10;}
</style>
<g id="XMLID_2_">
	<path id="XMLID_117_" class="st0" d="M-484,1062c0.2-0.1,0.1-0.3,0.2-0.4c0.5,0.4,0.4,0.9,0.1,1.3c-0.4-0.1-0.1-0.4-0.2-0.5
		C-484,1062.3-484,1062.1-484,1062z"/>
	<path id="XMLID_116_" class="st0" d="M-483.8,1064.1c-0.1-0.2,0.1-0.4-0.2-0.5c0-0.2,0-0.3,0-0.4c0.1-0.1,0-0.3,0.3-0.3
		C-483.5,1063.4-483.3,1063.8-483.8,1064.1z"/>
	<path id="XMLID_114_" class="st0" d="M-483.8,1063c0,0.1,0,0.2-0.2,0.3c0-0.3,0-0.6,0-0.9c0.2,0.1,0.1,0.4,0.2,0.5
		C-483.8,1062.9-483.8,1062.9-483.8,1063C-483.8,1063-483.8,1063-483.8,1063z"/>
	<path id="XMLID_113_" d="M-483.8,1063c0-0.1,0-0.1,0-0.2c0.2-0.4,0.2-0.9,0-1.3c0.5-2.8,2.3-4.5,4.7-5.7c0.8-0.4,1.7-0.6,2.5-0.9
		c-1.1-1.2-2.1-2.3-3.1-3.5c-0.1-0.2-0.2-0.4-0.4-0.5s-0.3-0.4-0.2-0.6c0.2-0.3,0.4-0.2,0.6-0.1c0.2,0.1,0.3,0.2,0.4,0.2
		c5,2.7,9.8,5.7,14.7,8.5c2,1.2,4,2.4,6,3.6c0.4,0.2,0.4,0.4,0,0.6c-3.5,2-6.9,4.1-10.4,6.1c-1.9,1.1-3.7,2.2-5.6,3.3
		c-2.2,1.3-4.4,2.6-6.7,3.9c-0.3,0.1-0.4,0-0.4-0.4c1.6-1.8,3.2-3.6,4.9-5.5c-0.4-0.1-0.7-0.3-1.1-0.4c-0.2-0.1-0.4-0.3-0.7-0.2
		c-0.1,0-0.1-0.1-0.2-0.1c-0.2-0.2-0.3-0.2-0.5-0.2c-2.7-1.1-4.4-2.9-5-5.9C-483.7,1063.8-483.6,1063.4-483.8,1063z"/>
	<path id="XMLID_112_" class="st1" d="M-458.4,1067.7c0.2-0.7,0.5-1.3,0.8-1.9c0.2-0.3,0.5-0.2,0.8-0.2c0.8,0.2,1.2-0.2,1.5-1
		c0.6-1.6,1.4-3.1,2.1-4.6c-0.6,0-1.1,0-1.7,0c0.3-0.6,0.5-1.1,0.8-1.7c0.1-0.3,0.3-0.3,0.5-0.3c3.5,0,7,0,10.6,0
		c0.4,0,0.9,0.1,1.2,0.3c1.1,0.4,1.7,1.1,1.5,2.2c-0.4,2.3-1.4,4.4-3.2,6.1c-0.8,0.7-1.7,1-2.7,1
		C-450.4,1067.7-454.3,1067.7-458.4,1067.7z"/>
	<path id="XMLID_111_" class="st1" d="M-388.6,1067.7c-1.5-0.1-3,0.1-4.5-0.4c-1.4-0.5-1.9-1.1-1.5-2.5c0.5-1.7,1.2-3.4,2.3-4.8
		c0.9-1.2,2.2-1.6,3.5-1.8c2.4-0.3,4.7-0.3,7.2-0.1c0.6,0.1,1.3,0.2,1.9,0.4c0.7,0.3,1.1,0.8,0.9,1.5c-0.5,2.5-1.3,4.9-3.5,6.4
		c-1.2,0.8-2.6,1.1-4,1.2C-387.2,1067.8-387.9,1067.7-388.6,1067.7z"/>
	<path id="XMLID_110_" class="st1" d="M-426.4,1067.7c0.3-0.7,0.6-1.2,0.8-1.8c0.2-0.3,0.4-0.2,0.6-0.2c1.3,0,1.2,0,1.7-1.2
		c0.6-1.4,1.2-2.7,1.8-4.1c0.1-0.1,0.1-0.2,0.1-0.3c-0.5,0-1,0-1.6,0c0.3-0.6,0.5-1.2,0.8-1.7c0.1-0.2,0.3-0.2,0.5-0.2
		c1.7,0,3.3,0,5,0c0.4,0,0.5,0.2,0.6,0.4c0.9,1.6,1.7,3.3,2.6,4.9c0.1,0.1,0.1,0.2,0.2,0.2c0.5-1.2,1.1-2.4,1.6-3.6
		c-0.6,0-1.1,0-1.7,0c0.3-0.7,0.6-1.2,0.8-1.8c0.1-0.2,0.2-0.2,0.4-0.2c1.8,0,3.5,0,5.4,0c-0.3,0.6-0.5,1.1-0.7,1.7
		c-0.1,0.3-0.4,0.3-0.5,0.2c-1-0.2-1.4,0.3-1.7,1.2c-0.9,2.1-1.8,4.1-2.6,6.1c-0.1,0.3-0.3,0.4-0.6,0.4c-1.1,0-2.1,0-3.2,0
		c-0.4,0-0.6-0.1-0.7-0.5c-0.9-1.7-1.8-3.4-2.7-5.2c-0.6,1.2-1.1,2.4-1.6,3.6c0.6,0,1.1,0,1.7,0c-0.3,0.6-0.6,1.2-0.8,1.8
		c-0.1,0.2-0.2,0.3-0.5,0.3C-422.7,1067.7-424.5,1067.7-426.4,1067.7z"/>
	<path id="XMLID_109_" class="st1" d="M-375.6,1060.2c-0.6,0-1.1,0-1.7,0c0.3-0.7,0.6-1.3,0.8-1.9c0.1-0.3,0.3-0.2,0.4-0.2
		c3.9,0,7.8,0,11.7,0c0.2,0,0.4,0,0.6,0.1c1.3,0.3,1.5,0.8,1,1.9c-0.2,0.4-0.3,0.7-0.4,1c-0.7,2.1-2.3,2.9-4.3,2.8
		c-1.4,0-2.8,0-4.1,0c-0.4,0-0.6,0.1-0.7,0.5c-0.1,0.4-0.3,0.8-0.5,1.2c0.4,0,0.6,0,0.9,0c0.4-0.1,0.6,0,0.4,0.5
		c-0.7,1.5-0.6,1.5-2.3,1.5c-2,0-4.1,0-6.1,0c-0.5,0-0.5-0.2-0.3-0.5c0.1-0.1,0.1-0.2,0.2-0.3c0.2-1,0.8-1.5,1.8-1.3
		c0.2,0.1,0.4,0,0.5-0.2C-377.1,1063.7-376.4,1062-375.6,1060.2z"/>
	<path id="XMLID_108_" class="st1" d="M-437.7,1060.1c-0.5,0-1.1,0-1.7,0c0.3-0.6,0.5-1.2,0.7-1.7c0.1-0.3,0.3-0.2,0.5-0.2
		c2.7,0,5.4,0,8.1,0c-0.2,0.7-0.5,1.2-0.7,1.7c-0.1,0.2-0.3,0.2-0.5,0.2c-1.1-0.3-1.6,0.3-1.9,1.3c-0.4,1-0.9,2-1.3,3
		c-0.3,0.6-0.2,0.9,0.5,1.2c1.2,0.6,2.7,0.2,3.3-1c0.8-1.4,1.3-3,2-4.5c-0.6,0-1,0-1.5,0c0.1-0.7,0.5-1.2,0.8-1.8
		c0.1-0.2,0.3-0.2,0.4-0.2c1.7,0,3.5,0,5.3,0c-0.3,0.6-0.6,1.1-0.8,1.7c-0.1,0.3-0.4,0.3-0.5,0.2c-1-0.2-1.4,0.3-1.7,1.2
		c-0.6,1.5-1.2,2.9-2,4.3s-2.1,1.9-3.5,2.1c-1.9,0.2-3.7,0.3-5.6,0c-0.3-0.1-0.6-0.1-0.9-0.2c-1.1-0.4-1.5-1.1-1.1-2.2
		c0.5-1.6,1.3-3,1.9-4.5C-437.8,1060.5-437.6,1060.4-437.7,1060.1z"/>
	<path id="XMLID_107_" class="st1" d="M-397.1,1058.2c-0.3,0.6-0.5,1.2-0.7,1.7c-0.2,0.3-0.5,0.2-0.7,0.2c-0.8-0.1-1.1,0.2-1.4,0.9
		c-0.6,1.6-1.3,3.1-2,4.7c0.9,0,1.6,0,2.4,0c0.2,0,0.3-0.2,0.4-0.3c0.6-0.6,1.1-1.2,1.6-1.8c0.4-0.5,0.8-0.8,1.4-0.6
		c0.3,0.1,0.6,0,1,0c-0.5,1.1-0.9,2-1.3,3c-0.3,0.6-0.4,1.3-0.8,1.6c-0.4,0.3-1.2,0.1-1.7,0.1c-3.3,0-6.6,0-9.9,0
		c-0.7,0-0.7,0-0.4-0.7c0-0.1,0.1-0.1,0.1-0.1c0.2-1.1,0.8-1.5,1.8-1.3c0.2,0.1,0.4,0.1,0.5-0.2c0.8-1.8,1.5-3.5,2.3-5.4
		c-0.6,0-1.1,0-1.7,0c0.3-0.6,0.5-1.2,0.7-1.7c0.1-0.2,0.2-0.2,0.4-0.2C-402.5,1058.2-399.8,1058.2-397.1,1058.2z"/>
	<path id="XMLID_106_" class="st0" d="M-479.1,1050.5c-0.3,0.3-0.7-0.4-0.9,0.1c-0.2,0.4,0.4,0.5,0.4,0.9c0,0.1,0,0.1,0,0.1
		c-0.8-0.8-1.6-1.7-2.3-2.5c-0.1-0.1-0.4-0.2-0.1-0.3C-481,1049.3-480,1049.9-479.1,1050.5z"/>
	<path id="XMLID_103_" class="st0" d="M-481.4,1076.2c0,0.2,0.2,0.3,0.4,0.4c-0.2,0.2-0.5,0.3-0.7,0.4c-0.2,0.1-0.2-0.1-0.2-0.2
		C-481.7,1076.6-481.6,1076.4-481.4,1076.2z"/>
	<path id="XMLID_99_" class="st0" d="M-481.9,1076.8c0.1,0.1,0.1,0.1,0.2,0.2c-0.2,0.1-0.3,0.2-0.5,0.3l-0.1-0.1
		C-482.1,1077-482,1076.9-481.9,1076.8z"/>
	<path id="XMLID_98_" class="st0" d="M-478.2,1070.3c0.3-0.2,0.5,0,0.7,0.2C-477.8,1070.5-478,1070.4-478.2,1070.3z"/>
	<path id="XMLID_95_" class="st0" d="M-478.9,1070c0.3-0.2,0.4,0,0.5,0.2C-478.5,1070.1-478.7,1070-478.9,1070z"/>
	<path id="XMLID_94_" class="st2" d="M-471.6,1056.2c2,1.1,3.4,2.6,4,4.7c0.1,0.3,0.1,0.6,0.3,0.9c0.2,0.8,0.2,1.5,0,2.3
		c-0.3,1-0.6,2.1-1.2,2.9c-1.2,1.7-2.7,2.8-4.8,3.1c-0.1,0-0.3,0-0.4,0.1c-0.7,0.2-1.3,0.2-2,0c-0.9-0.3-1.7-0.5-2.5-0.9
		c-3.9-2-5.1-7.4-2.4-10.8c1.2-1.6,2.7-2.5,4.6-2.9c0.1,0,0.3-0.1,0.4-0.2c0.6-0.1,1.3-0.2,1.9,0c0.3,0.3,0.7,0.1,1,0.2
		C-472.3,1055.7-471.9,1055.8-471.6,1056.2z"/>
	<path id="XMLID_93_" class="st0" d="M-471.6,1056.2c-0.4-0.2-0.8-0.3-1.2-0.4c0.4-0.3,0.8-0.1,1.2,0.1
		C-471.2,1056-471.6,1056.1-471.6,1056.2z"/>
	<path id="XMLID_92_" class="st0" d="M-467.3,1064c0-0.8,0-1.5,0-2.3C-467,1062.5-467,1063.3-467.3,1064z"/>
	<path id="XMLID_91_" class="st0" d="M-475.6,1070.3c0.7,0,1.3,0,2,0c-0.7,0.4-1.4,0.2-2,0.1
		C-475.7,1070.4-475.7,1070.3-475.6,1070.3C-475.6,1070.3-475.6,1070.3-475.6,1070.3z"/>
	<path id="XMLID_90_" class="st0" d="M-473.6,1055.5c-0.6,0-1.3,0-1.9,0c0.6-0.3,1.3-0.2,1.9-0.1
		C-473.6,1055.4-473.6,1055.4-473.6,1055.5C-473.6,1055.5-473.6,1055.5-473.6,1055.5z"/>
	<path id="XMLID_89_" class="st2" d="M-449.2,1065.8c-1.3,0-1.3,0-0.9-1.1c0.6-1.4,1.3-2.8,1.9-4.2c0.1-0.1,0.1-0.2,0.1-0.3
		c0.1-0.2,1.8-0.2,2,0c0.4,0.3,0.5,0.7,0.3,1.2c-0.2,1-0.6,1.8-1,2.7C-447.3,1065.2-448,1066-449.2,1065.8z"/>
	<path id="XMLID_88_" class="st2" d="M-388,1065.8c-2,0.2-2-0.8-1.5-2.1c0.3-0.8,0.7-1.5,1-2.3c0.6-1.3,2.4-1.9,3.7-1.3
		c0.5,0.3,0.7,0.7,0.5,1.3c-0.5,1.1-0.9,2.2-1.4,3.2C-386,1065.7-386.9,1065.9-388,1065.8z"/>
	<path id="XMLID_87_" class="st2" d="M-371.2,1062c0.2-0.6,0.5-1.1,0.7-1.5c0.1-0.2,0.2-0.3,0.3-0.3c0.6,0,1.2,0,1.8,0
		c0.4,0,0.5,0.2,0.4,0.6c-0.3,1-0.6,1.2-1.6,1.2C-370.2,1062-370.7,1062-371.2,1062z"/>
	<path id="XMLID_84_" class="st3" d="M-476.3,1065.8c-1.3,0-2.7,0-4,0c-0.4,0-0.5-0.1-0.3-0.4c0.1-0.2,0.2-0.4,0.3-0.6
		c0.2-0.5,0.4-0.6,0.9-0.5c0.5,0.1,0.8-0.1,0.9-0.6c0.3-0.6,0.6-1.2,0.8-1.7c0.2-0.4,0.2-0.6-0.4-0.6c-0.7,0.1-0.7,0-0.4-0.7
		c0.2-0.5,0.5-0.7,1-0.7c2.2,0.1,4.4,0,6.6,0c1.3,0,2.4,0.8,2.6,1.9c0.3,1.2-0.4,2.5-1.5,3.1c-1,0.5-2,0.8-3.1,0.8
		C-473.9,1065.8-475.1,1065.8-476.3,1065.8z"/>
	<path id="XMLID_83_" class="st4" d="M-473.7,1064.2c-1,0-1,0-0.6-0.9c0.2-0.4,0.4-0.8,0.6-1.3c0.4-0.7,1.4-1,2-0.5
		c0.3,0.2,0.3,0.4,0.3,0.7C-471.6,1063.7-472.3,1064.2-473.7,1064.2z"/>
</g>
<rect x="-550.8" y="1023.2" class="st5" width="255.1" height="83.5"/>
</svg>
