<?xml version="1.0" encoding="utf-8"?>
<!-- Generator: Adobe Illustrator 19.0.0, SVG Export Plug-In . SVG Version: 6.00 Build 0)  -->
<svg version="1.1" id="Ebene_1" xmlns="http://www.w3.org/2000/svg" xmlns:xlink="http://www.w3.org/1999/xlink" x="0px" y="0px"
	 viewBox="-566 1013.6 283.5 99.2" style="enable-background:new -566 1013.6 283.5 99.2;" xml:space="preserve">
<style type="text/css">
	.st0{fill:#1D1D1B;}
	.st1{fill:#FFFFFF;}
	.st2{fill:none;stroke:#62F1AC;stroke-miterlimit:10;}
</style>
<g id="XMLID_2_">
	<path id="XMLID_124_" class="st0" d="M-408.2,1067.8c0.4-1.7,0.7-3.4,1-5.1c0.2-1,0.4-2,0.6-3c0.4-1.7,1.6-2.6,3.3-2.8
		c0,0,0.1,0,0.1,0c0.2-0.1,0.4,0,0.5-0.1c1.6,0,3.3,0,4.9,0c2.2,0,4.4,0,6.6,0c0.4,0,0.4,0.1,0.4,0.4c-0.2,0.8-0.3,1.5-0.5,2.2
		c0,0.3-0.2,0.4-0.5,0.4c-3,0-6,0-9.1,0c-0.8,0-1,0.3-1.2,1c0.1,0.3,0.3,0.1,0.4,0.1c2.7,0,5.5,0,8.2,0c0.2,0,0.5-0.1,0.4,0.3
		c-0.2,0.6-0.3,1.3-0.4,1.9c-0.1,0.4-0.2,0.5-0.6,0.5c-2.7,0-5.5,0-8.2,0c-0.3,0-0.5,0-0.5,0.4c-0.1,0.8-0.2,0.8,0.6,0.8
		c3.6,0,7.2,0,10.8,0c-0.8,1-1.6,2-2.3,2.9c-0.1,0.1-0.3,0-0.4,0c-4.6,0-9.2,0-13.8,0C-407.9,1068-408,1068.1-408.2,1067.8z"/>
	<path id="XMLID_123_" class="st0" d="M-446.5,1067.9c0.1-0.9,0.4-1.7,0.5-2.5c0.4-2.2,0.9-4.4,1.4-6.6c0-0.1,0.1-0.2,0-0.3
		c-2.2,2.1-4.4,4.3-6.6,6.5c1.7,0,3.3,0,5,0c-0.5,0.7-1,1.2-1.3,1.9c-0.5,0.9-1.1,1-2,1c-3.3,0-6.6,0-10,0c-0.2,0-0.3,0-0.4,0
		c1-1.1,2-2.1,3.1-3.1c0.2-0.3,0.5-0.7,0.9-0.8c1.3-1.3,2.5-2.5,3.8-3.8c0.6-0.6,1.1-1.1,1.7-1.7c0.9-1,2-1.4,3.3-1.6
		c0.3,0,0.6-0.1,0.9-0.1c0.7,0,1.4,0,2.2,0c1.5,0,3,0,4.6,0c0.1,0,0.3-0.1,0.4,0.1c-0.4,1.7-0.7,3.4-1.1,5.1
		c-0.4,1.9-0.8,3.7-1.2,5.6c0,0.1,0,0.2,0,0.3c-0.1,0.1-0.2,0-0.2,0c-1.4,0-2.9,0-4.3,0C-446.3,1068-446.5,1068-446.5,1067.9z"/>
	<path id="XMLID_122_" class="st0" d="M-391.1,1067.9c0.2-0.9,0.4-1.8,0.6-2.7c0.3-1.6,0.7-3.1,1-4.7c0.2-1.1,0.5-2.2,0.8-3.3
		c0-0.1-0.1-0.2,0.1-0.3c0.1,0,0.2,0,0.3,0c3.8,0,7.6,0,11.3,0c0.1,0,0.2,0,0.3,0c0.8,0.1,1.6,0.2,2.3,0.6c1.3,0.7,1.8,1.8,1.5,3.1
		c-0.5,2.3-1,4.6-1.4,6.9c0,0.1,0,0.2,0,0.3c0,0.2-0.2,0.2-0.3,0.2c-1.5,0-3,0-4.5,0c-0.1,0-0.1,0-0.2-0.1c0.3-1.4,0.6-2.7,0.9-4.1
		c0.2-0.9,0.4-1.8,0.6-2.7c0.1-0.6-0.2-1.1-1-1.1c-1.7,0-3.4,0-5.1,0c-0.1,0-0.2,0-0.2,0.2c-0.5,2.5-1,5.1-1.6,7.7c0,0,0,0,0,0.1
		c0,0.1-0.2,0.1-0.2,0.1c-1.6,0-3.1,0-4.7,0C-391,1068-391,1068-391.1,1067.9z"/>
	<path id="XMLID_121_" class="st0" d="M-425.4,1067.8c0.2-0.9,0.4-1.8,0.5-2.7c0-0.1,0-0.1,0.1-0.2c0.1-0.6,0.2-1.3,0.4-1.9
		c0.2-1.2,0.5-2.5,0.8-3.7c0.2-0.8,0.4-1.7,0.6-2.5c0.2,0,0.5,0,0.8,0c1.3,0,2.5,0,3.8,0c0.3,0,0.4,0,0.3,0.4c-0.4,1.5-0.7,3-1,4.5
		c0,0,0,0.1,0,0.2c0.6-0.4,1.1-0.8,1.6-1.2c1.4-1,2.7-2.1,4.1-3.2c0.3-0.2,0.6-0.5,0.9-0.7c0.7,0,1.3,0,2,0c1.5,0,3.1,0,4.6,0
		c0.1,0,0.3-0.1,0.4,0.1c-0.8,0.6-1.6,1.1-2.4,1.6c-1.8,1.3-3.6,2.5-5.4,3.8c-0.2,0.2-0.2,0.3,0,0.5c1.6,1.5,3.2,3.1,4.8,4.6
		c0.1,0.1,0.2,0.2,0.4,0.4c-0.2,0-0.4,0-0.5,0c-1.7,0-3.4,0-5.1,0c-0.2,0-0.4-0.1-0.6-0.2c-1.6-1.6-3.1-3.1-4.7-4.7
		c-0.1-0.1-0.2-0.2-0.3-0.2c-0.2,0-0.1,0.2-0.2,0.4c-0.3,1.5-0.6,2.9-0.9,4.5c0,0.1,0,0.2,0,0.4c-0.1,0.1-0.2,0.1-0.3,0.1
		c-1.4,0-2.9,0-4.3,0C-425.2,1068-425.4,1068.1-425.4,1067.8z"/>
	<path id="XMLID_120_" class="st0" d="M-424.8,1065c0,0,0,0.1-0.1,0.2c-0.3,0-0.3,0.3-0.4,0.5c-0.6,0.8-1.1,1.6-1.6,2.3
		c-0.1,0.1-0.2,0-0.3,0c-2.9,0-5.8,0-8.8,0c-0.1,0-0.1,0-0.2,0c-1.1,0-2.2,0-3.3,0c-0.4,0-0.4-0.1-0.3-0.4c0.2-0.9,0.4-1.9,0.6-2.8
		c0.2-1,0.4-2,0.6-3c0.3-1.4,0.6-2.9,0.9-4.3c0-0.2,0-0.4,0.2-0.5c0.1-0.1,0.2,0,0.3,0c1.4,0,2.9,0,4.3,0c0.1,0,0.3-0.1,0.4,0.1
		c-0.2,1-0.4,2-0.7,3c-0.3,1.5-0.6,3-1,4.5c0,0.2,0,0.3-0.2,0.5C-431.1,1065-428,1065-424.8,1065z"/>
	<path id="XMLID_119_" class="st0" d="M-451.1,1056.9c-0.3,0.3-0.7,0.6-0.9,1c0,0.2-0.2,0.3-0.4,0.4c-0.6,0.6-1.2,1.2-1.8,1.9
		c-1.9,0-3.9,0-5.8,0c-1.2,0-2.3,0-3.5,0c-0.1,0-0.3,0-0.4,0c-0.6,0-1,0.2-1.1,0.8c-0.1,0.4-0.1,0.7-0.2,1.1
		c-0.2,0.2-0.4,0.1-0.6,0.1c-1.3,0-2.5,0-3.8,0c-0.2,0-0.4,0-0.6-0.1c0.2-1.1,0.3-2.2,0.9-3.2c0.7-1.2,1.9-1.7,3.2-1.9
		c0.2,0,0.5-0.1,0.7-0.1c0.1,0,0.3,0,0.4,0c4.5,0,9,0,13.4,0C-451.4,1056.8-451.2,1056.7-451.1,1056.9z"/>
	<path id="XMLID_118_" class="st0" d="M-470.1,1062.1c1.6,0,3.3,0,4.9,0c1.7,0,3.3,0,5,0c1.5,0,3,0,4.5,0c0,0.2,0,0.2-0.1,0.2
		c-1.5,1.5-3,3-4.5,4.5c-0.2,0.2-0.3,0.2-0.5,0c-1.2-1-2.5-1.9-4-2.5c-0.3-0.1-0.5-0.2-0.8-0.4c-0.2,0-0.4,0-0.5-0.1
		c-1.2-0.5-2.5-0.8-3.9-1c-0.1,0-0.2,0-0.3-0.1c-0.4,0-0.8-0.1-1.3-0.2c-0.2-0.1-0.4,0-0.5-0.1c-0.2,0-0.4,0-0.6,0
		c-0.3-0.1-0.6,0-0.8,0c-0.1,0-0.2,0.1-0.3-0.1c0-0.1-0.1-0.2-0.2-0.4C-472.7,1062.1-471.4,1062.1-470.1,1062.1z"/>
	<path id="XMLID_117_" class="st0" d="M-470.3,1062.8c1.2,0.1,2.3,0.4,3.4,0.7c0.4,0.1,0.9,0.3,1.4,0.5c-0.3,1.3-0.6,2.6-0.8,3.9
		c0,0.1-0.2,0.1-0.2,0.1c-1.5,0-2.9,0-4.5,0c-0.1,0-0.2,0-0.2-0.1C-471,1066.2-470.7,1064.5-470.3,1062.8z"/>
	<path id="XMLID_116_" class="st0" d="M-385.1,1071.9c-0.2,0.4-0.3,0.9-0.4,1.4c-0.1,0.2-0.2,0.3-0.4,0.3c-0.9,0-0.9,0-0.6-0.8
		c0.4-1.3,0.8-2.5,1.2-3.8c0.1-0.3,0.2-0.4,0.6-0.4c1,0,2,0,3,0c0.5,0,1.1,0,1.3,0.6c0,0.1,0,0.3,0,0.4c-0.1,0.4-0.2,0.8-0.4,1.2
		c-0.2,0.4-0.6,0.6-1.1,0.7c0.7,0.3,0.8,0.5,0.6,1c-0.3,1.1-0.3,1.1-1.5,1.1c0.1-0.3,0.1-0.5,0.2-0.8c0.2-0.6,0.2-0.6-0.4-0.8
		C-383.9,1071.8-384.5,1071.8-385.1,1071.9z"/>
	<path id="XMLID_115_" class="st0" d="M-376.3,1072.8c-0.1,0.7-0.6,0.6-1.1,0.6c-1,0-1.9,0-2.9,0c-0.2,0-0.4,0-0.2-0.3
		c0.5-1.4,1-2.9,1.4-4.3c0-0.2,0.1-0.4,0.4-0.3c1.2,0,2.5,0,3.7,0c0,0,0,0.1,0,0.1c-0.2,0.7-0.2,0.7-1,0.7c-0.6,0-1.3,0-1.9,0
		c-0.2,0-0.3,0.1-0.4,0.3c-0.4,1-0.4,1,0.7,1c0.4,0,0.9,0,1.3,0c0.1,0,0.4-0.1,0.4,0.2c0,0.2,0,0.6-0.4,0.6c-0.7,0-1.5,0-2.2,0
		c-0.3,0-0.4,0.1-0.5,0.4c-0.1,0.3-0.2,0.6-0.2,0.9c0,0.2,0.2,0.1,0.3,0.1c0.8,0,1.5,0,2.2,0
		C-376.5,1072.7-376.3,1072.6-376.3,1072.8z"/>
	<path id="XMLID_114_" class="st0" d="M-393.2,1073.5c0.4-1.3,0.9-2.6,1.4-3.8c0.1-0.2,0-0.3-0.2-0.3c-0.4,0-0.7,0-1,0
		c-0.1,0-0.2,0-0.3-0.1c0-0.2,0.3-0.8,0.6-0.8c1.3,0,2.5,0,3.8,0c0.3,0,0.3,0.1,0.2,0.4c-0.1,0.4-0.3,0.6-0.7,0.6
		c-0.4,0-0.8-0.1-1.1,0s-0.3,0.6-0.4,1c-0.3,0.9-0.7,1.8-1,2.7c-0.1,0.3-0.2,0.4-0.5,0.4C-392.8,1073.5-393,1073.5-393.2,1073.5z"/>
	<path id="XMLID_113_" class="st0" d="M-386.6,1068.5c-0.5,1.6-1,3.1-1.5,4.7c0,0.1,0,0.1,0,0.2c-0.2,0.2-0.9,0.2-1.1,0.1
		c0,0,0-0.1,0-0.2c0.5-1.6,1-3.2,1.5-4.9C-387.3,1068.4-387,1068.4-386.6,1068.5z"/>
	<path id="XMLID_112_" class="st0" d="M-408.2,1067.8c0.1,0.2,0.2,0.1,0.3,0.1c4.7,0,9.4,0,14,0c0.1,0,0.2,0,0.2,0
		c-0.1,0.2-0.3,0.1-0.4,0.1c-4.6,0-9.3,0-13.9,0C-407.9,1068-408.2,1068.2-408.2,1067.8z"/>
	<path id="XMLID_111_" class="st0" d="M-451.1,1056.9c-0.1-0.2-0.3-0.1-0.4-0.1c-4.5,0-9,0-13.5,0c-0.1,0-0.2,0-0.3,0
		c0.1-0.1,0.3-0.1,0.4-0.1c4.5,0,9,0,13.5,0C-451.3,1056.8-451,1056.6-451.1,1056.9z"/>
	<path id="XMLID_110_" class="st0" d="M-376.9,1056.9c-4,0-7.9,0-11.9,0c0.1-0.1,0.3-0.1,0.4-0.1c3.7,0,7.4,0,11,0
		C-377.2,1056.8-377,1056.7-376.9,1056.9z"/>
	<path id="XMLID_109_" class="st0" d="M-463.9,1060.2c0.2-0.1,0.3,0,0.5,0c3.1,0,6.2,0,9.3,0c-0.1,0.1-0.2,0-0.3,0
		C-457.6,1060.2-460.7,1060.2-463.9,1060.2z"/>
	<path id="XMLID_108_" class="st0" d="M-392.9,1061.4c0-0.2,0-0.3-0.2-0.2c-0.3,0-0.6,0-0.9,0c-2.5,0-5,0-7.5,0
		c-0.1,0-0.4,0.2-0.3-0.2c0.1,0.2,0.3,0.1,0.5,0.1c2.7,0,5.5,0,8.2,0C-393,1061.1-392.7,1061-392.9,1061.4z"/>
	<path id="XMLID_107_" class="st0" d="M-436.2,1067.9c2.9,0,5.8,0,8.7,0c0.2,0,0.4,0,0.5,0c-0.1,0.2-0.2,0.1-0.4,0.1
		c-2.8,0-5.7,0-8.5,0C-436,1068-436.1,1068-436.2,1067.9z"/>
	<path id="XMLID_106_" class="st0" d="M-439.4,1056.9c-0.1-0.2-0.3-0.1-0.5-0.1c-2.2,0-4.5,0-6.6,0c0.1-0.1,0.3-0.1,0.4-0.1
		c2.1,0,4.3,0,6.4,0C-439.6,1056.8-439.4,1056.6-439.4,1056.9z"/>
	<path id="XMLID_105_" class="st0" d="M-405.8,1056.9c-0.1-0.2-0.3-0.1-0.4-0.1c-2.1,0-4.3,0-6.5,0c0.1-0.1,0.2-0.1,0.3-0.1
		c2.1,0,4.3,0,6.4,0C-405.9,1056.8-405.7,1056.7-405.8,1056.9z"/>
	<path id="XMLID_104_" class="st0" d="M-425.4,1067.8c0,0.2,0.1,0.2,0.2,0.2c1.6,0,3.1,0,4.7,0c0,0,0,0,0.1,0c0,0.1-0.2,0.1-0.3,0.1
		c-1.5,0-2.9,0-4.5,0C-425.3,1068-425.5,1068.1-425.4,1067.8z"/>
	<path id="XMLID_103_" class="st0" d="M-432.6,1056.9c0-0.1-0.1-0.1-0.2-0.1c-1.6,0-3.2,0-4.8,0c0.1-0.2,0.2-0.1,0.4-0.1
		c1.4,0,2.9,0,4.3,0C-432.8,1056.8-432.6,1056.6-432.6,1056.9z"/>
	<path id="XMLID_102_" class="st0" d="M-379.6,1067.9c0.2,0.1,0.4,0,0.6,0c1.4,0,2.7,0,4,0c0.2,0,0.3,0,0.4-0.1
		c0,0.2-0.1,0.2-0.2,0.2c-1.5,0-3,0-4.5,0C-379.5,1068-379.6,1068-379.6,1067.9z"/>
	<path id="XMLID_101_" class="st0" d="M-391.1,1067.9c1.7,0,3.4,0.1,5.1,0c0,0.1-0.2,0.1-0.3,0.1c-1.5,0-3,0-4.5,0
		C-390.9,1068-391,1068-391.1,1067.9z"/>
	<path id="XMLID_100_" class="st0" d="M-471.4,1067.9c0.1,0.1,0.2,0.1,0.3,0.1c1.4,0,2.9,0,4.3,0c0.1,0,0.2,0,0.3,0
		c-0.1,0.2-0.2,0.1-0.3,0.1c-1.4,0-2.9,0-4.3,0C-471.2,1068-471.3,1068-471.4,1067.9z"/>
	<path id="XMLID_99_" class="st0" d="M-446.5,1067.9c1.6,0,3.2,0,4.8,0c-0.1,0.1-0.2,0.1-0.3,0.1c-1.4,0-2.7,0-4.1,0
		C-446.3,1068-446.4,1068-446.5,1067.9z"/>
	<path id="XMLID_98_" class="st0" d="M-376.3,1072.8c0-0.3-0.2-0.2-0.4-0.2c-0.8,0-1.5,0-2.3,0c-0.1,0-0.3,0.1-0.2-0.2
		c0.1,0.1,0.3,0.1,0.4,0.1c0.7,0,1.4,0,2.1,0C-376.4,1072.6-376.2,1072.6-376.3,1072.8z"/>
	<path id="XMLID_96_" class="st0" d="M-385.1,1071.9c0.6-0.1,1.2-0.1,1.9,0C-383.9,1071.9-384.5,1071.9-385.1,1071.9z"/>
	<path id="XMLID_95_" class="st0" d="M-389.1,1073.4c0,0,0,0.2,0,0.2c0.4,0,0.7,0.1,1-0.1c0,0.2-0.1,0.2-0.2,0.2c-0.2,0-0.5,0-0.7,0
		C-389.2,1073.6-389.3,1073.6-389.1,1073.4z"/>
	<path id="XMLID_94_" class="st0" d="M-386.6,1068.5c-0.4,0-0.7,0-1.1,0C-387.3,1068.4-387,1068.4-386.6,1068.5z"/>
	<path id="XMLID_91_" class="st0" d="M-422.3,1056.9c-0.2,0-0.5,0-0.8,0C-422.8,1056.7-422.6,1056.7-422.3,1056.9z"/>
	<path id="XMLID_89_" class="st0" d="M-402.6,1056.9c-0.2,0.1-0.4,0.1-0.5,0.1C-402.9,1056.8-402.7,1056.9-402.6,1056.9z"/>
	<path id="XMLID_88_" class="st0" d="M-380.6,1069.5c0-0.1,0-0.3,0-0.4C-380.5,1069.3-380.5,1069.4-380.6,1069.5z"/>
	<path id="XMLID_87_" class="st1" d="M-383.8,1071c-0.2,0-0.5,0-0.8,0c-0.2,0-0.3-0.1-0.2-0.3c0.1-0.4,0.2-0.8,0.4-1.2
		c0-0.2,0.1-0.3,0.3-0.3c0.6,0,1.2,0,1.8,0c0.4,0,0.5,0.2,0.4,0.6c-0.2,0.9-0.5,1.1-1.4,1.2C-383.4,1071-383.6,1071-383.8,1071z"/>
</g>
<rect x="-551.8" y="1020.7" class="st2" width="255.1" height="85"/>
</svg>
