<?xml version="1.0" encoding="utf-8"?>
<!-- Generator: Adobe Illustrator 19.0.0, SVG Export Plug-In . SVG Version: 6.00 Build 0)  -->
<svg version="1.1" id="Ebene_1" xmlns="http://www.w3.org/2000/svg" xmlns:xlink="http://www.w3.org/1999/xlink" x="0px" y="0px"
	 viewBox="-566 1013.6 283.5 99.2" style="enable-background:new -566 1013.6 283.5 99.2;" xml:space="preserve">
<style type="text/css">
	.st0{fill:#1D1D1B;}
	.st1{fill:none;stroke:#62F1AC;stroke-miterlimit:10;}
</style>
<g id="XMLID_2_">
	<path id="XMLID_84_" class="st0" d="M-481.4,1062.4c-0.5-0.2-1-0.2-1.4-0.1c-1.2,0.1-2.4,0.5-3.6,0.9c0-0.4,0-0.8,0.1-1.1
		c0.3-1.4,0.9-2.7,2.1-3.6c0.8-0.6,1.7-0.8,2.7-0.8c1.7,0,3.4,0.2,5.1,0.6c2.1,0.5,4,0.3,6-0.6c0.2-0.1,0.3-0.1,0.4,0.2
		c0.3,1.4-0.7,3.3-2.1,4c-1,0.5-2.1,0.7-3.2,0.8c-0.7,0-1.3,0-2,0c-0.1,0-0.2,0-0.3,0.1c-0.3,0.8-0.4,1.6,0,2.4
		c0.1,0.2,0.2,0.2,0.4,0.1c0.8-0.5,1.6-0.8,2.5-0.8c0.7,0,1.3,0.3,1.9,0.7c0.1,0.1,0.1,0.2,0,0.3c-0.5,0.9-1,1.8-1.4,2.7
		c-0.1,0.2-0.2,0.2-0.3,0.1c-0.6-0.2-1.1-0.3-1.8-0.2c-0.1,0-0.2,0-0.3,0c-0.3,0-0.4,0.2-0.4,0.5c0.1,1,0.2,2,0,3
		c-0.5,1.8-2.5,3.3-4.3,3.3c-0.4,0-0.8,0-1.1,0c-0.3,0-0.3-0.1-0.2-0.3c0.2-0.5,0.5-1,0.6-1.5c0.1-0.9,0-1.8-0.2-2.7
		c-0.2-1.2-0.6-2.5-0.5-3.8c0-1.3,0.3-2.6,1-3.7C-481.8,1062.9-481.6,1062.7-481.4,1062.4z"/>
	<path id="XMLID_83_" class="st0" d="M-392.1,1062.9c1.5-0.6,3-1.1,4.5-1.7c0.2,0,0.2,0,0.4,0.1c0.4,0.4,0.7,0.8,1,1.3
		c0.1,0.3,0.3,0.3,0.5,0.1c1.1-0.5,2.3-1,3.5-1.2c1.9-0.5,3.2,0.3,3.8,2.2c0.1,0.4,0.1,0.8,0.1,1.2c0,1.1,0,2.2,0,3.3
		c0,1,0.2,2,1.3,2.4c0,0.1-0.1,0.1-0.2,0.1c-1.3,0.5-2.7,1-4,1.6c-0.2,0.1-0.3,0-0.4-0.1l0,0c-1.4-1.2-1.4-1.3-1.4-3
		c0-1,0-1.9,0-2.9c0-0.7-0.3-1.2-0.8-1.7c-0.1-0.1-0.2-0.1-0.3-0.1c-0.4,0.1-0.9,0.3-1.3,0.4c-0.1,0-0.2,0.1-0.2,0.2
		c0,1.2,0,2.4,0,3.7c0,0.7,0.4,1.1,0.9,1.6c0.3,0.3,0.3,0.3-0.1,0.4c-1.3,0.4-2.6,0.9-4,1.3c-0.2,0-0.3,0-0.5,0
		c-0.9-0.5-1.3-1.1-1.3-2.2c0-1.8,0-3.5,0-5.3c0-0.3,0-0.5-0.2-0.7C-391.4,1063.8-391.7,1063.3-392.1,1062.9z"/>
	<path id="XMLID_80_" class="st0" d="M-394.3,1066.5c0,0.7,0,1.1-0.1,1.7c-0.2,0.9-0.7,1.6-1.4,2.1c-1.4,1-2.9,1.7-4.6,2.2
		c-0.1,0-0.2,0-0.2,0c-1.5-0.3-3-0.6-4.3-1.3c-1.7-0.9-2.7-2.3-3-4.2c-0.3-1.4,0.2-2.6,1.3-3.5c1.1-1,2.4-1.6,3.8-2
		c2-0.7,1.3-0.7,3.3,0c1.5,0.5,2.9,1.1,4,2.3C-394.6,1064.5-394,1065.4-394.3,1066.5z M-399.5,1067.3c0-0.2,0-0.4,0-0.6
		c-0.2-1.1-1-2-1.9-2.6c-0.6-0.4-0.5-0.5-0.8,0.2c-0.7,2.1,0,3.8,1.9,4.7c0.2,0.1,0.3,0.1,0.4-0.1
		C-399.7,1068.4-399.5,1067.9-399.5,1067.3z"/>
	<path id="XMLID_77_" class="st0" d="M-368.1,1068.6c0.7,0.7,1.6,0.8,2.5,0.7c1-0.1,2-0.4,3-0.7c0,0,0.1,0,0.2,0
		c0,0.1-0.1,0.2-0.1,0.3c-0.5,0.9-1.1,1.7-1.6,2.6c-0.1,0.1-0.2,0.3-0.4,0.3c-0.8,0.3-1.5,0.5-2.3,0.5c-1.1,0-2.3,0.1-3.4-0.1
		c-2-0.5-3.5-1.7-4.3-3.6c-0.7-1.6-0.5-3.9,1.3-5.4c1.3-1,2.8-1.6,4.3-1.9c1-0.2,1.9-0.3,2.9-0.3c0.2,0,0.3,0,0.5,0.2
		c1.1,1.4,2.2,2.8,3.4,4.1c0.2,0.2,0.1,0.3-0.1,0.4c-1.9,0.9-3.7,1.8-5.5,2.7C-367.9,1068.5-368,1068.6-368.1,1068.6z
		 M-367.8,1065.8c-0.4-0.5-0.8-0.9-1.1-1.3c-0.2-0.3-0.3-0.3-0.6,0c-0.7,0.5-0.9,1.7-0.4,2.4c0.1,0.1,0.1,0,0.2,0
		C-369.1,1066.4-368.5,1066.1-367.8,1065.8z"/>
	<path id="XMLID_74_" class="st0" d="M-435,1068.5c0,0.1-0.1,0.2-0.1,0.3c-0.5,0.9-1.1,1.7-1.6,2.6c-0.1,0.2-0.2,0.3-0.4,0.4
		c-0.7,0.3-1.4,0.5-2.1,0.5c-1.2,0-2.5,0.1-3.7-0.1c-1.8-0.4-3.1-1.5-4-3c-1-1.8-0.9-4.4,1.4-6.1c1.2-0.9,2.6-1.3,4.1-1.6
		c0.9-0.2,1.9-0.2,2.8-0.3c0.2,0,0.3,0,0.5,0.2c1.1,1.4,2.3,2.8,3.4,4.1c0.2,0.2,0.1,0.3-0.1,0.4c-1.8,0.9-3.6,1.8-5.4,2.6
		c-0.1,0-0.2,0.1-0.4,0.2c0.5,0.5,1.1,0.7,1.7,0.8c1,0,1.9-0.2,2.8-0.4C-435.8,1068.7-435.4,1068.6-435,1068.5z M-441.8,1064.1
		c-0.3,0.1-0.7,0.4-0.8,0.8c-0.2,0.6-0.1,1.2,0,1.8c0,0.2,0.1,0.2,0.3,0.1c0.5-0.3,1-0.6,1.6-0.9c0.1-0.1,0.2-0.1,0.1-0.3
		c-0.4-0.4-0.7-0.9-1-1.3C-441.7,1064.1-441.7,1064.1-441.8,1064.1z"/>
	<path id="XMLID_73_" class="st0" d="M-420.6,1064.1c-0.4,0.4-0.8,0.9-1.1,1.2c-0.1,0.1-0.2,0.1-0.3,0c-0.9-0.5-1.7-0.9-2.5-1.4
		c-0.2-0.1-0.4-0.2-0.6-0.3c-0.2,0-0.5,0-0.6,0.2c-0.1,0.2,0,0.4,0.2,0.6c0.5,0.4,1,0.7,1.6,1c0.9,0.6,1.8,1.1,2.7,1.7
		c0.3,0.2,0.6,0.4,0.9,0.7c0.4,0.6,0.4,1.1,0,1.7c-0.2,0.3-0.6,0.5-0.9,0.7c-1.6,1-3.3,1.9-5,2.7c-0.1,0-0.2,0-0.3,0
		c-1.8-1.1-3.6-2.1-5.4-3.2c-0.2-0.1-0.2-0.2,0-0.3c0.4-0.3,0.7-0.7,1.1-1.1c0.1-0.1,0.2-0.1,0.3,0c1.1,0.6,2.2,1.2,3.3,1.9
		c0.1,0,0.2,0.1,0.3,0.1c0.2,0,0.5,0,0.6-0.3c0.1-0.3-0.1-0.4-0.3-0.6c-0.9-0.5-1.8-1-2.6-1.6c-0.7-0.4-1.3-0.8-1.9-1.2
		c-0.3-0.2-0.5-0.4-0.7-0.7c-0.4-0.5-0.3-1,0-1.5c0.2-0.3,0.5-0.5,0.8-0.7c1.6-1,3.3-1.9,4.9-2.8c0.1,0,0.2-0.1,0.3,0
		C-424.3,1062-422.4,1063.1-420.6,1064.1z"/>
	<path id="XMLID_72_" class="st0" d="M-453.6,1070.5c-1.5,0.5-2.9,1-4.3,1.6c-0.1,0-0.2,0-0.3,0c-1.3-0.5-1.8-1.4-1.8-2.8
		c0-1.5,0-3,0-4.6c0-0.6-0.2-1.1-0.6-1.6c-0.1-0.2-0.3-0.3-0.4-0.6c0.7-0.3,1.4-0.5,2-0.8c0.7-0.3,1.4-0.5,2.1-0.8
		c0.5-0.2,0.9-0.1,1.2,0.3c0.2,0.3,0.4,0.6,0.5,1c0,0.2,0.1,0.2,0.4,0.1c1.1-0.4,2.2-0.9,3.3-1.3c0.2-0.1,0.3,0,0.4,0.1
		c0.8,1.3,1.6,2.5,2.4,3.8c0.1,0.2,0.1,0.3-0.1,0.4c-1.2,0.6-2.3,1.2-3.5,1.9c-0.2,0.1-0.3,0.1-0.4-0.1c-0.3-0.6-0.7-1.1-1-1.7
		c-0.1-0.2-0.2-0.2-0.4-0.1c-0.6,0.2-0.6,0.2-0.6,0.8c0,1,0,2,0.2,3C-454.6,1069.7-454.3,1070.3-453.6,1070.5z"/>
	<path id="XMLID_71_" class="st0" d="M-410.7,1070.6c-1,0.3-1.8,0.7-2.7,1c-0.6,0.2-1.3,0.4-1.9,0.7c-0.2,0.1-0.4,0-0.5,0
		c-1-0.6-1.5-1.5-1.5-2.7c0-1.6,0-3.2,0-4.8c0-0.3-0.1-0.4-0.4-0.3c-0.7,0-1.3,0-2,0c2.5-1.8,5-3.6,7.4-5.4c0.1,0,0.1,0.1,0.1,0.2
		c0,0.7,0,1.4,0,2.2c0,0.2,0,0.3,0.3,0.3c0.7,0,1.4,0,2.2,0c0.2,0,0.3,0,0.3,0.3c0,0.8,0,1.5,0,2.2c0,0.2,0,0.3-0.3,0.3
		c-0.7,0-1.4,0-2.1,0c-0.2,0-0.3,0.1-0.3,0.3c0,1.3,0,2.7,0,4c0,0.4,0.2,0.7,0.5,1C-411.4,1070-411.1,1070.3-410.7,1070.6z"/>
	<path id="XMLID_70_" class="st0" d="M-462.5,1070.5c-1.6,0.5-3,1-4.6,1.6c-0.1,0-0.1,0-0.2,0c-1.1-0.4-1.8-1.2-1.8-2.5
		c0-1.6,0-3.2,0-4.8c0-0.6-0.2-1.2-0.6-1.7c-0.1-0.2-0.3-0.4-0.5-0.6c0.3-0.1,0.7-0.3,1-0.4c1.1-0.4,2.2-0.8,3.3-1.2
		c0.5-0.2,0.9-0.1,1.2,0.3c0.4,0.5,0.6,1.2,0.7,1.9c0.2,0.9,0.1,1.9,0.1,2.8s0,1.8,0.1,2.7C-463.6,1069.4-463.4,1070.2-462.5,1070.5
		z"/>
</g>
<rect x="-551.8" y="1020.7" class="st1" width="255.1" height="85"/>
</svg>
