<?xml version="1.0" encoding="utf-8"?>
<!-- Generator: Adobe Illustrator 19.0.0, SVG Export Plug-In . SVG Version: 6.00 Build 0)  -->
<svg version="1.1" id="Ebene_1" xmlns="http://www.w3.org/2000/svg" xmlns:xlink="http://www.w3.org/1999/xlink" x="0px" y="0px"
	 viewBox="-566 1013.6 283.5 99.2" style="enable-background:new -566 1013.6 283.5 99.2;" xml:space="preserve">
<style type="text/css">
	.st0{fill:none;stroke:#62F1AC;stroke-miterlimit:10;}
</style>
<g id="XMLID_2_">
	<path id="XMLID_145_" d="M-372.9,1070.1c0.4-1.3,0.7-2.5,1-3.7c0.8-2.9,1.6-5.8,2.3-8.7c0.1-0.3,0.2-0.4,0.5-0.4c2.8,0,5.6,0,8.3,0
		c1.1,0,2,0.3,2.8,1c1.5,1.2,1.9,3.1,1,4.8c-0.6,1-1.4,1.8-2.3,2.4c-0.2,0.2-0.3,0.3-0.2,0.5c0.3,1.4,0.6,2.7,0.9,4
		c0,0.1,0,0.1,0.1,0.2c-0.1,0-0.2,0-0.3,0c-1.8,0-3.5,0-5.2,0c-0.3,0-0.4-0.1-0.4-0.3c-0.3-1.1-0.5-2.1-0.8-3.1
		c-0.1-0.1-0.1-0.2-0.1-0.3c-0.1,0-0.1,0-0.1-0.1c-0.7-0.1-0.7-0.1-0.9,0.6c-0.3,1-0.6,1.9-0.8,2.9c-0.1,0.2-0.1,0.3-0.3,0.3
		C-369.2,1070.1-371,1070.1-372.9,1070.1C-372.8,1070.1-372.8,1070.1-372.9,1070.1z M-365.5,1064.4c0.1,0,0.1,0.1,0.1,0.1
		c0.5,0,0.9,0,1.3,0c0.7,0,1.1-0.3,1.3-1c0.2-0.9,0.5-1.7,0.6-2.6c0.1-0.5,0.1-1,0-1.4c0-0.2-0.2-0.4-0.5-0.4c-0.5,0-0.9,0-1.4,0
		c-0.3,0-0.3,0.1-0.4,0.3c-0.3,1.1-0.5,2.2-0.7,3.2C-365.3,1063.3-365.4,1063.8-365.5,1064.4z"/>
	<path id="XMLID_142_" d="M-440,1057.4c1.1,0,2.1,0,3.1,0c1.6,0,3.2,0,4.8-0.1c1.5-0.1,2.6,0.7,3.4,1.8c0.6,0.8,0.8,1.8,0.8,2.8
		c0.1,3.6-2.1,6.8-5.3,7.9c-0.5,0.2-1.1,0.3-1.7,0.3c-2.6,0.1-5.3,0-7.9,0c-0.2,0-0.3,0-0.5,0
		C-442.1,1065.9-441.1,1061.7-440,1057.4z M-435.1,1059.2c-0.8,3-1.6,6-2.3,9.1c0.6,0,1.1,0,1.6,0c0.6,0,1-0.3,1.1-0.9
		c0.6-2.2,1.2-4.5,1.7-6.7c0.1-0.4,0.1-0.8,0-1.1c-0.1-0.2-0.3-0.4-0.5-0.5C-434,1059.2-434.5,1059.2-435.1,1059.2z"/>
	<path id="XMLID_139_" d="M-474.3,1065c0.1-4.5,3.4-7.1,6.8-7.8c1.7-0.4,3.4-0.2,4.9,0.7c2.1,1.2,3,3.3,2.4,5.7
		c-0.9,3.4-2.9,5.7-6.3,6.6c-2.1,0.6-4.1,0.3-5.9-1.1C-473.7,1068.2-474.4,1066.6-474.3,1065z M-468.4,1068.9c0.7,0,1.1-0.4,1.3-1.1
		c0.3-1.3,0.7-2.5,1-3.7c0.4-1.3,0.7-2.6,1-4c0.2-0.6-0.1-1-0.5-1.2c-0.5-0.3-1.1-0.2-1.4,0.3c-0.2,0.3-0.4,0.6-0.5,1
		c-0.5,1.7-0.9,3.4-1.4,5c-0.2,0.8-0.5,1.6-0.6,2.4C-469.7,1068.3-469.2,1068.9-468.4,1068.9z"/>
	<path id="XMLID_136_" d="M-450,1057c1.8,0.1,3.2,0.5,4.4,1.5c1.7,1.4,2.1,3.2,1.6,5.2c-0.9,3.3-2.9,5.6-6.3,6.6
		c-2.2,0.6-4.3,0.3-6.1-1.3c-1.1-0.9-1.6-2.2-1.7-3.6c-0.2-4.4,2.9-7.3,6.4-8.1C-451,1057.1-450.4,1057.1-450,1057z M-453.3,1067.5
		c0,0.8,0.2,1.2,0.7,1.3c0.6,0.2,1.2,0.1,1.5-0.4c0.2-0.2,0.3-0.5,0.3-0.8c0.3-0.9,0.5-1.8,0.7-2.6c0.4-1.6,0.8-3.2,1.2-4.8
		c0.2-0.7-0.1-1.2-0.5-1.4c-0.6-0.3-1.2-0.1-1.5,0.5c-0.2,0.2-0.3,0.5-0.3,0.7c-0.6,2-1.1,3.9-1.6,5.9
		C-453.1,1066.5-453.2,1067.1-453.3,1067.5z"/>
	<path id="XMLID_135_" d="M-478.1,1058.1c-0.4,0.7-0.7,1.2-1,1.8c-0.8-0.7-1.7-1-2.7-1c-0.4,0-0.7,0.1-1,0.2
		c-0.4,0.2-0.7,0.5-0.8,0.9c-0.7,2.4-1.3,4.8-2,7.2c-0.1,0.2-0.1,0.4-0.1,0.6c0,0.7,0.3,0.9,0.9,0.9c0.3,0,0.7,0,1,0
		c0.3,0,0.4-0.1,0.5-0.4c0.5-1.6,0.9-3.1,1.4-4.6c0.1-0.3,0.2-0.4,0.5-0.4c1.6,0,3.1,0,4.7,0c0.1,0,0.2,0,0.4,0
		c-0.3,1.3-0.6,2.5-0.9,3.7c-0.3,1-0.5,1.9-0.7,2.9c-0.1,0.2-0.1,0.3-0.3,0.3c-2.9,0-5.8,0-8.7,0c-1.4,0-2.3-0.7-3-1.9
		c-0.5-0.9-0.7-1.8-0.7-2.7c0-1.8,0.4-3.5,1.5-5c1.2-1.7,2.9-2.6,4.9-3.1c1.6-0.4,3.2-0.4,4.8,0.1
		C-479,1057.7-478.6,1057.9-478.1,1058.1z"/>
	<path id="XMLID_132_" d="M-375.6,1057.3c0.4,4.3,0.8,8.5,1.1,12.8c-0.2,0-0.3,0-0.4,0c-1.7,0-3.3,0-4.9,0c-0.3,0-0.4-0.1-0.4-0.4
		c0-0.5,0-1.1,0-1.6c-0.1,0-0.2,0-0.3,0c-1.5,0-2.9,0-4.3,0c-0.2,0-0.3,0.1-0.4,0.3c-0.3,0.5-0.6,1-0.9,1.5
		c-0.1,0.1-0.2,0.2-0.3,0.2c-0.7,0-1.5,0-2.2,0c0.1-0.2,0.1-0.3,0.2-0.3c2.5-4.1,5-8.2,7.5-12.2c0.1-0.1,0.3-0.3,0.4-0.3
		c1.6,0,3.1,0,4.7,0C-375.8,1057.3-375.7,1057.3-375.6,1057.3z M-383.8,1066.2c1.2,0,2.2,0,3.4,0c-0.2-1.5-0.4-2.9-0.6-4.3h-0.1
		C-382,1063.3-382.9,1064.7-383.8,1066.2z"/>
	<path id="XMLID_131_" d="M-389.9,1064.8c-1.1,0-2.1,0-3.2,0c-0.3,1.1-0.6,2.2-1,3.4c1.6,0,3.1,0,4.7,0c-0.2,0.7-0.3,1.3-0.4,1.9
		c0,0.1-0.2,0.1-0.3,0.1c-0.5,0-1,0-1.4,0c-2.8,0-5.6,0-8.5,0c-0.2,0-0.3,0-0.5,0c0.3-1,0.6-2,0.8-3c0.9-3.2,1.7-6.3,2.6-9.5
		c0.1-0.3,0.2-0.4,0.5-0.4c3.2,0,6.3,0,9.5,0c0.1,0,0.2,0,0.4,0c-0.1,0.7-0.2,1.4-0.3,2.1c-1.6,0-3.2,0-4.8,0
		c-0.3,1.1-0.5,2.1-0.8,3.2c1,0,1.9,0,2.9,0C-389.7,1063.3-389.8,1064-389.9,1064.8z"/>
	<path id="XMLID_130_" d="M-405,1061.9c0.7-0.8,1.4-1.5,2-2.3c0.7-0.7,1.3-1.5,1.9-2.2c0.1-0.1,0.2-0.2,0.3-0.2c0.8,0,1.6,0,2.5,0
		c-0.1,0.2-0.2,0.2-0.2,0.3c-1.8,2.2-3.6,4.3-5.4,6.5c-0.2,0.3-0.4,0.6-0.5,0.9c-0.5,1.7-0.9,3.3-1.3,5c-0.1,0.2-0.1,0.3-0.3,0.3
		c-1.9,0-3.8,0-5.6,0c-0.1,0-0.1,0-0.2-0.1c0.2-0.7,0.4-1.4,0.5-2.1c0.3-1.1,0.6-2.2,0.8-3.3c0.1-0.2,0-0.4-0.1-0.5
		c-0.7-2.3-1.4-4.5-2.2-6.7c0-0.1-0.1-0.1-0.1-0.2c0.1,0,0.3,0,0.4,0c1.8,0,3.6,0,5.4,0c0.3,0,0.4,0.1,0.4,0.3
		c0.5,1.4,0.9,2.7,1.4,4.1C-405.1,1061.8-405,1061.8-405,1061.9z"/>
	<path id="XMLID_126_" d="M-400.9,1051.6c-0.7,1.9-1.7,2.7-3.9,2.8c-1,0.1-2.1,0.1-3.1,0c-0.7-0.1-1.4-0.2-2.2-0.3
		c-0.1,0-0.1,0-0.2,0c-0.2,0.2-0.1,0.4,0.1,0.5c0.2,0.2,0.4,0.3,0.6,0.4c0.3,0.2,0.3,0.4-0.1,0.5c-0.3,0.1-0.5,0.1-0.7,0.2
		c-0.3,0.1-0.6,0.1-0.9,0.1c-0.1,0-0.2,0.1-0.3,0.2c0.1,0.1,0.1,0.2,0.2,0.3s0.2,0.2,0.3,0.3c-0.5,0.4-1,0.5-1.6,0.4
		c-0.3-0.1-0.6-0.2-0.8-0.3c-0.2-0.1-0.4,0-0.4,0.3c-0.1,0.6-0.2,1.3-0.4,1.9c0,0.1-0.1,0.2-0.1,0.3c-0.2,0.4-0.2,0.4-0.5,0.2
		c-0.2-0.1-0.3-0.2-0.5-0.4c-0.1,0.4-0.1,0.8-0.2,1.1c0,0.1-0.1,0.3-0.1,0.4c-0.1,0.3-0.3,0.4-0.5,0.2c-0.1-0.1-0.1-0.1-0.2-0.2
		c-0.1-0.1-0.2-0.2-0.4-0.3c-0.1,0.2-0.3,0.3-0.3,0.4c-0.2,0.5-0.4,1-0.6,1.4c-0.1,0.3-0.3,0.6-0.6,0.6c-0.4,0-0.5-0.4-0.6-0.6
		c-0.4-1.2-0.5-2.3-0.3-3.5c0.1-0.2,0-0.5-0.1-0.7c-1-1.6-0.5-4.2,1.9-5.1c1-0.4,2-0.5,3.1-0.4c3.1,0.2,6.2,0.4,9.4,0.3
		c1-0.1,2-0.3,3-0.4C-401.3,1051.6-401.1,1051.6-400.9,1051.6z M-412.9,1052.9c-0.5,0-0.9-0.1-1.3-0.1c-0.1,0-0.2,0.1-0.3,0.1
		c-0.2,0.4-0.5,0.4-0.9,0.4c-0.4,0-0.6,0.2-0.8,0.5c-0.1,0.1-0.2,0.2-0.3,0.2c-0.1,0.1-0.3,0-0.4,0.1c-0.1,0.1-0.3,0.1-0.4,0.2
		c0.1,0.2,0.2,0.4,0.3,0.4c0.5,0.1,1,0.2,1.5-0.2c0.2-0.2,0.4-0.3,0.6-0.3c0.3,0,0.6-0.2,0.7-0.4c0.2-0.3,0.4-0.5,0.8-0.5
		C-413,1053.4-412.8,1053.2-412.9,1052.9z M-418,1056c0,0-0.1,0-0.2,0c-0.2,0.1-0.3,0.3-0.1,0.4c0.4,0.3,0.7,0.6,0.9,1
		c0.1,0.1,0.2,0.1,0.3,0.1c0.1,0,0.2-0.2,0.2-0.2C-416.9,1056.5-417,1056-418,1056z"/>
	<path id="XMLID_125_" d="M-423.9,1063.8c0.8,1.6,1.5,3.1,2.2,4.6c0.1,0.1,0,0.2-0.1,0.3c-1.5,1.5-2.9,3.1-4.6,4.4
		c-0.7,0.5-1.4,1-2.3,1.1c-0.3,0.1-0.6,0.2-0.8-0.1c-0.2-0.3,0.1-0.6,0.3-0.8c0.4-0.5,0.7-0.9,1.1-1.3c0.9-0.9,1.5-2,1.9-3.2
		c0.5-1.5,0.9-2.9,1.7-4.2C-424.3,1064.5-424.1,1064.2-423.9,1063.8z"/>
	<path id="XMLID_124_" d="M-415.5,1063.9c-1.8,1.3-3.5,2.6-5.3,3.9c-0.8-1.5-1.6-3.1-2.5-4.7c1.2-0.6,2.4-1.2,3.6-1.8
		c0.2,0.4,0.4,0.8,0.7,1.1c0.3,0.4,0.6,0.8,0.9,1.2c0.2,0.3,0.4,0.3,0.6,0c0.4-0.5,0.8-0.9,1.2-1.3
		C-416.1,1062.8-415.8,1063.4-415.5,1063.9z"/>
	<path id="XMLID_123_" d="M-420.3,1054.5c0,0.8,0,1.6,0,2.4c0,0.1-0.1,0.2-0.2,0.2c-1.2,0.7-2.3,1.4-3.5,2.1c-0.4-0.7-0.8-1.4-1.2-2
		C-423.5,1056.3-421.9,1055.4-420.3,1054.5z"/>
	<path id="XMLID_122_" d="M-428.3,1075.8c-0.1-0.1-0.2-0.2-0.3-0.3c0-0.1,0.1-0.3,0.1-0.4s0.2-0.2,0.3-0.2c1.7-0.8,3.2-1.8,4.6-3.1
		c1.3-1.3,2.7-2.6,4-3.8c1.4-1.2,2.8-2.4,4.4-3.3c0.2-0.1,0.4-0.2,0.5,0.1c0.1,0.1-0.1,0.3-0.1,0.4c-2.9,1.5-5,3.8-7.3,6
		c-1,1-1.9,2-3.1,2.8c-0.9,0.6-1.7,1-2.6,1.5C-427.8,1075.6-428,1075.7-428.3,1075.8z"/>
	<path id="XMLID_121_" d="M-423.3,1062c0-0.7,0-1.2,0-1.9c0.9,0.2,1.7,0.3,2.5,0.5C-421.7,1061.1-422.5,1061.6-423.3,1062z"/>
	<path id="XMLID_120_" d="M-422,1059.4c0.8-0.4,1.5-0.9,2.3-1.3c-0.1,0.5-0.1,0.9-0.1,1.3c0,0.1-0.2,0.2-0.3,0.2c-0.7,0-1.3,0-1.9,0
		C-422,1059.4-422,1059.4-422,1059.4z"/>
</g>
<rect x="-551.8" y="1020.7" class="st0" width="255.1" height="85"/>
</svg>
