<?xml version="1.0" encoding="utf-8"?>
<!-- Generator: Adobe Illustrator 19.0.0, SVG Export Plug-In . SVG Version: 6.00 Build 0)  -->
<svg version="1.1" id="Ebene_1" xmlns="http://www.w3.org/2000/svg" xmlns:xlink="http://www.w3.org/1999/xlink" x="0px" y="0px"
	 viewBox="-566 1013.6 283.5 99.2" style="enable-background:new -566 1013.6 283.5 99.2;" xml:space="preserve">
<style type="text/css">
	.st0{fill:#292526;}
	.st1{fill:#1D1D1B;}
	.st2{fill:#467DBA;}
	.st3{fill:#4980BB;}
	.st4{fill:#3973B5;}
	.st5{fill:#ABC3DF;}
	.st6{fill:#FFFFFF;}
	.st7{fill:#FDFDFD;}
	.st8{fill:#FAFAFA;}
	.st9{fill:#FBFBFB;}
	.st10{fill:#F6F6F6;}
	.st11{fill:#2B2728;}
	.st12{fill:#2A2628;}
	.st13{fill:#2E2A2B;}
	.st14{fill:#433F40;}
	.st15{fill:#2B2729;}
	.st16{fill:#2F2B2C;}
	.st17{fill:#969495;}
	.st18{fill:#C3C2C2;}
	.st19{fill:#7C7A7A;}
	.st20{fill:#FCFCFC;}
	.st21{fill:none;stroke:#62F1AC;stroke-miterlimit:10;}
</style>
<g id="XMLID_2_">
	<path id="XMLID_192_" class="st0" d="M-474.4,1076c-0.3,0.6-0.7,1.2-1.4,1.6c-0.1,0-0.1,0.1-0.1,0.2c0.1,0.3,0.2,0.7,0.4,1
		c0.1,0.2,0.3,0.3,0.5,0.4c0.4,0.2,0.9,0.5,1.2,0.9c0.4,0.5,0.6,1.3,0.3,1.8c-0.1,0.3-0.4,0.5-0.7,0.7c-0.9,0.4-1.7,0.5-2.7,0.4
		c-0.4,0-0.8-0.3-1-0.7c-0.3-0.7-0.8-1.3-1.4-1.7c-0.5-0.4-0.7-1.1-0.6-1.7c-0.1-0.4,0.1-0.7,0.3-1c0.1-0.3,0.2-0.4-0.1-0.6
		c-0.4-0.3-0.6-0.8-0.8-1.2c-0.1-0.4-0.2-0.8-0.1-1.3c0.3-0.6-0.1-1.1-0.3-1.6c-0.3,0.4-0.1,1-0.2,1.6c-0.2,0.5-0.4,1-0.8,1.4
		c-0.5,0.3-0.8,0.8-1,1.3c-0.2,0.7-0.8,1.3-1.6,1.4c-0.4,0-0.5,0.2-0.6,0.6c-0.2,0.7-0.2,1.4,0,2c0.1,0.3,0.2,0.7,0.2,1.1
		c0,0.9-0.3,1.4-1.2,1.6c-1.6,0.4-3.1,0-4-1.4c-0.4-0.6-0.4-1,0-1.6c0.5-0.6,1-1.3,1.4-1.9c0-0.1,0.1-0.2,0.2-0.3
		c0-0.1,0-0.2,0.1-0.3c0.2-0.3,0.1-0.6-0.1-0.8c-0.4-0.5-0.6-1-0.6-1.6c0-0.5,0.1-0.9,0.3-1.3c0.3-0.4,0.4-0.8,0.4-1.4
		c-0.1-1.2,0.3-2,1.3-2.7c0.3-0.2,0.5-0.6,0.3-1c-0.3-1-0.1-1.9,0.4-2.8c0.1-0.2,0.2-0.5,0.1-0.8c-0.1-0.8,0-1.5,0.4-2.1
		c0.1-0.2,0.2-0.4,0.1-0.6c-0.1-0.5-0.1-1,0-1.6c0-0.2,0-0.4-0.1-0.6c0,0,0-0.1,0-0.1c-0.1-0.6-0.4-0.8-1-0.9
		c-0.6-0.1-1.1-0.5-1.5-1c-0.1-0.2-0.3-0.3-0.5-0.3c-0.4-0.2-0.9-0.3-1.2-0.8c-0.4-0.4-0.8-1-0.9-1.6c0-0.1-0.1-0.1-0.2-0.2
		c-0.6-0.6-1-1.3-1-2.2c0-0.1,0-0.2,0-0.3c-0.2-0.6-0.2-1.1,0.1-1.6c0.1-0.2,0.1-0.3-0.1-0.5c-0.7-0.5-1.2-1.2-1.2-2.1
		c0-0.4,0-0.7,0-1.1c0-0.3,0-0.5-0.1-0.8c-0.2-0.3-0.3-0.7,0.1-1c0,0,0,0,0-0.1c0.3-0.5,0.7-0.7,1.3-0.4c0,0,0.1,0.1,0.2,0.1
		c0.8,0,1.2,0.4,1.6,1c0.1,0.1,0.1,0.2,0.3,0.1c0.5-0.4,1.3-0.1,1.5,0.5c0,0.1,0,0.2,0,0.3c-0.2,0.4-0.1,0.9,0,1.3
		c0.1,0.3,0.1,0.7,0.3,1.1c0.1,0.3,0.6,0.4,0.7,0.8c0.2,0.5,0.7,0.8,1.1,1.2c0.2,0.2,0.6,0.4,0.9,0.4c0.4,0,0.9,0,1.3,0.2
		c0.1,0,0.2,0,0.3,0c0.6-0.2,1.3-0.3,1.9-0.4c-0.3-0.5-0.5-1-0.4-1.6c0-0.3,0-0.6,0.2-0.8c0.2-0.3,0.3-0.7,0.3-1.1
		c0.1-1,0.6-1.7,1.5-2.1c0.1,0,0.2-0.1,0.2-0.2c0.5-0.7,1.9-0.7,2.5,0c0.1,0.1,0.2,0.1,0.3,0.2c0.9,0.4,1.5,1.1,1.6,2.2
		c0,0.1,0,0.2,0.1,0.3c0.7,0.8,0.8,1.7,0.3,2.7c0,0-0.1,0.1,0,0.2c0.7,0.1,1.4,0.3,2,0.7c0.2,0.1,0.4,0.1,0.6,0.2
		c1,0.3,1.7,0.9,2,1.9c0.1,0.4-0.1,0.8,0,1.1c0.1,0.3,0.4,0.5,0.6,0.9c0.1,0.3,0.2,0.6,0.2,1s0,0.7-0.2,1.1c0,0.1,0,0.2,0.1,0.3
		c0.4,0.4,0.6,0.9,0.6,1.5c0,0.1,0.1,0.2,0.2,0.2c1.1,0.6,1.5,1.6,1,2.8c-0.1,0.3,0,0.4,0.2,0.5c0.5,0.3,1,0.7,1.3,1.3
		c0.3,0.5,0.4,1.1,0.2,1.7c-0.1,0.5-0.9,0.8-1.4,0.5c-0.2-0.1-0.3,0-0.5,0c-0.1,0.1-0.2,0.1-0.4,0.2c-0.4,0.3-0.8,0.2-1-0.2
		c-0.2-0.4-0.5-0.8-0.8-1.1c-0.2-0.2-0.2-0.6-0.2-0.9c0.1-0.3,0-0.4-0.3-0.5c-0.5,0-1-0.2-1.4-0.6c0,0-0.1-0.1-0.2-0.1
		c0.1,0.8,0,1.5-0.4,2.2c0,0.1-0.1,0.2-0.1,0.3c0.2,1.1,0,2-0.8,2.8c-0.1,0.1-0.1,0.3-0.1,0.4c0,0.7,0.1,1.4,0.3,2.1
		c0.2,0.6-0.1,1.3-0.5,1.8c0,0.1-0.2,0.1-0.2,0.3C-474.1,1075.1-474.2,1075.6-474.4,1076z"/>
	<path id="XMLID_187_" class="st1" d="M-456.9,1067.5c1-1.5,2-3,3-4.5c0.1-0.2,0.3-0.3,0.5-0.3c1.9,0,3.8,0,5.7,0
		c0.3,0,0.4,0,0.2,0.3c-1.1,2.9-2.2,5.8-3.2,8.7c-0.1,0.2-0.2,0.3-0.4,0.3c-1.2,0-2.3,0-3.4,0c-0.3,0-0.3,0-0.2-0.3
		c0.7-1.9,1.4-3.8,2.1-5.7c0-0.1,0.1-0.2,0.1-0.3c-0.1,0-0.1,0.2-0.2,0.3c-1.3,1.9-2.6,3.9-3.9,5.9c-0.1,0.2-0.2,0.2-0.5,0.2
		c-1,0-2,0-3.1,0c-0.3,0-0.3-0.1-0.3-0.3c0.1-1.9,0.3-3.8,0.4-5.7c0-0.1,0-0.3,0-0.5c0,0,0,0.1-0.1,0.1c-0.7,2-1.5,4.1-2.2,6.1
		c-0.1,0.2-0.2,0.3-0.4,0.3c-1.2,0-2.3,0-3.5,0c-0.2,0-0.3,0-0.2-0.3c1.1-3,2.2-5.9,3.2-8.9c0-0.2,0.1-0.2,0.3-0.2
		c1.6,0,3.3,0,4.9,0c0.7,0,1.1,0.3,1.2,1c0.1,0.6,0,1.2,0,1.8c0,0.5-0.1,1.1-0.1,1.6C-457,1067.1-457,1067.2-456.9,1067.5
		C-456.9,1067.4-456.9,1067.5-456.9,1067.5C-456.9,1067.5-456.9,1067.5-456.9,1067.5z"/>
	<path id="XMLID_185_" class="st1" d="M-376.7,1068.7c0.7-1.9,1.4-3.8,2.1-5.8c0.1-0.2,0.2-0.3,0.4-0.3c1.1,0,2.3,0,3.4,0
		c-0.2,0.7-0.5,1.3-0.7,1.9c-0.9,2.4-1.7,4.7-2.6,7.1c-0.1,0.2-0.2,0.3-0.5,0.3c-1.9,0-3.8,0-5.8,0c-0.2,0-0.3,0-0.3-0.3
		c0.1-2,0.2-3.9,0.3-5.9c0-0.1,0.1-0.2-0.1-0.2c-0.8,2-1.5,4.1-2.3,6.2c0,0.1-0.1,0.2-0.3,0.2c-1.1,0-2.2,0-3.3,0
		c-0.3,0-0.2-0.1-0.1-0.3c1-2.6,1.9-5.1,2.9-7.7c0.1-0.3,0.3-0.7,0.4-1.1c0-0.1,0.1-0.2,0.3-0.2c1.6,0,3.3,0,4.9,0
		c0.7,0,1.2,0.4,1.3,1.1c0,0.2,0,0.5,0,0.7c0,1.3-0.1,2.5-0.2,3.7C-376.8,1068.4-376.8,1068.6-376.7,1068.7
		C-376.8,1068.8-376.8,1068.7-376.7,1068.7z"/>
	<path id="XMLID_184_" class="st1" d="M-421.4,1068.9c-0.7,0-1.5,0-2.1,0c-0.2,0-0.2,0.1-0.2,0.2c-0.3,0.9-0.7,1.7-1,2.7
		c0,0.2-0.1,0.2-0.3,0.2c-1.3,0-2.5,0-3.7,0c-0.3,0-0.3-0.1-0.2-0.3c1.1-2.9,2.1-5.9,3.2-8.8c0-0.1,0-0.3,0.3-0.3c1.4,0,2.7,0,4.1,0
		c-0.4,1.1-0.8,2.2-1.2,3.4c0.7,0,1.5,0,2.1,0c0.2,0,0.2-0.1,0.2-0.3c0.3-0.9,0.7-1.8,1-2.8c0.1-0.2,0.2-0.3,0.4-0.3
		c1.2,0,2.4,0,3.6,0c0.2,0,0.3,0,0.2,0.3c-1.1,2.9-2.2,5.9-3.2,8.8c0,0.2-0.1,0.3-0.4,0.3c-1.3,0-2.5,0-3.7,0
		c-0.3,0-0.3-0.1-0.2-0.3c0.3-0.8,0.6-1.7,0.9-2.5C-421.5,1069.1-421.5,1069-421.4,1068.9z"/>
	<path id="XMLID_183_" class="st1" d="M-404.3,1066.1c-0.3,0.7-0.5,1.5-0.8,2.1c0,0.2-0.2,0.1-0.3,0.1c-1.5,0-2.9,0-4.3,0
		c-0.3,0-0.4,0.1-0.5,0.3c-0.2,0.7-0.2,0.7,0.5,0.7c1.4,0,2.8,0,4.2,0c0.1,0,0.2,0,0.4,0c-0.3,0.8-0.6,1.6-0.9,2.4
		c0,0.1-0.2,0.1-0.3,0.1c-0.9,0-1.9,0-2.8,0c-2,0-4.1,0-6.2,0c-0.2,0-0.3,0-0.2-0.3c1.1-2.9,2.2-5.9,3.2-8.8
		c0.1-0.2,0.2-0.2,0.4-0.2c3,0,5.9,0,8.9,0c0.3,0,0.3,0,0.2,0.3c-0.2,0.6-0.5,1.3-0.7,1.9c0,0.2-0.2,0.3-0.4,0.2c-1.5,0-3,0-4.5,0
		c-0.3,0-0.4,0.1-0.5,0.4c-0.2,0.7-0.2,0.7,0.5,0.7c1.3,0,2.5,0,3.8,0C-404.6,1066.1-404.5,1066.1-404.3,1066.1z"/>
	<path id="XMLID_182_" class="st1" d="M-429.2,1066.1c-0.3-0.6-0.9-0.9-1.5-0.9c-1.4,0-2.7,0.2-3.7,1.2c-0.3,0.2-0.5,0.6-0.6,0.9
		c-0.3,0.7,0,1.4,0.6,1.7c0.7,0.4,1.5,0.4,2.2,0.3c0.6,0,1.3-0.2,1.9-0.3c-0.1,0.4-0.3,0.8-0.4,1.2c-0.2,0.5-0.4,1-0.5,1.5
		c0,0.1-0.1,0.2-0.2,0.2c-1.9,0.3-3.8,0.6-5.7,0.1c-0.7-0.2-1.4-0.4-1.9-0.9c-1-0.8-1.3-1.8-1.1-3.1c0.3-1.8,1.5-3,2.9-3.9
		c1.6-1,3.2-1.5,5.1-1.6c1.4-0.1,2.7,0,4,0.2c0.3,0,0.3,0.1,0.2,0.4C-428.4,1064.1-428.8,1065.1-429.2,1066.1z"/>
	<path id="XMLID_181_" class="st1" d="M-399.5,1072c-1.4,0-2.8,0-4.1,0c-0.2,0-0.3,0-0.2-0.3c1.1-3,2.2-5.9,3.2-8.8
		c0-0.2,0.2-0.2,0.4-0.2c1.3,0,2.6,0,3.8,0c0.2,0,0.3,0,0.2,0.3c-0.7,1.9-1.4,3.8-2.1,5.6c-0.1,0.2-0.1,0.3,0.2,0.3
		c1.3,0,2.5,0,3.7,0c0.3,0,0.3,0.1,0.2,0.3c-0.3,0.8-0.6,1.6-0.9,2.5c-0.1,0.2-0.2,0.3-0.4,0.3C-396.8,1072-398.1,1072-399.5,1072z"
		/>
	<path id="XMLID_180_" class="st1" d="M-388,1062.7c0.7,0,1.3,0,2,0c0.2,0,0.3,0,0.2,0.2c-1.1,3-2.2,5.9-3.2,8.9
		c0,0.2-0.2,0.2-0.3,0.2c-1.3,0-2.6,0-4,0c-0.3,0-0.3-0.1-0.2-0.3c0.9-2.3,1.7-4.7,2.6-7c0.2-0.6,0.4-1.2,0.6-1.8
		c0.1-0.2,0.2-0.3,0.4-0.3C-389.3,1062.7-388.6,1062.7-388,1062.7z"/>
	<path id="XMLID_179_" class="st1" d="M-440.1,1062.7c-0.5,1.5-1.1,3-1.6,4.4c-0.6,1.6-1.2,3.1-1.7,4.7c-0.1,0.2-0.2,0.3-0.4,0.3
		c-1.3,0-2.6,0-3.9,0c-0.3,0-0.3,0-0.2-0.3c1.1-2.9,2.2-5.9,3.2-8.8c0-0.1,0.1-0.2,0.3-0.2C-443,1062.7-441.6,1062.7-440.1,1062.7z"
		/>
	<path id="XMLID_178_" class="st2" d="M-376.7,1068.7c0,0,0,0.1,0,0.2c0-0.2-0.1-0.5,0-0.8C-376.7,1068.4-376.9,1068.6-376.7,1068.7
		z"/>
	<path id="XMLID_177_" class="st3" d="M-460.1,1065.7c0-0.1,0-0.1,0-0.2c0,0.2,0.1,0.4,0,0.6
		C-460.1,1065.9-460.1,1065.8-460.1,1065.7z"/>
	<path id="XMLID_176_" class="st4" d="M-456.9,1067.5c0,0,0,0.1-0.1,0.1c0-0.2,0-0.3,0-0.5C-456.9,1067.2-456.9,1067.4-456.9,1067.5
		z"/>
	<path id="XMLID_175_" class="st5" d="M-380.4,1065.7c0,0,0-0.1,0.1-0.1s0,0.1,0,0.1c0,0.1,0,0.1,0,0.2
		C-380.3,1065.8-380.3,1065.7-380.4,1065.7z"/>
	<path id="XMLID_174_" class="st6" d="M-483.4,1053.3c0.8-0.2,1.6-0.4,2.4,0c0.1,0,0.2,0,0.2,0s0.1,0,0.1-0.1c0,0,0-0.1,0-0.1
		c-0.4-0.2-0.2-0.4,0-0.7c-0.6-0.3-1-0.7-1.1-1.4c-0.1-0.5,0.2-1.4,1-1.6c0,0,0.2,0,0.1-0.1c0-0.1-0.1,0-0.2,0c-0.1,0-0.3,0.1-0.4,0
		c-0.1-0.1,0-0.3,0-0.5c0.2-1.1,0.9-1.6,2-1.8c0-0.2-0.2-0.1-0.3-0.2c0.2-0.2,0.9-0.3,1.2-0.1c0,0,0.1,0.1,0.1,0.1
		c-0.1,0.3,0.2,0.3,0.3,0.3c0.9,0.3,1.4,0.9,1.5,1.7c0,0.4,0,0.4,0.3,0.8c0.4,0.5,0.5,1.4,0.2,2c-0.1,0.2-0.2,0.3-0.4,0.4
		c-0.2,0.1-0.2,0.1-0.1,0.3c0.1,0.3-0.2,0.4-0.4,0.7c0.3,0,0.5,0,0.7-0.2c0.1-0.1,0.2-0.1,0.3-0.1c0.7,0,1.3,0.1,1.9,0.4
		c0.1,0,0.3,0.1,0.4,0.2c0.5,0.3,0.6,0.8,0.1,1.3c-0.4,0.5-1.1,0.7-1.7,0.9c-2.2,0.6-4.5,0.7-6.7,0c-0.4-0.1-0.7-0.3-0.8-0.8
		C-482.6,1054.2-482.9,1053.8-483.4,1053.3z"/>
	<path id="XMLID_173_" class="st6" d="M-472.2,1058.4c0.3,0.7,0.3,1.3,0.1,2c-0.4,1.2-1.3,1.9-2.5,2.4c-1.5,0.6-3,0.7-4.6,0.6
		c-1.6-0.1-3.2-0.6-4.7-1.6c-0.6-0.4-1.1-0.9-1.4-1.6c0-0.2,0-0.3,0.2-0.3c0.6-0.1,1.1-0.3,1.6-0.7c0.1-0.1,0.2-0.1,0.3,0
		c1.2,0.9,2.6,1.2,4,1.3c1.8,0.1,3.6-0.2,5.3-1C-473.1,1059.2-472.6,1058.8-472.2,1058.4z"/>
	<path id="XMLID_172_" class="st6" d="M-482.1,1055.9c1.5,0.5,3,0.7,4.4,0.6c1.3-0.1,2.6-0.3,3.8-0.9c0.4-0.1,0.8-0.3,1.1-0.7
		c0.1-0.1,0.1-0.1,0.2,0c0.9,1.2,0.7,2.5-0.4,3.4c-1,0.8-2.1,1.1-3.3,1.3c-1.6,0.3-3.2,0.2-4.8-0.2c-0.5-0.1-1-0.4-1.5-0.8
		c-0.1-0.1-0.2-0.1-0.1-0.3C-482.3,1057.7-482.1,1056.8-482.1,1055.9z"/>
	<path id="XMLID_171_" class="st6" d="M-472.7,1062.5c0,0.9-0.2,1.6-0.7,2.1c-0.7,0.7-1.6,1.1-2.5,1.3c-2.2,0.5-4.4,0.3-6.4-0.5
		c-0.6-0.2-1.3-0.6-1.7-1.2c-0.6-0.7-0.9-1.5-0.7-2.5c1.7,1.5,3.7,2.1,5.9,2.2C-476.7,1064.1-474.6,1063.8-472.7,1062.5z"/>
	<path id="XMLID_170_" class="st6" d="M-492.6,1046.3c0.3-0.1,0.5,0.1,0.7,0.3c0.4,0.5,0.7,1.1,1.1,1.7c0,0.1,0,0.3,0.2,0.2
		c0.1-0.1,0.1-0.2,0-0.4c-0.2-0.5-0.5-1.1-0.9-1.6c0.1,0,0.2,0,0.3,0.1c0.5,0.5,0.9,1,0.9,1.7c0,0.4,0.1,0.7,0,1.1
		c0,0.1,0,0.2,0,0.3c0.1,0,0.1-0.1,0.2-0.2c0.1-0.1,0.1-0.3,0.3-0.4c0.2-0.1,0-0.2,0-0.3c-0.1-0.4-0.1-0.8,0.1-1.3
		c0.1-0.1,0.2-0.2,0.4-0.1s0.1,0.2,0.1,0.4c-0.1,0.5-0.1,0.9,0.1,1.4c0.3,0.5,0.4,1.1,0,1.6c-0.1,0.1-0.1,0.2,0,0.4
		c0,0.2,0,0.4,0,0.6c0,0.1,0,0.2,0,0.2c0.1,0,0.2,0,0.2,0c0.1,0,0.2-0.2,0.2-0.3s0-0.3,0-0.5c0-0.1,0-0.3,0.1-0.3
		c0.1,0,0.2,0.1,0.3,0.2c0.4,0.4,0.5,1.1,0.2,1.7c-0.4,0.9-1.6,1.5-2.5,1.2c-1.1-0.2-1.4-1.3-0.7-2.1c0.1,0.1,0.2,0.3,0.3,0.4
		c0.2,0.2,0.6,0.3,0.9,0.2c0,0,0.1,0,0.1-0.1c0,0,0-0.1-0.1-0.1c-0.4,0-0.6-0.3-0.7-0.6s-0.4-0.5-0.7-0.7c-1.1-0.7-1.4-1.8-1.3-3.1
		c0-0.1,0-0.2,0.1-0.2c0.1,0,0.1,0,0.2,0.1c0.1,0.1,0.1,0.3,0.1,0.4c0,0.3,0.1,0.7,0.2,1c0,0,0,0.2,0.2,0.1c0.1,0,0.1-0.1,0.1-0.2
		c-0.1-0.4-0.2-0.8-0.2-1.2c0-0.3-0.2-0.5-0.5-0.5c-0.4,0-0.3-0.4-0.5-0.6c0-0.1,0.1-0.1,0.2-0.1s0.2,0.1,0.2,0.2
		c0.3,0.4,0.6,0.9,0.9,1.4c0.1,0.2,0.2,0.5,0.4,0.4s-0.1-0.3-0.1-0.5c-0.1-0.3-0.3-0.7-0.5-1.1
		C-492,1046.9-492.2,1046.6-492.6,1046.3z"/>
	<path id="XMLID_169_" class="st6" d="M-484.9,1064.1c1.2,1.6,2.9,2.2,4.7,2.5c0.6,0.1,1.3,0.1,1.9,0.1c0.2,0,0.2,0.1,0.2,0.3
		c-0.1,0.6-0.4,1.1-0.9,1.5c-1.9,1.4-5.4,0.7-6.3-2.2C-485.5,1065.4-485.4,1064.7-484.9,1064.1z"/>
	<path id="XMLID_168_" class="st6" d="M-485.5,1067c1.6,2.4,3.3,3,6.4,2c0,1.1-0.9,2.1-2,2.5c-1.6,0.5-3.2,0-4.1-1.2
		C-486.2,1069.3-486.3,1068.1-485.5,1067z"/>
	<path id="XMLID_167_" class="st6" d="M-474,1081.6c0,0.2-0.2,0.3-0.4,0.4c-0.6,0.3-1.3,0.4-1.9,0.3c-0.5,0-0.9-0.2-1.1-0.7
		c-0.3-0.5-0.7-0.9-1.1-1.4c-0.7-0.8-0.7-1.6,0-2.5c0.1-0.1,0.1-0.2,0.3-0.1c0.5,0.2,1,0.2,1.6,0c0.1,0,0.2-0.1,0.2,0.1
		c0,0.2-0.1,0.2-0.2,0.2c-0.1,0-0.3,0-0.5,0.1c-0.1,0-0.3,0-0.2,0.2s0.1,0.3,0.3,0.2c0.1,0,0.2,0,0.3,0c0.3-0.1,0.5,0,0.5,0.3
		c-0.2,0-0.5,0.1-0.7,0.1c-0.1,0-0.2,0-0.1,0.2c0,0.1,0.1,0.3,0.3,0.2c0.6-0.2,1.2,0,1.6,0.3c0.2,0.2,0.5,0.3,0.8,0.5
		c0.5,0.4,0.5,0.9-0.1,1.3c-0.5,0.3-1,0.3-1.5,0.4c-0.1,0-0.3-0.1-0.4,0.1c0,0.1,0.2,0.1,0.4,0.1
		C-475.2,1082.2-474.5,1082-474,1081.6z"/>
	<path id="XMLID_166_" class="st6" d="M-481.7,1073.9c0,0.8-0.2,1.4-0.8,1.9c-0.8,0.7-1.7,0.7-2.7,0.5c-1.6-0.4-2.8-2.4-2.2-4
		c0.1-0.3,0.3-0.6,0.6-0.9C-486.6,1073.7-483.9,1075.2-481.7,1073.9z"/>
	<path id="XMLID_165_" class="st6" d="M-487.2,1078.3c0.5,0.4,1,0.5,1.6,0.5c0.2,0,0.2,0,0.1,0.2c-0.4,0.9-0.3,1.8,0,2.7
		s0.1,1.2-0.9,1.3c-0.9,0.1-1.6,0-2.4-0.5c0,0-0.1,0-0.1,0c0.5,0.8,1.3,1,2.2,1c-0.2,0.1-0.2,0.2-0.4,0.1c-0.9,0-1.6-0.3-2.2-1.1
		c-0.3-0.4-0.3-0.7,0-1.1c0.2-0.3,0.4-0.5,0.6-0.8C-488.2,1079.9-487.6,1079.2-487.2,1078.3z"/>
	<path id="XMLID_164_" class="st6" d="M-484.9,1053.3c1.4,0.4,2.1,1.4,2.2,2.9c0,0.6,0,1.2-0.2,1.7c-0.8,2-3.5,1.8-4.4,0.7
		c0.3,0,0.7-0.1,1-0.2c1.6-0.5,2.4-2.1,1.9-3.9C-484.5,1054.1-484.7,1053.7-484.9,1053.3z"/>
	<path id="XMLID_163_" class="st6" d="M-479.8,1071.5c0.7,2.1,3.9,2.5,5.5,0.8c0.2,0.4,0.1,0.8,0,1.2c-0.4,1-1.2,1.6-2.2,1.7
		c-1.6,0.3-3.2-0.7-3.5-2.3C-480.1,1072.4-480.1,1071.9-479.8,1071.5z"/>
	<path id="XMLID_162_" class="st6" d="M-490,1056.4c1.1,0.3,2.1,0.2,2.9-0.5c0.8-0.7,1.2-1.6,1-2.8c0.7,0.3,1.4,1.7,1.2,2.8
		c-0.1,1.2-1.2,2.1-2.4,2.2C-488.4,1058.1-489.7,1057.3-490,1056.4z"/>
	<path id="XMLID_161_" class="st6" d="M-473.6,1067.6c0.2,1.3-0.6,2.6-2,3c-1,0.3-2,0.2-3-0.4c-0.2-0.1-0.2-0.2-0.1-0.4
		c0.1-0.3,0.1-0.6,0.1-0.9s0.1-0.3,0.4-0.2C-476.5,1069-475,1068.7-473.6,1067.6z"/>
	<path id="XMLID_160_" class="st6" d="M-485.9,1070.4c0.7,0.9,1.6,1.5,2.6,1.7c0.6,0.1,1.2,0.1,1.8,0c0.2,0,0.2,0,0.2,0.2
		c0,0.4-0.2,0.7-0.5,1c-0.7,0.7-2,0.9-3.1,0.4c-0.9-0.4-1.5-1.4-1.4-2.3C-486.2,1071-486.1,1070.7-485.9,1070.4z"/>
	<path id="XMLID_159_" class="st6" d="M-483.2,1076.7c-0.2,1.1-1.1,1.7-2.3,1.7c-1.6-0.1-2.7-1.4-2.6-2.9c0-0.2,0.1-0.5,0.2-0.7
		c0.1-0.2,0.2-0.2,0.3,0c0.5,0.9,1.2,1.5,2.1,1.8C-484.7,1076.9-484,1076.9-483.2,1076.7z"/>
	<path id="XMLID_158_" class="st6" d="M-491.2,1054.1c1.5,1,3.7-0.1,4-1.8c0.6,0.4,0.8,1.3,0.5,2.1c-0.3,1.1-1.4,1.7-2.4,1.6
		C-490.1,1056-491,1055.2-491.2,1054.1z"/>
	<path id="XMLID_157_" class="st6" d="M-473.1,1065c0.1,2.6-2.6,3.9-4.9,3.2c0.2-0.4,0.5-0.9,0.5-1.5c0-0.2,0.2-0.1,0.3-0.1
		c0.7,0,1.4-0.2,2-0.4C-474.4,1066-473.8,1065.6-473.1,1065z"/>
	<path id="XMLID_156_" class="st6" d="M-476.8,1072.9c-0.9,0-1.7-0.3-2.3-1.1c-0.4-0.5-0.3-0.8,0-1.4c0.1-0.1,0.1,0,0.2,0
		c1.4,0.9,2.8,0.8,4.2,0.1c0.2-0.1,0.2,0,0.2,0.1c0.1,1.1-0.8,2-2,2.1C-476.5,1072.9-476.7,1072.9-476.8,1072.9z"/>
	<path id="XMLID_155_" class="st6" d="M-479.6,1074.6c1.5,1.5,3.2,1.4,4.6,0.5c0.1,0.6-0.2,1.5-0.8,1.9c-0.9,0.6-1.8,0.5-2.8,0
		C-479.4,1076.6-479.7,1075.8-479.6,1074.6z"/>
	<path id="XMLID_154_" class="st6" d="M-470.5,1064.8c-0.8,0-1.5-0.5-1.6-1.2c0-0.2,0-0.4,0.3-0.5c1-0.2,1.8-0.6,2.3-1.6
		c0.1-0.2,0.2-0.1,0.3,0c0.6,0.3,0.9,1.1,0.7,1.8C-468.9,1064.3-469.6,1064.8-470.5,1064.8z"/>
	<path id="XMLID_153_" class="st6" d="M-469.9,1060.6c0,0.7-0.3,1.1-0.7,1.5c-0.4,0.3-0.8,0.5-1.3,0.7c-0.2,0-0.2,0-0.3-0.2
		c0-0.4-0.1-0.8,0.3-1.2c0,0,0.1-0.1,0.1-0.2c0.1-0.7,0.6-1.1,1.1-1.5c0.1-0.1,0.2-0.1,0.3,0C-470.1,1060-469.9,1060.3-469.9,1060.6
		z"/>
	<path id="XMLID_152_" class="st6" d="M-468.2,1065.1c0.2,0.4,0.5,0.8,0.8,1.2c0.1,0.1,0.3,0.3,0.4,0.4c0.1,0.1,0.2,0.2,0.1,0.4
		c-0.1,0.1-0.2,0.2-0.4,0.1c-0.2,0-0.4-0.2-0.5-0.4c-0.1-0.1-0.3-0.3-0.5-0.4s-0.3-0.2-0.4-0.4c0-0.1-0.2-0.3-0.4-0.2
		c-0.2,0-0.3-0.1-0.5-0.2c-0.3-0.2-0.2-0.4,0-0.5c0.3-0.1,0.6-0.3,0.9-0.5c0.1,0,0.1-0.1,0.2,0c0.1,0.2,0.4,0.3,0.6,0.5
		c0.4,0.3,0.8,0.7,0.9,1.3c-0.2-0.2-0.4-0.4-0.6-0.6s-0.4-0.4-0.5-0.6C-468.1,1065.1-468.1,1065.1-468.2,1065.1z"/>
	<path id="XMLID_151_" class="st6" d="M-471.2,1059.4c0-0.5-0.1-1-0.5-1.5c0-0.1,0-0.1,0-0.2c0.3-0.3,0.5-0.8,0.7-1.2
		C-470.1,1057.4-470.3,1058.9-471.2,1059.4z"/>
	<path id="XMLID_149_" class="st7" d="M-472.5,1053.7c1.1,0.4,1.6,1.5,1,2.6c0-0.4-0.1-0.8-0.3-1.2c-0.1-0.2-0.1-0.4-0.3-0.5
		C-472.4,1054.4-472.6,1054.2-472.5,1053.7z"/>
	<path id="XMLID_147_" class="st8" d="M-468.9,1067.6c-0.1,0-0.1,0-0.2-0.1c-0.1-0.3,0.1-0.4,0.3-0.6c0.2-0.1,0.3-0.1,0.4,0.1
		c0,0,0.1,0.1,0,0.1C-468.5,1067.4-468.7,1067.5-468.9,1067.6z"/>
	<path id="XMLID_146_" class="st9" d="M-469.5,1066.7c0-0.2,0-0.5,0.2-0.5s0.3,0.2,0.3,0.4s-0.2,0.3-0.4,0.3
		C-469.6,1067-469.5,1066.7-469.5,1066.7z"/>
	<path id="XMLID_145_" class="st10" d="M-469.9,1066.5c-0.2-0.1-0.2-0.3-0.1-0.5c0-0.1,0.1-0.1,0.2-0.1s0.1,0.1,0.1,0.2
		S-469.8,1066.4-469.9,1066.5z"/>
	<path id="XMLID_144_" class="st11" d="M-478.5,1049.2c0,0.3,0,0.6-0.2,0.9c-0.3,0.4-0.7,0.4-1,0c-0.4-0.4-0.4-1.4,0-1.8
		c0.3-0.3,0.6-0.3,0.9,0C-478.6,1048.6-478.5,1048.8-478.5,1049.2z"/>
	<path id="XMLID_143_" class="st12" d="M-476.7,1049.2c0,0.2,0,0.5-0.2,0.8c-0.2,0.3-0.5,0.3-0.8,0c-0.4-0.4-0.5-1.4-0.1-1.8
		c0.2-0.3,0.6-0.3,0.8,0S-476.7,1048.8-476.7,1049.2z"/>
	<path id="XMLID_142_" class="st13" d="M-478.2,1051.9c-0.2,0-0.4-0.1-0.5-0.3c-0.3-0.2-0.5-0.5-0.9-0.2h-0.1c0-0.1,0-0.2,0.1-0.3
		c0,0,0.1-0.2,0.2-0.1c0.2,0.2,0.4,0.1,0.6,0c0.4-0.1,0.9-0.1,1.4,0c0.1,0,0.2,0,0.2,0c0.1-0.1,0.2,0,0.2,0.1c0,0.1,0,0.2-0.1,0.1
		c-0.2,0-0.3,0.2-0.5,0.3C-477.8,1051.8-477.9,1051.9-478.2,1051.9z"/>
	<path id="XMLID_141_" class="st14" d="M-490.5,1050c-0.3-0.1-0.5-0.3-0.9-0.3C-490.9,1049.4-490.6,1049.6-490.5,1050z"/>
	<path id="XMLID_140_" class="st15" d="M-487.4,1079.3c0-0.1,0-0.2,0.2-0.2c0.3,0,0.7,0.1,1.1,0.1c0.1,0,0.2,0.1,0.1,0.2
		c0,0.1,0,0.2-0.2,0.2c-0.3-0.1-0.7-0.1-1-0.1C-487.4,1079.5-487.4,1079.4-487.4,1079.3z"/>
	<path id="XMLID_139_" class="st16" d="M-487.2,1080c0.3,0,0.6,0.1,0.9,0.1c0.1,0,0.2,0,0.1,0.2c0,0.1,0,0.2-0.2,0.2
		c-0.3-0.1-0.6-0.1-0.9-0.1c-0.1,0-0.2,0-0.2-0.2S-487.5,1079.9-487.2,1080C-487.3,1080-487.3,1080-487.2,1080L-487.2,1080z"/>
	<path id="XMLID_138_" class="st9" d="M-478.8,1049.4C-478.8,1049.3-478.8,1049.3-478.8,1049.4c0-0.3-0.1-0.6-0.4-0.6
		c-0.2,0-0.3,0.2-0.4,0.5c0,0.1,0,0.2-0.1,0.2c0-0.4,0-0.7,0.1-1c0.2-0.3,0.5-0.3,0.7,0c0.1,0.2,0.2,0.5,0.2,0.8
		C-478.7,1049.4-478.8,1049.4-478.8,1049.4z"/>
	<path id="XMLID_137_" class="st17" d="M-478.8,1049.4C-478.8,1049.4-478.7,1049.3-478.8,1049.4c0.1,0,0.1,0.1,0,0.2
		C-478.9,1049.5-478.9,1049.5-478.8,1049.4z"/>
	<path id="XMLID_136_" class="st8" d="M-477.9,1048.8c0-0.1,0-0.1,0-0.2c0-0.1,0.2-0.3,0.4-0.3s0.3,0.1,0.4,0.3
		c0.2,0.3,0.2,0.6,0.1,1c0,0-0.1,0,0,0c0-0.1,0-0.2,0-0.3c0-0.2-0.1-0.3-0.3-0.4s-0.3,0.1-0.4,0.2
		C-478,1048.9-477.9,1048.8-477.9,1048.8z"/>
	<path id="XMLID_135_" class="st18" d="M-477.9,1048.8c0,0,0,0.1,0,0.2c0,0.1,0,0.1-0.1,0.2C-477.9,1049.1-478,1048.9-477.9,1048.8z
		"/>
	<path id="XMLID_134_" class="st19" d="M-477,1049.5L-477,1049.5c0,0.1,0,0.2,0,0.2C-477.1,1049.6-477.1,1049.5-477,1049.5z"/>
	<path id="XMLID_133_" class="st20" d="M-478.9,1051.2c0.5-0.1,0.9-0.1,1.3,0C-478.1,1051.8-478.1,1051.8-478.9,1051.2z"/>
</g>
<rect x="-551.8" y="1020.7" class="st21" width="255.1" height="85"/>
</svg>
