<?xml version="1.0" encoding="utf-8"?>
<!-- Generator: Adobe Illustrator 19.0.0, SVG Export Plug-In . SVG Version: 6.00 Build 0)  -->
<svg version="1.1" id="Ebene_1" xmlns="http://www.w3.org/2000/svg" xmlns:xlink="http://www.w3.org/1999/xlink" x="0px" y="0px"
	 viewBox="-566 1013.6 283.5 99.2" style="enable-background:new -566 1013.6 283.5 99.2;" xml:space="preserve">
<style type="text/css">
	.st0{fill:#1D1D1B;}
	.st1{fill:none;stroke:#62F1AC;stroke-miterlimit:10;}
</style>
<g id="XMLID_2_">
	<path id="XMLID_90_" class="st0" d="M-454.4,1060.1c0,0.1,0,0.1,0,0.2c0,2.3,0,4.6,0,6.9c0,0.2,0,0.3,0.3,0.3c0.3,0,0.6,0,1,0
		c0.1,0,0.2,0,0.2,0.2c0,0.4,0,0.8,0,1.2c0,0.2,0,0.2-0.2,0.2c-1.4,0-2.9,0-4.4,0c-0.1,0-0.2,0-0.2-0.2c0-0.4,0-0.8,0-1.2
		c0-0.1,0-0.2,0.2-0.2c0.4,0,0.8,0,1.2,0c0.2,0,0.2,0,0.2-0.2c0-2.4,0-4.8,0-7.2c0-0.2-0.1-0.2-0.2-0.2c-0.4,0-0.9,0-1.4,0
		c-0.2,0-0.2,0-0.2-0.2c0-0.4,0-0.8,0-1.2c0-0.1,0-0.2,0.2-0.2c1.9,0,3.8,0,5.7,0c0.2,0,0.2,0.1,0.3,0.2c0.9,2.1,1.8,4.1,2.8,6.2
		c0,0.1,0.1,0.2,0.1,0.3c0.1,0,0.1-0.2,0.2-0.3c0.9-2.1,1.8-4.1,2.7-6.2c0.1-0.2,0.2-0.3,0.4-0.2c1.8,0,3.6,0,5.4,0
		c0.2,0,0.3,0,0.3,0.3c0,0.4,0,0.7,0,1.1c0,0.2,0,0.2-0.2,0.2c-0.5,0-1,0-1.4,0c-0.2,0-0.2,0-0.2,0.2c0,2.4,0,4.8,0,7.1
		c0,0.2,0,0.2,0.2,0.2c0.5,0,1,0,1.4,0c0.1,0,0.2,0,0.2,0.2c0,0.4,0,0.8,0,1.2c0,0.2,0,0.2-0.2,0.2c-2,0-4,0-6,0
		c-0.2,0-0.2,0-0.2-0.2c0-0.4,0-0.8,0-1.2c0-0.2,0-0.2,0.2-0.2c0.5,0,1,0,1.4,0c0.2,0,0.3,0,0.3-0.3c0-2.4,0-4.8,0-7.1
		c0-0.1,0-0.2,0-0.2c-0.2,0-0.2,0.1-0.2,0.2c-1.3,2.9-2.6,5.9-3.9,8.8c-0.1,0.2-0.2,0.3-0.4,0.3c-0.3,0-0.7,0-1,0
		c-0.2,0-0.3,0-0.4-0.3c-1.3-2.8-2.5-5.7-3.7-8.5C-454.2,1060.2-454.3,1060.1-454.4,1060.1C-454.3,1060.1-454.4,1060.1-454.4,1060.1
		z"/>
	<path id="XMLID_89_" class="st0" d="M-404.1,1065c0.6,0.9,1.2,1.7,1.8,2.5c0.1,0.1,0.2,0.1,0.3,0.1c0.3,0,0.7,0,1,0
		c0.1,0,0.2,0,0.2,0.2c0,0.4,0,0.8,0,1.2c0,0.1,0,0.1-0.2,0.1c-1.2,0-2.4,0-3.6,0c-0.1,0-0.1,0-0.2-0.1c-1.3-1.6-2.5-3.3-3.8-5
		c0,0,0,0,0-0.1c0.6,0,1.2,0,1.7,0s1,0,1.5-0.3c1-0.4,1.4-1.3,1.2-2.3c-0.2-0.9-0.9-1.2-1.7-1.4c-0.9-0.2-1.8-0.1-2.7-0.1
		c-0.7,0-0.7,0-0.7,0.7c0,1.2,0,2.3,0,3.5c0,1.1,0,2.2,0,3.2c0,0.2,0,0.3,0.2,0.3c0.5,0,1.1,0,1.6,0c0.2,0,0.3,0,0.3,0.2
		c0,0.4,0,0.7,0,1.1c0,0.1,0,0.2-0.2,0.2c-2.1,0-4.2,0-6.4,0c-0.1,0-0.2,0-0.2-0.2c0-0.4,0-0.8,0-1.2c0-0.2,0-0.2,0.2-0.2
		c0.4,0,0.9,0,1.3,0c0.2,0,0.2,0,0.2-0.2c0-2.4,0-4.8,0-7.2c0-0.2,0-0.2-0.2-0.2c-0.4,0-0.8,0-1.3,0c-0.2,0-0.3,0-0.3-0.2
		c0-0.3,0-0.7,0-1.1c0-0.2,0-0.2,0.2-0.2c0.8,0,1.5,0,2.3,0c2,0,4,0,6,0c1,0,1.9,0.1,2.7,0.5c1.4,0.6,2,1.6,1.9,3
		c0,1.4-0.8,2.4-2.1,2.9C-403.3,1064.8-403.7,1064.9-404.1,1065z"/>
	<path id="XMLID_86_" class="st0" d="M-434.1,1058.2c1.2,0,2.7,0,4.1,0c0.6,0,1.2,0.2,1.7,0.4c1.5,0.6,2.1,1.9,1.9,3.6
		c-0.1,1.7-1.1,2.6-2.8,2.9c-0.7,0.1-1.4,0.2-2.2,0.2c-0.8,0-1.6,0-2.4,0c-0.2,0-0.2,0-0.2,0.2c0,0.6,0,1.1,0,1.7
		c0,0.2,0,0.2,0.2,0.2c0.6,0,1.2,0,1.7,0c0.2,0,0.2,0,0.2,0.2c0,0.4,0,0.8,0,1.2c0,0.1,0,0.2-0.2,0.2c-2.2,0-4.3,0-6.5,0
		c-0.1,0-0.2,0-0.2-0.2c0-0.4,0-0.8,0-1.3c0-0.2,0.1-0.2,0.2-0.2c0.4,0,0.9,0,1.3,0c0.2,0,0.2,0,0.2-0.2c0-2.4,0-4.8,0-7.2
		c0-0.2,0-0.2-0.2-0.2c-0.4,0-0.9,0-1.3,0c-0.2,0-0.2,0-0.2-0.2c0-0.4,0-0.8,0-1.2c0-0.2,0.1-0.2,0.2-0.2
		C-437,1058.2-435.7,1058.2-434.1,1058.2z M-433.9,1061.8c0,0.6,0,1.1,0,1.7c0,0.1,0,0.2,0.1,0.2c1,0,1.9,0.1,2.9-0.1
		c0.5-0.1,0.9-0.3,1.2-0.8c0.7-1.3,0-2.7-1.4-2.8c-0.9-0.1-1.7,0-2.6,0c-0.2,0-0.2,0.1-0.2,0.2
		C-433.9,1060.7-433.9,1061.2-433.9,1061.8z"/>
	<path id="XMLID_85_" class="st0" d="M-464.3,1069.1c-1.7,0-3.5,0-5.2,0c-0.3,0-0.4-0.1-0.4-0.4c0-0.3,0-0.6,0-0.9
		c0-0.2,0-0.3,0.3-0.3c0.4,0,0.9,0,1.3,0c0.2,0,0.2,0,0.2-0.2c0-2.4,0-4.8,0-7.2c0-0.2,0-0.2-0.2-0.2c-0.4,0-0.8,0-1.2,0
		c-0.3,0-0.4,0-0.4-0.3c0-0.3,0-0.6,0-0.9c0-0.2,0-0.3,0.3-0.3c3.1,0,6.2,0,9.2,0c0.5,0,0.9,0,1.4,0c0.1,0,0.2,0,0.2,0.2
		c0,0.9,0,1.8,0,2.8c0,0.2,0,0.2-0.2,0.2c-0.3,0-0.6,0-1,0c-0.1,0-0.2,0-0.2-0.2c0-0.4,0-0.8,0-1.2c0-0.2,0-0.2-0.2-0.2
		c-1.5,0-3.1,0-4.7,0c-0.2,0-0.2,0-0.2,0.2c0,0.9,0,1.8,0,2.8c0,0.2,0.1,0.2,0.2,0.2c1.1,0,2.2,0,3.3,0c0.2,0,0.3,0,0.3,0.3
		c0,0.3,0,0.6,0,0.9c0,0.2,0,0.3-0.3,0.3c-1.1,0-2.2,0-3.3,0c-0.2,0-0.3,0-0.3,0.3c0,0.8,0,1.6,0,2.5c0,0.2,0,0.2,0.2,0.2
		c1.5,0,3,0,4.5,0c0.2,0,0.2,0,0.2-0.2c0-0.5,0-1,0-1.4c0-0.2,0-0.3,0.3-0.3c0.3,0,0.7,0,1,0c0.1,0,0.2,0,0.2,0.2c0,1.1,0,2.1,0,3.1
		c0,0.2-0.1,0.2-0.2,0.2C-460.8,1069.1-462.6,1069.1-464.3,1069.1z"/>
	<path id="XMLID_84_" class="st0" d="M-420.5,1058.2c1.7,0,3.5,0,5.3,0c0.2,0,0.3,0,0.3,0.3c0,0.9,0,1.8,0,2.7c0,0.2,0,0.2-0.2,0.2
		c-0.3,0-0.6,0-1,0c-0.1,0-0.2,0-0.2-0.2c0-0.4,0-0.8,0-1.2c0-0.2,0-0.2-0.2-0.2c-1.5,0-3.1,0-4.6,0c-0.2,0-0.3,0.1-0.2,0.3
		c0,0.9,0,1.8,0,2.7c0,0.2,0,0.3,0.3,0.3c1.1,0,2.3,0,3.4,0c0.2,0,0.3,0,0.3,0.2c0,0.3,0,0.7,0,1c0,0.2,0,0.2-0.2,0.2
		c-1.1,0-2.2,0-3.3,0c-0.2,0-0.3,0-0.3,0.3c0,0.8,0,1.6,0,2.4c0,0.2,0,0.3,0.3,0.3c1.5,0,3,0,4.5,0c0.2,0,0.2,0,0.2-0.2
		c0-0.5,0-1,0-1.5c0-0.2,0-0.2,0.2-0.2c0.3,0,0.7,0,1,0c0.1,0,0.2,0,0.2,0.2c0,1.1,0,2.1,0,3.1c0,0.2-0.1,0.2-0.2,0.2
		c-1.6,0-3.2,0-4.9,0c-1.9,0-3.8,0-5.7,0c-0.2,0-0.3,0-0.3-0.3c0-0.3,0-0.7,0-1.1c0-0.2,0-0.2,0.2-0.2c0.4,0,0.9,0,1.3,0
		c0.1,0,0.2,0,0.2-0.2c0-2.4,0-4.8,0-7.2c0-0.2,0-0.2-0.2-0.2c-0.4,0-0.9,0-1.3,0c-0.1,0-0.2,0-0.2-0.2c0-0.4,0-0.8,0-1.2
		c0-0.2,0.1-0.2,0.2-0.2C-424.1,1058.2-422.3,1058.2-420.5,1058.2z"/>
	<path id="XMLID_83_" class="st0" d="M-479.8,1068.2c0,0.3,0,0.5,0,0.7c0,0.1,0,0.2-0.2,0.2c-0.4,0-0.9,0-1.3,0
		c-0.1,0-0.2,0-0.2-0.2c0-0.9,0-1.8,0-2.8c0-0.1,0-0.2,0.2-0.2c0.4,0,0.8,0,1.2,0c0.1,0,0.2,0,0.2,0.1c0.2,0.8,0.8,1.2,1.5,1.4
		c1,0.2,1.9,0.3,2.9,0.1c0.2,0,0.3-0.1,0.5-0.2c0.5-0.3,0.9-0.6,0.9-1.3c0-0.6-0.4-1-1-1.2c-0.6-0.2-1.3-0.3-2-0.5
		c-0.8-0.2-1.7-0.3-2.5-0.7c-1.3-0.5-1.9-1.4-1.8-2.8c0-0.5,0.2-1,0.5-1.4c0.8-1.1,1.9-1.5,3.1-1.6c1.4-0.1,2.8,0.1,4.1,0.6
		c0.3,0.1,0.6,0.3,0.9,0.5c0-0.1,0-0.2,0-0.3c0-0.5,0-0.5,0.5-0.5c0.2,0,0.6-0.1,0.8,0c0.1,0.1,0,0.5,0,0.8c0,0.8,0,1.6,0,2.4
		c0,0.2,0,0.3-0.2,0.2h0c-0.7,0.1-1.1-0.1-1.5-0.7c-0.9-1.4-3.2-1.8-4.6-1c-0.8,0.4-0.9,1.3-0.1,1.8c0.5,0.3,1,0.5,1.6,0.6
		c1,0.2,2,0.5,3,0.9c0.2,0.1,0.4,0.1,0.6,0.2c1,0.5,1.6,1.4,1.6,2.5c0,1.2-0.6,2.1-1.6,2.7c-0.9,0.5-1.8,0.6-2.7,0.6
		c-1.4,0-2.6-0.2-3.8-0.8C-479.5,1068.4-479.6,1068.3-479.8,1068.2z"/>
	<path id="XMLID_78_" class="st0" d="M-361,1063.9c0,3.8-3.1,6.9-6.9,6.9c-3.8,0-6.9-3.1-6.8-6.9c0-3.8,3.1-6.9,6.9-6.9
		C-364.1,1057-361,1060.1-361,1063.9z M-366,1069.2c0,0,0.1,0,0.1,0c3.9-1.6,4.9-6.6,1.8-9.5c-1-1-2.1-1.5-3.6-1.5
		c-0.8,0-1.5,0.3-1.8,1.2c-0.4,1-0.2,1.9,0.5,2.8c0.4,0.5,0.9,0.9,1.5,1.2c0.4,0.2,0.8,0.4,1.2,0.8
		C-364.6,1065.4-364.6,1067.9-366,1069.2c-0.1,0-0.1,0-0.1,0.1C-366,1069.3-366,1069.3-366,1069.2z M-369.9,1058.5
		c-0.1,0-0.2,0-0.3,0.1c-4,1.7-4.8,7-1.4,9.8c1,0.8,2,1.3,3.2,1.2c1,0,1.7-0.6,1.9-1.5c0.2-0.9,0-1.7-0.6-2.4
		c-0.5-0.5-1.1-0.9-1.7-1.3C-371.1,1063.3-371.7,1060.5-369.9,1058.5C-369.9,1058.5-369.9,1058.5-369.9,1058.5z M-369.8,1058.4
		C-369.8,1058.4-369.8,1058.4-369.8,1058.4C-369.8,1058.4-369.8,1058.4-369.8,1058.4C-369.8,1058.4-369.8,1058.4-369.8,1058.4
		C-369.8,1058.4-369.8,1058.4-369.8,1058.4z"/>
	<path id="XMLID_77_" class="st0" d="M-386.7,1058.2c1.8,0,3.6,0,5.4,0c0.2,0,0.3,0,0.3,0.3c0,1,0,2.1,0,3.1c0,0.2-0.1,0.3-0.3,0.3
		c-0.4,0-0.8,0-1.2,0c-0.2,0-0.2,0-0.2-0.2c0-0.5,0-1.1,0-1.6c0-0.2,0-0.2-0.2-0.2c-0.7,0-1.4,0-2,0c-0.2,0-0.2,0-0.2,0.2
		c0,2.4,0,4.8,0,7.2c0,0.2,0,0.2,0.2,0.2c0.5,0,0.9,0,1.4,0c0.2,0,0.3,0,0.3,0.2c0,0.4,0,0.7,0,1.1c0,0.1,0,0.2-0.2,0.2
		c-2.1,0-4.1,0-6.2,0c-0.1,0-0.2,0-0.2-0.2c0-0.4,0-0.8,0-1.2c0-0.2,0-0.2,0.2-0.2c0.5,0,1,0,1.4,0c0.2,0,0.2,0,0.2-0.2
		c0-2.4,0-4.8,0-7.2c0-0.2,0-0.2-0.2-0.2c-0.7,0-1.4,0-2,0c-0.2,0-0.2,0-0.2,0.2c0,0.5,0,1.1,0,1.6c0,0.2,0,0.3-0.3,0.2
		c-0.4,0-0.8,0-1.3,0c-0.1,0-0.2,0-0.2-0.2c0-1.1,0-2.2,0-3.3c0-0.2,0.1-0.2,0.3-0.2C-390.3,1058.2-388.5,1058.2-386.7,1058.2z"/>
	<path id="XMLID_76_" class="st0" d="M-398,1063.7c0-1.2,0-2.4,0-3.6c0-0.2,0-0.3-0.3-0.3c-0.4,0-0.8,0-1.3,0c-0.1,0-0.2,0-0.2-0.2
		c0-0.4,0-0.8,0-1.2c0-0.1,0-0.2,0.2-0.2c2,0,4,0,5.9,0c0.2,0,0.2,0,0.2,0.2c0,0.4,0,0.7,0,1.1c0,0.2,0,0.3-0.2,0.2
		c-0.4,0-0.8,0-1.3,0c-0.1,0-0.2,0-0.2,0.2c0,2.4,0,4.8,0,7.2c0,0.2,0.1,0.2,0.2,0.2c0.4,0,0.8,0,1.3,0c0.2,0,0.3,0,0.2,0.2
		c0,0.4,0,0.8,0,1.2c0,0.1,0,0.2-0.2,0.2c-2,0-4,0-5.9,0c-0.1,0-0.2,0-0.2-0.2c0-0.4,0-0.8,0-1.2c0-0.1,0-0.2,0.2-0.2
		c0.4,0,0.8,0,1.2,0c0.2,0,0.3,0,0.3-0.3C-398,1066-398,1064.8-398,1063.7z"/>
	<path id="XMLID_72_" class="st0" d="M-366,1069.2C-366,1069.3-366,1069.3-366,1069.2C-366,1069.2-366,1069.2-366,1069.2
		C-366,1069.2-366,1069.2-366,1069.2z"/>
	<path id="XMLID_71_" class="st0" d="M-369.8,1058.4C-369.8,1058.4-369.8,1058.4-369.8,1058.4
		C-369.8,1058.4-369.8,1058.4-369.8,1058.4C-369.8,1058.4-369.8,1058.4-369.8,1058.4C-369.8,1058.4-369.8,1058.4-369.8,1058.4z"/>
</g>
<rect x="-551.8" y="1020.7" class="st1" width="255.1" height="85"/>
</svg>
