<?xml version="1.0" encoding="utf-8"?>
<!-- Generator: Adobe Illustrator 19.0.0, SVG Export Plug-In . SVG Version: 6.00 Build 0)  -->
<svg version="1.1" id="Ebene_1" xmlns="http://www.w3.org/2000/svg" xmlns:xlink="http://www.w3.org/1999/xlink" x="0px" y="0px"
	 viewBox="-566 1013.6 283.5 99.2" style="enable-background:new -566 1013.6 283.5 99.2;" xml:space="preserve">
<style type="text/css">
	.st0{fill:#1D1D1B;}
	.st1{fill:#FFFFFF;}
	.st2{fill:none;stroke:#62F1AC;stroke-miterlimit:10;}
</style>
<g id="XMLID_2_">
	<path id="XMLID_55_" class="st0" d="M-492.6,1073.9c2.1-5.1,4.3-10.2,6.3-15.3c0.5-1.2,1-1.6,2.3-1.6c4.9,0.1,9.9,0.1,14.9,0.1
		c-0.1,0.9-0.6,1.6-0.9,2.4c-1.9,4.5-3.9,8.9-5.8,13.4c-0.5,1.1-1,1.5-2.2,1.5c-4.9-0.1-9.8-0.1-14.6-0.1
		C-492.6,1074.1-492.6,1074-492.6,1073.9z"/>
	<path id="XMLID_54_" class="st0" d="M-358,1057.4c-2.3,5.1-4.6,10.1-6.7,15.1c-0.6,1.4-1.3,1.8-2.7,1.7c-4.7-0.1-9.3-0.1-13.9-0.1
		c-0.4-0.6,0.1-0.9,0.2-1.3c2-4.9,4-9.7,5.9-14.6c0.4-1,0.9-1.3,1.9-1.3c5.1,0.1,10.2,0.1,15.3,0.1
		C-358,1057.2-358,1057.3-358,1057.4z"/>
	<path id="XMLID_53_" class="st0" d="M-448.6,1067.1c0.9-2.1,1.9-4.2,2.5-6.4c0.5-1.8,1.5-2.3,3.1-2c0.3,0.1,0.7,0,1.2,0
		c-1.8,4.3-3.5,8.4-5.1,12.6c-0.6,1.7-1.4,2.3-3.2,2.2c-3.3-0.2-3.3-0.1-2.7-3.4c0.4-2.3,0.7-4.6,0.6-7c-1.1,2.6-2.1,5.2-3.2,7.8
		c-1.1,2.7-1.1,2.7-4.4,2.5c0.6-1.6,1.2-3.1,1.8-4.7c1.2-3,2.5-6,3.6-9c0.3-0.8,0.7-1.2,1.6-1.1c1.3,0.1,2.6,0.1,3.8,0
		c0.9-0.1,1,0.3,0.8,1.1c-0.4,2.2-0.6,4.5-0.9,6.6C-449,1066.7-449.4,1067.2-448.6,1067.1z"/>
	<path id="XMLID_52_" class="st0" d="M-427.9,1065.5c1.7,0.5,1.7,1.4,1.4,2.6c-0.5,1.7-1.5,3.1-1.7,4.9c-0.1,0.5-0.4,0.5-0.7,0.5
		c-3.9-0.1-4.5,0.7-2.7-3.5c0.3-0.7,0.6-1.4,0.8-2c0.2-0.6-0.1-1-0.7-1.1c-0.5-0.2-1-0.1-1.2,0.6c-0.6,1.5-1.3,3-1.8,4.5
		c-0.4,1.2-1,1.9-2.4,1.7c-0.8-0.2-1.7,0-2.7,0c1.7-4.1,3.3-8,5-12c1.2-2.8,1.2-2.8,4.2-2.8c1.4,0,2.7-0.1,4,0
		c2.4,0.1,3.1,1.3,2.3,3.6C-424.8,1064-426.1,1064.9-427.9,1065.5z"/>
	<path id="XMLID_51_" class="st0" d="M-461.9,1058.7c-1.5,3.6-2.9,7-4.3,10.5c-0.3,0.7-1.1,1.6-0.2,2c1.1,0.6,1.6-0.5,2-1.5
		c1.3-3.1,2.6-6.1,3.8-9.3c0.5-1.4,1.3-2.1,2.8-1.8c0.7,0.1,1.3,0,2.1,0c-0.1,1-0.6,1.7-0.9,2.5c-1.2,2.9-2.2,5.8-3.4,8.7
		c-1.4,3.3-6.7,5.2-9.9,3.5c-1-0.6-1.6-1.4-1.3-2.6c1.2-3.9,3-7.7,4.5-11.5c0.2-0.5,0.5-0.5,0.9-0.5
		C-464.5,1058.7-463.3,1058.7-461.9,1058.7z"/>
	<path id="XMLID_50_" class="st0" d="M-416.1,1058.4c0.6,0.1,1,0.1,1.5,0.1c3,0.5,3.6,1.4,2.5,4.3c-0.9,2.4-1.8,4.8-2.8,7.1
		c-1.7,4-7.3,4.6-10,3.4c-1.2-0.5-1.4-1.6-1.1-2.7c1-3.2,2.1-6.4,3.7-9.3C-420.9,1059-418.5,1058.5-416.1,1058.4z"/>
	<path id="XMLID_49_" class="st0" d="M-399,1073.5c0.3-1.3,0.6-2.4,0.9-3.5c-1.2-0.3-2.3-0.4-2.8,1c-0.9,2.4-2.6,3-4.9,2.3
		c-0.2-0.5,0.3-0.9,0.6-1.3c2.5-4.1,5.1-8.1,7.5-12.3c0.5-0.8,1-1.2,2-1.1c1.5,0.1,3,0,4.7,0c-1.2,4.8-2.3,9.4-3.4,14.1
		c-0.1,0.5-0.4,0.8-0.9,0.7C-396.6,1073.4-397.7,1073.5-399,1073.5z"/>
	<path id="XMLID_48_" class="st0" d="M-398.9,1058.7c-1.8,2.3-3.4,4.4-5.1,6.4c-1.7,1.9-3,4-3.7,6.5c-0.5,1.5-1.2,2.2-2.8,2
		c-0.7-0.1-1.4,0-2.1,0c0-0.2-0.1-0.4-0.1-0.4c2.3-3.9,2.2-8.2,2.1-12.5c0-1.4,0.2-2,1.8-1.9c2.7,0.2,2.7,0.1,2.2,2.7
		c-0.2,0.8-0.2,1.5-0.4,2.5c1.2-1,1.8-2.1,2.4-3.2c0.9-1.5,2-2.3,3.7-2C-400.3,1058.8-399.8,1058.7-398.9,1058.7z"/>
	<path id="XMLID_47_" class="st0" d="M-383,1058.7c-1.7,4.2-3.4,8.3-5.1,12.4c1.6,0,2.9,0,4.5,0c-0.3,1.6-0.8,2.6-2.6,2.4
		c-2.3-0.2-4.6-0.1-7-0.1c0.1-1,0.6-1.8,0.9-2.6c1.4-3.5,2.9-7.1,4.3-10.7c0.5-1.2,1.1-1.6,2.3-1.5
		C-384.9,1058.8-384.1,1058.7-383,1058.7z"/>
	<path id="XMLID_46_" class="st0" d="M-446,1073.6c1.3-3.1,2.4-6.1,3.6-9.1c0.3-0.7,0.6-1.4,0.9-2.2c1.5-3.7,1.5-3.7,5.6-3.4
		c0.4,0.6-0.1,1-0.3,1.4c-1.6,3.9-3.2,7.8-4.8,11.8c-0.5,1.2-1,1.9-2.4,1.6C-444.1,1073.4-444.9,1073.6-446,1073.6z"/>
	<path id="XMLID_45_" class="st0" d="M-448.6,1067.1c-0.1,0.4-0.3,0.7-0.5,1.4c-0.3-1-0.2-1.6,0.1-2.1
		C-448.8,1066.7-448.7,1066.9-448.6,1067.1z"/>
	<path id="XMLID_44_" class="st1" d="M-431.6,1064.4c0.4-1,0.8-1.9,1.2-2.9c0.3-0.9,0.9-0.5,1.4-0.4c0.7,0.1,0.5,0.7,0.4,1.1
		C-428.9,1063.8-429.8,1064.4-431.6,1064.4z"/>
	<path id="XMLID_43_" class="st1" d="M-415.8,1061.4c-0.1,0.4-0.2,0.6-0.3,0.8c-1.1,2.8-2.3,5.6-3.4,8.3c-0.4,0.8-1.1,1.2-1.8,0.8
		c-0.8-0.4-0.3-1.1-0.1-1.6c1-2.4,1.9-4.9,2.9-7.3c0.3-0.7,0.7-1.3,1.4-1.5C-416.5,1060.8-416.1,1060.9-415.8,1061.4z"/>
	<path id="XMLID_42_" class="st1" d="M-396.6,1064.5c-0.2,0.8-0.4,1.5-0.5,2.3c-0.2,0.8-0.7,0.9-1.6,0.6c0.6-1.1,1.2-2.2,1.8-3.3
		C-396.7,1064.1-396.5,1064.1-396.6,1064.5z"/>
	<path id="XMLID_41_" class="st0" d="M-396.6,1064.5c-0.1-0.2-0.3-0.3-0.4-0.4c0.1-0.4,0.2-0.7,0.6-1
		C-396.2,1063.7-396.3,1064.1-396.6,1064.5z"/>
</g>
<rect x="-551.8" y="1020.7" class="st2" width="255.1" height="85"/>
</svg>
