<?xml version="1.0" encoding="utf-8"?>
<!-- Generator: Adobe Illustrator 19.0.0, SVG Export Plug-In . SVG Version: 6.00 Build 0)  -->
<svg version="1.1" id="Ebene_1" xmlns="http://www.w3.org/2000/svg" xmlns:xlink="http://www.w3.org/1999/xlink" x="0px" y="0px"
	 viewBox="-566 1013.6 283.5 99.2" style="enable-background:new -566 1013.6 283.5 99.2;" xml:space="preserve">
<style type="text/css">
	.st0{fill:#1D1D1B;}
	.st1{fill:none;stroke:#62F1AC;stroke-miterlimit:10;}
</style>
<g id="XMLID_2_">
	<path id="XMLID_64_" class="st0" d="M-466.4,1068.2c1.4,0,2.7,0.1,4.1,0c0.8,0,1.1,0.3,1.5,0.9c0.9,1.9,2,3.8,3,5.8
		c0.9-1.6,1.9-3,2.5-4.5c0.8-1.8,1.9-2.5,3.8-2.2c0.9,0.2,2,0,2.9,0.4c0.9,0.3,1.5,0.9,1.5,1.9c0,0.9-0.6,1.5-1.4,1.9
		c-0.5,0.2-1,0.4-1.6,0.7c1.3,1.4,2.6,2.8,4.1,4.4c-1.4,0-2.7,0-4,0c-0.3,0-0.5-0.3-0.6-0.5c-0.9-1.1-1.9-2.2-2.8-3.3
		c-0.5-0.6-0.6-1,0.4-1.2c0.5-0.1,0.9-0.2,1.3-0.3c0.7-0.3,1.1-0.8,1.1-1.6c0-0.8-0.6-1.2-1.4-1.5c-0.7-0.2-1,0.1-1.3,0.6
		c-1.3,2.3-2.7,4.6-4,6.8c-0.3,0.6-0.7,1-1.5,0.9c-0.2,0-0.4,0-0.6,0c-1.4,0.3-2.1-0.4-2.7-1.6c-1.1-2.2-2.4-4.4-3.7-6.5
		c-0.2-0.3-0.2-0.7-0.6-0.8C-466.4,1068.6-466.4,1068.4-466.4,1068.2z"/>
	<path id="XMLID_63_" class="st0" d="M-375.1,1076.7c-0.5,1.2-1.6,1.3-2.5,0.2c-1.3-1.5-2.6-3-4-4.6c0,0-0.1,0-0.3-0.1
		c0,1.5,0,3,0,4.5c0,0.6-0.2,0.8-0.8,0.8c-0.7,0-0.8-0.3-0.8-0.9c0.1-2.4,0.1-4.9,0.2-7.3c0-0.4-0.3-1,0.3-1.1
		c0.5-0.1,1.1-0.1,1.5,0.5c1.4,1.7,2.8,3.4,4.2,5.1c0.2,0.2,0.3,0.4,0.7,0.8c0-1.8,0.1-3.3,0-4.9c-0.1-1.2,0.3-1.7,1.4-1.5
		c0,0.4,0,0.8,0,1.1c-0.2,0.5-0.2,0.9,0,1.4c0,0.4,0,0.8,0,1.1c-0.2,0.2-0.1,0.5-0.1,0.7c0,0.2,0,0.3,0,0.5s0,0.3,0,0.5s0,0.3,0,0.5
		c0,0.2,0,0.4,0,0.6c0,0.2,0,0.3,0,0.5c0,0.2-0.1,0.5,0.1,0.7C-375.1,1076.1-375.1,1076.4-375.1,1076.7z"/>
	<path id="XMLID_62_" class="st0" d="M-375.1,1070.8c-0.3-0.5-0.3-0.9,0-1.4C-375.1,1069.9-375.1,1070.3-375.1,1070.8z"/>
	<path id="XMLID_61_" class="st0" d="M-375.3,1072.6c0-0.3-0.1-0.5,0.2-0.7c0,0.2,0,0.5,0,0.7
		C-375.2,1072.7-375.3,1072.7-375.3,1072.6z"/>
	<path id="XMLID_60_" class="st0" d="M-375.3,1074.6c0-0.2,0-0.5,0-0.7c0.1-0.1,0.1-0.1,0.2,0c0,0.2,0,0.5,0,0.7
		C-375.2,1074.7-375.2,1074.7-375.3,1074.6z"/>
	<path id="XMLID_59_" class="st0" d="M-375.1,1075.8c-0.4-0.2-0.2-0.5-0.2-0.7c0.1-0.1,0.1-0.1,0.2,0
		C-375.1,1075.3-375.1,1075.6-375.1,1075.8z"/>
	<path id="XMLID_58_" class="st0" d="M-375.3,1072.6c0.1,0,0.2,0,0.2,0c0,0.2,0,0.3,0,0.5c-0.1,0.1-0.1,0.1-0.2,0
		C-375.3,1072.9-375.3,1072.7-375.3,1072.6z"/>
	<path id="XMLID_57_" class="st0" d="M-375.3,1073c0.1,0,0.1,0,0.2,0c0,0.2,0,0.3,0,0.5c-0.1,0.1-0.1,0.1-0.2,0
		C-375.3,1073.3-375.3,1073.2-375.3,1073z"/>
	<path id="XMLID_56_" class="st0" d="M-375.3,1073.5c0.1,0,0.1,0,0.2,0c0,0.2,0,0.3,0,0.5c-0.1,0-0.1,0-0.2,0
		C-375.3,1073.8-375.3,1073.7-375.3,1073.5z"/>
	<path id="XMLID_55_" class="st0" d="M-375.1,1075.1c-0.1,0-0.1,0-0.2,0c0-0.2,0-0.3,0-0.5c0.1,0,0.1,0,0.2,0
		C-375.1,1074.8-375.1,1074.9-375.1,1075.1z"/>
	<path id="XMLID_54_" class="st0" d="M-391.6,1065c-20.1-6.2-40.2-6.7-60.1,0.1c1.3-1.3,2.8-2.2,4.4-3c6.7-3.5,13.9-5.6,21.3-6.6
		c4.5-0.6,9.1-0.8,13.6-0.5c1.2,0.1,2.3,0.3,3.4,0.9c5.4,2.8,10.9,5.5,16.4,8.3C-392.3,1064.3-391.9,1064.4-391.6,1065z"/>
	<path id="XMLID_53_" class="st0" d="M-416.9,1077.6c-1.9,0-3.7,0-5.6,0c-0.7,0-0.9-0.1-0.9-0.9c0-2.5,0-5.1,0-7.6
		c0-0.6,0.2-0.9,0.8-0.8c2.4,0,4.8,0,7.2,0c0.5,0,0.8,0,0.8,0.6c0,0.7-0.5,0.6-0.8,0.5c-1.3,0-2.7,0-4-0.1c-0.6,0-0.8,0.2-0.8,0.8
		c0,2.8-0.1,2.8,2.8,2.8c0.8,0,1.5,0,2.3,0c0.3,0,0.6,0.1,0.6,0.5s-0.1,0.6-0.6,0.6c-1.4,0-2.9,0-4.3,0c-1-0.1-0.8,0.6-0.7,1.1
		c0,0.5-0.5,1.3,0.7,1.3c2.7,0,5.3,0,8,0c0.3,0,0.7-0.1,1-0.2c0.9-0.3,1.1-1.2,0.3-1.8c-0.6-0.5-1.3-0.7-2-1.1
		c-0.9-0.5-1.5-1.1-1.4-2.2c0-1.1,0.6-1.8,1.6-2.3c1-0.5,2.1-0.6,3.2-0.6c3.4,0,6.8,0,10.1,0c0.4,0,1-0.2,0.9,0.6
		c0,0.8-0.6,0.5-1,0.5c-2.4,0-2.4,0-2.4,2.4c0,1.7,0,3.3,0,5c0,0.7-0.2,0.9-0.9,0.9c-2.2,0-2.2,0-2.2-2.2c0-1.7,0-3.3,0.1-5
		c0-0.7-0.1-1-0.9-1c-1.4,0.1-2.9,0-4.3,0c-0.6,0-1.3,0.2-1.4,0.9c-0.2,0.7,0.4,1,0.9,1.3c0.6,0.3,1.3,0.7,1.9,1.1
		c0.9,0.5,1.4,1.3,1.3,2.4c-0.1,1-0.7,1.6-1.6,2c-1,0.5-2.1,0.6-3.1,0.6C-413.4,1077.6-415.2,1077.6-416.9,1077.6
		C-416.9,1077.6-416.9,1077.6-416.9,1077.6z"/>
	<path id="XMLID_52_" class="st0" d="M-430.8,1077.5c2.9-1.3,3.9-2.7,3.6-5c-0.2-1.9-2.6-3.7-4.5-3.3c-0.6,0.1-0.5,0.6-0.5,0.9
		c0,2.2,0.1,4.4,0.2,6.6c0,0.7-0.1,0.9-0.8,0.9c-2.5,0-2.5,0-2.5-2.5c0-2,0-4,0-6c0-0.6,0.2-0.8,0.8-0.8c2.1,0.1,4.3-0.1,6.4,0.2
		c2.1,0.3,3.5,1.6,4,3.5c0.4,1.8-0.4,3.6-2.1,4.7C-427.5,1077.5-428.8,1077.7-430.8,1077.5z"/>
	<path id="XMLID_51_" class="st0" d="M-433.8,1055c9.1-3.4,18.4-5.5,28.1-6.3c0,0.1,0.1,0.2,0.1,0.3c-0.9,0.4-1.9,0.7-2.8,1.1
		c-1.4,0.7-3.1,1.1-3.5,3.1c-0.1,0.4-0.5,0.3-0.8,0.2c-4-0.3-8-0.1-11.9,0.3c-3,0.3-5.9,0.9-8.7,1.4
		C-433.5,1055.3-433.8,1055.5-433.8,1055z"/>
	<path id="XMLID_50_" class="st0" d="M-445.6,1072.9c0-1.3,0-2.6,0-3.9c0-0.6,0.2-0.8,0.8-0.8c2.5,0,5.1,0,7.6,0
		c0.4,0,0.7,0,0.7,0.6c0,0.7-0.4,0.6-0.8,0.6c-1.3,0-2.7,0-4-0.1c-0.6,0-0.8,0.1-0.8,0.8c-0.1,2.9-0.1,2.9,2.8,2.9
		c0.6,0,1.2,0,1.8,0c0.4,0,0.9-0.2,0.9,0.6c0,0.7-0.5,0.5-0.9,0.5c-1.2,0-2.4,0.1-3.5,0c-1.3-0.2-1.2,0.6-1.2,1.5
		c-0.1,1.1,0.5,0.9,1.2,0.9c1.3,0,2.5,0,3.8-0.1c0.4,0,0.7,0,0.7,0.6c0,0.6-0.3,0.6-0.7,0.6c-2.6,0-5.2,0-7.8,0
		c-0.5,0-0.7-0.2-0.7-0.7C-445.6,1075.6-445.6,1074.2-445.6,1072.9z"/>
	<path id="XMLID_49_" class="st0" d="M-396.9,1072.9c0-1.3,0-2.6,0-3.9c0-0.5,0.2-0.7,0.7-0.7c2.3,0,4.6,0,6.8,0
		c0.5,0,0.7,0.1,0.7,0.6c0,0.6-0.4,0.6-0.8,0.5c-1.3,0-2.6,0-3.9-0.1c-0.6,0-0.8,0.2-0.8,0.8c-0.1,2.9-0.1,2.9,2.8,2.9
		c0.6,0,1.3,0,1.9,0c0.4,0,0.5,0.1,0.5,0.5c0,0.4-0.1,0.6-0.6,0.6c-1.3,0-2.7,0-4,0c-0.6,0-0.8,0.2-0.8,0.8c0,1.6,0,1.6,1.6,1.6
		c1,0,2.1,0,3.1,0c0.4,0,0.8-0.1,0.8,0.6c0,0.6-0.4,0.6-0.8,0.6c-2.2,0-4.5,0-6.7,0c-0.7,0-0.8-0.3-0.8-0.9
		C-396.9,1075.5-397,1074.1-396.9,1072.9z"/>
	<path id="XMLID_48_" class="st0" d="M-387.4,1072.9c0-1.3,0-2.5,0-3.8c0-0.7,0.2-0.9,0.9-0.9c0.3,0,0.7,0,1,0
		c0.5,0,0.7,0.2,0.7,0.6c0,2.7,0,5.4,0,8.1c0,0.4-0.1,0.6-0.6,0.6c-0.2,0-0.3,0-0.5,0c-1.6,0-1.6,0-1.6-1.5
		C-387.4,1075-387.4,1074-387.4,1072.9z"/>
	<path id="XMLID_47_" class="st0" d="M-433.8,1055c0.2,0.1,0.3,0.2,0.5,0.2c-0.5,0.3-1.1,0.3-1.8,0.5
		C-434.6,1055.2-434.2,1055.1-433.8,1055z"/>
</g>
<rect x="-551.8" y="1020.7" class="st1" width="255.1" height="85"/>
</svg>
