<?xml version="1.0" encoding="utf-8"?>
<!-- Generator: Adobe Illustrator 19.0.0, SVG Export Plug-In . SVG Version: 6.00 Build 0)  -->
<svg version="1.1" id="Ebene_1" xmlns="http://www.w3.org/2000/svg" xmlns:xlink="http://www.w3.org/1999/xlink" x="0px" y="0px"
	 viewBox="0 0 283.5 283.5" style="enable-background:new 0 0 283.5 283.5;" xml:space="preserve">
<style type="text/css">
	.st0{fill:none;stroke:#1E1E1C;stroke-width:2;stroke-miterlimit:10;}
	.st1{fill:#154988;}
</style>
<g id="XMLID_9_">
	<circle id="XMLID_11_" class="st0" cx="141.9" cy="141.5" r="141.7"/>
	<g id="OG5u62.tif_1_">
		<g id="XMLID_39_">
			<path id="XMLID_88_" class="st1" d="M211.1,160.1c-2.6-0.2-5.1-0.2-7.7-0.5c-2.3-0.2-4.5-0.9-6.6-2c-2-1.1-3.6-2.6-4.8-4.6
				c-1.6-2.8-2.4-5.9-2.5-9.2c0-2.2-0.1-4.5,0.2-6.7c0.5-4.1,2-7.8,5.3-10.5c1.4-1.2,3-1.9,4.7-2.5c3-0.9,6.1-1.3,9.2-1.3
				c2.7,0,5.5,0.1,8.2,0.3c3.3,0.3,6.4,1.1,9.2,3c2.1,1.4,3.5,3.4,4.5,5.6c1.6,3.5,1.8,7.2,1.7,11c0,2.5-0.4,4.9-1.3,7.3
				c-1.2,3.3-3.1,6-6.4,7.7c-3.3,1.7-6.9,2.1-10.6,2.2c-1.1,0-2.2,0-3.2,0C211.1,160,211.1,160.1,211.1,160.1z M203.5,141.5
				c0.2,1.6,0.2,3.2,0.5,4.7c0.3,2.3,1.5,4,3.9,4.6c2.1,0.6,4.2,0.5,6.2,0.1c2.2-0.5,3.5-1.9,3.9-4.1c0.7-3.7,0.7-7.4-0.2-11.1
				c-0.4-1.7-1.6-2.9-3.3-3.6c-1.7-0.6-3.4-0.5-5.1-0.5c-3,0.1-5.2,2.1-5.6,5.1C203.8,138.3,203.7,139.9,203.5,141.5z"/>
			<path id="XMLID_87_" class="st1" d="M116.6,141.8c0-3.4,0-6.9,0-10.3c0-1.7,0.3-3.4,1.3-4.8c1.3-1.9,3.2-2.8,5.5-2.8
				c7.2,0,14.3,0,21.5,0c1.5,0,2.2,0.6,2.2,2.1c0,1.5,0,3,0,4.5c0,1.2-0.5,1.7-1.7,1.9c-0.4,0.1-0.8,0-1.2,0c-3.6,0-7.2,0-10.7,0
				c-1.1,0-2.4,0.2-2.7,1.4c-0.3,1-0.2,2.2-0.2,3.3c0,0.1,0.3,0.3,0.5,0.4c0.3,0.1,0.5,0,0.8,0c3.1,0,6.2,0,9.3,0c0.3,0,0.7,0,1,0.1
				c1.2,0.2,1.6,0.5,1.7,1.7c0.1,1.5,0.1,3,0,4.5c-0.1,1-0.7,1.5-1.7,1.7c-0.4,0.1-0.7,0.1-1.1,0.1c-3.1,0-6.3,0-9.4,0
				c-0.7,0-1,0.3-0.9,0.9c0,0.9,0,1.8,0.1,2.6c0.1,0.9,0.6,1.3,1.5,1.5c0.5,0.1,0.9,0.1,1.4,0.1c3.8,0,7.6,0,11.5,0
				c1.7,0,2.2,0.5,2.3,2.1c0,1.4,0,2.9,0,4.3c0,1.3-0.6,1.9-1.8,2.1c-0.3,0.1-0.7,0.1-1,0.1c-6.8,0-13.6,0-20.4,0
				c-3,0-5.4-1.3-6.8-4c-0.4-0.9-0.6-1.9-0.7-2.9C116.6,148.9,116.6,145.3,116.6,141.8z"/>
			<path id="XMLID_86_" class="st1" d="M79.9,123.9c1.7,0,3.3,0,5,0c1.6,0,2,0.2,2.5,1.9c0.7,2.6,1.3,5.3,1.9,8
				c0.8,3.2,1.6,6.4,2.4,9.6c0.4,1.6,0.7,3.2,1.1,4.9c0.1,0.3,0.1,0.7,0.3,0.9c0.2,0.3,0.6,0.6,0.9,0.6c0.3,0,0.7-0.3,0.8-0.6
				c0.4-1,0.6-2.1,0.9-3.2c0.6-2.6,1.2-5.2,1.8-7.9c1-4.1,1.9-8.2,2.9-12.3c0.4-1.6,0.9-1.9,2.5-1.9c1.6,0,3.2,0,4.8,0.1
				c1.9,0,2.5,0.7,2,2.6c-0.4,1.9-1,3.7-1.4,5.6c-0.5,1.9-0.9,3.8-1.4,5.7c-0.5,2-1,4-1.5,6c-0.5,2-0.9,4-1.5,6
				c-0.5,1.8-0.9,3.7-1.6,5.4c-1.1,2.6-3.2,4-6,4.1c-3.5,0.1-7.1,0.1-10.6-0.1c-2.7-0.2-4.6-1.8-5.6-4.3c-0.7-1.8-1.2-3.7-1.7-5.6
				c-0.7-2.6-1.4-5.2-2.1-7.8c-0.7-2.6-1.4-5.2-2.1-7.9c-0.5-1.8-1-3.7-1.5-5.5c-0.2-0.6-0.3-1.2-0.5-1.8c-0.3-1.2,0.3-2.3,1.6-2.4
				C76,123.9,77.9,124,79.9,123.9C79.9,123.9,79.9,123.9,79.9,123.9z"/>
			<path id="XMLID_85_" class="st1" d="M175.5,159.8c-3.4,0.2-6.9,0.2-10.2-0.6c-4.1-0.9-7.6-2.7-9.8-6.4c-1.3-2.1-2-4.5-2.3-6.9
				c-0.4-3.2-0.4-6.5,0.1-9.7c0.4-2.4,1.1-4.7,2.6-6.7c1.6-2.3,3.7-3.8,6.3-4.8c3-1.2,6.1-1.5,9.3-1.6c3.2-0.1,6.5,0,9.7,0
				c0.3,0,0.6,0,1,0.1c1.5,0.2,1.9,0.7,1.9,2.2c0,1.7,0,3.3,0,5c0,1.2-0.6,1.8-1.7,1.8c-2.2,0-4.4-0.1-6.5,0
				c-1.6,0.1-3.2,0.3-4.7,0.6c-1.4,0.3-2.4,1.3-2.7,2.7c-0.3,0.9-0.5,1.9-0.5,2.9c0,2.4-0.1,4.8,0.1,7.2c0.3,3.3,2.3,5,5.6,5.1
				c2.8,0.1,5.6,0,8.4,0.1c1.8,0,2.4,0.6,2.4,2.4c0,1.5,0,3,0,4.5c-0.1,1.6-0.6,2.1-2.2,2.1C179.8,159.8,177.6,159.8,175.5,159.8z"
				/>
			<path id="XMLID_84_" class="st1" d="M65.4,141.6c0,4.8,0,9.7,0,14.5c0,0.4,0,0.8,0,1.2c0,1.3-0.6,2-1.9,2
				c-3.5,0.1-6.9,0.1-10.4,0c-1.3,0-1.9-0.7-1.9-2.1c0-10.2,0-20.3,0-30.5c0-0.5,0-1.1,0.1-1.6c0.1-0.6,0.5-1,1.1-1.2
				c0.4-0.1,0.9-0.2,1.4-0.2c3,0,5.9,0,8.9,0c0.4,0,0.8,0,1.2,0.1c1,0.2,1.4,0.7,1.5,1.7c0,0.3,0,0.7,0,1
				C65.4,131.7,65.4,136.7,65.4,141.6z"/>
		</g>
	</g>
</g>
</svg>
