<?xml version="1.0" encoding="utf-8"?>
<!-- Generator: Adobe Illustrator 19.0.0, SVG Export Plug-In . SVG Version: 6.00 Build 0)  -->
<svg version="1.1" id="Ebene_1" xmlns="http://www.w3.org/2000/svg" xmlns:xlink="http://www.w3.org/1999/xlink" x="0px" y="0px"
	 viewBox="0 0 283.5 283.5" style="enable-background:new 0 0 283.5 283.5;" xml:space="preserve">
<style type="text/css">
	.st0{fill:none;stroke:#1E1E1C;stroke-width:2;stroke-miterlimit:10;}
	.st1{fill:#0A0A0D;}
</style>
<g id="XMLID_2_">
	<circle id="XMLID_5_" class="st0" cx="141.9" cy="141.5" r="141.7"/>
	<g id="xEPaAK.tif">
		<g id="XMLID_37_">
			<path id="XMLID_104_" class="st1" d="M229.9,170.5c-2.6,0-5.3,0-7.9,0c-3.3,0-3.3,0-3-3.2c1.1-13.2-0.9-26-6.6-37.9
				c-12.4-25.8-32.7-41.3-61.3-45c-41-5.2-78.9,23.5-85.4,64.2c-1.1,6.7-1.3,13.3-0.6,20c0.2,1.5-0.2,2-1.8,1.9
				c-2.2-0.1-4.4-0.2-6.5,0c-2.1,0.2-2.7-0.6-2.7-2.5c-0.4-9.6,0.1-19.1,2.5-28.4c8.7-34.3,37.2-60.3,72-65.7
				c44.9-7,88.2,22,98.9,66.2c0.9,3.6,1.5,7.1,2,10.8c0.1,0.4-0.1,0.8,0.5,1C229.9,158,229.9,164.2,229.9,170.5z"/>
			<path id="XMLID_100_" class="st1" d="M103.5,161.8c-2.7,2.6-5,4.7-7.2,6.9c-1,1-1.6,1.2-2.8,0.1c-2.4-2.3-4.9-4.4-7.8-7
				c0,3.1,0,5.7,0,8.2c0,1.1-0.3,1.4-1.4,1.4c-3.7-0.1-7.3-0.1-11,0c-1.1,0-1.6-0.2-1.5-1.4c0.1-8,0-16,0-23.9
				c0-1.2,0.4-1.5,1.5-1.5c3.7,0.1,7.4,0.1,11.2,0c1,0,1.6,0.3,2.2,1.1c2.1,2.4,4.3,4.7,6.2,7.2c1.3,1.7,2,1.4,3.3,0
				c2.1-2.5,4.5-4.9,6.7-7.3c0.6-0.7,1.3-1,2.3-1c3.4,0.1,6.9,0.1,10.3,0c1.1,0,1.5,0.3,1.5,1.5c0,8,0,16,0,23.9
				c0,1.2-0.4,1.5-1.5,1.5c-3.6-0.1-7.2-0.1-10.8,0c-1.1,0-1.5-0.3-1.5-1.5C103.5,167.4,103.5,164.9,103.5,161.8z"/>
			<path id="XMLID_99_" class="st1" d="M183.7,159.8c0,3.6,0,6.7,0,9.8c0,1.2-0.2,1.8-1.6,1.7c-3.8-0.1-7.6-0.1-11.4,0
				c-1.2,0-1.5-0.3-1.5-1.5c0-8,0-16,0-23.9c0-1.2,0.4-1.5,1.5-1.5c3.6,0.1,7.2,0.1,10.8,0c1,0,1.7,0.4,2.4,0.8
				c5.1,3.3,10.2,6.6,15.3,9.9c0.4,0.3,0.9,0.9,1.4,0.7c0.7-0.3,0.3-1.1,0.3-1.6c0.1-2.7,0.1-5.4,0-8.1c0-1.2,0.2-1.7,1.5-1.6
				c3.4,0.1,6.9,0.1,10.3,0c1.2,0,1.5,0.4,1.5,1.5c0,8,0,16,0,23.9c0,1-0.3,1.4-1.4,1.4c-3.9-0.1-7.8-0.1-11.8,0
				c-0.9,0-1.5-0.4-2.2-0.9C194.1,167,189.2,163.6,183.7,159.8z"/>
			<path id="XMLID_96_" class="st1" d="M168.1,171.3c-4.9,0-9.6,0-14.4,0c-1,0-1.4-0.8-1.9-1.4c-0.8-1.1-1.8-1.4-3.1-1.4
				c-3.8,0.1-7.6,0.1-11.4,0c-1,0-1.7,0.2-2.2,1.1c-0.8,1.5-2.1,1.8-3.7,1.7c-4.2-0.1-8.4,0-12.6,0c-0.2-0.8,0.3-1.2,0.7-1.7
				c5.2-7.9,10.5-15.8,15.7-23.7c0.7-1.1,1.4-1.5,2.8-1.5c3.9,0.1,7.7,0.1,11.6,0.1c0.8,0,1.5,0.1,2.1,0.9
				c5.4,8.4,10.9,16.8,16.4,25.2C168.1,170.7,168,170.9,168.1,171.3z M143.1,156c-0.7,1.3-1.2,2.3-1.7,3.4c-1,2-1,2,1.2,2
				c3.3,0,3.3,0,1.7-3C144,157.7,143.6,157,143.1,156z"/>
		</g>
	</g>
</g>
</svg>
