<?xml version="1.0" encoding="utf-8"?>
<!-- Generator: Adobe Illustrator 19.0.0, SVG Export Plug-In . SVG Version: 6.00 Build 0)  -->
<svg version="1.1" id="Ebene_1" xmlns="http://www.w3.org/2000/svg" xmlns:xlink="http://www.w3.org/1999/xlink" x="0px" y="0px"
	 viewBox="0 0 283.5 283.5" style="enable-background:new 0 0 283.5 283.5;" xml:space="preserve">
<style type="text/css">
	.st0{fill:none;stroke:#1E1E1C;stroke-width:2;stroke-miterlimit:10;}
</style>
<g id="XMLID_7_">
	<circle id="XMLID_8_" class="st0" cx="141.9" cy="141.5" r="141.7"/>
	<path id="XMLID_177_" d="M229.1,141.6c0,47.9-39.3,87.1-87.3,87.1c-47.8,0-87.1-39.4-87.1-87.3c0-48.5,40.4-87.6,88.3-87
		C190.1,54.9,229.4,94,229.1,141.6z M210.7,179.4c12.3-21.9,14.6-52.2-1.1-77.9c-15-24.6-37.5-36.8-66.1-38.8c0,0.7,0,1.1,0.1,1.5
		c0.5,3.2,1.1,6.5,1.6,9.7c3.2,19.7,6.5,39.4,9.8,59.1c0.1,0.6,0.5,1.2,1,1.6c7.9,6.5,15.9,13,23.9,19.5
		C190.1,162.5,200.4,170.9,210.7,179.4z M140.6,62.7c-30,1.9-53,15-67.5,41.1c-13.8,24.9-12.7,50.3-0.1,75.6
		c0.4-0.3,0.7-0.5,0.9-0.7C91.9,164,110,149.2,128,134.4c0.4-0.3,0.7-0.8,0.7-1.2c1-5.5,1.8-11,2.8-16.6c2.2-13.4,4.5-26.7,6.7-40.1
		C139,72.1,139.7,67.6,140.6,62.7z M74.6,182c12.1,21.2,39.7,40.5,73.7,37.8c29.3-2.3,51.6-20.9,60.7-37.7c-0.3-0.1-0.5-0.3-0.8-0.4
		c-21.8-8.2-43.6-16.3-65.4-24.5c-0.6-0.2-1.4-0.2-2,0c-17.3,6.5-34.6,13-51.9,19.5C84.1,178.4,79.4,180.2,74.6,182z"/>
</g>
</svg>
