<?xml version="1.0" encoding="utf-8"?>
<!-- Generator: Adobe Illustrator 19.0.0, SVG Export Plug-In . SVG Version: 6.00 Build 0)  -->
<svg version="1.1" id="Ebene_1" xmlns="http://www.w3.org/2000/svg" xmlns:xlink="http://www.w3.org/1999/xlink" x="0px" y="0px"
	 viewBox="0 0 283.5 283.5" style="enable-background:new 0 0 283.5 283.5;" xml:space="preserve">
<style type="text/css">
	.st0{fill:none;stroke:#1E1E1C;stroke-width:2;stroke-miterlimit:10;}
	.st1{fill:#232A53;}
</style>
<g id="XMLID_12_">
	<circle id="XMLID_10_" class="st0" cx="141.9" cy="141.5" r="141.7"/>
	<g id="j8jb0r.tif">
		<g id="XMLID_36_">
			<path id="XMLID_58_" class="st1" d="M99.8,157.9c-1.1,0-2.1,0-3.2,0c-0.4-0.1-0.8-0.1-1.2-0.2c-6-0.3-11.2-2.2-14.6-7.5
				c-0.4-0.7-0.7-0.5-1,0.1c-1.7,3.7-4.9,5.5-8.6,6.4c-4.9,1.2-10,1.2-15,0.8c-2.3-0.1-4.5-0.6-6.7-1.3c-3.6-1.2-6.5-3.2-7.7-7
				c0-0.8,0-1.7,0-2.5c4.1,0,8.1,0,12.2,0c0.9,0,1.5,0.1,1.7,1.2c0.2,1.1,0.9,1.8,1.9,2.3c2,0.9,4,1,6.1,0.4c1.8-0.5,2.8-1.7,2.7-3
				c-0.1-1.2-1.1-2-3.1-2.4c-2.1-0.4-4.2-0.2-6.3-0.3c-2.5-0.1-5-0.2-7.5-1c-3.7-1.2-6-3.7-6.4-7.7c-0.3-3.8,1.3-6.5,4.5-8.4
				c1.4-0.9,3-1.4,4.6-1.8c4.6-1,9.3-1.1,13.9-0.7c2.9,0.3,5.8,0.9,8.4,2.4c2.5,1.5,4.1,3.5,4.4,6.5c0.1,1-0.2,1.5-1.2,1.5
				c-3.6,0-7.2,0-10.8,0c-0.9,0-1.3-0.4-1.4-1.3c-0.1-1.2-0.6-2.2-1.7-2.7c-2.1-0.8-4.2-0.8-6.3,0.1c-0.9,0.4-1.3,1.1-1.3,2.1
				c0,1,0.5,1.6,1.3,2.1c0.9,0.5,1.9,0.6,2.9,0.6c2.4,0,4.9,0,7.3,0.1c3.6,0.1,7.2,0.7,10.1,3.1c0.5,0.4,0.8,0.3,0.9-0.3
				c0-0.3,0.1-0.6,0.1-0.9c1-7,4.9-11.3,11.7-12.8c3.9-0.9,7.9-1,11.8-0.4c3.8,0.5,7.4,1.6,10.4,4c2.3,1.9,3.7,4.3,3.9,7.3
				c0.1,1-0.2,1.5-1.3,1.5c-3.4,0-6.8,0-10.2,0c-0.8,0-1.2-0.3-1.4-1.1c-1.1-3-3-4.3-6.4-4.2c-3.1,0-5.2,1.5-6.2,4.4
				c-0.8,2.3-0.9,4.7-0.5,7.1c0.6,3.2,3.3,5.4,6.8,5.7c2.9,0.2,5.4-1.5,6.4-4.5c0.3-0.8,0.7-1.1,1.5-1.1c2.7,0,5.4-0.1,8.1,0
				c1.2,0,1.8-0.4,2.3-1.6c2-5.1,4.1-10.2,6.1-15.3c0.4-1,0.9-1.3,1.9-1.3c4.9,0,9.8,0,14.8,0c1.1,0,1.6,0.4,2,1.3
				c2.6,5.8,4.9,11.7,7.4,17.6c0.3,0.8,0.7,1.6,1,2.5c0.1,0,0.2,0,0.3-0.1c0-0.4,0-0.9,0-1.3c0-6.1,0-12.2,0-18.4
				c0-1.6,0.1-1.7,1.7-1.7c4,0,8,0,12,0c1.2,0,1.9,0.4,2.6,1.3c3.4,4.5,6.8,9,10.2,13.4c0.3,0.3,0.4,0.8,0.9,1
				c0.3-0.4,0.1-0.9,0.1-1.3c0-4.3,0-8.6,0-12.9c0-1,0.3-1.5,1.4-1.5c3,0.1,6,0,8.9,0c1.1,0,1.5,0.4,1.5,1.4c0,9.3,0,18.7,0,28
				c0,1.2-0.5,1.5-1.6,1.5c-3.8,0-7.5,0-11.3,0c-1,0-1.6-0.3-2.2-1.1c-3.9-5.2-7.9-10.3-11.9-15.4c-0.3-0.3-0.4-0.8-0.9-0.9
				c-0.3,0.4-0.2,0.9-0.2,1.3c0,4.6,0,9.2,0,13.8c0,2.3,0,2.3-2.4,2.3c-4.5,0-9-0.2-13.5,0.1c-3,0.2-4.8-0.6-5.5-3.6
				c-0.2-1-0.9-1.2-1.9-1.2c-3.1,0-6.2,0.2-9.3,0c-3-0.3-5.1,0.4-5.8,3.6c-0.2,0.9-0.9,1.2-1.8,1.2c-2.8,0-5.5,0-8.3,0
				c-2,0-2,0-1.5-1.9c0-0.1,0-0.2-0.1-0.3c-0.1,0-0.2,0-0.3,0c-0.3,0.1-0.5,0.2-0.8,0.4c-2.1,1.2-4.4,2-6.9,2.3
				C101.8,157.8,100.8,157.8,99.8,157.9z M131,135c-1.1,3-2.2,5.8-3.3,8.6c-0.3,0.8,0.4,0.9,0.9,0.9c1.9,0,3.8,0,5.7,0
				c0.9,0,1.1-0.3,0.7-1.1c-1-2.2-1.9-4.4-2.9-6.5C131.8,136.3,131.6,135.6,131,135z"/>
			<path id="XMLID_55_" class="st1" d="M203.3,147.6c1.7-4.2,3.4-8.3,5.1-12.5c1-2.5,2.1-5,3.1-7.6c0.3-0.9,0.9-1.3,1.8-1.2
				c5.1,0,10.2,0,15.4,0c0.9,0,1.4,0.3,1.7,1.1c3.8,9.5,7.7,19,11.5,28.5c0.4,1,0.1,1.3-0.9,1.3c-3.1,0-6.2,0-9.3,0
				c-0.8,0-1.3-0.3-1.6-1c-0.4-0.9-0.9-1.8-1.3-2.7c-0.3-0.7-0.8-1-1.5-1c-4.1,0-8.3,0-12.4,0c-0.8,0-1.3,0.3-1.5,1c0,0,0,0.1,0,0.1
				c-1.5,3.5-1.5,3.5-5.3,3.5c-5.2,0-10.3,0-15.5,0c-1.2,0-1.7-0.4-1.7-1.6c0-9.2,0-18.4,0-27.6c0-1.2,0.3-1.7,1.6-1.7
				c3,0.1,6,0.1,9,0c1.2,0,1.6,0.4,1.6,1.6c0,6.1,0,12.1,0,18.2c0,0.5,0,1,0,1.5C203.1,147.6,203.2,147.6,203.3,147.6z M221.1,144.5
				C221.1,144.5,221.1,144.5,221.1,144.5c0.9,0,1.9,0,2.8,0c0.8,0,1.1-0.3,0.7-1.1c-1.1-2.5-2.2-5-3.4-7.4c-0.1-0.2-0.2-0.5-0.5-0.5
				c-0.1,0-0.3,0.3-0.4,0.5c-1,2.5-2,5.1-3,7.6c-0.2,0.6,0,1,0.7,1C219.1,144.5,220.1,144.5,221.1,144.5z"/>
		</g>
	</g>
</g>
</svg>
