<?xml version="1.0" encoding="utf-8"?>
<!-- Generator: Adobe Illustrator 19.0.0, SVG Export Plug-In . SVG Version: 6.00 Build 0)  -->
<svg version="1.1" id="Ebene_1" xmlns="http://www.w3.org/2000/svg" xmlns:xlink="http://www.w3.org/1999/xlink" x="0px" y="0px"
	 viewBox="0 0 283.5 283.5" style="enable-background:new 0 0 283.5 283.5;" xml:space="preserve">
<style type="text/css">
	.st0{fill:#16509D;}
	.st1{fill:none;stroke:#1E1E1C;stroke-width:2;stroke-miterlimit:10;}
</style>
<g id="XMLID_4_">
	<g id="XMLID_118_">
		<g id="JyK3ju.tif">
			<g id="XMLID_6_">
				<path id="XMLID_91_" class="st0" d="M232.4,157.5c-0.7-0.1-1.4-0.2-2-0.3c-4.8-0.5-9.1-2.2-12.7-5.4c-2.3-2-3.9-4.4-4.5-7.4
					c-0.8-3.7,0.1-7,2.3-9.9c2.6-3.5,6.3-5.5,10.4-6.8c2.4-0.7,4.8-1.1,7.3-1.1c5.6,0,10.8,1.3,15.3,4.8c2.7,2.1,4.7,4.8,5.4,8.2
					c0.1,0.7,0.2,1.4,0.3,2.1c0,0.2,0,0.4,0,0.6c-0.1,0.7-0.2,1.4-0.3,2.1c-0.7,3.1-2.4,5.6-4.8,7.7c-3.6,3.1-7.8,4.6-12.4,5.2
					c-0.7,0.1-1.4,0.2-2,0.3C233.9,157.5,233.2,157.5,232.4,157.5z M240.6,141.9c-0.1-1-0.1-2-0.3-2.9c-0.5-2.5-1.4-4.7-3.3-6.5
					c-2.1-2-4.9-2.2-7.2-0.4c-1.2,0.9-2,2.1-2.6,3.4c-1.3,2.8-1.6,5.8-1.2,8.9c0.3,2.3,1.1,4.4,2.5,6.1c1.2,1.5,2.8,2.5,4.8,2.5
					c1.9-0.1,3.4-1.1,4.6-2.5C239.9,148,240.5,145,240.6,141.9z"/>
				<path id="XMLID_81_" class="st0" d="M102.2,157.5c-0.7-0.1-1.4-0.2-2.2-0.3c-5.1-0.7-9.8-2.5-13.5-6.2c-2-2.1-3.4-4.5-3.7-7.4
					c-0.3-2.9,0.4-5.6,2.1-8c2.4-3.5,5.9-5.6,9.8-7c3.3-1.2,6.8-1.6,10.3-1.3c5,0.3,9.7,1.7,13.7,5c2.5,2,4.3,4.4,5,7.6
					c0.8,3.6,0,6.9-2.2,9.8c-2.4,3.2-5.6,5.2-9.3,6.5c-2.3,0.8-4.6,1.3-7,1.4c-0.2,0-0.4,0.1-0.5,0.1
					C103.9,157.5,103,157.5,102.2,157.5z M95.7,142.2c0.1,0.9,0.1,1.9,0.3,2.8c0.4,2.4,1.4,4.6,3.2,6.4c2.2,2.1,5.1,2.3,7.4,0.3
					c0.8-0.7,1.5-1.5,2-2.4c2-3.4,2.3-7.1,1.4-10.9c-0.5-2.3-1.5-4.3-3.4-5.8c-2.1-1.8-4.9-1.8-7.1,0c-0.5,0.4-1,0.9-1.4,1.5
					C96.4,136.5,95.8,139.2,95.7,142.2z"/>
				<path id="XMLID_79_" class="st0" d="M181.1,131.9c3.4,6,6.8,11.8,10.2,17.8c3.2-6,6.3-11.8,9.4-17.8c-0.3,0-0.5-0.1-0.7-0.1
					c-1.3,0-2.7,0-4,0c-0.4,0-0.6-0.1-0.6-0.6c0-0.9,0-1.8,0-2.8c0-0.4,0.1-0.6,0.5-0.6c6.3,0,12.6,0,18.9,0c0.4,0,0.6,0.1,0.5,0.5
					c0,0.9,0,1.9,0,2.8c0,0.4-0.1,0.5-0.5,0.5c-1.9,0-3.7,0.1-5.6,0.1c-0.5,0-0.7,0.2-0.9,0.6c-4.2,7.9-8.4,15.7-12.6,23.6
					c-0.2,0.5-0.5,0.6-1,0.6c-4.9,0-9.9,0-14.8,0c-0.5,0-0.7-0.1-1-0.6c-4.1-7.8-8.3-15.6-12.4-23.4c-0.3-0.6-0.7-0.9-1.4-0.9
					c-1.7,0.1-3.4,0-5.2,0c-0.4,0-0.6-0.1-0.6-0.6c0-1,0-1.9,0-2.9c0-0.3,0.1-0.5,0.5-0.5c0.1,0,0.2,0,0.3,0c9.2,0,18.5,0,27.7,0
					c0.6,0,0.7,0.2,0.7,0.7c0,0.9,0,1.8,0,2.6c0,0.5-0.1,0.6-0.6,0.6c-2,0-4,0-6,0C181.7,131.9,181.5,131.9,181.1,131.9z"/>
				<path id="XMLID_78_" class="st0" d="M70.6,131.8c-0.4,0-0.6-0.1-0.8-0.1c-1.3,0-2.7,0-4,0c-0.4,0-0.6-0.1-0.6-0.6
					c0-0.9,0-1.9,0-2.8c0-0.4,0.1-0.5,0.5-0.5c6.3,0,12.6,0,19,0c0.4,0,0.5,0.2,0.5,0.5c0,0.9,0,1.9,0,2.8c0,0.4-0.2,0.5-0.6,0.5
					c-1.8,0-3.7,0.1-5.5,0.1c-0.5,0-0.7,0.2-1,0.6c-4.2,7.9-8.4,15.7-12.6,23.6c-0.2,0.4-0.5,0.6-1,0.6c-4.9,0-9.9,0-14.8,0
					c-0.5,0-0.8-0.2-1-0.6c-4.2-7.8-8.3-15.6-12.5-23.5c-0.3-0.5-0.6-0.7-1.2-0.7c-1.8,0-3.6,0-5.4,0c-0.5,0-0.6-0.1-0.6-0.6
					c0-0.9,0-1.9,0-2.8c0-0.5,0.2-0.6,0.6-0.6c5.7,0,11.5,0,17.2,0c3.6,0,7.1,0,10.7,0c0.5,0,0.7,0.1,0.7,0.7c0,0.9,0,1.8,0,2.8
					c0,0.5-0.2,0.6-0.6,0.6c-2,0-4,0-6,0c-0.2,0-0.4,0-0.8,0c3.4,6,6.8,11.8,10.2,17.8C64.4,143.6,67.4,137.8,70.6,131.8z"/>
				<path id="XMLID_77_" class="st0" d="M146.9,156.6c-6.2,0-12.3,0-18.5,0c-0.7,0-1.4-0.1-2.1-0.1c-0.4,0-0.5-0.2-0.5-0.6
					c0-1.1,0-2.1,0-3.2c0-0.4,0.1-0.6,0.6-0.6c2,0,3.9,0,5.9,0c0.5,0,0.6-0.2,0.6-0.6c0-6.4,0-12.7,0-19.1c0-0.5-0.1-0.7-0.6-0.6
					c-1.8,0-3.6,0-5.5,0c-0.5,0-0.7-0.1-0.7-0.6c0-0.9,0-1.8,0-2.8c0-0.5,0.1-0.6,0.6-0.6c4,0,8,0,12,0c4.4,0,8.8,0,13.2,0
					c0.5,0,0.7,0.1,0.6,0.6c0,0.9,0,1.9,0,2.8c0,0.4-0.1,0.5-0.6,0.5c-1.8,0-3.7,0-5.5,0c-0.4,0-0.6,0.1-0.6,0.6
					c0,6.4,0,12.8,0,19.2c0,0.4,0.1,0.6,0.5,0.6c2.3,0,4.7,0.1,7,0c3.4-0.2,7.6-2.3,8.5-7.3c0-0.1,0.1-0.3,0.1-0.4
					c0.2-1.2,0.2-1.2,1.4-1.2c0.8,0,1.7,0,2.5,0c0.3,0,0.5,0.1,0.5,0.5c0,4.1,0,8.3,0,12.4c0,0.5-0.3,0.5-0.6,0.5
					C159.5,156.6,153.2,156.6,146.9,156.6C146.9,156.6,146.9,156.6,146.9,156.6z"/>
			</g>
		</g>
	</g>
	<circle id="XMLID_3_" class="st1" cx="141.7" cy="142" r="141.7"/>
</g>
</svg>
