<?xml version="1.0" encoding="utf-8"?>
<!-- Generator: Adobe Illustrator 19.0.0, SVG Export Plug-In . SVG Version: 6.00 Build 0)  -->
<svg version="1.1" id="Ebene_1" xmlns="http://www.w3.org/2000/svg" xmlns:xlink="http://www.w3.org/1999/xlink" x="0px" y="0px"
	 viewBox="0 0 283.5 283.5" style="enable-background:new 0 0 283.5 283.5;" xml:space="preserve">
<style type="text/css">
	.st0{fill:#FFFFFF;stroke:#000000;stroke-miterlimit:10;}
	.st1{fill:#010202;}
	.st2{fill:#010203;}
	.st3{fill:#E52620;}
	.st4{fill:#FFFFFF;}
</style>
<circle id="XMLID_1_" class="st0" cx="141.7" cy="141.7" r="141.7"/>
<g id="XMLID_3_">
	<path id="XMLID_83_" class="st1" d="M31.2,137.6c-0.3,1.1-0.6,2.1-0.9,3.2c-1.1,3.8-2.2,7.6-3.3,11.4c-0.2,0.5-0.1,0.7,0.5,0.6
		c0.5,0,1.1,0,1.6,0c1.4,0,2-0.4,2.4-1.7c0.5-1.4,0.8-2.8,1.2-4.1c2.2-7.5,4.3-14.9,6.5-22.4c0.1-0.4,0.3-0.5,0.7-0.5
		c1.6,0,3.1,0,4.7,0.3c3.3,0.7,4.9,2.7,5,6.1c0.1,2.6-0.7,5-2.4,7c-1.8,2-4.2,2.7-6.9,2.9c-0.4,0-1-0.1-0.9,0.7
		c0.7,0,1.4,0.1,2.1,0.4c2.7,0.8,4.3,2.9,4.3,5.9c-0.1,3.8-1.4,7.1-4.5,9.4c-1.8,1.4-4,2-6.2,2.3c-1.8,0.3-3.7,0.3-5.6,0.3
		c-7,0-13.9,0-20.9,0c-0.2,0-0.4,0-0.9,0c7.8-7.3,15.5-14.5,23.2-21.6C31.1,137.5,31.2,137.5,31.2,137.6z"/>
	<path id="XMLID_82_" class="st1" d="M215.4,130.6c2.4,0,4.6,0,6.7,0.4c3.6,0.6,4.6,3.3,4.2,6.3c-0.4,3.4-1.7,6.6-2.6,9.9
		c-0.7,2.3-1.2,4.7-2.2,6.9c-0.5,1-1.1,1.9-1.8,2.8c-1.4,1.8-3.4,2.3-5.6,2.5c-3.1,0.2-6.2,0.3-9.3,0c-1.5-0.1-2.9-0.5-4-1.5
		c-1.5-1.3-1.7-3-1.4-4.8c0.6-3.7,1.9-7.3,2.9-11c0.6-2.1,1.1-4.2,2.1-6.2c1.4-3,3.6-4.6,6.9-4.9
		C212.7,130.7,214.2,130.7,215.4,130.6z"/>
	<path id="XMLID_81_" class="st1" d="M91.5,159.1c-2.7,0-4.9,0-7.1,0c-0.5,0-0.6-0.1-0.4-0.6c2.6-9,5.2-18,7.8-27
		c0.1-0.3,0.2-0.5,0.6-0.5c4.4,0,8.7,0,13.1,0c0.9,0,1.7,0.1,2.6,0.3c3.4,0.7,4.4,3.5,4.1,6.2c-0.3,3-1.4,5.8-2.2,8.7
		c-0.6,2.3-1.2,4.6-2.1,6.8c-1.5,3.5-4.2,5.4-7.9,5.8C97,159.2,94,159,91.5,159.1z"/>
	<path id="XMLID_80_" class="st1" d="M130,131c-2.1,1.4-4.3,2.7-5,5.4c-1.4,5-2.9,10.1-4.3,15.1c-0.5,1.6,0.2,2.4,1.9,2.4
		c0.1,0,0.2,0,0.3,0c0.5,0.1,0.8-0.1,0.9-0.7c0.9-3.1,1.8-6.1,2.6-9.2c0.1-0.5,0.3-0.6,0.8-0.6c2.7,0,5.4,0,8.1,0
		c0.6,0,0.6,0.2,0.5,0.7c-1.4,4.8-2.8,9.5-4.1,14.3c-0.1,0.5-0.4,0.6-0.8,0.6c-3.5,0-7.1,0-10.6,0c-1.6,0-3.2-0.1-4.7-0.4
		c-2.8-0.6-4.6-3.1-4.3-5.9c0.3-3.2,1.4-6.2,2.2-9.3c0.7-2.5,1.3-5.1,2.4-7.5c0.9-2,2.1-3.8,4.3-4.6c1.6-0.6,3.2-0.7,4.9-0.7
		c1.6-0.1,3.2,0,4.7-0.1C129.8,130.7,130,130.7,130,131z"/>
	<path id="XMLID_79_" class="st1" d="M175.2,131.5c-0.4,0.4-0.8,0.8-1.3,1.1c-2,1.3-2.9,3.2-3.3,5.5c0,0.2-0.1,0.4-0.1,0.7
		c-0.1,0.9,0.1,1.4,1,1.9c0.8,0.5,1.8,0.5,2.7,0.7c1.4,0.3,2.8,0.7,4.2,1.3c1.5,0.7,2.1,1.9,2.3,3.5c0.2,2.7-0.5,5.2-1.6,7.7
		c-0.3,0.7-0.7,1.4-1.1,2c-1.1,2-2.8,2.9-4.9,3.3c-3.7,0.5-7.4,0.5-11,0.1c-3.4-0.4-5.1-2.9-4.4-6.4c0.2-1.1,0.5-2.1,0.9-3.2
		c0.1-0.3,0.2-0.4,0.5-0.4c2.9,0,5.7,0,8.6,0c-0.3,1.1-0.6,2.1-0.9,3.1c-0.2,0.9-0.1,1.5,0.4,1.7c0.7,0.4,2,0.2,2.4-0.4
		c0.8-1.3,1.2-2.8,1.3-4.3c0.1-0.7-0.3-1.2-1-1.4c-1.5-0.6-3-0.8-4.6-1.2c-0.5-0.1-0.9-0.2-1.4-0.4c-1.8-0.6-2.9-2-2.9-3.9
		c0-2.9,0.8-5.6,2.1-8.2c1-1.9,2.8-2.8,4.8-3.2c1.5-0.3,3.1-0.4,4.7-0.3c0.9-0.1,1.7,0,2.6-0.1c0.3,0,0.4,0.1,0.3,0.4
		C175.4,131.2,175.3,131.4,175.2,131.5z"/>
	<path id="XMLID_78_" class="st2" d="M261.9,144.5c0.5-0.4,1-0.8,1.4-1.2c1.2-1,2.5-1.5,4-1.5c1.4,0,2.9,0,4.3,0
		c0.4,0,0.5,0.1,0.4,0.5c-0.5,1.6-0.9,3.2-1.4,4.7c-0.1,0.4-0.3,0.4-0.6,0.4c-2.8,0-5.7,0-8.5,0c-0.5,0-0.7,0.2-0.8,0.6
		c-0.3,1-0.6,2.1-0.9,3.1c-0.4,1.5,0.1,2.1,1.6,2.2c2.5,0.1,4.9,0.1,7.4,0c0.5,0,0.7,0,0.5,0.6c-0.5,1.5-0.9,3.1-1.3,4.6
		c-0.1,0.4-0.3,0.6-0.7,0.6c-3.5,0-7,0-10.5,0c-1.2,0-2.3-0.2-3.4-0.6c-2.3-0.9-3.3-2.7-3-5.1c0.3-2,0.9-4,1.4-5.9
		c1.1-3.8,2-7.6,3.3-11.3c1.1-3.4,3.5-5.1,7.1-5.1c4.3,0,8.5,0,12.8,0c0.4,0,0.5,0.1,0.4,0.5c-0.5,1.5-0.9,3.1-1.3,4.6
		c-0.1,0.4-0.3,0.6-0.7,0.6c-2.4,0-4.8,0-7.1,0c-1.9,0-2.4,0.4-2.9,2.2c-0.5,1.8-1,3.5-1.5,5.3C261.9,144.2,261.9,144.3,261.9,144.5
		z"/>
	<path id="XMLID_77_" class="st2" d="M161.3,131c-0.5,1.8-1.1,3.6-1.6,5.4c-0.1,0.4-0.4,0.3-0.6,0.3c-2.3,0-4.7,0-7,0
		c-0.3,0-0.7,0-1,0c-0.8,0.1-1.5,0.5-1.7,1.3c-0.7,2.1-1.3,4.3-2,6.6c0.7-0.6,1.3-1.1,2-1.6c1-0.8,2.2-1.2,3.5-1.2c1.6,0,3.3,0,5,0
		c-0.4,1.5-0.8,2.9-1.2,4.4c-0.3,1.2-0.3,1.2-1.6,1.2c-2.6,0-5.2,0-7.8,0c-0.4,0-0.6,0.1-0.7,0.5c-0.3,1.1-0.6,2.2-0.9,3.3
		c-0.4,1.4,0.1,2.1,1.5,2.1c2.5,0.1,5,0.1,7.5,0.1c0.5,0,0.7,0.1,0.5,0.6c-0.5,1.5-0.9,3.1-1.4,4.7c-0.1,0.4-0.2,0.5-0.6,0.5
		c-3.6,0-7.2,0-10.7,0c-1.2,0-2.4-0.3-3.5-0.8c-1.9-0.9-2.8-2.4-2.7-4.6c0.1-2,0.8-3.9,1.3-5.8c1.1-4,2.1-8.1,3.5-12
		c1.1-3.2,3.5-4.9,6.9-4.9C152.3,131,156.8,131,161.3,131z"/>
	<path id="XMLID_76_" class="st2" d="M182.2,159.1c0.5-1.6,0.9-3.2,1.4-4.8c1.2-4,2.3-7.9,3.4-11.9c0.5-1.7,1.6-2.9,2.9-4.1
		c0.6-0.5,1.2-1,1.9-1.5c-1.2,0-2.2,0-3.2,0c-1.4,0-2.7,0-4.1,0c-0.4,0-0.5-0.1-0.4-0.5c0.5-1.6,1-3.2,1.4-4.9
		c0.1-0.4,0.3-0.5,0.6-0.5c1.9,0,3.8,0,5.6,0c3.9,0,7.8,0,11.7,0c0.2,0,0.5,0,0.8,0c-0.5,1.9-1.1,3.7-1.6,5.5
		c-0.1,0.3-0.3,0.3-0.6,0.3c-1.2,0-2.4,0-3.7,0c-0.4,0-0.6,0.1-0.7,0.5c-2,7-4.1,14.1-6.1,21.1c-0.1,0.5-0.3,0.6-0.8,0.6
		C188.1,159.1,185.2,159.1,182.2,159.1z"/>
	<path id="XMLID_75_" class="st2" d="M244,131.4C243.9,131.4,243.9,131.4,244,131.4c-2.2,1.6-4.4,2.9-5.2,5.7
		c-1.9,7.1-4.1,14.2-6.1,21.3c-0.1,0.5-0.4,0.6-0.9,0.6c-2.8,0-5.7,0-8.6,0c0.5-1.6,0.9-3.2,1.4-4.8c2.2-7.6,4.4-15.2,6.6-22.7
		c0.1-0.4,0.2-0.6,0.8-0.6c4.8,0,9.6,0,14.3,0c0.3,0,0.7-0.1,1,0.1c-0.2,0.2-0.5,0.2-0.7,0.2C245.7,131.3,244.8,131.3,244,131.4z"/>
	<path id="XMLID_74_" class="st2" d="M88.2,131c-0.9,3-1.7,5.9-2.6,8.9c-1.8,6.2-3.6,12.4-5.4,18.6c-0.1,0.5-0.3,0.6-0.8,0.6
		c-2.9,0-5.8,0-8.8,0c-0.1-0.3,0.1-0.5,0.1-0.7c2.6-8.9,5.2-17.9,7.8-26.8c0.1-0.3,0.1-0.6,0.6-0.6c2.9,0,5.9,0,8.8,0
		C88.1,131,88.1,131,88.2,131z"/>
	<path id="XMLID_73_" class="st2" d="M63.4,133.2c-0.3,0.3-0.7,0.6-1,1c-0.6,0.6-1,1.3-1.3,2.2c-2.1,7.4-4.3,14.8-6.4,22.2
		c-0.1,0.5-0.3,0.6-0.8,0.6c-2.7,0-5.3,0-8,0c-0.5,0-0.6-0.1-0.4-0.6c2.6-9,5.2-18,7.8-27c0-0.1,0.1-0.2,0.1-0.2
		c0.1-0.2,0.3-0.2,0.5-0.2c3.7,0,7.5,0,11.2,0c0.1,0,0.2,0,0.3,0.1c-0.2,0.4-0.6,0.6-1,0.9C64.1,132.4,63.6,132.7,63.4,133.2z"/>
	<path id="XMLID_72_" class="st2" d="M244,131.4c0.2-0.3,0.5-0.3,0.9-0.3c0.8,0,1.6,0,2.4,0c2.3,0.1,4.2,1.4,4.5,3.3
		c0.3,1.4,0.1,2.8-0.3,4.1c-1.9,6.7-3.9,13.4-5.8,20.1c-0.1,0.4-0.3,0.5-0.6,0.5c-2.8,0-5.6,0-8.4,0c-0.5,0-0.6-0.1-0.4-0.6
		c2.6-8.9,5.1-17.7,7.7-26.6C243.9,131.8,244,131.6,244,131.4z"/>
	<path id="XMLID_71_" class="st2" d="M63.4,133.2c-0.1-0.4,0.1-0.6,0.4-0.9c0.5-0.3,1-0.7,1.5-1.2c-0.2,0-0.5,0-0.7,0
		c-3.5,0-7,0-10.4,0c-0.3,0-0.6,0-0.9,0.1c0-0.3,0.2-0.3,0.4-0.3c4.8,0,9.7,0,14.5,0c0.7,0,1.4,0.1,2.1,0.3c2.4,0.6,3.7,2.6,3.4,5.2
		c-0.1,1.3-0.5,2.7-1.1,3.9c-1,2.2-2.7,3.3-5,3.6c-0.5,0.1-1,0.1-1.6,0.1c-0.3,0-0.3,0.1-0.4,0.4c-0.1,0.3,0.2,0.2,0.3,0.2
		c0.3,0.1,0.6,0.1,0.9,0.2c2.6,0.6,3.5,2.4,3.1,4.8c-0.4,2.9-1.3,5.6-2,8.4c-0.2,1-0.3,1-1.3,1c-2.9,0-5.8,0-8.8,0
		c2.7-9.3,5.3-18.5,8-27.7c0,0-0.1-0.1-0.1-0.1C65,131.9,64.2,132.6,63.4,133.2z"/>
	<path id="XMLID_70_" class="st3" d="M39,124.1c-8.1,7.5-16.2,15-24.4,22.5c0,0-0.1,0-0.1-0.1c0.8-2.8,1.6-5.7,2.5-8.5
		c1.3-4.5,2.6-8.9,3.9-13.4c0.2-0.5,0.4-0.7,0.9-0.7c5.5,0,11,0,16.5,0C38.5,124,38.7,123.9,39,124.1z"/>
	<path id="XMLID_69_" class="st2" d="M130,131c-0.2-0.3-0.4-0.2-0.7-0.3c-1.5,0-2.9,0-4.4,0c1-0.2,1.9-0.1,2.9-0.1
		c2.2,0,4.3-0.1,6.5,0.4c2.5,0.5,3.9,2.6,3.5,5.1c-0.2,1.1-0.4,2.2-0.7,3.2c-0.1,0.4-0.3,0.6-0.8,0.6c-2.7,0-5.4,0-8.1,0
		c-0.6,0-0.6-0.2-0.5-0.7c0.7-2.6,1.5-5.2,2.2-7.8C129.9,131.3,130,131.2,130,131z"/>
	<path id="XMLID_68_" class="st2" d="M175.2,131.5c-0.1-0.3,0.1-0.5,0.2-0.8c-1,0-1.9,0-2.8,0c1-0.2,2.1-0.1,3.1-0.1
		c1.3,0,2.7,0.1,4,0.4c2.7,0.6,3.8,1.9,3.7,4.6c0,1.2-0.3,2.4-0.6,3.6c-0.1,0.3-0.2,0.4-0.5,0.4c-2.8,0-5.7,0-8.5,0
		c0.8-2.9,1.7-5.7,2.5-8.7C175.8,131.1,175.5,131.3,175.2,131.5z"/>
	<path id="XMLID_67_" class="st4" d="M218.6,130.9c0.2,0.3,0,0.5,0,0.8c-1.9,6.8-3.9,13.5-5.8,20.3c0,0.2-0.1,0.3-0.1,0.5
		c-0.5,1.5-1.1,1.9-2.7,1.7c-0.8-0.1-1.1-0.5-1-1.3c0.1-0.7,0.3-1.4,0.5-2c1.4-4.9,2.8-9.8,4.2-14.7c0.2-0.7,0.5-1.3,1-1.8
		C215.8,133,217.3,132,218.6,130.9z"/>
	<path id="XMLID_66_" class="st4" d="M104.6,131.5c-0.3,1.2-0.7,2.3-1,3.5c-1.6,5.6-3.2,11.2-4.9,16.9c-0.5,1.6-1.2,2.1-2.8,2.1
		c-1.4,0-1.4,0-1-1.3c1.5-5.3,3.1-10.7,4.6-16c0.4-1.5,1.3-2.5,2.5-3.4c0.8-0.6,1.6-1.2,2.4-1.8
		C104.5,131.4,104.6,131.4,104.6,131.5z"/>
</g>
</svg>
