<?xml version="1.0" encoding="utf-8"?>
<!-- Generator: Adobe Illustrator 19.0.0, SVG Export Plug-In . SVG Version: 6.00 Build 0)  -->
<svg version="1.1" id="Ebene_1" xmlns="http://www.w3.org/2000/svg" xmlns:xlink="http://www.w3.org/1999/xlink" x="0px" y="0px"
	 viewBox="0 0 283.5 283.5" style="enable-background:new 0 0 283.5 283.5;" xml:space="preserve">
<style type="text/css">
	.st0{fill:#FFFFFF;stroke:#000000;stroke-miterlimit:10;}
	.st1{fill:#F7A418;}
	.st2{fill:#F7A419;}
	.st3{fill:#F7A41A;}
	.st4{fill:#FFFFFF;}
</style>
<circle id="XMLID_1_" class="st0" cx="141.7" cy="141.7" r="141.7"/>
<g id="XMLID_3_">
	<path id="XMLID_71_" class="st1" d="M60.9,154.3c0.3,1.3-0.1,2.3-1,3.2c-2.8,2.8-6.2,4.5-10,5.1c-5.7,1-11.1,0.4-16-2.7
		c-6.6-4.1-9.7-10.3-9.5-18.1c0.3-9.8,7.6-18,17.3-19.6c3.7-0.6,7.3-0.3,10.8,0.7c0.2,0,0.3,0.1,0.5,0.1c0.1,0,0.1,0,0.2,0
		c0-0.9,0-1.8,0-2.7c1.3,1.2,2.5,2.4,3.6,3.6c1.1,1.1,2.1,2.3,3.2,3.3c0.9,0.8,0.9,1.8,0.8,3c-1.3-1.2-2.7-2.1-4.2-2.7
		c-5.8-2.4-11.4-2.2-16.6,1.5c-3.7,2.6-5.5,6.4-6.1,10.8c-0.6,4.2,0,8.3,2.3,12c2.5,4.1,6.2,6.3,10.9,6.9c5.2,0.7,9.8-0.7,13.7-4.4
		C60.7,154.3,60.8,154.3,60.9,154.3z"/>
	<path id="XMLID_70_" class="st1" d="M71.8,134.6c2.1-3.3,5.1-3.8,7.7-3.1c2.5,0.7,4,2.9,4.1,5.9c0.1,4.3,0.1,8.6,0,12.9
		c0,0.9,0.2,1.1,1.1,1c0.1,0,0.2,0,0.2,0c1.3,0,1.3,0,1.4,1.3c0,0.6-0.2,0.8-0.8,0.8c-2.7,0-5.3,0-8,0c-0.7,0-0.8-0.2-0.8-0.8
		c0-4.6,0-9.3,0-13.9c0-0.7,0-1.4-0.3-2.1c-0.3-0.9-1-1.5-2-1.5c-0.9,0-1.6,0.5-2,1.4c-0.3,0.6-0.3,1.2-0.3,1.8c0,4.1,0,8.1,0,12.2
		c0,0.7,0.2,0.9,0.8,0.8c0.4,0,0.9-0.2,1.1,0.2c0.2,0.5,0.1,1.1,0.1,1.7c0,0.3-0.3,0.2-0.5,0.2c-3.3,0-6.7,0-10,0
		c-0.4,0-0.5-0.2-0.5-0.5c0-0.1,0-0.2,0-0.3c0-1.4-0.2-1.3,1.2-1.2c0.7,0,0.8-0.2,0.8-0.8c0-5.3,0-10.7,0-16c0-0.6-0.2-0.9-0.8-0.8
		c-0.2,0-0.4,0-0.7,0c-0.5,0.1-0.6-0.1-0.6-0.6c0-1.8-0.2-1.4,1.4-1.4c2.1,0,4.3,0,6.4,0c0.7,0,0.9,0.2,0.8,0.8
		C71.7,133.2,71.8,133.9,71.8,134.6z"/>
	<path id="XMLID_69_" class="st1" d="M121.2,134.7c1.1-1.6,2.4-2.8,4.2-3.3c4.2-1,7.5,1.6,7.6,6.1c0.1,4,0,8,0.1,12
		c0,0.2,0,0.4,0,0.7c0,1.3-0.2,1.1,1.1,1.2c0,0,0.1,0,0.1,0c1.4,0,1.7,0.3,1.4,1.8c-0.1,0.3-0.2,0.3-0.5,0.3c-2.9,0-5.7,0-8.6,0
		c-0.5,0-0.5-0.3-0.5-0.6c0-1.6,0-3.1,0-4.7c0-3.1,0-6.3,0-9.4c0-0.8,0-1.5-0.4-2.3c-0.4-0.8-1-1.3-1.9-1.3c-0.9,0-1.6,0.4-2,1.3
		c-0.4,0.8-0.4,1.6-0.4,2.5c0,3.9,0,7.8,0,11.7c0,0.6,0.2,0.8,0.8,0.8c0.4,0,1-0.2,1.1,0.2c0.2,0.5,0.1,1.1,0.1,1.7
		c0,0.3-0.3,0.2-0.5,0.2c-3.3,0-6.6,0-9.9,0c-0.4,0-0.6-0.1-0.5-0.5c0-0.1,0-0.2,0-0.3c0-1.4-0.2-1.3,1.2-1.2c0.6,0,0.8-0.2,0.8-0.8
		c0-5.3,0-10.6,0-15.9c0-0.7-0.2-0.9-0.9-0.9c-0.4,0-1,0.3-1.1-0.2c-0.2-0.5-0.1-1.1,0-1.6c0-0.2,0.3-0.2,0.5-0.2c2.5,0,5.1,0,7.6,0
		c0.4,0,0.5,0.2,0.5,0.6C121.2,133,121.2,133.9,121.2,134.7z"/>
	<path id="XMLID_68_" class="st1" d="M165.1,134.7c0.9-1.4,2-2.5,3.5-3.1c3.5-1.3,7.6,0.3,8.2,4.9c0.3,2.4,0.1,4.8,0.2,7.2
		c0,2.2,0,4.5,0,6.7c0,0.7,0.2,0.9,0.8,0.8c0.2,0,0.5,0,0.7,0c1.2,0,1-0.1,1.1,1.1c0.1,0.9-0.2,1.1-1.1,1.1c-2.5-0.1-5-0.1-7.5,0
		c-0.9,0-1-0.3-1-1.1c0-4.6,0-9.3,0-13.9c0-0.7-0.1-1.4-0.4-2.1c-0.4-0.8-0.9-1.3-1.8-1.3c-0.9,0-1.6,0.4-2,1.2
		c-0.3,0.7-0.4,1.5-0.4,2.2c0,4,0,7.9,0,11.9c0,0.8,0.2,1,0.9,0.9c0.3,0,0.9-0.3,1,0.2c0.1,0.5,0.1,1.1,0,1.7c0,0.2-0.3,0.2-0.5,0.2
		c-3.3,0-6.5,0-9.8,0c-0.4,0-0.6-0.1-0.5-0.5c0-0.1,0-0.3,0-0.4c0-1.3-0.2-1.2,1.2-1.2c0.7,0,0.8-0.2,0.8-0.8c0-5.3,0-10.6,0-15.9
		c0-0.7-0.2-0.9-0.9-0.9c-0.4,0-0.9,0.2-1.1-0.1c-0.2-0.5-0.1-1.1-0.1-1.6c0-0.3,0.3-0.3,0.5-0.3c2.5,0,5,0,7.5,0
		c0.5,0,0.5,0.2,0.5,0.6C165.1,133,165.1,133.9,165.1,134.7z"/>
	<path id="XMLID_67_" class="st1" d="M39.5,141.9c0.1-3.2,1.2-6.6,4.2-9.1c4.9-4,15.5-3.3,17.4,6.8c0.7,3.8,0.2,7.5-2.2,10.7
		c-2.3,3-5.5,4.2-9.2,4C43.2,154.1,39.4,148.8,39.5,141.9z"/>
	<path id="XMLID_66_" class="st1" d="M204.2,150.7c-1.3,1.7-2.7,2.7-4.7,3c-3.3,0.4-5.8-1.4-6.6-4.7c-1.1-4.9,1.9-8.7,7-9
		c1.1-0.1,2.2,0,3.3,0.2c0.5,0.1,0.6,0.1,0.6-0.5c0.1-2.5-0.8-4.1-2.8-4.6c-1.4-0.3-2.8-0.1-4.1,0.6c-0.7,0.4-1.3,0.8-1.8,1.4
		c-0.3,0.3-0.4,0.3-0.7,0c-1.1-1.4-1.1-0.9-0.1-2.2c2.9-3.4,6.5-4.5,10.8-3.5c3.3,0.8,5.4,3.6,5.4,7.1c0,3.9,0,7.8,0,11.7
		c0,0.7,0.1,1.1,0.9,0.9c0,0,0.1,0,0.1,0c1.2,0,1.6,0.6,1.3,1.8c-0.1,0.3-0.3,0.3-0.5,0.3c-2.6,0-5.2,0-7.8,0
		c-0.4,0-0.5-0.2-0.5-0.5C204.2,152.2,204.2,151.6,204.2,150.7z"/>
	<path id="XMLID_65_" class="st1" d="M149.2,143.5c-1.7,0-3.4,0-5.1,0c-0.6,0-0.7,0.2-0.6,0.7c0.3,2.2,1,4.2,3.3,5
		c2.2,0.8,4.3,0.4,6.2-1.2c0.2-0.2,0.4-0.7,0.8-0.2c0.3,0.4,1,0.6,0.5,1.4c-2,3.4-5.1,4.7-9,4.5c-5.6-0.3-8.5-4.3-9.1-9.5
		c-0.3-2.8,0-5.5,1.3-8c1.7-3.3,4.5-4.9,8.2-5c2-0.1,3.8,0.2,5.5,1.3c2.1,1.3,3.1,3.4,3.6,5.7c0.3,1.5,0.4,3,0.3,4.6
		c0,0.5-0.2,0.7-0.7,0.6C152.7,143.4,150.9,143.5,149.2,143.5z"/>
	<path id="XMLID_64_" class="st1" d="M215.4,139.5c0-4.3,0-8.6,0-12.9c0-0.9-0.3-1.1-1.1-1c-0.1,0-0.2,0-0.3,0
		c-0.8,0.1-1.1-0.1-1.1-1c0-0.8,0.2-1.1,1.1-1c2.5,0.1,4.9,0.1,7.4,0c0.8,0,0.9,0.2,0.9,0.9c0,8.6,0,17.2,0,25.8
		c0,0.8,0.2,1.1,0.9,0.9c0.1,0,0.2,0,0.2,0c1.6,0,1.5,0,1.5,1.6c0,0.5-0.2,0.5-0.6,0.5c-2.8,0-5.6,0-8.4,0c-0.7,0-0.6-0.4-0.6-0.8
		C215.4,148.2,215.4,143.8,215.4,139.5z"/>
	<path id="XMLID_63_" class="st1" d="M240.9,125.9c-0.9,0.2-1.7,0.3-2.4,0.5c-0.6,0.1-1.1,0.1-1.3-0.5c-0.2-0.5-0.4-1.1,0.3-1.6
		c1.1-0.7,2.2-1.5,3.3-2.2c0.5-0.3,0.8-0.6,0.6-1.2c-0.1-0.5,0.1-0.6,0.5-0.4c1.4,0.7,3.1,3.5,3,5c-0.1,1.5-0.3,3-0.8,4.4
		c-0.1,0.3-0.1,0.6,0.1,0.8c1,1.4,2,2.7,3.2,3.9c0.7,0.7,1.6,1,2.4,1.5c1.5,1,2.1,2.4,1.7,4c-0.2,0.7-0.5,1.4-0.9,2
		c-0.3,0.4-0.4,0.7-0.2,1.1c1.1,2,0.6,3.6-1.1,5c-0.8,0.7-1.7,1.5-1.7,2.7c0,0.3-0.2,0.4-0.5,0.4c-0.5,0-1,0-1.5,0
		c-0.8,0-0.9-0.2-0.6-1c0.2-0.4,0.5-0.8,0.9-1.1c1-0.8,1.7-2,2.5-2.9c0.3-0.3,0-0.5-0.1-0.7c-0.9-0.9-1.7-1.9-2.7-2.7
		c-0.7-0.6-1.1-1.4-1.2-2.2c-0.1-0.9-0.5-1.4-1.3-1.8c-0.6-0.3-1.1-0.7-1.7-1.1c-1.5-0.9-2.5-2.2-3.4-3.6c-0.8-1.3-2.2-1.8-3.3-2.6
		c-0.3-0.2-1.2,0.6-1.3,1c-0.1,0.9-0.2,1.8,0.3,2.6c0.4,0.7-0.4,1-0.6,1.5c-0.1,0.2-0.2,0.6-0.5,0.6c-0.3,0-0.4-0.4-0.5-0.7
		c-0.4-1-0.2-2.1-0.2-3.1c-0.1-1.4,0.4-2.4,1.4-3.3c0.7-0.7,1.3-1,2.3-0.6c0.5,0.2,1.1,0.6,1.5,0.4c0.8-0.4,1.6-0.9,2.1-1.6
		C239.8,127.7,240.3,126.9,240.9,125.9z"/>
	<path id="XMLID_62_" class="st1" d="M188.8,142c0,2.5,0,5,0,7.5c0,1.2,0.6,1.8,1.8,1.5c0.7-0.1,0.8,0,0.8,0.7c0,1.4,0,1.4-1.3,1.7
		c-1.4,0.3-2.8,0.4-4.2,0.2c-2.6-0.4-4.1-2-4.1-4.7c0-3.3,0-6.7,0-10c0-1.5,0-3,0-4.5c0-0.5-0.1-0.8-0.7-0.7c-0.2,0-0.4,0-0.6,0
		c-0.3-0.1-0.9,0.3-1-0.2c-0.1-0.6-0.3-1.2,0.4-1.7c2.4-1.9,4.7-3.7,7.1-5.7c0.5-0.4,0.9-0.3,1.4-0.3c0.4,0,0.3,0.4,0.3,0.6
		c0,1.5,0,3,0,4.5c0,0.6,0.2,0.8,0.8,0.8c0.4,0,0.8,0,1.2,0c1.3,0,1.6,0.5,1.3,1.7c-0.1,0.3-0.3,0.3-0.5,0.3c-0.7,0-1.4,0-2.1,0
		c-0.6,0-0.7,0.2-0.7,0.7C188.8,136.9,188.8,139.4,188.8,142z"/>
	<path id="XMLID_61_" class="st1" d="M98,150.9C98,150.9,98,150.9,98,150.9c0.1,2.3,0.5,2-1.7,2.5c-1.2,0.3-2.5,0.3-3.8,0.1
		c-2.5-0.4-4-2-4-4.5c-0.1-4.8,0-9.6,0-14.4c0-1.2,0.1-1-1.1-1c-0.1,0-0.2,0-0.2,0c-0.3-0.1-0.9,0.3-1-0.3c-0.1-0.5-0.2-1.1,0.4-1.6
		c2.4-1.9,4.8-3.8,7.2-5.8c0.5-0.4,0.9-0.2,1.4-0.2c0.4,0,0.2,0.4,0.2,0.6c0,1.5,0,3,0,4.5c0,0.6,0.2,0.8,0.7,0.7c0.3,0,0.6,0,0.9,0
		c0.9-0.1,1,0.2,1,1c0,0.9-0.3,1.1-1.1,1.1c-1.6-0.1-1.6,0-1.6,1.6c0,4.6,0,9.2,0,13.8c0,1.8,0.5,2.2,2.2,1.9
		C97.8,150.9,97.9,150.9,98,150.9z"/>
	<path id="XMLID_60_" class="st1" d="M108.9,141.5c0,3,0,5.9,0,8.9c0,0.7,0.2,0.9,0.9,0.9c0.4,0,1-0.3,1.1,0.2
		c0.2,0.5,0.1,1.1,0,1.7c0,0.2-0.3,0.2-0.5,0.2c-3.3,0-6.6,0-9.9,0c-0.3,0-0.5-0.1-0.5-0.5c0-0.1,0-0.3,0-0.4c0-1.2,0-1.3,1.2-1.2
		c0.7,0,0.8-0.2,0.8-0.8c0-5.3,0-10.7,0-16c0-0.7-0.2-0.8-0.8-0.8c-0.4,0-1,0.2-1.1-0.1c-0.2-0.5-0.1-1.1-0.1-1.7
		c0-0.3,0.3-0.2,0.5-0.2c2.6,0,5.2,0,7.8,0c0.6,0,0.6,0.3,0.6,0.7C108.9,135.4,108.9,138.5,108.9,141.5z"/>
	<path id="XMLID_59_" class="st1" d="M105.6,129.1c-1,0-1.9-0.2-2.7-0.6c-1-0.6-1.6-1.4-1.6-2.6c0-1.1,0.6-2,1.6-2.5
		c1.8-0.9,3.6-0.9,5.4,0c1,0.5,1.5,1.4,1.5,2.6c0,1.2-0.6,2-1.6,2.6C107.3,129,106.4,129.1,105.6,129.1z"/>
	<path id="XMLID_58_" class="st1" d="M243.2,152.3c5.1,0,10.1,0,15.2,0c0.5,0,0.9,0,0.8,0.7c0,0.3-0.1,0.4-0.4,0.4
		c-0.2,0-0.3,0-0.5,0c-10,0-20.1,0-30.1,0c-0.3,0-0.8,0.3-0.8-0.3c-0.1-0.6,0.3-0.7,0.8-0.7C233.1,152.3,238.1,152.3,243.2,152.3z"
		/>
	<path id="XMLID_57_" class="st2" d="M252,137.5c1.3,0.7,2.6,1.3,2.9,3c0.4,2.1,0.7,4.3,0.8,6.5c-0.9-0.4-1.7-0.8-2.4-1.4
		c-0.2-0.2-0.2-0.4-0.3-0.7c-0.1-1-0.2-2-0.2-3C252.7,140.4,252.7,138.9,252,137.5z"/>
	<path id="XMLID_56_" class="st2" d="M242.5,149.6c-0.4-0.1-1,0.2-1.1-0.1c-0.2-0.4,0.3-0.9,0.6-1.2c1.4-1.2,2.7-2.4,4-3.7
		c0.2-0.2,0.3-0.1,0.5,0c1.1,0.8,1.1,1,0.1,1.9c-0.6,0.6-1.3,1.1-1.9,1.6c-0.2,0.2-0.4,0.3-0.5,0.5
		C243.8,149.5,243.3,149.7,242.5,149.6z"/>
	<path id="XMLID_55_" class="st3" d="M233.5,129c-0.9,1.4-2.2,2-3.1,3c-0.1,0.1-2.1-0.2-2.2-0.4c-0.1-0.2,0-0.3,0.2-0.4
		c0.4-0.5,1-0.9,1.6-1.2C231,129.6,232.2,129.3,233.5,129z"/>
	<path id="XMLID_54_" class="st4" d="M53.2,142.4c0,2.4,0.1,4.8-0.5,7.1c-0.1,0.5-0.3,1-0.6,1.4c-0.9,1.3-2.5,1.3-3.4,0
		c-0.7-1.1-0.8-2.3-0.9-3.5c-0.3-3.7-0.3-7.3,0.1-11c0.1-0.8,0.3-1.6,0.7-2.4c0.8-1.5,2.7-1.6,3.6-0.1c0.6,0.9,0.7,2,0.8,3.1
		c0.1,0.6,0.1,1.1,0.2,1.7C53.2,140,53.2,141.2,53.2,142.4z"/>
	<path id="XMLID_53_" class="st4" d="M203.9,146c0,0.9,0,1.9,0,2.8c0,0.5-0.2,0.7-0.6,0.9c-1.2,0.5-2.5,0-2.9-1.2
		c-0.6-1.6-0.5-3.2,0-4.8c0.3-0.9,1-1.4,1.9-1.5c1.2-0.1,1.6,0.3,1.6,1.5C203.9,144.4,203.9,145.2,203.9,146z"/>
	<path id="XMLID_52_" class="st4" d="M145.8,141.3c-0.6,0-1.3,0-1.9,0c-0.3,0-0.5,0-0.5-0.4c0-1.9,0-3.9,0.5-5.8
		c0.2-0.7,0.6-1.4,1.4-1.6c1-0.2,1.8,0.2,2.2,1.2c0.5,1.4,0.5,2.8,0.6,4.3c0,0.7,0.3,1.6-0.1,2.1c-0.4,0.5-1.3,0.1-2.1,0.1
		C146,141.3,145.9,141.3,145.8,141.3z"/>
</g>
</svg>
