<?xml version="1.0" encoding="utf-8"?>
<!-- Generator: Adobe Illustrator 19.0.0, SVG Export Plug-In . SVG Version: 6.00 Build 0)  -->
<svg version="1.1" id="Ebene_1" xmlns="http://www.w3.org/2000/svg" xmlns:xlink="http://www.w3.org/1999/xlink" x="0px" y="0px"
	 viewBox="0 0 283.5 283.5" style="enable-background:new 0 0 283.5 283.5;" xml:space="preserve">
<style type="text/css">
	.st0{fill:#FFFFFF;stroke:#000000;stroke-miterlimit:10;}
	.st1{fill:#DA151C;}
	.st2{fill:#D6565C;}
	.st3{fill:#E52523;}
	.st4{fill:#010203;}
	.st5{fill:#E42423;}
	.st6{fill:#DB2022;}
	.st7{fill:#A82A2E;}
	.st8{fill:#DD2424;}
	.st9{fill:#FFFFFF;}
	.st10{fill:#E42222;}
	.st11{fill:#E3141B;}
	.st12{fill:#E3161B;}
	.st13{fill:#E3151A;}
	.st14{fill:#020203;}
	.st15{fill:#FEFEFE;}
</style>
<circle id="XMLID_1_" class="st0" cx="141.7" cy="141.7" r="141.7"/>
<g id="XMLID_2_">
	<path id="XMLID_117_" class="st1" d="M28.7,141.3c0.4-0.1,0.2-0.5,0.3-0.7c0.9,0.8,0.7,1.7,0.1,2.5c-0.7-0.1-0.1-0.8-0.4-1
		C28.7,141.8,28.7,141.5,28.7,141.3z"/>
	<path id="XMLID_116_" class="st1" d="M29.1,145.5c-0.2-0.3,0.2-0.8-0.3-1c0-0.3,0-0.5,0-0.8c0.2-0.1,0-0.6,0.5-0.5
		C29.7,144.1,29.9,144.8,29.1,145.5z"/>
	<path id="XMLID_114_" class="st2" d="M29,143.3c0,0.2,0,0.4-0.3,0.5c0-0.6,0-1.2,0-1.8c0.4,0.2,0.2,0.7,0.3,1
		C29.1,143.1,29.1,143.1,29,143.3C29.1,143.3,29,143.3,29,143.3z"/>
	<path id="XMLID_113_" class="st3" d="M29,143.3c0-0.1,0-0.2,0-0.3c0.4-0.8,0.4-1.7,0-2.5c0.9-5.6,4.5-8.9,9.4-11.2
		c1.6-0.7,3.3-1.1,5-1.7c-2.1-2.4-4.2-4.6-6.2-6.9c-0.1-0.4-0.4-0.7-0.7-1c-0.3-0.3-0.6-0.7-0.3-1.2c0.3-0.5,0.8-0.4,1.2-0.2
		c0.3,0.1,0.5,0.3,0.8,0.3c9.8,5.4,19.3,11.2,29,16.8c4,2.3,8,4.7,11.9,7.1c0.7,0.4,0.7,0.8,0,1.2c-6.9,3.9-13.6,8.1-20.5,12
		c-3.7,2.1-7.4,4.3-11.1,6.6c-4.4,2.6-8.8,5.2-13.3,7.8c-0.6,0.2-0.8,0-0.7-0.7c3.2-3.6,6.4-7.2,9.7-10.8c-0.8-0.2-1.4-0.5-2.1-0.7
		c-0.4-0.1-0.8-0.5-1.3-0.3c-0.1,0-0.2-0.1-0.3-0.1c-0.3-0.3-0.6-0.4-1-0.4c-5.3-2.1-8.8-5.8-9.8-11.6C29.3,144.8,29.4,144,29,143.3
		z"/>
	<path id="XMLID_112_" class="st4" d="M79.3,152.6c0.3-1.4,1-2.5,1.6-3.7c0.3-0.6,1-0.3,1.5-0.3c1.6,0.3,2.3-0.4,2.9-1.9
		c1.2-3.1,2.7-6.1,4.1-9.2c-1.2,0-2.2,0-3.4,0c0.5-1.2,1-2.2,1.5-3.3c0.2-0.5,0.5-0.5,0.9-0.5c7,0,13.9,0,20.9,0
		c0.8,0,1.7,0.2,2.4,0.5c2.1,0.7,3.3,2.2,2.9,4.4c-0.8,4.6-2.7,8.8-6.4,12c-1.5,1.3-3.4,1.9-5.3,2C95.1,152.6,87.3,152.6,79.3,152.6
		z"/>
	<path id="XMLID_111_" class="st4" d="M217.4,152.6c-3-0.1-6,0.2-8.9-0.7c-2.8-0.9-3.7-2.2-3-4.9c0.9-3.4,2.3-6.7,4.5-9.5
		c1.7-2.3,4.3-3.1,7-3.5c4.7-0.6,9.4-0.5,14.2-0.2c1.2,0.1,2.5,0.3,3.7,0.8c1.3,0.6,2.1,1.6,1.8,3c-1,5-2.6,9.7-7,12.7
		c-2.4,1.6-5.2,2.1-8,2.3C220.2,152.7,218.8,152.6,217.4,152.6z"/>
	<path id="XMLID_110_" class="st4" d="M142.7,152.6c0.5-1.3,1.1-2.4,1.6-3.6c0.3-0.6,0.8-0.4,1.2-0.4c2.5,0,2.4,0,3.4-2.3
		c1.1-2.7,2.3-5.4,3.5-8.1c0.1-0.2,0.2-0.4,0.1-0.6c-1,0-2,0-3.1,0c0.5-1.2,1-2.3,1.5-3.4c0.2-0.4,0.5-0.4,0.9-0.4
		c3.3,0,6.6,0,9.8,0c0.7,0,0.9,0.3,1.2,0.8c1.7,3.2,3.4,6.5,5.1,9.7c0.1,0.2,0.2,0.4,0.4,0.4c1-2.3,2.1-4.7,3.1-7.1
		c-1.1,0-2.1,0-3.4,0c0.6-1.3,1.1-2.3,1.6-3.5c0.2-0.4,0.4-0.4,0.7-0.4c3.5,0,7,0,10.6,0c-0.5,1.2-1,2.2-1.4,3.3
		c-0.2,0.6-0.7,0.5-1,0.4c-2-0.4-2.7,0.6-3.4,2.3c-1.7,4.1-3.5,8.1-5.2,12.1c-0.2,0.6-0.5,0.7-1.1,0.7c-2.1,0-4.2,0-6.3,0
		c-0.7,0-1.1-0.2-1.4-0.9c-1.7-3.4-3.5-6.7-5.4-10.2c-1.1,2.4-2.1,4.7-3.2,7.1c1.1,0,2.2,0,3.3,0c-0.6,1.2-1.1,2.4-1.6,3.5
		c-0.2,0.4-0.4,0.5-0.9,0.5C149.9,152.6,146.3,152.6,142.7,152.6z"/>
	<path id="XMLID_109_" class="st4" d="M243.2,137.7c-1.2,0-2.2,0-3.3,0c0.6-1.3,1.1-2.5,1.6-3.7c0.2-0.5,0.5-0.3,0.8-0.3
		c7.7,0,15.4,0,23.1,0c0.4,0,0.8,0,1.1,0.1c2.5,0.5,3,1.5,2,3.8c-0.3,0.7-0.5,1.3-0.8,2c-1.4,4.2-4.5,5.7-8.6,5.6
		c-2.7,0-5.5,0-8.2,0c-0.8,0-1.2,0.1-1.4,0.9c-0.2,0.8-0.6,1.5-1,2.4c0.7,0,1.2,0,1.8,0c0.8-0.1,1.1,0,0.7,1c-1.3,3-1.2,3-4.5,3
		c-4,0-8.1,0-12.1,0c-0.9,0-1-0.3-0.6-1c0.1-0.2,0.2-0.4,0.3-0.6c0.4-1.9,1.5-2.9,3.6-2.5c0.4,0.1,0.7,0,0.9-0.4
		C240.1,144.7,241.6,141.3,243.2,137.7z"/>
	<path id="XMLID_108_" class="st4" d="M120.3,137.5c-1,0-2.1,0-3.3,0c0.5-1.2,1-2.3,1.4-3.4c0.2-0.5,0.6-0.4,0.9-0.4
		c5.3,0,10.7,0,16.1,0c-0.3,1.3-1,2.3-1.4,3.4c-0.2,0.4-0.6,0.4-1,0.3c-2.1-0.5-3.1,0.6-3.7,2.5c-0.7,2-1.7,4-2.5,6
		c-0.5,1.2-0.3,1.8,1,2.4c2.3,1.1,5.4,0.3,6.6-1.9c1.6-2.8,2.6-5.9,4-8.9c-1.1,0-2,0-3,0c0.2-1.3,1-2.4,1.5-3.5
		c0.1-0.3,0.5-0.3,0.8-0.3c3.4,0,6.9,0,10.5,0c-0.5,1.2-1.1,2.2-1.5,3.3c-0.2,0.6-0.7,0.5-1,0.4c-1.9-0.4-2.7,0.6-3.4,2.3
		c-1.2,2.9-2.3,5.8-3.9,8.5c-1.6,2.7-4.1,3.8-7,4.1c-3.7,0.3-7.4,0.5-11,0c-0.6-0.1-1.2-0.2-1.7-0.4c-2.2-0.7-2.9-2.1-2.2-4.3
		c0.9-3.1,2.5-5.9,3.7-8.9C120.1,138.4,120.4,138.1,120.3,137.5z"/>
	<path id="XMLID_107_" class="st4" d="M200.6,133.7c-0.5,1.2-0.9,2.3-1.4,3.4c-0.3,0.6-0.9,0.4-1.3,0.3c-1.5-0.2-2.2,0.4-2.7,1.8
		c-1.2,3.1-2.6,6.1-4,9.3c1.7,0,3.2,0,4.7,0c0.4,0,0.6-0.3,0.8-0.5c1.1-1.2,2.2-2.3,3.2-3.5c0.7-0.9,1.5-1.5,2.8-1.2
		c0.6,0.1,1.2,0,2,0c-0.9,2.1-1.7,4-2.6,6c-0.5,1.1-0.7,2.6-1.6,3.2c-0.8,0.6-2.3,0.2-3.4,0.2c-6.5,0-13.1,0-19.6,0
		c-1.4,0-1.4,0-0.8-1.3c0-0.1,0.1-0.1,0.1-0.2c0.4-2.1,1.5-3,3.6-2.5c0.4,0.1,0.8,0.1,1-0.4c1.5-3.5,3-7,4.6-10.6
		c-1.2,0-2.2,0-3.4,0c0.5-1.2,1-2.3,1.4-3.4c0.2-0.4,0.4-0.4,0.8-0.4C189.9,133.7,195.2,133.7,200.6,133.7z"/>
	<path id="XMLID_106_" class="st5" d="M38.3,118.6c-0.6,0.6-1.4-0.7-1.8,0.1c-0.4,0.7,0.8,1,0.8,1.8c0,0.1,0,0.2,0,0.2
		c-1.5-1.6-3.1-3.3-4.6-4.9c-0.1-0.1-0.7-0.3-0.1-0.6C34.5,116.2,36.5,117.3,38.3,118.6z"/>
	<path id="XMLID_103_" class="st6" d="M33.7,169.4c0,0.4,0.3,0.6,0.7,0.7c-0.4,0.3-0.9,0.5-1.3,0.8c-0.3,0.1-0.4-0.1-0.3-0.3
		C33.1,170.1,33.4,169.8,33.7,169.4z"/>
	<path id="XMLID_99_" class="st7" d="M32.8,170.5c0.1,0.1,0.2,0.2,0.3,0.3c-0.3,0.2-0.6,0.3-0.9,0.5c0,0-0.1-0.1-0.1-0.1
		C32.3,170.9,32.5,170.7,32.8,170.5z"/>
	<path id="XMLID_98_" class="st8" d="M40.1,157.6c0.5-0.4,0.9,0,1.3,0.3C40.9,158,40.5,157.8,40.1,157.6z"/>
	<path id="XMLID_95_" class="st8" d="M38.8,157.1c0.5-0.3,0.7,0,1,0.4C39.5,157.3,39.2,157.2,38.8,157.1z"/>
	<path id="XMLID_94_" class="st9" d="M53.2,129.7c3.9,2.1,6.8,5.1,8,9.4c0.2,0.5,0.1,1.2,0.5,1.7c0.4,1.5,0.4,3,0,4.5
		c-0.6,2-1.1,4.1-2.4,5.8c-2.4,3.3-5.4,5.5-9.5,6.2c-0.2,0-0.5,0-0.7,0.2c-1.3,0.4-2.6,0.3-3.9,0c-1.7-0.5-3.4-1-5-1.8
		c-7.7-4-10-14.6-4.7-21.4c2.4-3.1,5.4-5,9.2-5.7c0.2,0,0.5-0.2,0.7-0.3c1.2-0.2,2.5-0.3,3.7,0c0.5,0.5,1.3,0.2,1.9,0.4
		C51.8,128.8,52.6,129,53.2,129.7z"/>
	<path id="XMLID_93_" class="st10" d="M53.2,129.7c-0.8-0.3-1.5-0.5-2.3-0.8c0.8-0.5,1.6-0.1,2.3,0.2
		C53.9,129.3,53.2,129.5,53.2,129.7z"/>
	<path id="XMLID_92_" class="st11" d="M61.7,145.3c0-1.5,0-3,0-4.5C62.2,142.3,62.2,143.8,61.7,145.3z"/>
	<path id="XMLID_91_" class="st12" d="M45.2,157.6c1.3,0,2.6,0,3.9,0c-1.3,0.7-2.7,0.3-4,0.2C45.1,157.8,45.1,157.7,45.2,157.6
		C45.2,157.7,45.2,157.6,45.2,157.6z"/>
	<path id="XMLID_90_" class="st13" d="M49.1,128.5c-1.2,0-2.5,0-3.7,0c1.2-0.6,2.5-0.3,3.8-0.2C49.2,128.3,49.2,128.3,49.1,128.5
		C49.1,128.4,49.1,128.4,49.1,128.5z"/>
	<path id="XMLID_89_" class="st9" d="M97.5,148.7c-2.6,0-2.6,0-1.7-2.1c1.2-2.8,2.5-5.5,3.7-8.3c0.1-0.2,0.1-0.3,0.2-0.5
		c0.2-0.3,3.5-0.3,3.9,0c0.8,0.6,0.9,1.4,0.6,2.4c-0.4,1.9-1.2,3.6-1.9,5.3C101.3,147.7,99.9,149.2,97.5,148.7z"/>
	<path id="XMLID_88_" class="st9" d="M218.7,148.8c-3.9,0.3-4-1.5-2.9-4.2c0.6-1.5,1.3-3,2-4.6c1.2-2.6,4.8-3.8,7.4-2.5
		c1,0.5,1.4,1.4,0.9,2.5c-0.9,2.1-1.8,4.3-2.7,6.4C222.5,148.6,220.7,149,218.7,148.8z"/>
	<path id="XMLID_87_" class="st9" d="M251.8,141.3c0.4-1.1,0.9-2.1,1.3-3c0.1-0.3,0.3-0.5,0.6-0.5c1.2,0,2.4,0,3.6,0
		c0.7,0,1,0.4,0.7,1.2c-0.6,2-1.1,2.3-3.1,2.3C253.9,141.3,252.9,141.3,251.8,141.3z"/>
	<path id="XMLID_84_" class="st14" d="M43.9,148.7c-2.6,0-5.3,0-7.9,0c-0.7,0-0.9-0.2-0.5-0.8c0.2-0.4,0.4-0.7,0.5-1.1
		c0.3-0.9,0.8-1.2,1.7-1c0.9,0.2,1.5-0.2,1.8-1.1c0.5-1.2,1.1-2.3,1.6-3.4c0.3-0.7,0.4-1.1-0.7-1.1c-1.4,0.1-1.4,0-0.8-1.4
		c0.4-1,0.9-1.4,2-1.4c4.4,0.1,8.7,0,13.1,0c2.6,0,4.7,1.5,5.2,3.7c0.6,2.3-0.7,5-2.9,6.1c-1.9,1-4,1.5-6.2,1.5
		C48.6,148.7,46.3,148.7,43.9,148.7z"/>
	<path id="XMLID_83_" class="st15" d="M49,145.7c-1.9,0-1.9,0-1.1-1.7c0.4-0.8,0.8-1.6,1.2-2.5c0.7-1.4,2.7-1.9,3.9-1
		c0.5,0.4,0.6,0.8,0.5,1.4C53.1,144.6,51.7,145.7,49,145.7z"/>
</g>
</svg>
