<?xml version="1.0" encoding="utf-8"?>
<!-- Generator: Adobe Illustrator 19.0.0, SVG Export Plug-In . SVG Version: 6.00 Build 0)  -->
<svg version="1.1" id="Ebene_1" xmlns="http://www.w3.org/2000/svg" xmlns:xlink="http://www.w3.org/1999/xlink" x="0px" y="0px"
	 viewBox="0 0 283.5 283.5" style="enable-background:new 0 0 283.5 283.5;" xml:space="preserve">
<style type="text/css">
	.st0{fill:#FFFFFF;stroke:#000000;stroke-miterlimit:10;}
	.st1{fill:#2464AE;}
	.st2{fill:#E5262A;}
	.st3{fill:#2564AE;}
	.st4{fill:#FDFDFD;}
	.st5{fill:#FFFFFF;}
	.st6{fill:#FEFEFE;}
</style>
<circle id="XMLID_1_" class="st0" cx="141.7" cy="141.7" r="141.7"/>
<g id="XMLID_2_">
	<path id="XMLID_124_" class="st1" d="M180.5,157.3c0.9-4.2,1.7-8.5,2.5-12.7c0.5-2.6,0.9-5.1,1.6-7.6c1.1-4.2,4-6.5,8.3-7
		c0.1,0,0.2,0,0.3-0.1c0.4-0.2,0.9,0,1.3-0.2c4.1,0,8.2,0,12.3,0c5.6,0,11.1,0,16.7,0c0.9,0,1.1,0.2,0.9,1.1
		c-0.4,1.9-0.8,3.7-1.2,5.6c-0.1,0.8-0.4,1.1-1.3,1.1c-7.6,0-15.2,0-22.8,0c-1.9,0-2.6,0.7-2.9,2.6c0.2,0.7,0.7,0.3,1,0.3
		c6.8,0,13.7,0,20.5,0c0.4,0,1.2-0.3,0.9,0.7c-0.4,1.6-0.8,3.2-1,4.8c-0.2,0.9-0.4,1.2-1.4,1.2c-6.9-0.1-13.7,0-20.6,0
		c-0.8,0-1.2,0.1-1.3,1.1c-0.3,1.9-0.4,1.9,1.6,1.9c9,0,18,0,27.1,0c-2,2.5-3.9,5-5.8,7.4c-0.3,0.2-0.7,0.1-1,0.1
		c-11.6,0-23.1,0-34.7,0C181.2,157.6,180.8,157.9,180.5,157.3z"/>
	<path id="XMLID_123_" class="st1" d="M84.1,157.5c0.2-2.2,0.9-4.3,1.3-6.4c1.1-5.5,2.2-11,3.4-16.5c0.1-0.3,0.2-0.5,0.1-0.7
		c-5.5,5.4-11,10.8-16.6,16.4c4.3,0,8.3,0,12.6,0c-1.2,1.7-2.5,3.1-3.3,4.8c-1.2,2.2-2.8,2.6-5.1,2.5c-8.4-0.1-16.7-0.1-25.1-0.1
		c-0.4,0-0.7,0-1.1,0c2.6-2.7,5.1-5.3,7.7-7.9c0.6-0.8,1.2-1.7,2.2-2c3.2-3.2,6.3-6.3,9.5-9.5c1.4-1.4,2.8-2.7,4.2-4.2
		c2.2-2.4,5.1-3.5,8.2-4c0.7-0.1,1.4-0.2,2.2-0.3c1.8-0.1,3.6,0,5.5-0.1c3.8,0,7.6,0,11.5,0c0.3,0,0.8-0.3,1,0.3
		c-0.9,4.2-1.8,8.5-2.7,12.7c-1,4.7-2,9.4-3,14.1c-0.1,0.3-0.1,0.5-0.1,0.8c-0.2,0.2-0.4,0.1-0.6,0.1c-3.6,0-7.2,0-10.9,0
		C84.5,157.6,84.2,157.6,84.1,157.5z"/>
	<path id="XMLID_122_" class="st1" d="M223.3,157.5c0.5-2.3,0.9-4.6,1.4-6.9c0.7-3.9,1.7-7.8,2.4-11.7c0.5-2.8,1.2-5.6,1.9-8.4
		c0.1-0.3-0.2-0.6,0.2-0.8c0.2-0.1,0.5-0.1,0.7-0.1c9.5,0,19,0,28.4,0c0.2,0,0.5,0,0.7,0.1c2,0.2,3.9,0.5,5.7,1.5
		c3.2,1.7,4.5,4.4,3.7,7.9c-1.2,5.8-2.4,11.6-3.6,17.3c-0.1,0.3,0,0.6,0,0.8c-0.1,0.4-0.5,0.4-0.8,0.4c-3.8,0-7.6,0-11.4,0
		c-0.2,0-0.3,0-0.4-0.2c0.7-3.4,1.5-6.8,2.2-10.2c0.5-2.3,1.1-4.5,1.5-6.8c0.3-1.4-0.4-2.8-2.4-2.8c-4.3-0.1-8.6,0-12.9,0
		c-0.3,0-0.5,0-0.6,0.4c-1.3,6.4-2.6,12.8-3.9,19.3c0,0.1,0,0.1,0,0.2c-0.1,0.2-0.4,0.2-0.6,0.2c-3.9,0-7.8,0-11.7,0
		C223.7,157.6,223.5,157.6,223.3,157.5z"/>
	<path id="XMLID_121_" class="st1" d="M137.2,157.1c0.4-2.2,0.9-4.4,1.3-6.7c-0.1-0.2,0.1-0.3,0.2-0.4c0.3-1.6,0.6-3.2,1-4.8
		c0.6-3.1,1.3-6.2,2-9.3c0.5-2.1,1-4.2,1.4-6.3c0.6-0.1,1.2-0.1,1.9,0c3.2,0,6.4,0.1,9.5,0.1c0.7,0,1,0.1,0.8,0.9
		c-0.9,3.7-1.7,7.5-2.6,11.3c0,0.1,0,0.3,0,0.5c1.5-0.9,2.8-2.1,4.1-3.1c3.4-2.6,6.8-5.3,10.2-8c0.7-0.6,1.4-1.2,2.2-1.7
		c1.7-0.1,3.3,0,5-0.1c3.8,0,7.7,0,11.5,0c0.3,0,0.8-0.3,0.9,0.3c-2,1.4-4,2.7-6,4.1c-4.5,3.2-9.1,6.4-13.6,9.6
		c-0.6,0.4-0.6,0.7,0,1.2c4,3.8,8,7.7,12,11.6c0.3,0.3,0.6,0.5,1.1,1c-0.6,0-0.9,0-1.2,0c-4.3,0-8.5,0-12.8,0c-0.6,0-1-0.2-1.4-0.6
		c-3.9-4-7.8-7.9-11.7-11.9c-0.2-0.2-0.4-0.6-0.7-0.5c-0.4,0.1-0.3,0.5-0.4,0.9c-0.7,3.7-1.5,7.4-2.2,11.2c-0.1,0.3,0,0.6-0.1,0.9
		c-0.2,0.3-0.5,0.2-0.8,0.2c-3.6,0-7.2,0-10.9,0C137.7,157.6,137.1,157.9,137.2,157.1z"/>
	<path id="XMLID_120_" class="st1" d="M138.7,150.1c-0.1,0.1-0.1,0.3-0.2,0.4c-0.7,0.1-0.8,0.8-1.1,1.2c-1.4,1.9-2.7,3.9-4.1,5.8
		c-0.2,0.2-0.5,0.1-0.7,0.1c-7.3,0-14.7,0-22,0c-0.2,0-0.3,0-0.5-0.1c-2.8,0-5.6-0.1-8.4,0c-1,0-1-0.3-0.8-1.1c0.6-2.3,1-4.7,1.5-7
		c0.5-2.5,1-5,1.5-7.5c0.7-3.6,1.6-7.2,2.2-10.8c0.1-0.4,0.1-0.9,0.4-1.2c0.2-0.2,0.5-0.1,0.8-0.1c3.6,0,7.2,0,10.8,0
		c0.3,0,0.7-0.2,0.9,0.3c-0.6,2.5-1.1,5.1-1.7,7.6c-0.8,3.8-1.6,7.6-2.4,11.3c-0.1,0.4,0,0.8-0.4,1.3
		C122.7,150.1,130.7,150.1,138.7,150.1z"/>
	<path id="XMLID_119_" class="st1" d="M72.6,129.9c-0.8,0.7-1.7,1.5-2.3,2.4c-0.1,0.5-0.4,0.8-0.9,0.9c-1.5,1.5-3.1,3-4.5,4.7
		c-4.9,0.1-9.7,0-14.6,0c-3,0-5.9,0-8.9,0c-0.3,0-0.7-0.1-1,0.1c-1.6,0-2.5,0.6-2.8,2.1c-0.2,0.9-0.3,1.8-0.5,2.7
		c-0.4,0.4-0.9,0.3-1.4,0.3c-3.2,0-6.4,0-9.6,0c-0.5,0-1,0.1-1.4-0.3c0.5-2.8,0.7-5.6,2.2-8.1c1.8-2.9,4.7-4.2,8-4.8
		c0.6-0.1,1.2-0.2,1.8-0.3c0.3-0.1,0.7-0.1,1-0.1c11.3,0,22.5,0,33.8,0C71.9,129.6,72.4,129.3,72.6,129.9z"/>
	<path id="XMLID_118_" class="st2" d="M24.7,142.8c4.1,0.1,8.2,0.1,12.3,0c4.2,0,8.4,0,12.5,0c3.8,0,7.5,0,11.3,0
		c0.1,0.4-0.1,0.5-0.3,0.6c-3.8,3.8-7.5,7.5-11.3,11.3c-0.5,0.5-0.8,0.5-1.3,0c-3-2.6-6.4-4.7-10-6.3c-0.7-0.3-1.3-0.6-2-0.9
		c-0.5,0.1-0.9-0.1-1.3-0.2c-3.1-1.2-6.4-2-9.7-2.5c-0.3,0-0.6,0-0.8-0.3c-1.1-0.1-2.1-0.3-3.2-0.4c-0.4-0.2-0.9,0-1.3-0.2
		c-0.5,0-1,0-1.6-0.1c-0.7-0.2-1.4,0-2-0.1c-0.2,0-0.6,0.2-0.7-0.2c-0.1-0.3-0.3-0.5-0.5-1C18.2,142.8,21.5,142.8,24.7,142.8z"/>
	<path id="XMLID_117_" class="st1" d="M24.2,144.6c2.9,0.2,5.7,1,8.5,1.8c1.1,0.3,2.2,0.8,3.4,1.2c-0.8,3.2-1.5,6.5-2.1,9.8
		c-0.1,0.3-0.4,0.2-0.6,0.2c-3.7,0-7.4,0-11.2,0c-0.2,0-0.5,0.1-0.6-0.2C22.5,153.1,23.4,148.9,24.2,144.6z"/>
	<path id="XMLID_116_" class="st1" d="M238.4,167.4c-0.6,1.1-0.8,2.2-1.1,3.4c-0.2,0.6-0.4,0.8-1.1,0.8c-2.3,0-2.2,0-1.6-2.1
		c1-3.2,2-6.4,3-9.6c0.2-0.7,0.6-1,1.4-1c2.5,0.1,5,0,7.5,0.1c1.3,0,2.7,0,3.3,1.6c0.1,0.3,0.1,0.7,0,1c-0.3,1-0.5,2-1.1,2.9
		c-0.6,1-1.5,1.5-2.8,1.7c1.7,0.8,1.9,1.2,1.5,2.6c-0.7,2.8-0.7,2.8-3.8,2.7c0.2-0.7,0.3-1.3,0.5-2c0.4-1.4,0.4-1.5-1-2.1
		C241.5,167.3,240,167.3,238.4,167.4z"/>
	<path id="XMLID_115_" class="st1" d="M260.5,169.9c-0.2,1.7-1.4,1.6-2.7,1.6c-2.5-0.1-4.9,0-7.4,0c-0.6,0-0.9,0-0.6-0.8
		c1.3-3.6,2.4-7.3,3.6-10.9c0.1-0.4,0.3-0.9,0.9-0.8c3.1,0,6.3,0,9.4,0c0,0.1,0.1,0.2,0.1,0.2c-0.5,1.8-0.5,1.8-2.4,1.8
		c-1.6,0-3.3,0-4.9,0c-0.6,0-0.8,0.2-0.9,0.7c-0.9,2.5-0.9,2.5,1.8,2.5c1.1,0,2.2,0,3.3,0c0.3,0,1-0.3,0.9,0.4c-0.1,0.5,0,1.4-1,1.4
		c-1.8,0-3.7,0-5.5,0c-0.7,0-1,0.2-1.2,0.9c-0.2,0.8-0.6,1.4-0.6,2.3c0.1,0.6,0.5,0.3,0.8,0.3c1.9,0,3.7,0,5.6,0
		C260.1,169.5,260.6,169.3,260.5,169.9z"/>
	<path id="XMLID_114_" class="st3" d="M218,171.6c1.1-3.3,2.2-6.5,3.4-9.6c0.2-0.6,0.1-0.8-0.5-0.8c-0.9,0-1.7,0-2.6,0
		c-0.2,0-0.6,0.1-0.7-0.3c-0.1-0.6,0.8-1.9,1.4-1.9c3.2,0,6.4,0,9.6,0c0.7,0,0.8,0.2,0.6,0.9c-0.2,1.1-0.7,1.5-1.8,1.4
		c-0.9-0.1-2.1-0.3-2.8,0.1c-0.7,0.4-0.7,1.6-1,2.5c-0.8,2.3-1.7,4.6-2.4,6.9c-0.2,0.7-0.5,1-1.3,0.9
		C219.2,171.5,218.7,171.6,218,171.6z"/>
	<path id="XMLID_113_" class="st1" d="M234.7,159c-1.2,4-2.5,7.9-3.7,11.9c0,0.2,0,0.3,0,0.5c-0.5,0.4-2.3,0.5-2.7,0.2
		c-0.1-0.1-0.1-0.2,0-0.4c1.3-4.1,2.5-8.1,3.8-12.2C232.9,158.7,233.8,158.8,234.7,159z"/>
	<path id="XMLID_112_" class="st4" d="M180.5,157.3c0.2,0.4,0.5,0.2,0.8,0.2c11.8,0,23.6,0,35.3,0c0.2,0,0.4,0,0.6-0.1
		c-0.3,0.4-0.7,0.2-1.1,0.2c-11.6,0-23.3,0-34.9,0C181.1,157.7,180.5,158.1,180.5,157.3z"/>
	<path id="XMLID_111_" class="st4" d="M72.6,129.9c-0.3-0.4-0.8-0.2-1.1-0.2c-11.3,0-22.6,0-33.9,0c-0.3,0-0.6,0-0.8,0
		c0.3-0.3,0.7-0.2,1.1-0.2c11.3,0,22.6,0,33.9,0C72.1,129.5,72.7,129.1,72.6,129.9z"/>
	<path id="XMLID_110_" class="st4" d="M259,129.7c-10,0-19.9,0-29.9,0c0.3-0.3,0.7-0.2,1.1-0.2c9.2,0,18.5,0,27.7,0
		C258.3,129.5,258.7,129.4,259,129.7z"/>
	<path id="XMLID_109_" class="st5" d="M40.4,138c0.4-0.2,0.8-0.1,1.2-0.1c7.8,0,15.5,0,23.3,0c-0.2,0.2-0.5,0.1-0.7,0.1
		C56.3,138,48.4,138,40.4,138z"/>
	<path id="XMLID_108_" class="st4" d="M218.8,141.1c0.1-0.5-0.1-0.7-0.6-0.6c-0.7,0-1.5,0-2.2,0c-6.3,0-12.6,0-18.9,0
		c-0.2,0-0.9,0.4-0.8-0.4c0.3,0.4,0.8,0.2,1.2,0.2c6.8,0,13.7,0,20.5,0C218.5,140.3,219.3,140.1,218.8,141.1z"/>
	<path id="XMLID_107_" class="st4" d="M110,157.5c7.3,0,14.6,0,21.9,0c0.4,0,0.9,0,1.3-0.1c-0.2,0.4-0.6,0.2-1,0.2
		c-7.1,0-14.3,0-21.4,0C110.6,157.7,110.3,157.8,110,157.5z"/>
	<path id="XMLID_106_" class="st4" d="M102,129.9c-0.3-0.4-0.8-0.2-1.2-0.2c-5.6,0-11.2,0-16.7,0c0.3-0.3,0.7-0.2,1-0.2
		c5.4,0,10.7,0,16.1,0C101.4,129.5,102,129.1,102,129.9z"/>
	<path id="XMLID_105_" class="st4" d="M186.5,129.9c-0.3-0.4-0.7-0.2-1-0.2c-5.4,0-10.9,0-16.3,0c0.2-0.2,0.5-0.2,0.8-0.2
		c5.3,0,10.7,0,16,0C186.1,129.5,186.7,129.2,186.5,129.9z"/>
	<path id="XMLID_104_" class="st4" d="M137.2,157.1c0,0.4,0.2,0.5,0.5,0.5c3.9,0,7.8,0,11.8,0c0.1,0,0.1,0,0.2-0.1
		c-0.1,0.3-0.4,0.3-0.7,0.3c-3.7,0-7.4,0-11.2,0C137.4,157.7,136.8,157.9,137.2,157.1z"/>
	<path id="XMLID_103_" class="st4" d="M119,129.9c-0.1-0.2-0.3-0.2-0.5-0.2c-4,0-8,0-12,0c0.2-0.4,0.6-0.2,0.9-0.2
		c3.6,0,7.2,0,10.8,0C118.5,129.5,119.1,129.1,119,129.9z"/>
	<path id="XMLID_102_" class="st4" d="M252.2,157.4c0.5,0.2,1,0.1,1.4,0.1c3.4,0,6.7,0,10.1,0c0.4,0,0.8,0.1,1.1-0.3
		c0,0.4-0.3,0.5-0.6,0.5c-3.8,0-7.6,0-11.4,0C252.5,157.7,252.3,157.7,252.2,157.4z"/>
	<path id="XMLID_101_" class="st4" d="M223.3,157.5c4.3,0.1,8.6,0.2,12.8,0c-0.1,0.3-0.4,0.3-0.7,0.3c-3.8,0-7.6,0-11.4,0
		C223.8,157.7,223.5,157.8,223.3,157.5z"/>
	<path id="XMLID_100_" class="st6" d="M21.6,157.4c0.2,0.2,0.5,0.2,0.8,0.2c3.6,0,7.2,0,10.8,0c0.3,0,0.5-0.1,0.8-0.1
		c-0.2,0.4-0.5,0.3-0.8,0.3c-3.6,0-7.2,0-10.8,0C22.1,157.7,21.8,157.8,21.6,157.4z"/>
	<path id="XMLID_99_" class="st4" d="M84.1,157.5c4,0.1,8,0.1,12,0c-0.2,0.3-0.5,0.2-0.8,0.2c-3.4,0-6.9,0-10.3,0
		C84.6,157.7,84.3,157.8,84.1,157.5z"/>
	<path id="XMLID_98_" class="st4" d="M260.5,169.9c0-0.7-0.5-0.4-0.9-0.4c-1.9,0-3.8,0-5.7,0c-0.2,0-0.8,0.3-0.5-0.4
		c0.3,0.3,0.7,0.2,1.1,0.2c1.8,0,3.6,0,5.4,0C260.3,169.3,260.9,169.2,260.5,169.9z"/>
	<path id="XMLID_97_" class="st5" d="M60.1,147.6c-0.7,0.7-1.3,1.5-2.2,2C58.1,148.3,58.9,147.6,60.1,147.6z"/>
	<path id="XMLID_96_" class="st4" d="M238.4,167.4c1.6-0.2,3.1-0.2,4.7,0C241.5,167.4,240,167.4,238.4,167.4z"/>
	<path id="XMLID_95_" class="st4" d="M228.3,171.2c0,0.1,0.1,0.4,0.1,0.4c0.9,0,1.8,0.3,2.6-0.2c0,0.4-0.2,0.5-0.5,0.5
		c-0.6,0-1.2,0-1.8,0C228.2,171.8,227.9,171.7,228.3,171.2z"/>
	<path id="XMLID_94_" class="st4" d="M234.7,159c-0.9,0-1.8,0-2.7,0C232.9,158.6,233.8,158.6,234.7,159z"/>
	<path id="XMLID_93_" class="st6" d="M15.4,143.7c0.9,0.3,1.9,0,2.8,0.3C17.2,143.9,16.3,144.3,15.4,143.7z"/>
	<path id="XMLID_92_" class="st5" d="M69.5,133.2c0.3-0.3,0.6-0.6,0.9-0.9C70.4,133,70.2,133.3,69.5,133.2z"/>
	<path id="XMLID_91_" class="st4" d="M144.9,129.7c-0.6,0-1.2,0-1.9,0C143.6,129.4,144.3,129.4,144.9,129.7z"/>
	<path id="XMLID_90_" class="st6" d="M19.7,144.1c0.4,0,0.9-0.1,1.3,0.2C20.6,144.2,20.1,144.4,19.7,144.1z"/>
	<path id="XMLID_89_" class="st4" d="M194.5,129.7c-0.4,0.2-0.9,0.2-1.3,0.2C193.6,129.5,194.1,129.7,194.5,129.7z"/>
	<path id="XMLID_88_" class="st4" d="M249.7,161.6c0-0.3,0-0.7,0-1C250,161,250,161.3,249.7,161.6z"/>
	<path id="XMLID_87_" class="st5" d="M241.6,165.3c-0.6,0-1.2,0-1.9,0c-0.6,0-0.7-0.2-0.5-0.7c0.3-1,0.6-2,0.9-3
		c0.1-0.4,0.3-0.7,0.8-0.7c1.5,0,3,0,4.6,0.1c1,0,1.3,0.4,1.1,1.4c-0.4,2.2-1.2,2.8-3.5,2.9C242.6,165.3,242.1,165.3,241.6,165.3z"
		/>
</g>
</svg>
