<?xml version="1.0" encoding="utf-8"?>
<!-- Generator: Adobe Illustrator 19.0.0, SVG Export Plug-In . SVG Version: 6.00 Build 0)  -->
<svg version="1.1" id="Ebene_1" xmlns="http://www.w3.org/2000/svg" xmlns:xlink="http://www.w3.org/1999/xlink" x="0px" y="0px"
	 viewBox="0 0 283.5 283.5" style="enable-background:new 0 0 283.5 283.5;" xml:space="preserve">
<style type="text/css">
	.st0{fill:#FFFFFF;stroke:#000000;stroke-miterlimit:10;}
	.st1{fill:#E62834;}
</style>
<circle id="XMLID_1_" class="st0" cx="141.7" cy="141.7" r="141.7"/>
<g id="XMLID_2_">
	<path id="XMLID_84_" class="st1" d="M21.8,135.6c-1-0.4-2-0.4-3-0.3c-2.6,0.2-5,1-7.5,1.9c-0.1-0.8,0.1-1.6,0.2-2.3
		c0.6-3,1.9-5.7,4.5-7.5c1.7-1.2,3.6-1.7,5.6-1.7c3.6-0.1,7.2,0.4,10.7,1.3c4.4,1.1,8.5,0.6,12.5-1.2c0.5-0.2,0.7-0.2,0.8,0.4
		c0.6,3-1.4,6.9-4.4,8.5c-2.1,1.1-4.5,1.4-6.8,1.6c-1.4,0.1-2.8,0.1-4.1,0c-0.3,0-0.5,0-0.6,0.3c-0.7,1.7-0.9,3.4-0.1,5.1
		c0.2,0.5,0.4,0.5,0.8,0.2c1.6-1,3.3-1.7,5.2-1.6c1.5,0.1,2.7,0.6,3.9,1.5c0.3,0.2,0.3,0.4,0.1,0.7c-1,1.9-2,3.8-2.9,5.7
		c-0.2,0.4-0.4,0.4-0.7,0.3c-1.2-0.4-2.4-0.6-3.7-0.5c-0.2,0-0.4,0.1-0.7,0.1c-0.7,0.1-0.8,0.5-0.8,1.1c0.3,2.1,0.4,4.2-0.1,6.3
		c-1,3.7-5.2,6.9-9,7c-0.8,0-1.6,0-2.4-0.1c-0.6-0.1-0.6-0.2-0.4-0.7c0.5-1,1-2,1.2-3.2c0.3-1.9-0.1-3.8-0.4-5.7
		c-0.5-2.6-1.2-5.3-1.1-8c0-2.8,0.6-5.4,2.1-7.8C21,136.6,21.4,136.2,21.8,135.6z"/>
	<path id="XMLID_83_" class="st1" d="M209.3,136.5c3.2-1.2,6.3-2.4,9.4-3.5c0.4-0.1,0.5,0,0.8,0.2c0.8,0.8,1.5,1.7,2,2.7
		c0.3,0.6,0.6,0.6,1.1,0.3c2.3-1.1,4.8-2,7.3-2.6c4-1,6.8,0.7,7.9,4.7c0.2,0.9,0.3,1.7,0.3,2.6c0,2.3,0,4.7-0.1,7
		c-0.1,2.2,0.5,4.1,2.7,5.1c-0.1,0.3-0.3,0.3-0.5,0.3c-2.8,1.1-5.6,2.2-8.5,3.3c-0.4,0.2-0.7,0.1-0.9-0.2c0,0-0.1-0.1-0.1-0.1
		c-2.9-2.6-2.9-2.8-2.9-6.4c0-2,0-4,0-6c0-1.5-0.6-2.6-1.7-3.5c-0.2-0.2-0.5-0.2-0.7-0.2c-0.9,0.3-1.8,0.6-2.7,0.8
		c-0.3,0.1-0.4,0.2-0.4,0.5c0,2.6,0,5.1,0,7.7c0,1.4,0.9,2.4,1.8,3.4c0.6,0.6,0.6,0.6-0.2,0.9c-2.8,0.9-5.5,1.8-8.3,2.7
		c-0.4,0.1-0.7,0.1-1-0.1c-1.8-1-2.7-2.4-2.7-4.6c0.1-3.7,0-7.4,0-11.1c0-0.6-0.1-1-0.5-1.4C210.7,138.4,210,137.5,209.3,136.5z"/>
	<path id="XMLID_80_" class="st1" d="M204.7,144.1c0,1.4,0,2.4-0.2,3.5c-0.4,1.9-1.4,3.4-3,4.5c-2.9,2.1-6.1,3.6-9.6,4.6
		c-0.2,0-0.4,0.1-0.5,0.1c-3.1-0.7-6.2-1.3-9-2.8c-3.5-1.9-5.7-4.9-6.4-8.8c-0.6-2.9,0.5-5.4,2.8-7.3c2.3-2,5.1-3.3,8-4.3
		c4.3-1.4,2.7-1.5,7,0c3.1,1,6.1,2.4,8.5,4.8C204,140,205.2,141.8,204.7,144.1z M193.8,145.9c0-0.4-0.1-0.9-0.1-1.3
		c-0.5-2.4-2-4.1-3.9-5.4c-1.2-0.9-1-1-1.6,0.5c-1.5,4.4,0,8,3.9,9.9c0.4,0.2,0.6,0.2,0.8-0.2C193.4,148.2,193.8,147.1,193.8,145.9z
		"/>
	<path id="XMLID_77_" class="st1" d="M259.6,148.6c1.5,1.4,3.3,1.7,5.2,1.5c2.2-0.2,4.2-0.8,6.3-1.5c0.1,0,0.3-0.1,0.5-0.1
		c0,0.2-0.2,0.4-0.3,0.6c-1.1,1.8-2.3,3.6-3.4,5.5c-0.2,0.3-0.5,0.6-0.8,0.7c-1.6,0.7-3.2,1.1-4.9,1.1c-2.4,0-4.8,0.3-7.2-0.3
		c-4.2-1-7.3-3.5-9-7.5c-1.5-3.4-1-8.1,2.8-11.3c2.7-2.2,5.8-3.3,9.1-3.9c2-0.4,4-0.6,6-0.7c0.4,0,0.7,0.1,1,0.4
		c2.3,2.9,4.7,5.8,7.1,8.6c0.4,0.5,0.3,0.6-0.2,0.9c-3.9,1.9-7.7,3.7-11.6,5.6C260,148.4,259.8,148.5,259.6,148.6z M260.2,142.6
		c-0.8-1-1.6-1.9-2.3-2.8c-0.5-0.7-0.6-0.7-1.3-0.1c-1.4,1-1.8,3.6-0.8,5.1c0.2,0.2,0.3,0.1,0.4,0.1
		C257.6,144,258.8,143.3,260.2,142.6z"/>
	<path id="XMLID_74_" class="st1" d="M119.1,148.3c0,0.3-0.2,0.5-0.3,0.6c-1.1,1.8-2.3,3.6-3.4,5.5c-0.2,0.4-0.5,0.6-0.9,0.8
		c-1.4,0.6-2.9,1-4.4,1.1c-2.6,0.1-5.2,0.3-7.8-0.3c-3.7-0.9-6.6-3.1-8.5-6.4c-2.1-3.7-1.8-9.3,3-12.9c2.6-1.9,5.5-2.8,8.6-3.4
		c1.9-0.4,3.9-0.5,5.9-0.7c0.4,0,0.7,0.1,1,0.4c2.4,2.9,4.8,5.8,7.2,8.7c0.4,0.5,0.2,0.6-0.2,0.8c-3.8,1.8-7.5,3.7-11.3,5.5
		c-0.3,0.1-0.5,0.3-0.8,0.4c1,1,2.3,1.5,3.6,1.6c2,0.1,4-0.4,5.9-0.9C117.5,148.8,118.3,148.5,119.1,148.3z M104.9,139
		c-0.7,0.3-1.4,0.8-1.7,1.6c-0.5,1.2-0.3,2.5,0.1,3.7c0.1,0.4,0.3,0.4,0.6,0.2c1.1-0.6,2.2-1.2,3.4-1.8c0.3-0.2,0.4-0.3,0.2-0.6
		c-0.8-0.9-1.5-1.8-2.2-2.7C105.2,139.1,105.1,139,104.9,139z"/>
	<path id="XMLID_73_" class="st1" d="M149.4,139c-0.8,0.9-1.6,1.8-2.4,2.6c-0.2,0.2-0.4,0.2-0.6,0.1c-1.8-1-3.6-1.9-5.3-3
		c-0.4-0.2-0.8-0.5-1.2-0.6c-0.5-0.1-1-0.1-1.2,0.4c-0.2,0.5,0.1,0.9,0.5,1.2c1,0.8,2.2,1.5,3.3,2.2c1.9,1.2,3.7,2.3,5.6,3.5
		c0.7,0.4,1.3,0.9,1.8,1.5c0.9,1.2,0.9,2.4,0,3.5c-0.5,0.6-1.2,1.1-1.9,1.5c-3.4,2.1-7,3.9-10.6,5.7c-0.3,0.1-0.5,0.1-0.7-0.1
		c-3.8-2.3-7.5-4.5-11.3-6.8c-0.4-0.2-0.4-0.4-0.1-0.7c0.8-0.7,1.5-1.5,2.3-2.3c0.2-0.2,0.4-0.3,0.7-0.1c2.3,1.3,4.7,2.6,6.9,4
		c0.2,0.1,0.4,0.3,0.7,0.3c0.5,0,1.1-0.1,1.3-0.7c0.2-0.6-0.2-0.9-0.6-1.2c-1.8-1.1-3.7-2.2-5.5-3.3c-1.4-0.8-2.7-1.7-4-2.5
		c-0.6-0.4-1.1-0.8-1.5-1.4c-0.8-1.1-0.7-2.1,0.1-3.1c0.4-0.6,1-1,1.6-1.4c3.4-2,6.9-3.9,10.3-5.9c0.2-0.1,0.4-0.2,0.6-0.1
		C141.7,134.7,145.6,136.9,149.4,139z"/>
	<path id="XMLID_72_" class="st1" d="M80.2,152.6c-3.1,1.1-6.1,2.2-9.1,3.3c-0.3,0.1-0.5,0.1-0.7,0c-2.7-1.1-3.8-3-3.7-5.8
		c0.1-3.2,0-6.4-0.1-9.6c0-1.3-0.5-2.4-1.3-3.3c-0.3-0.4-0.6-0.7-0.9-1.2c1.4-0.6,2.9-1.1,4.3-1.6c1.5-0.6,2.9-1.1,4.4-1.7
		c1-0.4,1.8-0.2,2.5,0.7c0.5,0.6,0.9,1.3,1.1,2.1c0.1,0.5,0.3,0.5,0.8,0.3c2.3-0.9,4.7-1.8,7-2.8c0.4-0.2,0.6-0.1,0.9,0.3
		c1.6,2.7,3.3,5.3,5,7.9c0.3,0.4,0.2,0.6-0.2,0.8c-2.5,1.3-4.9,2.6-7.4,3.9c-0.5,0.3-0.7,0.2-0.9-0.3c-0.7-1.2-1.5-2.3-2.2-3.5
		c-0.2-0.4-0.5-0.5-0.9-0.3c-1.2,0.5-1.2,0.4-1.2,1.7c-0.1,2.1-0.1,4.2,0.5,6.2C78.1,150.8,78.7,152,80.2,152.6z"/>
	<path id="XMLID_71_" class="st1" d="M170.2,152.7c-2,0.7-3.8,1.4-5.6,2c-1.3,0.5-2.7,0.9-4,1.4c-0.4,0.2-0.8,0.1-1.1-0.1
		c-2.1-1.3-3.2-3.2-3.2-5.7c-0.1-3.3,0-6.7,0-10c0-0.6-0.2-0.8-0.8-0.7c-1.4,0-2.7,0-4.1-0.1c5.2-3.8,10.4-7.6,15.6-11.4
		c0.2,0.1,0.2,0.3,0.2,0.5c0,1.5,0,3,0,4.6c0,0.4,0.1,0.6,0.6,0.6c1.5,0,3,0,4.6,0c0.5,0,0.6,0.1,0.6,0.6c0,1.6,0,3.1,0,4.7
		c0,0.5-0.1,0.7-0.6,0.7c-1.5,0-3,0-4.5,0c-0.5,0-0.6,0.2-0.6,0.6c0,2.8,0,5.6,0,8.4c0,0.9,0.4,1.5,1,2.2
		C168.7,151.4,169.4,152,170.2,152.7z"/>
	<path id="XMLID_70_" class="st1" d="M61.4,152.6c-3.3,1.1-6.4,2.2-9.6,3.3c-0.2,0.1-0.3,0.1-0.5,0c-2.4-0.8-3.8-2.6-3.8-5.2
		c0-3.4,0-6.7-0.1-10.1c0-1.3-0.4-2.5-1.2-3.5c-0.3-0.4-0.6-0.8-1-1.2c0.7-0.3,1.5-0.6,2.2-0.8c2.3-0.8,4.6-1.7,6.9-2.5
		c1.1-0.4,1.8-0.2,2.6,0.7c0.9,1.1,1.3,2.5,1.5,3.9c0.4,1.9,0.3,3.9,0.2,5.8c-0.1,1.9-0.1,3.7,0.2,5.6
		C59.1,150.2,59.6,151.8,61.4,152.6z"/>
</g>
</svg>
