<?xml version="1.0" encoding="utf-8"?>
<!-- Generator: Adobe Illustrator 19.0.0, SVG Export Plug-In . SVG Version: 6.00 Build 0)  -->
<svg version="1.1" id="Ebene_1" xmlns="http://www.w3.org/2000/svg" xmlns:xlink="http://www.w3.org/1999/xlink" x="0px" y="0px"
	 viewBox="0 0 283.5 283.5" style="enable-background:new 0 0 283.5 283.5;" xml:space="preserve">
<style type="text/css">
	.st0{fill:#FFFFFF;stroke:#000000;stroke-miterlimit:10;}
</style>
<circle id="XMLID_1_" class="st0" cx="141.7" cy="141.7" r="141.7"/>
<g id="XMLID_2_">
	<path id="XMLID_145_" d="M243,153.6c0.7-2.5,1.3-4.9,2-7.4c1.5-5.8,3.1-11.6,4.6-17.4c0.1-0.6,0.3-0.8,1-0.8c5.5,0,11.1,0,16.6,0
		c2.1,0,4,0.6,5.6,1.9c3,2.3,3.7,6.2,1.9,9.6c-1.1,2-2.7,3.5-4.6,4.8c-0.4,0.3-0.5,0.5-0.4,1c0.6,2.7,1.2,5.4,1.8,8
		c0,0.1,0,0.2,0.1,0.4c-0.2,0-0.4,0-0.6,0c-3.5,0-6.9,0-10.4,0c-0.5,0-0.7-0.1-0.8-0.6c-0.5-2.1-1-4.1-1.6-6.2
		c-0.1-0.2-0.1-0.4-0.2-0.6c-0.1,0-0.1,0-0.2-0.1c-1.3-0.1-1.3-0.1-1.7,1.2c-0.5,1.9-1.1,3.8-1.6,5.7c-0.1,0.3-0.2,0.5-0.6,0.5
		c-3.6,0-7.2,0-10.8,0C243.2,153.6,243.1,153.6,243,153.6z M257.7,142.1c0.1,0,0.1,0.1,0.2,0.1c0.9,0,1.7,0,2.6,0
		c1.4,0,2.2-0.6,2.5-1.9c0.4-1.7,0.9-3.4,1.2-5.1c0.2-0.9,0.1-1.9,0-2.8c0-0.4-0.4-0.7-0.9-0.7c-0.9,0-1.8,0-2.8,0
		c-0.5,0-0.6,0.2-0.7,0.6c-0.5,2.1-1,4.3-1.4,6.4C258.2,139.9,258,141,257.7,142.1z"/>
	<path id="XMLID_142_" d="M109.1,128.2c2.1,0,4.1,0,6.1,0c3.2,0,6.4,0,9.5-0.1c3-0.1,5.1,1.3,6.7,3.6c1.1,1.6,1.5,3.5,1.6,5.5
		c0.1,7.1-4.1,13.5-10.5,15.8c-1,0.4-2.2,0.6-3.3,0.6c-5.2,0.1-10.5,0-15.7,0c-0.3,0-0.5,0-0.9,0
		C104.8,145.1,106.9,136.7,109.1,128.2z M118.8,131.8c-1.5,6-3.1,12-4.6,18.1c1.1,0,2.1,0,3.2,0c1.2,0,1.9-0.6,2.1-1.7
		c1.1-4.4,2.3-8.9,3.3-13.3c0.2-0.7,0.1-1.5,0-2.2c-0.1-0.3-0.5-0.8-0.9-0.9C120.9,131.8,119.9,131.8,118.8,131.8z"/>
	<path id="XMLID_139_" d="M40.5,143.3c0.1-8.9,6.7-14.1,13.5-15.5c3.4-0.7,6.7-0.4,9.8,1.4c4.1,2.4,6,6.5,4.7,11.4
		c-1.7,6.7-5.8,11.3-12.5,13.2c-4.2,1.2-8.2,0.5-11.7-2.2C41.7,149.7,40.4,146.6,40.5,143.3z M52.3,151.1c1.3,0,2.2-0.8,2.6-2.2
		c0.6-2.5,1.3-4.9,1.9-7.4c0.7-2.6,1.3-5.2,1.9-7.9c0.3-1.1-0.2-2-0.9-2.4c-0.9-0.5-2.1-0.3-2.8,0.6c-0.4,0.6-0.8,1.2-1,1.9
		c-0.9,3.3-1.8,6.7-2.7,10c-0.4,1.6-0.9,3.1-1.2,4.7C49.8,150,50.8,151.1,52.3,151.1z"/>
	<path id="XMLID_136_" d="M89.1,127.4c3.5,0.1,6.3,0.9,8.7,2.9c3.3,2.8,4.2,6.4,3.1,10.4c-1.8,6.6-5.8,11.2-12.5,13.1
		c-4.4,1.2-8.5,0.5-12.1-2.6c-2.2-1.8-3.2-4.3-3.3-7.1c-0.3-8.7,5.7-14.5,12.8-16.2C87,127.7,88.3,127.6,89.1,127.4z M82.4,148.4
		c0,1.5,0.4,2.3,1.3,2.6c1.1,0.4,2.3,0.1,2.9-0.8c0.3-0.4,0.5-0.9,0.6-1.5c0.5-1.7,0.9-3.5,1.3-5.2c0.8-3.2,1.6-6.4,2.4-9.5
		c0.3-1.3-0.1-2.3-1-2.7c-1.1-0.5-2.3-0.1-3,1c-0.3,0.4-0.5,0.9-0.6,1.3c-1.1,3.9-2.1,7.8-3.1,11.8
		C82.9,146.4,82.6,147.6,82.4,148.4z"/>
	<path id="XMLID_135_" d="M33,129.6c-0.7,1.3-1.3,2.3-2,3.5c-1.6-1.4-3.4-2-5.4-1.9c-0.7,0-1.3,0.2-1.9,0.4
		c-0.8,0.3-1.3,0.9-1.5,1.7c-1.3,4.8-2.6,9.6-3.9,14.4c-0.1,0.3-0.1,0.7-0.1,1.1c0,1.3,0.5,1.7,1.7,1.7c0.6,0,1.3,0,1.9,0
		c0.5,0,0.8-0.1,0.9-0.7c0.9-3.1,1.8-6.1,2.7-9.2c0.1-0.5,0.3-0.7,0.9-0.7c3.1,0,6.2,0,9.3,0c0.2,0,0.4,0,0.7,0
		c-0.6,2.5-1.2,4.9-1.8,7.3c-0.5,1.9-1,3.8-1.4,5.7c-0.1,0.3-0.2,0.5-0.6,0.5c-5.8,0-11.5,0-17.3,0c-2.7,0-4.6-1.4-5.9-3.7
		c-1-1.7-1.3-3.5-1.3-5.4c0-3.6,0.7-6.9,2.9-9.9c2.4-3.4,5.8-5.2,9.8-6.2c3.2-0.8,6.4-0.8,9.5,0.1C31.1,128.8,32,129.2,33,129.6z"/>
	<path id="XMLID_132_" d="M237.5,128c0.7,8.5,1.5,17,2.2,25.5c-0.3,0-0.5,0-0.7,0c-3.3,0-6.5,0-9.8,0c-0.6,0-0.7-0.2-0.7-0.7
		c0-1,0-2.1,0-3.1c-0.2,0-0.4,0-0.6,0c-2.9,0-5.7,0-8.6,0c-0.4,0-0.6,0.1-0.8,0.5c-0.6,1-1.1,2-1.7,2.9c-0.1,0.2-0.3,0.4-0.5,0.4
		c-1.4,0-2.9,0-4.4,0c0.1-0.3,0.2-0.5,0.4-0.6c4.9-8.1,9.9-16.3,14.9-24.4c0.1-0.2,0.5-0.5,0.7-0.5c3.1,0,6.2,0,9.3,0
		C237.2,128,237.3,128,237.5,128z M221.2,145.8c2.3,0,4.4,0,6.7,0c-0.4-2.9-0.7-5.8-1.1-8.6c0,0-0.1,0-0.1,0
		C224.8,140,223,142.8,221.2,145.8z"/>
	<path id="XMLID_131_" d="M209,142.9c-2.1,0-4.2,0-6.3,0c-0.6,2.2-1.2,4.4-1.9,6.7c3.1,0,6.1,0,9.3,0c-0.3,1.3-0.5,2.5-0.8,3.7
		c0,0.1-0.3,0.2-0.5,0.2c-0.9,0-1.9,0-2.8,0c-5.6,0-11.2,0-16.9,0c-0.3,0-0.5,0-0.9,0c0.5-2,1.1-4,1.6-5.9
		c1.7-6.3,3.4-12.6,5.1-18.9c0.2-0.6,0.4-0.8,1-0.8c6.3,0,12.6,0,19,0c0.2,0,0.4,0,0.8,0c-0.2,1.4-0.4,2.8-0.6,4.2
		c-3.2,0-6.3,0-9.5,0c-0.5,2.1-1,4.2-1.5,6.3c1.9,0,3.8,0,5.8,0C209.5,140,209.3,141.4,209,142.9z"/>
	<path id="XMLID_130_" d="M178.9,137.2c1.4-1.5,2.7-3,4-4.5c1.3-1.4,2.5-2.9,3.8-4.3c0.1-0.2,0.4-0.4,0.6-0.4c1.6,0,3.2,0,5,0
		c-0.2,0.3-0.3,0.4-0.4,0.6c-3.6,4.3-7.2,8.6-10.8,13c-0.4,0.5-0.7,1.1-0.9,1.7c-0.9,3.3-1.7,6.6-2.6,9.9c-0.1,0.3-0.1,0.6-0.6,0.6
		c-3.7,0-7.5,0-11.2,0c-0.1,0-0.2,0-0.3-0.1c0.3-1.4,0.7-2.8,1-4.2c0.5-2.2,1.1-4.4,1.6-6.6c0.1-0.3,0-0.7-0.1-1
		c-1.4-4.5-2.8-8.9-4.3-13.4c0-0.1-0.1-0.2-0.1-0.4c0.2,0,0.5,0,0.7,0c3.6,0,7.2,0,10.8,0c0.5,0,0.7,0.2,0.8,0.6
		c0.9,2.7,1.8,5.4,2.7,8.2C178.7,136.9,178.8,137,178.9,137.2z"/>
	<path id="XMLID_126_" d="M187,116.6c-1.4,3.7-3.4,5.3-7.8,5.5c-2,0.1-4.1,0.1-6.1,0c-1.4-0.1-2.8-0.4-4.3-0.6c-0.1,0-0.2,0-0.3,0
		c-0.3,0.4-0.1,0.8,0.2,1c0.4,0.3,0.8,0.5,1.2,0.7c0.5,0.3,0.5,0.8-0.1,1c-0.5,0.2-1,0.2-1.4,0.3c-0.6,0.1-1.2,0.1-1.8,0.1
		c-0.2,0-0.3,0.2-0.5,0.3c0.1,0.2,0.2,0.3,0.3,0.5c0.1,0.2,0.3,0.3,0.6,0.5c-1,0.7-2,1-3.1,0.7c-0.5-0.1-1.1-0.3-1.6-0.5
		c-0.4-0.1-0.7,0-0.7,0.5c-0.2,1.2-0.4,2.5-0.7,3.7c0,0.2-0.1,0.3-0.1,0.5c-0.3,0.7-0.4,0.8-1,0.3c-0.3-0.2-0.6-0.4-1-0.7
		c-0.1,0.8-0.2,1.5-0.4,2.2c0,0.2-0.1,0.5-0.1,0.7c-0.2,0.6-0.5,0.7-1,0.3c-0.1-0.1-0.2-0.2-0.3-0.3c-0.2-0.2-0.4-0.4-0.7-0.6
		c-0.2,0.3-0.5,0.5-0.6,0.8c-0.4,0.9-0.7,1.9-1.1,2.8c-0.2,0.5-0.5,1.2-1.2,1.1c-0.7,0-1-0.7-1.2-1.2c-0.7-2.3-1-4.6-0.6-7
		c0.1-0.4,0-0.9-0.2-1.3c-2-3.2-0.9-8.3,3.7-10.1c2-0.8,4-0.9,6.1-0.8c6.2,0.4,12.4,0.7,18.7,0.5c2-0.1,4-0.5,5.9-0.7
		C186.2,116.7,186.6,116.6,187,116.6z M163.2,119.2c-0.9,0-1.7-0.1-2.5-0.1c-0.2,0-0.4,0.1-0.5,0.2c-0.4,0.7-1,0.8-1.8,0.8
		c-0.7,0-1.2,0.3-1.5,1c-0.1,0.2-0.4,0.4-0.6,0.4c-0.2,0.1-0.5,0-0.8,0.1c-0.2,0.1-0.5,0.2-0.7,0.4c0.2,0.3,0.3,0.7,0.6,0.8
		c1,0.1,2,0.4,3-0.3c0.3-0.3,0.8-0.5,1.2-0.5c0.6,0,1.1-0.3,1.4-0.8c0.4-0.5,0.8-0.9,1.5-0.9C163,120.3,163.3,119.9,163.2,119.2z
		 M153,125.4c0,0-0.2,0-0.4,0c-0.4,0.1-0.6,0.5-0.2,0.7c0.8,0.5,1.4,1.1,1.7,2c0.1,0.1,0.4,0.2,0.6,0.2c0.1,0,0.3-0.3,0.4-0.4
		C155.2,126.4,154.9,125.4,153,125.4z"/>
	<path id="XMLID_125_" d="M141.2,141c1.5,3.1,3,6.2,4.4,9.2c0.1,0.1,0,0.4-0.1,0.5c-3,2.9-5.7,6.2-9.1,8.8c-1.4,1-2.8,1.9-4.5,2.2
		c-0.6,0.1-1.2,0.4-1.6-0.2c-0.4-0.6,0.2-1.1,0.5-1.5c0.7-0.9,1.4-1.7,2.2-2.5c1.8-1.8,2.9-3.9,3.7-6.3c0.9-2.9,1.8-5.7,3.4-8.4
		C140.4,142.3,140.8,141.7,141.2,141z"/>
	<path id="XMLID_124_" d="M158,141.1c-3.6,2.6-7,5.1-10.6,7.7c-1.6-3-3.2-6.2-4.9-9.4c2.4-1.2,4.7-2.3,7.1-3.5
		c0.4,0.8,0.8,1.5,1.3,2.2c0.5,0.8,1.1,1.6,1.7,2.3c0.4,0.5,0.8,0.5,1.2,0c0.7-0.9,1.5-1.7,2.3-2.6C156.8,139,157.4,140.1,158,141.1
		z"/>
	<path id="XMLID_123_" d="M148.4,122.4c0,1.6,0,3.2,0,4.8c0,0.1-0.1,0.3-0.3,0.4c-2.3,1.4-4.5,2.8-6.9,4.2c-0.8-1.3-1.6-2.7-2.4-4
		C142,126,145.2,124.2,148.4,122.4z"/>
	<path id="XMLID_122_" d="M132.4,164.9c-0.2-0.2-0.4-0.3-0.5-0.5c0-0.2,0.1-0.6,0.2-0.8c0.1-0.2,0.4-0.3,0.6-0.4
		c3.4-1.5,6.4-3.6,9.1-6.1c2.6-2.5,5.3-5.1,8-7.6c2.7-2.4,5.6-4.7,8.8-6.5c0.4-0.2,0.8-0.3,0.9,0.2c0.1,0.2-0.1,0.6-0.2,0.7
		c-5.7,3-10,7.6-14.5,12c-2,1.9-3.8,4-6.1,5.5c-1.7,1.1-3.4,2-5.1,3C133.3,164.6,132.9,164.7,132.4,164.9z"/>
	<path id="XMLID_121_" d="M142.3,137.4c0-1.3,0-2.4,0-3.7c1.7,0.3,3.3,0.6,5,0.9C145.5,135.6,143.9,136.5,142.3,137.4z"/>
	<path id="XMLID_120_" d="M145,132.1c1.5-0.8,2.9-1.7,4.5-2.6c-0.1,0.9-0.1,1.7-0.2,2.5c0,0.1-0.3,0.3-0.5,0.3c-1.3,0-2.5,0-3.8,0
		C145,132.2,145,132.2,145,132.1z"/>
</g>
</svg>
