<?xml version="1.0" encoding="utf-8"?>
<!-- Generator: Adobe Illustrator 19.0.0, SVG Export Plug-In . SVG Version: 6.00 Build 0)  -->
<svg version="1.1" id="Ebene_1" xmlns="http://www.w3.org/2000/svg" xmlns:xlink="http://www.w3.org/1999/xlink" x="0px" y="0px"
	 viewBox="0 0 283.5 283.5" style="enable-background:new 0 0 283.5 283.5;" xml:space="preserve">
<style type="text/css">
	.st0{fill:#FFFFFF;stroke:#000000;stroke-miterlimit:10;}
	.st1{fill:#EB6128;}
	.st2{fill:#282324;}
	.st3{fill:#FFFFFF;}
</style>
<circle id="XMLID_1_" class="st0" cx="141.7" cy="141.7" r="141.7"/>
<g id="XMLID_2_">
	<path id="XMLID_78_" class="st1" d="M35.6,144.1c6.3-2.1,11.4-8.9,11.6-15.5c0-1.1,0.4-1.4,1.4-1.3c1.8,0.1,3.6,0.1,5.5,0
		c0.9,0,1.1,0.3,1.1,1.1c0.1,6.6-2.1,12.2-6.5,17c-1.3,1.4-2.7,2.5-4.1,3.8c1.6-0.2,2.9-0.9,4.1-1.7c6.7-4.5,10.1-10.8,10.2-18.8
		c0-1,0.2-1.4,1.3-1.4c1.8,0.1,3.6,0.1,5.5,0c1.1-0.1,1.3,0.4,1.4,1.3c0.3,5.2-0.6,10.1-2.8,14.8c-4.8,10.1-12.9,15.5-24.1,16.3
		c-1.9,0.1-3.5-0.5-4.9-1.6c-6.9-5.7-14.4-10.4-22.2-14.6c-0.4-0.2-0.8-0.8-1.5-0.5c0-0.2,0-0.3,0-0.5c5.8,0.1,11.5-0.6,16.7-3.5
		c4.2-2.3,6.9-5.8,7.3-10.8c0-0.7,0.3-0.9,1-0.8c1.9,0,3.7,0.1,5.6,0c1.2-0.1,1.5,0.3,1.4,1.4c-0.3,5.8-2.6,10.6-7.1,14.4
		c-0.3,0.3-0.6,0.6-1,0.9c-0.1,0.1-0.2,0.2-0.2,0.2C35.4,144.3,35.5,144.2,35.6,144.1z"/>
	<path id="XMLID_77_" class="st2" d="M271.8,132.5c-0.6-0.2-0.8,0.4-1.1,0.7c-3.8,3.3-7.5,6.7-11.3,10c-0.7,0.6-0.8,1-0.2,1.8
		c2.8,3.7,5.6,7.4,8.3,11.1c-0.2,0.5-0.6,0.3-0.8,0.3c-2.8,0-5.6,0-8.5,0c-0.7,0-1.2-0.2-1.6-0.8c-2.1-2.9-4.3-5.8-6.6-8.9
		c-0.9,2.9-1.8,5.7-2.6,8.4c-0.3,1-0.7,1.3-1.8,1.3c-2.4-0.1-4.8,0-7.2,0c-0.8,0-1-0.2-0.7-1c2.4-7.6,4.7-15.1,7-22.7
		c0.2-0.6,0.5-0.8,1.1-0.8c2.6,0,5.1,0,7.7,0c1,0,0.9,0.4,0.7,1.1c-0.6,2-1.2,3.9-1.6,6.1c1.5-1.3,3.2-2.4,4.5-3.8
		c2.5-2.7,5.4-3.9,9.1-3.4c1.8,0.2,3.7,0,5.6,0.1C271.8,132.2,271.8,132.4,271.8,132.5z"/>
	<path id="XMLID_74_" class="st2" d="M190.4,157.1c-1.6,0.1-3.4-0.1-5.3-0.6c-5.4-1.6-8-6.1-6.6-11.6c2-7.9,8.7-13.2,17.3-13.7
		c2.1-0.1,4.2-0.1,6.3,0.5c5.7,1.5,8.4,6.2,6.8,11.9C206.5,152.5,200.4,157.1,190.4,157.1z M191.8,150.8c1.5,0.1,3-0.3,4.2-1.2
		c3-2.3,4.1-5.5,4-9.1c0-1.3-1.1-2.3-2.5-2.7c-3-0.7-6,0.4-7.8,2.9c-1.1,1.5-1.7,3.2-2.1,5C186.9,149.1,188.3,150.8,191.8,150.8z"/>
	<path id="XMLID_71_" class="st2" d="M221.9,157.2c-2,0-3.9-0.1-5.8-0.7c-5-1.6-7.5-5.9-6.4-11c1.6-7.4,7.5-12.8,15.2-13.9
		c3.1-0.4,6.1-0.5,9.1,0.4c4.9,1.6,7.4,5.7,6.3,10.7c-2,8.9-7.4,13.3-15.4,14.2C224,157,222.9,157.1,221.9,157.2z M222.7,150.8
		c2.6,0,4.5-0.8,5.9-2.4c1.8-2,2.6-4.5,2.8-7.1c0.1-1.8-0.9-3.1-2.7-3.5c-3.3-0.7-6.3,0.6-8.1,3.5c-0.8,1.3-1.3,2.8-1.7,4.3
		C218.1,149.1,219.5,150.8,222.7,150.8z"/>
	<path id="XMLID_70_" class="st2" d="M86.4,156c-1.1,0-2.3-0.1-3.4,0c-1.3,0.1-1.3-0.3-1-1.4c0.8-2.4,1.5-4.9,2.3-7.3
		c0.3-0.9,0.3-1.3-0.9-1.3c-1.9,0.1-3.9,0.1-5.9,0c-0.8,0-1.1,0.2-1.3,0.9c-0.8,2.7-1.6,5.3-2.4,8c-0.2,0.8-0.6,1.1-1.4,1.1
		c-2.4-0.1-4.9-0.1-7.3,0c-0.9,0-1.2-0.1-0.9-1.1c2.3-7.2,4.5-14.5,6.7-21.7c0.2-0.7,0.5-1,1.2-1c2.6,0,5.1,0,7.7,0
		c0.8,0,0.9,0.3,0.7,1c-0.7,2.2-1.3,4.4-2.1,6.6c-0.3,0.8-0.3,1.2,0.8,1.1c2-0.1,4-0.1,6,0c0.8,0,1-0.3,1.2-1
		c0.7-2.3,1.4-4.5,2.1-6.8c0.2-0.6,0.5-0.9,1.2-0.9c2.6,0,5.1,0,7.7,0c0.8,0,1,0.2,0.7,0.9c-2.3,7.3-4.5,14.6-6.7,22
		c-0.2,0.7-0.5,0.9-1.2,0.9C89,156,87.7,156,86.4,156z"/>
	<path id="XMLID_67_" class="st2" d="M111.1,154.3c-3.4,1.5-6.5,2.2-9.8,2.1c-5.8-0.1-8.2-3.9-5.6-9.1c2.2-4.5,6.2-6.3,11-6.6
		c2.3-0.1,4.5,0.3,6.7,0.8c0.5,0.1,1.1,1,1.6-0.2c0.7-1.8,0.6-2.6-0.4-3.2c-1-0.6-2.1-0.6-3.1-0.7c-2.7-0.2-5.3,0.4-7.7,1.3
		c-0.9,0.4-1.2,0.2-1.4-0.7c-0.2-1.1-0.6-2.2-1-3.4c-0.1-0.4-0.1-0.7,0.4-0.9c6.2-1.8,12.5-2.9,18.9-1.2c0.7,0.2,1.4,0.5,2,0.9
		c2.2,1.2,3.2,3.2,2.5,5.6c-1.6,5.5-3.3,10.9-4.9,16.3c-0.2,0.7-0.6,0.7-1.2,0.7c-2.3,0-4.7,0-7,0
		C111.1,156,109.9,156.4,111.1,154.3z M107.2,151c3.9,0,5.1-0.7,5.9-3.7c0.2-0.6,0.2-0.9-0.5-1.1c-1.9-0.5-3.8-0.7-5.8-0.3
		c-1,0.2-2,0.7-2.6,1.6c-1.1,1.4-0.6,2.7,1.1,3.3C105.9,151,106.6,151,107.2,151z"/>
	<path id="XMLID_66_" class="st2" d="M138.4,134.8c2.6-1.8,5.5-2.7,8.6-3c1.2-0.1,2.4,0,3.6,0.2c3.1,0.6,4.8,3.2,3.9,6.4
		c-1.1,4.3-2.5,8.5-3.8,12.8c-0.4,1.3-0.8,2.6-1.2,4c-0.2,0.6-0.5,0.8-1.1,0.8c-2.6,0-5.1,0-7.7,0c-0.9,0-1-0.3-0.7-1.1
		c1.3-4.2,2.6-8.4,3.9-12.6c0.2-0.6,0.4-1.2,0.4-1.9c-0.1-1.1-0.6-1.7-1.6-1.9c-3.8-0.7-5.7,0.5-6.9,4.2c-1.2,4-2.5,8-3.7,12.1
		c-0.3,1-0.7,1.3-1.8,1.3c-2.3-0.1-4.7,0-7,0c-0.8,0-1.2-0.1-0.9-1.1c2.3-7.3,4.5-14.5,6.7-21.8c0.2-0.8,0.6-0.9,1.3-0.9
		c2.4,0,4.9,0.1,7.3,0c1.1,0,1.3,0.3,0.9,1.2C138.4,133.9,138.2,134.3,138.4,134.8z"/>
	<path id="XMLID_65_" class="st2" d="M186,132.6c-1.7,1.4-3.3,2.7-5,4.1c-2.7,2.2-5.3,4.4-8,6.6c-0.7,0.6-0.8,0.9-0.2,1.7
		c2.4,3.3,4.7,6.7,7,10c0.3,0.4,0.6,0.7,0.7,1.4c-2.1,0-4.3-0.2-6.3,0c-2.7,0.3-4.4-0.6-5.7-3c-1.2-2.2-2.9-4.2-4.4-6.3
		c0-0.1-0.1-0.1-0.3-0.2c-0.8,2.5-1.5,4.9-2.3,7.3c-0.8,2.5-0.1,2-2.9,2.1c-2,0-4.1,0-6.1,0c-0.9,0-1.2-0.1-0.9-1.1
		c2.3-7.3,4.6-14.7,6.8-22.1c0.2-0.6,0.5-0.9,1.2-0.9c2.6,0,5.1,0.1,7.7,0c0.9,0,0.9,0.3,0.7,1c-0.6,1.8-1.1,3.6-1.7,5.5
		c0.5,0,0.8-0.3,1.1-0.5c2.3-1.8,4.5-3.5,6.7-5.3c0.4-0.3,0.8-0.7,1.4-0.7c3.5,0,7,0,10.5,0C185.9,132.4,186,132.5,186,132.6z"/>
	<path id="XMLID_64_" class="st3" d="M35.6,144.1c-0.1,0.1-0.3,0.2-0.4,0c0,0,0.1-0.1,0.2-0.2C35.5,144,35.6,144.1,35.6,144.1z"/>
</g>
</svg>
