<?xml version="1.0" encoding="utf-8"?>
<!-- Generator: Adobe Illustrator 19.0.0, SVG Export Plug-In . SVG Version: 6.00 Build 0)  -->
<svg version="1.1" id="Ebene_1" xmlns="http://www.w3.org/2000/svg" xmlns:xlink="http://www.w3.org/1999/xlink" x="0px" y="0px"
	 viewBox="0 0 283.5 283.5" style="enable-background:new 0 0 283.5 283.5;" xml:space="preserve">
<style type="text/css">
	.st0{fill:#FFFFFF;stroke:#000000;stroke-miterlimit:10;}
	.st1{fill:#0B51A0;}
	.st2{fill:#292526;}
	.st3{fill:#FEE80D;}
	.st4{fill:#FFFFFF;}
	.st5{fill:#FFE80C;}
	.st6{fill:#467DBA;}
	.st7{fill:#4980BB;}
	.st8{fill:#3973B5;}
	.st9{fill:#ABC3DF;}
	.st10{fill:#FDE70E;}
	.st11{fill:#FDFDFD;}
	.st12{fill:#0B519F;}
	.st13{fill:#FAFAFA;}
	.st14{fill:#FBFBFB;}
	.st15{fill:#F6F6F6;}
	.st16{fill:#2B2728;}
	.st17{fill:#2A2628;}
	.st18{fill:#2E2A2B;}
	.st19{fill:#433F40;}
	.st20{fill:#2B2729;}
	.st21{fill:#2F2B2C;}
	.st22{fill:#969495;}
	.st23{fill:#C3C2C2;}
	.st24{fill:#7C7A7A;}
	.st25{fill:#FCFCFC;}
</style>
<circle id="XMLID_1_" class="st0" cx="141.7" cy="141.7" r="141.7"/>
<g id="XMLID_2_">
	<path id="XMLID_193_" class="st1" d="M60,127c20.9,0,41.8,0,62.7,0c49.7,0,99.4,0,149,0c0.9,0,0.9,0,0.9,0.9c0,13.8,0,27.7,0,41.5
		c0,0.7-0.2,0.8-0.8,0.8c-74.2,0-148.3,0-222.5,0c-0.3,0-0.7,0-1,0c-0.3,0-0.4-0.3-0.5-0.5c-0.1-0.3-0.2-0.5-0.3-0.8
		c-0.5-1.3-0.3-1.3,0.5-1.8c0.8-0.5,1.4-1.3,1.8-2.2c0.2-0.3,0.3-0.6,0.7-0.7c0.5-0.1,1.1,0,1.6,0c56.5,0,112.9,0,169.4,0
		c0.2,0,0.4,0,0.6,0c1.6,0,1.8-0.2,2.2-1.7c0.1-0.4,0-0.6-0.5-0.6c-0.3,0-0.7,0-1,0c-56.8,0-113.6,0-170.5,0c-0.5,0-1,0-1.5-0.1
		c-0.4-0.2-0.3-0.5-0.1-0.7c0.3-0.4,0.6-0.9,0.8-1.3c0.6-1.3,0.7-2.6,0-3.8c-0.2-0.4-0.3-0.8-0.2-1.3c0.1-0.5,0.1-0.9,0-1.4
		c-0.1-0.6,0.1-1.1,0.4-1.6c1.2-1.5,1.7-3.2,1.4-5.1c-0.1-0.4-0.1-0.8,0.2-1.2c0.7-1.2,0.9-2.4,0.8-3.8c0-0.2-0.1-0.5,0.1-0.6
		c0.2-0.1,0.4,0.1,0.6,0.3c0.7,0.8,1.7,1.1,2.7,1.2c0.7,0.1,1,0.4,0.9,1.1c-0.2,1,0.1,1.7,0.8,2.4c0.4,0.4,0.7,1,1,1.5
		c0.6,1,1.2,1.2,2.2,0.5c0.7-0.4,1.3-0.7,2.1-0.4c1,0.3,2.2-0.4,2.4-1.5c0.4-2-0.6-3.3-1.8-4.5c-0.4-0.4-0.9-0.6-1.4-1
		c-0.6-0.5-0.8-0.8-0.5-1.5c0.9-2.5-0.3-4.4-2-5.3c-0.4-0.2-0.5-0.5-0.5-0.9c-0.1-1-0.4-1.9-1.1-2.6c-0.4-0.4-0.5-0.9-0.3-1.4
		C59.7,128.2,59.6,127.5,60,127z"/>
	<path id="XMLID_192_" class="st2" d="M50.3,164.5c-0.6,1.3-1.4,2.5-2.8,3.2c-0.2,0.1-0.2,0.2-0.2,0.4c0.3,0.7,0.4,1.5,0.9,2.1
		c0.2,0.4,0.6,0.6,1,0.8c0.9,0.5,1.8,1,2.5,1.8c0.9,1,1.2,2.6,0.7,3.7c-0.3,0.7-0.9,1.1-1.5,1.4c-1.8,0.8-3.6,1.1-5.6,0.9
		c-0.9-0.1-1.6-0.6-2-1.4c-0.7-1.4-1.6-2.6-2.8-3.6c-1-0.9-1.4-2.2-1.2-3.6c-0.2-0.8,0.2-1.4,0.6-2c0.3-0.6,0.4-0.8-0.2-1.3
		c-0.8-0.6-1.3-1.6-1.7-2.5c-0.3-0.8-0.4-1.7-0.3-2.6c0.7-1.3-0.3-2.3-0.7-3.3c-0.7,0.9-0.2,2.1-0.4,3.2c-0.4,1.1-0.8,2.1-1.6,2.9
		c-1,0.7-1.6,1.6-2,2.7c-0.5,1.5-1.6,2.6-3.3,2.9c-0.8,0-1.1,0.5-1.3,1.2c-0.5,1.4-0.5,2.8-0.1,4.2c0.2,0.7,0.4,1.4,0.4,2.2
		c0.1,1.8-0.7,2.9-2.5,3.4c-3.3,0.9-6.4-0.1-8.2-2.8c-0.9-1.3-0.9-2.1,0-3.4c1-1.3,2.1-2.6,2.9-4c0.1-0.2,0.3-0.5,0.4-0.7
		c0-0.3,0.1-0.5,0.2-0.7c0.4-0.7,0.3-1.2-0.2-1.7c-0.8-1-1.3-2.1-1.3-3.4c-0.1-1,0.2-1.9,0.6-2.7c0.7-0.8,0.9-1.7,0.8-2.9
		c-0.3-2.4,0.7-4.2,2.6-5.6c0.7-0.5,1-1.2,0.7-2.1c-0.6-2-0.3-4,0.8-5.8c0.3-0.5,0.4-1,0.3-1.6c-0.2-1.6,0-3.1,0.9-4.4
		c0.3-0.4,0.4-0.8,0.2-1.3c-0.3-1-0.3-2.1-0.1-3.2c0.1-0.5,0.1-0.9-0.2-1.3c-0.1-0.1-0.1-0.2-0.1-0.3c-0.2-1.2-0.9-1.6-2-1.9
		c-1.2-0.3-2.2-1.1-3-2.1c-0.3-0.4-0.6-0.6-1.1-0.7c-0.9-0.4-1.9-0.7-2.5-1.6c-0.9-0.9-1.7-2-1.9-3.3c0-0.2-0.2-0.3-0.4-0.5
		c-1.3-1.2-2-2.7-2-4.5c0-0.2-0.1-0.4-0.1-0.7c-0.5-1.2-0.4-2.3,0.3-3.4c0.3-0.5,0.2-0.7-0.2-1c-1.4-1.1-2.4-2.5-2.5-4.3
		c-0.1-0.8-0.1-1.5-0.1-2.3c0-0.6-0.1-1.1-0.3-1.7c-0.4-0.7-0.6-1.5,0.3-2c0.1,0,0.1-0.1,0.1-0.2c0.6-1.1,1.4-1.4,2.6-0.9
		c0.1,0.1,0.3,0.2,0.4,0.2c1.6-0.1,2.4,0.9,3.2,2c0.2,0.3,0.3,0.5,0.7,0.2c1-0.8,2.6-0.2,3,1c0.1,0.3,0.1,0.5,0,0.7
		c-0.5,0.9-0.3,1.8,0.1,2.7c0.3,0.7,0.3,1.5,0.6,2.2c0.2,0.7,1.3,0.9,1.5,1.6c0.4,1.1,1.4,1.7,2.2,2.5c0.5,0.5,1.2,0.8,1.9,0.8
		c0.9,0,1.8,0.1,2.7,0.5c0.2,0.1,0.4,0.1,0.6,0c1.2-0.5,2.6-0.7,4-0.8c-0.7-1-1-2.1-0.9-3.3c0-0.6,0.1-1.2,0.4-1.7
		c0.5-0.7,0.6-1.5,0.7-2.3c0.3-2,1.3-3.5,3.1-4.4c0.2-0.1,0.4-0.3,0.5-0.5c1-1.4,4-1.5,5.1-0.1c0.2,0.2,0.4,0.3,0.6,0.4
		c1.9,0.9,3.1,2.3,3.3,4.5c0,0.3,0.1,0.5,0.3,0.7c1.5,1.7,1.6,3.6,0.7,5.6c-0.1,0.1-0.2,0.2-0.1,0.4c1.5,0.2,2.9,0.6,4.2,1.4
		c0.4,0.2,0.9,0.2,1.3,0.4c2,0.7,3.5,1.9,4.1,4c0.2,0.8-0.2,1.6,0.1,2.2c0.3,0.6,0.9,1.1,1.2,1.8c0.3,0.6,0.4,1.3,0.4,2
		c0,0.7-0.1,1.5-0.4,2.2c-0.1,0.3,0,0.5,0.2,0.7c0.8,0.9,1.3,1.9,1.3,3.1c0,0.3,0.2,0.4,0.4,0.5c2.2,1.3,3,3.3,2.1,5.7
		c-0.2,0.6,0,0.9,0.5,1.1c1.1,0.7,2,1.5,2.7,2.6c0.7,1.1,0.8,2.3,0.5,3.6c-0.3,1-1.8,1.6-2.9,1.1c-0.4-0.2-0.7-0.1-1,0.1
		c-0.2,0.2-0.5,0.3-0.8,0.5c-0.9,0.6-1.6,0.5-2.1-0.5c-0.5-0.8-1-1.6-1.7-2.3c-0.5-0.5-0.5-1.2-0.4-1.8c0.2-0.7,0-0.9-0.7-1
		c-1.1-0.1-2-0.4-2.8-1.2c-0.1-0.1-0.2-0.3-0.4-0.3c0.3,1.6,0,3.1-0.8,4.5c-0.1,0.2-0.2,0.4-0.2,0.7c0.5,2.2-0.1,4.1-1.6,5.7
		c-0.3,0.3-0.2,0.6-0.2,0.9c0,1.5,0.2,2.9,0.6,4.3c0.4,1.3-0.3,2.6-1.1,3.8c-0.1,0.2-0.4,0.3-0.4,0.6
		C51,162.7,50.8,163.6,50.3,164.5z"/>
	<path id="XMLID_191_" class="st1" d="M18.4,126.9c0.9,0.7,1.9,1.3,3.1,1.6c0.2,0.1,0.3,0.2,0.5,0.4c1.1,1.4,2.5,2.3,4.2,2.6
		c0.4,0.1,0.6,0.2,0.6,0.6c0,0,0,0,0,0.1c0.8,1.3,0.8,2.6,0.5,4.1c-0.1,0.7,0.1,1.3,0.3,2c0.1,0.4,0.1,0.6-0.1,0.9
		c-1.1,1.4-1.3,3-1,4.8c0.1,0.5,0,0.8-0.2,1.2c-1.3,1.9-1.5,3.9-0.9,6.1c0.2,0.6-0.2,1.8-0.7,2.1c-2.2,1.5-3,3.5-2.7,6.1
		c0.1,0.7,0.1,1.3-0.5,1.8c-0.2,0.1-0.3,0.4-0.4,0.5c-0.2,0.2-0.5,0.2-0.7,0.2c-1.3,0-2.6,0-3.9,0c-0.3,0-0.5,0-0.7-0.2
		c0-11.3,0-22.6,0-33.9c0-0.8,0.2-1,0.9-0.9C17.3,127,17.8,126.9,18.4,126.9z"/>
	<path id="XMLID_190_" class="st1" d="M30.1,170.2c1.5-0.7,2.8-1.6,3.2-3.2c0.3-1.2,1-1.9,1.9-2.5c1.1-0.3,2.1-0.3,3.2,0
		c0.5,1.1,1.1,2.1,2.1,2.8c0.3,0.2,0.1,0.4,0,0.6c-0.5,0.7-0.8,1.5-1,2.4C36.4,170.2,33.2,170.2,30.1,170.2z"/>
	<path id="XMLID_189_" class="st1" d="M20.5,164.5c0.2,1.4,0.7,2.7,1.7,3.7c0.2,0.2,0.3,0.4,0.1,0.7c-0.2,0.5-0.3,1-0.7,1.3
		c-1.7,0-3.5,0-5.2,0c-0.6,0-0.7-0.2-0.7-0.7c0-1.7,0-3.3,0-5c0.2-0.1,0.4-0.2,0.7-0.2c1.2,0,2.3,0,3.5,0
		C20.1,164.3,20.4,164.3,20.5,164.5z"/>
	<path id="XMLID_188_" class="st3" d="M20.5,164.5c-1.6,0-3.2,0-4.7,0c0-0.9,0-1.8,0-2.7c1.8,0,3.5,0,5.3,0
		C20.8,162.6,20.5,163.5,20.5,164.5z"/>
	<path id="XMLID_187_" class="st4" d="M86.6,146.9c2.1-3.1,4.1-6.2,6.1-9.3c0.3-0.5,0.6-0.6,1.1-0.6c3.9,0,7.8,0,11.7,0
		c0.6,0,0.8,0.1,0.5,0.7c-2.2,6-4.5,12-6.6,18c-0.2,0.5-0.4,0.6-0.9,0.6c-2.4,0-4.7,0-7.1,0c-0.6,0-0.7-0.1-0.5-0.7
		c1.5-3.9,2.9-7.9,4.4-11.8c0.1-0.2,0.2-0.4,0.2-0.7c-0.3,0.1-0.3,0.4-0.5,0.6c-2.7,4-5.4,8.1-8.1,12.1c-0.2,0.4-0.5,0.5-1,0.5
		c-2.1,0-4.2,0-6.3,0c-0.6,0-0.6-0.2-0.6-0.7c0.3-3.9,0.6-7.9,0.9-11.8c0.1-0.3,0-0.7,0-1c0,0.1-0.1,0.2-0.2,0.3
		c-1.5,4.2-3.1,8.4-4.6,12.5c-0.2,0.5-0.4,0.7-0.9,0.7c-2.4,0-4.8,0-7.2,0c-0.5,0-0.6-0.1-0.4-0.6c2.3-6.1,4.5-12.2,6.7-18.3
		c0.1-0.4,0.3-0.5,0.7-0.5c3.4,0,6.8,0,10.2,0c1.4,0,2.2,0.7,2.5,2.1c0.3,1.2,0,2.5-0.1,3.7c-0.1,1.1-0.2,2.2-0.2,3.3
		c-0.1,0.2-0.1,0.4,0,0.7c0,0.1,0,0.2,0,0.3C86.5,147,86.5,147,86.6,146.9z"/>
	<path id="XMLID_186_" class="st5" d="M50.3,164.5c0.2-0.9,0.4-1.8,0.4-2.8c0.3,0,0.6,0,0.9,0c57.4,0,114.8,0,172.3,0
		c1,0,1,0,0.6,0.9c-0.2,0.6-0.2,1.4-0.8,1.7c-0.5,0.3-1.2,0.1-1.8,0.1c-56.9,0-113.9,0-170.8,0C50.9,164.5,50.6,164.5,50.3,164.5z"
		/>
	<path id="XMLID_185_" class="st4" d="M251.9,149.5c1.5-4,2.9-7.9,4.4-11.9c0.2-0.5,0.4-0.7,0.9-0.7c2.3,0,4.7,0,7.1,0
		c-0.5,1.4-1,2.6-1.4,3.9c-1.8,4.9-3.6,9.8-5.4,14.7c-0.2,0.5-0.4,0.7-1,0.7c-4,0-7.9,0-11.9,0c-0.5,0-0.7-0.1-0.6-0.6
		c0.2-4.1,0.4-8.1,0.6-12.2c0-0.2,0.2-0.4-0.2-0.4c-1.6,4.2-3.1,8.5-4.7,12.7c-0.1,0.3-0.3,0.5-0.7,0.5c-2.3,0-4.6,0-6.8,0
		c-0.7,0-0.4-0.3-0.3-0.7c2-5.3,3.9-10.6,5.9-15.9c0.3-0.7,0.6-1.5,0.8-2.2c0.1-0.3,0.3-0.5,0.7-0.5c3.4,0,6.8,0,10.2,0
		c1.4,0,2.4,0.9,2.6,2.3c0.1,0.5,0.1,1,0.1,1.5c-0.1,2.6-0.2,5.1-0.4,7.7c-0.1,0.4-0.1,0.8,0,1.2
		C251.7,149.7,251.8,149.5,251.9,149.5z"/>
	<path id="XMLID_184_" class="st4" d="M159.7,149.8c-1.5,0-3,0-4.4,0c-0.4,0-0.4,0.3-0.4,0.5c-0.7,1.8-1.4,3.6-2,5.5
		c-0.1,0.4-0.3,0.5-0.7,0.5c-2.6,0-5.1,0-7.7,0c-0.6,0-0.6-0.2-0.4-0.7c2.2-6,4.4-12.1,6.7-18.1c0.1-0.3,0.1-0.6,0.6-0.6
		c2.8,0,5.6,0,8.5,0c-0.9,2.3-1.7,4.6-2.5,7c1.5,0,3,0,4.4,0c0.4,0,0.4-0.3,0.5-0.6c0.7-1.9,1.4-3.8,2.1-5.7
		c0.2-0.5,0.4-0.7,0.9-0.7c2.5,0,5,0,7.5,0c0.5,0,0.7,0,0.5,0.6c-2.2,6-4.5,12.1-6.7,18.2c-0.1,0.4-0.3,0.6-0.8,0.6
		c-2.6,0-5.1,0-7.7,0c-0.6,0-0.6-0.2-0.4-0.7c0.7-1.7,1.3-3.5,1.9-5.2C159.6,150.3,159.6,150.1,159.7,149.8z"/>
	<path id="XMLID_183_" class="st4" d="M195,144.2c-0.6,1.5-1.1,3-1.6,4.4c-0.1,0.4-0.4,0.3-0.7,0.3c-3,0-5.9,0-8.9,0
		c-0.6,0-0.8,0.2-1,0.7c-0.5,1.4-0.5,1.4,1,1.4c2.9,0,5.7,0,8.6,0c0.2,0,0.5,0,0.8,0c-0.6,1.7-1.2,3.3-1.8,5
		c-0.1,0.3-0.4,0.3-0.6,0.3c-1.9,0-3.9,0-5.8,0c-4.2,0-8.5,0-12.7,0c-0.5,0-0.7-0.1-0.5-0.6c2.2-6,4.5-12.1,6.7-18.2
		c0.2-0.4,0.4-0.5,0.8-0.5c6.1,0,12.2,0,18.3,0c0.6,0,0.6,0.1,0.4,0.6c-0.5,1.3-1,2.6-1.4,3.9c-0.1,0.4-0.4,0.6-0.8,0.5
		c-3.1,0-6.2,0-9.3,0c-0.6,0-0.9,0.2-1.1,0.8c-0.5,1.4-0.5,1.4,1,1.4c2.6,0,5.2,0,7.8,0C194.4,144.2,194.6,144.2,195,144.2z"/>
	<path id="XMLID_182_" class="st4" d="M143.6,144.1c-0.7-1.3-1.9-1.8-3.1-1.8c-2.8-0.1-5.5,0.4-7.6,2.4c-0.6,0.5-1,1.2-1.3,1.9
		c-0.6,1.5-0.1,2.8,1.3,3.5c1.5,0.8,3,0.8,4.6,0.6c1.3-0.1,2.6-0.4,4-0.6c-0.3,0.8-0.6,1.6-0.9,2.4c-0.4,1-0.8,2-1.1,3
		c-0.1,0.2-0.2,0.4-0.5,0.5c-3.9,0.6-7.9,1.2-11.8,0.2c-1.4-0.4-2.8-0.9-4-1.8c-2.1-1.6-2.7-3.8-2.2-6.3c0.7-3.7,3-6.2,6-8.1
		c3.2-2,6.7-3,10.5-3.3c2.8-0.2,5.5-0.1,8.2,0.4c0.6,0.1,0.7,0.2,0.4,0.8C145.3,140,144.5,142,143.6,144.1z"/>
	<path id="XMLID_181_" class="st4" d="M205,156.3c-2.8,0-5.7,0-8.5,0c-0.5,0-0.6-0.1-0.4-0.6c2.3-6.1,4.5-12.1,6.7-18.2
		c0.1-0.4,0.4-0.5,0.8-0.5c2.6,0,5.3,0,7.9,0c0.5,0,0.6,0.1,0.4,0.6c-1.4,3.9-2.9,7.8-4.3,11.6c-0.2,0.5-0.2,0.7,0.5,0.7
		c2.6,0,5.2,0,7.7,0c0.7,0,0.7,0.2,0.5,0.7c-0.7,1.7-1.3,3.4-1.9,5.1c-0.2,0.5-0.4,0.6-0.9,0.6C210.6,156.3,207.8,156.3,205,156.3z"
		/>
	<path id="XMLID_180_" class="st4" d="M228.7,137c1.4,0,2.7,0,4.1,0c0.4,0,0.6,0,0.4,0.5c-2.3,6.1-4.5,12.2-6.7,18.3
		c-0.1,0.4-0.4,0.5-0.7,0.5c-2.7,0-5.4,0-8.2,0c-0.6,0-0.6-0.2-0.4-0.7c1.8-4.8,3.5-9.6,5.3-14.4c0.4-1.2,0.9-2.4,1.3-3.7
		c0.2-0.4,0.4-0.6,0.8-0.6C226,137.1,227.4,137,228.7,137z"/>
	<path id="XMLID_179_" class="st4" d="M121.1,137c-1.1,3.1-2.3,6.1-3.4,9.1c-1.2,3.2-2.4,6.4-3.5,9.6c-0.2,0.5-0.4,0.6-0.9,0.6
		c-2.7,0-5.3,0-8,0c-0.6,0-0.6-0.1-0.4-0.7c2.2-6,4.5-12.1,6.7-18.1c0.1-0.3,0.2-0.5,0.6-0.5C115.1,137,118.1,137,121.1,137z"/>
	<path id="XMLID_178_" class="st6" d="M251.9,149.5c0,0.1-0.1,0.3-0.1,0.4c-0.1-0.5-0.2-1.1,0-1.6
		C251.9,148.8,251.6,149.2,251.9,149.5z"/>
	<path id="XMLID_177_" class="st7" d="M79.8,143.2c0-0.2,0.1-0.3,0.1-0.5c0.1,0.4,0.2,0.8,0,1.2C79.8,143.6,80,143.4,79.8,143.2z"/>
	<path id="XMLID_176_" class="st8" d="M86.6,146.9c0,0.1-0.1,0.3-0.3,0.3c0-0.4,0-0.7,0.1-1.1C86.6,146.4,86.4,146.7,86.6,146.9z"/>
	<path id="XMLID_175_" class="st9" d="M244.4,143.2c0-0.1,0-0.3,0.2-0.3c0.2,0,0.1,0.2,0.1,0.3c0,0.2,0,0.3-0.1,0.5
		C244.5,143.4,244.6,143.2,244.4,143.2z"/>
	<path id="XMLID_174_" class="st4" d="M31.8,117.7c1.7-0.5,3.4-0.9,5-0.1c0.2,0.1,0.4,0.1,0.5,0.1c0.1,0,0.2,0,0.3-0.2
		c0.1-0.1,0-0.3-0.1-0.3c-0.8-0.5-0.5-0.9,0.1-1.4c-1.2-0.6-2-1.4-2.2-2.8c-0.2-1.1,0.5-2.9,2-3.2c0.1,0,0.4,0,0.3-0.3
		c0-0.2-0.2-0.1-0.4-0.1c-0.3,0-0.6,0.3-0.8,0.1c-0.2-0.3-0.1-0.7,0-1c0.4-2.2,1.8-3.4,4.1-3.7c-0.1-0.4-0.5-0.2-0.6-0.4
		c0.5-0.5,1.8-0.7,2.4-0.3c0.1,0.1,0.2,0.2,0.2,0.2c-0.2,0.7,0.4,0.6,0.7,0.7c1.8,0.6,2.9,1.9,3,3.5c0,0.9,0,0.9,0.7,1.6
		c0.9,1.1,1.1,2.9,0.4,4.1c-0.2,0.4-0.4,0.7-0.8,0.8c-0.4,0.2-0.4,0.3-0.3,0.7c0.2,0.7-0.4,0.9-0.9,1.4c0.6,0.1,1-0.1,1.4-0.4
		c0.2-0.2,0.4-0.3,0.7-0.3c1.4,0.1,2.7,0.3,4,0.8c0.3,0.1,0.6,0.3,0.9,0.5c1.1,0.7,1.2,1.6,0.3,2.6c-0.9,1-2.2,1.5-3.5,1.9
		c-4.6,1.3-9.2,1.5-13.8,0.1c-0.8-0.3-1.4-0.6-1.6-1.6C33.5,119.6,32.8,118.7,31.8,117.7z"/>
	<path id="XMLID_173_" class="st4" d="M55,128.3c0.7,1.4,0.7,2.7,0.2,4.1c-0.8,2.5-2.7,4-5.1,4.9c-3,1.2-6.2,1.4-9.4,1.2
		c-3.4-0.3-6.7-1.2-9.6-3.2c-1.2-0.9-2.3-1.9-2.8-3.4c-0.1-0.5-0.1-0.6,0.4-0.7c1.2-0.2,2.3-0.6,3.2-1.5c0.2-0.2,0.4-0.3,0.7-0.1
		c2.5,1.8,5.3,2.4,8.3,2.6c3.8,0.2,7.5-0.4,11-2C53.1,129.8,54.1,129.1,55,128.3z"/>
	<path id="XMLID_172_" class="st4" d="M34.4,123.1c3,1.1,6.1,1.4,9.1,1.2c2.7-0.2,5.3-0.7,7.8-1.8c0.8-0.3,1.6-0.7,2.2-1.4
		c0.2-0.2,0.3-0.2,0.5,0.1c1.8,2.4,1.5,5.2-0.9,7c-2,1.6-4.3,2.3-6.8,2.7c-3.3,0.6-6.6,0.5-9.9-0.5c-1.1-0.3-2.1-0.9-3.1-1.6
		c-0.2-0.2-0.4-0.3-0.2-0.6C34.1,126.7,34.5,125,34.4,123.1z"/>
	<path id="XMLID_171_" class="st4" d="M53.9,136.6c0.1,1.8-0.4,3.2-1.5,4.3c-1.4,1.5-3.2,2.3-5.2,2.7c-4.5,1-9,0.7-13.3-1
		c-1.3-0.5-2.6-1.3-3.5-2.4c-1.3-1.4-1.8-3.1-1.4-5.1c3.5,3,7.7,4.3,12.2,4.6C45.6,139.9,50,139.3,53.9,136.6z"/>
	<path id="XMLID_170_" class="st4" d="M12.8,103.3c0.7-0.2,1.1,0.2,1.4,0.6c0.9,1,1.5,2.3,2.2,3.5c0.1,0.2,0.1,0.7,0.5,0.5
		c0.3-0.2,0.2-0.5,0-0.8c-0.5-1.1-1.1-2.2-1.8-3.2c0.3-0.1,0.4,0.1,0.6,0.2c1,1,1.8,2.1,1.9,3.5c0.1,0.8,0.3,1.5-0.1,2.2
		c-0.1,0.2-0.1,0.5,0.1,0.6c0.3,0.1,0.3-0.2,0.4-0.4c0.2-0.3,0.3-0.6,0.6-0.8c0.4-0.2,0.1-0.4,0.1-0.6c-0.3-0.9-0.3-1.7,0.2-2.6
		c0.2-0.3,0.5-0.5,0.9-0.3c0.4,0.2,0.3,0.4,0.2,0.8c-0.3,1-0.2,1.9,0.2,2.9c0.6,1.1,0.8,2.3,0,3.4c-0.2,0.2-0.2,0.5-0.1,0.8
		c0.1,0.4,0.1,0.8-0.1,1.2c-0.1,0.2-0.1,0.4,0,0.5c0.2,0.1,0.4,0,0.5-0.1c0.3-0.1,0.4-0.4,0.4-0.7c0-0.3,0-0.7,0.1-1
		c0-0.3,0-0.6,0.3-0.7c0.3-0.1,0.5,0.2,0.7,0.4c0.9,0.8,1.1,2.2,0.5,3.5c-0.8,1.8-3.3,3-5.2,2.5c-2.2-0.5-2.9-2.6-1.5-4.3
		c0.2,0.3,0.4,0.6,0.6,0.9c0.4,0.5,1.2,0.7,1.8,0.4c0.1,0,0.3,0,0.2-0.2c0-0.1-0.1-0.3-0.3-0.3c-0.9,0-1.2-0.6-1.5-1.2
		c-0.3-0.6-0.8-1.1-1.4-1.4c-2.2-1.5-2.9-3.7-2.6-6.3c0-0.2,0-0.4,0.2-0.4c0.2,0,0.3,0.1,0.4,0.2c0.3,0.2,0.3,0.6,0.3,0.9
		c0.1,0.7,0.2,1.4,0.5,2.1c0.1,0.1,0.1,0.4,0.4,0.2c0.2-0.1,0.3-0.2,0.2-0.4c-0.3-0.8-0.4-1.6-0.5-2.4c-0.1-0.6-0.4-1.1-1-1.1
		c-0.8-0.1-0.7-0.8-1-1.2c-0.1-0.2,0.2-0.3,0.4-0.3c0.2,0,0.4,0.2,0.5,0.4c0.7,0.9,1.3,1.9,1.8,2.9c0.2,0.4,0.4,1,0.8,0.8
		c0.4-0.2-0.2-0.7-0.3-1c-0.3-0.7-0.7-1.4-1.1-2.2C14,104.5,13.6,103.8,12.8,103.3z"/>
	<path id="XMLID_169_" class="st4" d="M28.7,139.9c2.5,3.2,5.9,4.5,9.7,5.1c1.3,0.2,2.6,0.3,3.9,0.3c0.5,0,0.5,0.2,0.5,0.6
		c-0.2,1.3-0.8,2.2-1.9,3c-3.9,2.8-11.2,1.5-13-4.5C27.4,142.7,27.7,141.2,28.7,139.9z"/>
	<path id="XMLID_168_" class="st4" d="M27.4,145.9c3.4,5,6.9,6.1,13.2,4.2c-0.1,2.3-1.8,4.4-4.2,5.2c-3.2,1-6.5,0.1-8.5-2.5
		C26.1,150.7,25.9,148.3,27.4,145.9z"/>
	<path id="XMLID_167_" class="st4" d="M51.3,176.1c-0.1,0.5-0.5,0.6-0.8,0.8c-1.3,0.6-2.6,0.8-4,0.7c-1-0.1-1.8-0.5-2.3-1.4
		c-0.6-1.1-1.4-1.9-2.2-2.8c-1.5-1.6-1.4-3.3-0.1-5.1c0.2-0.3,0.3-0.4,0.7-0.3c1,0.4,2.1,0.4,3.2,0.1c0.2-0.1,0.5-0.2,0.5,0.2
		c0.1,0.4-0.2,0.4-0.4,0.5c-0.3,0-0.7,0.1-1,0.2c-0.2,0.1-0.6,0-0.5,0.4c0.1,0.4,0.2,0.7,0.7,0.5c0.2-0.1,0.5-0.1,0.7-0.1
		c0.6-0.2,1,0,1.1,0.7c-0.5,0.1-1,0.2-1.5,0.3c-0.3,0-0.5,0.1-0.3,0.4c0.1,0.3,0.2,0.6,0.6,0.4c1.3-0.5,2.4-0.1,3.4,0.6
		c0.5,0.4,1.1,0.6,1.6,1c1.1,0.9,1.1,1.9-0.2,2.7c-1,0.6-2,0.7-3.1,0.8c-0.3,0-0.7-0.2-0.8,0.2c0,0.3,0.5,0.3,0.8,0.3
		C48.7,177.3,50.1,177,51.3,176.1z"/>
	<path id="XMLID_166_" class="st4" d="M35.4,160.1c0.1,1.7-0.5,2.9-1.7,3.9c-1.6,1.4-3.5,1.5-5.5,1c-3.4-0.9-5.7-5-4.5-8.2
		c0.2-0.7,0.6-1.3,1.2-1.8C25.3,159.7,30.8,162.9,35.4,160.1z"/>
	<path id="XMLID_165_" class="st4" d="M24,169.2c1,0.9,2.1,1,3.3,1.1c0.4,0,0.4,0.1,0.3,0.4c-0.8,1.8-0.7,3.7-0.1,5.6
		c0.6,1.9,0.2,2.4-1.8,2.7c-1.8,0.3-3.4,0-4.9-1c-0.1,0-0.2-0.1-0.3,0c1.1,1.6,2.7,2,4.6,2c-0.4,0.3-0.4,0.4-0.9,0.3
		c-1.8,0-3.3-0.7-4.5-2.2c-0.6-0.8-0.6-1.5-0.1-2.3c0.4-0.6,0.8-1.1,1.2-1.6C22,172.6,23.1,171.1,24,169.2z"/>
	<path id="XMLID_164_" class="st4" d="M28.7,117.6c2.8,0.8,4.3,2.8,4.5,5.9c0.1,1.2,0,2.4-0.5,3.5c-1.7,4.2-7.2,3.7-9,1.5
		c0.7,0,1.4-0.2,2-0.4c3.3-1.1,5-4.4,4-8C29.5,119.3,29.2,118.5,28.7,117.6z"/>
	<path id="XMLID_163_" class="st4" d="M39.2,155.2c1.5,4.4,8.1,5.2,11.4,1.6c0.4,0.9,0.3,1.7,0,2.5c-0.8,2.1-2.4,3.2-4.5,3.6
		c-3.3,0.7-6.6-1.4-7.3-4.7C38.6,157.2,38.6,156.1,39.2,155.2z"/>
	<path id="XMLID_162_" class="st4" d="M18.2,124c2.2,0.7,4.3,0.4,6-1.1c1.7-1.5,2.4-3.4,2-5.7c1.5,0.6,2.8,3.6,2.5,5.8
		c-0.3,2.4-2.5,4.3-5,4.5C21.5,127.6,18.8,125.9,18.2,124z"/>
	<path id="XMLID_161_" class="st4" d="M52.1,147.1c0.4,2.7-1.3,5.3-4.2,6.1c-2.1,0.6-4.2,0.4-6.1-0.8c-0.4-0.2-0.5-0.5-0.3-0.9
		c0.2-0.6,0.3-1.2,0.3-1.8c0-0.6,0.3-0.7,0.8-0.5C46.1,150.1,49.2,149.4,52.1,147.1z"/>
	<path id="XMLID_160_" class="st4" d="M26.6,153c1.5,1.8,3.2,3,5.4,3.5c1.3,0.3,2.5,0.3,3.8,0c0.4-0.1,0.5,0.1,0.4,0.4
		c-0.1,0.8-0.5,1.4-1,2c-1.5,1.5-4.1,1.8-6.3,0.8c-1.8-0.8-3-2.8-2.9-4.8C26.1,154.2,26.2,153.6,26.6,153z"/>
	<path id="XMLID_159_" class="st4" d="M32.2,165.9c-0.5,2.3-2.3,3.6-4.8,3.5c-3.2-0.2-5.6-2.8-5.3-5.9c0.1-0.5,0.2-1,0.5-1.4
		c0.2-0.4,0.4-0.5,0.6,0c1,1.8,2.4,3.1,4.4,3.7C29.1,166.3,30.6,166.3,32.2,165.9z"/>
	<path id="XMLID_158_" class="st4" d="M15.7,119.4c3.1,2,7.6-0.3,8.3-3.8c1.2,0.8,1.7,2.7,1.1,4.4c-0.7,2.2-2.8,3.6-4.9,3.4
		C17.9,123.2,16.2,121.7,15.7,119.4z"/>
	<path id="XMLID_157_" class="st4" d="M53.1,141.8c0.3,5.4-5.3,8-10.2,6.6c0.5-0.9,1-1.9,1-3c0-0.4,0.4-0.2,0.6-0.3
		c1.4-0.1,2.8-0.4,4.2-0.8C50.3,143.8,51.7,143,53.1,141.8z"/>
	<path id="XMLID_156_" class="st4" d="M45.4,158.1c-1.9-0.1-3.5-0.6-4.7-2.2c-0.8-1.1-0.7-1.7,0.1-2.8c0.2-0.3,0.3-0.1,0.4,0
		c2.8,1.8,5.7,1.7,8.6,0.2c0.4-0.2,0.5-0.1,0.5,0.3c0.2,2.3-1.6,4.2-4.1,4.4C46,158.1,45.7,158.1,45.4,158.1z"/>
	<path id="XMLID_155_" class="st4" d="M39.7,161.6c3,3,6.7,2.8,9.4,1.1c0.3,1.3-0.4,3.1-1.7,3.9c-1.9,1.2-3.8,1.1-5.7,0.1
		C40,165.8,39.4,164.1,39.7,161.6z"/>
	<path id="XMLID_154_" class="st4" d="M58.4,141.4c-1.6,0-3-1-3.3-2.4c-0.1-0.5-0.1-0.9,0.6-1c2-0.4,3.7-1.2,4.7-3.2
		c0.2-0.4,0.4-0.2,0.6-0.1c1.3,0.7,1.9,2.3,1.5,3.8C61.8,140.3,60.3,141.5,58.4,141.4z"/>
	<path id="XMLID_153_" class="st4" d="M59.7,132.8c0,1.4-0.6,2.3-1.4,3.1c-0.8,0.7-1.7,1.1-2.7,1.4c-0.4,0.1-0.5,0-0.6-0.4
		c-0.1-0.9-0.2-1.7,0.6-2.4c0.1-0.1,0.2-0.3,0.3-0.5c0.3-1.4,1.2-2.3,2.3-3.1c0.3-0.2,0.4-0.3,0.6,0
		C59.3,131.5,59.7,132.2,59.7,132.8z"/>
	<path id="XMLID_152_" class="st4" d="M63.2,142.1c0.4,0.9,1,1.7,1.6,2.4c0.3,0.3,0.6,0.6,0.8,0.8c0.2,0.2,0.4,0.5,0.2,0.9
		c-0.2,0.3-0.5,0.4-0.9,0.3c-0.5-0.1-0.8-0.4-1.1-0.8c-0.3-0.3-0.6-0.6-1-0.8c-0.4-0.2-0.7-0.4-0.9-0.8c-0.1-0.3-0.5-0.6-0.8-0.5
		c-0.5,0-0.7-0.3-1-0.5c-0.6-0.4-0.5-0.9,0.1-1.1c0.7-0.3,1.3-0.6,1.9-1.1c0.2-0.1,0.3-0.3,0.5,0c0.3,0.4,0.9,0.7,1.3,1
		c0.9,0.6,1.6,1.5,1.9,2.6c-0.4-0.4-0.8-0.9-1.2-1.3c-0.4-0.4-0.8-0.8-1.1-1.3C63.3,142,63.3,142,63.2,142.1z"/>
	<path id="XMLID_151_" class="st4" d="M56.9,130.3c-0.1-1.1-0.3-2.1-1-3c-0.1-0.2-0.1-0.3,0-0.4c0.6-0.7,1.1-1.6,1.5-2.5
		C59.2,126.1,58.9,129.3,56.9,130.3z"/>
	<path id="XMLID_150_" class="st10" d="M38.4,164.5c-1.1,0-2.1,0-3.2,0c0.7-0.8,1.2-1.8,1.5-2.8c0.5-0.3,0.9-0.3,1.4,0
		C38.1,162.7,38.2,163.6,38.4,164.5z"/>
	<path id="XMLID_149_" class="st11" d="M54.4,118.6c2.2,0.8,3.2,3.1,2,5.4c-0.1-0.8-0.3-1.6-0.6-2.4c-0.2-0.4-0.3-0.8-0.6-1.1
		C54.6,120,54.1,119.5,54.4,118.6z"/>
	<path id="XMLID_148_" class="st12" d="M38.1,161.7c-0.5,0-0.9,0-1.4,0c0-0.8,0.1-1.5-0.1-2.3c-0.1-0.5,0.5-0.8,0.6-1.4
		c0.2,0.8,0.6,1.4,1,2.1C38.7,160.7,38.2,161.2,38.1,161.7z"/>
	<path id="XMLID_147_" class="st13" d="M61.7,147.2c-0.2,0-0.3,0-0.4-0.2c-0.2-0.6,0.3-0.9,0.7-1.2c0.4-0.3,0.7-0.2,0.9,0.2
		c0.1,0.1,0.2,0.2,0.1,0.3C62.6,146.7,62.1,147,61.7,147.2z"/>
	<path id="XMLID_146_" class="st14" d="M60.4,145.3c0.1-0.4,0-1,0.5-1c0.5,0,0.7,0.5,0.7,0.9c0,0.4-0.5,0.7-0.8,0.7
		C60.3,146,60.6,145.4,60.4,145.3z"/>
	<path id="XMLID_145_" class="st15" d="M59.7,145c-0.4-0.3-0.4-0.7-0.3-1c0-0.2,0.2-0.3,0.4-0.2c0.2,0.1,0.3,0.2,0.2,0.4
		C59.9,144.4,59.8,144.7,59.7,145z"/>
	<path id="XMLID_144_" class="st16" d="M41.9,109.2c0,0.7-0.1,1.3-0.5,1.8c-0.6,0.8-1.4,0.8-2,0.1c-0.8-0.9-0.8-2.8,0-3.7
		c0.6-0.6,1.3-0.6,1.9,0C41.8,107.9,41.9,108.5,41.9,109.2z"/>
	<path id="XMLID_143_" class="st17" d="M45.6,109.3c0,0.5-0.1,1.1-0.5,1.6c-0.5,0.6-1.1,0.6-1.7,0.1c-0.9-0.8-1.1-2.8-0.3-3.8
		c0.5-0.6,1.2-0.6,1.7-0.1C45.3,107.6,45.6,108.4,45.6,109.3z"/>
	<path id="XMLID_142_" class="st18" d="M42.6,114.8c-0.4,0-0.8-0.3-1.1-0.6c-0.6-0.5-1.1-1.1-1.9-0.5c0,0-0.2,0-0.2,0
		c-0.1-0.3,0.1-0.5,0.3-0.7c0.1-0.1,0.2-0.4,0.4-0.2c0.4,0.5,0.8,0.2,1.2,0.1c0.9-0.2,1.9-0.3,2.8-0.1c0.2,0,0.4,0,0.5,0
		c0.3-0.2,0.4,0.1,0.4,0.3c0.1,0.3-0.1,0.4-0.3,0.3c-0.5,0-0.7,0.4-1.1,0.7C43.4,114.5,43.1,114.8,42.6,114.8z"/>
	<path id="XMLID_141_" class="st19" d="M17.1,110.9c-0.6-0.2-1.1-0.7-1.8-0.7C16.3,109.7,17,110,17.1,110.9z"/>
	<path id="XMLID_140_" class="st20" d="M23.6,171.3c0-0.3,0.1-0.4,0.4-0.4c0.7,0,1.5,0.2,2.2,0.3c0.3,0.1,0.4,0.2,0.2,0.5
		c-0.1,0.2,0,0.5-0.5,0.4c-0.7-0.2-1.4-0.3-2.1-0.3C23.5,171.8,23.6,171.5,23.6,171.3z"/>
	<path id="XMLID_139_" class="st21" d="M23.9,172.7c0.6,0.1,1.2,0.2,1.8,0.3c0.3,0,0.5,0.1,0.3,0.5c-0.1,0.2-0.1,0.5-0.5,0.4
		c-0.6-0.2-1.2-0.2-1.8-0.3c-0.3,0-0.5-0.1-0.5-0.5c0-0.4,0.2-0.5,0.5-0.4C23.7,172.7,23.8,172.7,23.9,172.7
		C23.9,172.7,23.9,172.7,23.9,172.7z"/>
	<path id="XMLID_138_" class="st14" d="M41.3,109.6c0-0.1,0-0.1,0-0.2c-0.1-0.5-0.3-1-0.9-1c-0.5,0-0.7,0.5-0.8,1
		c0,0.2,0,0.4-0.2,0.5c-0.1-0.8-0.1-1.5,0.3-2.1c0.4-0.7,1.1-0.6,1.5,0c0.3,0.5,0.4,1,0.4,1.6C41.5,109.6,41.4,109.7,41.3,109.6z"/>
	<path id="XMLID_137_" class="st22" d="M41.3,109.6c0.1,0,0.2-0.1,0.2-0.1c0.1,0.2,0,0.4-0.2,0.6C41.2,109.9,41.2,109.8,41.3,109.6z
		"/>
	<path id="XMLID_136_" class="st13" d="M43.2,108.4c0-0.2,0.1-0.3,0.1-0.5c0.1-0.3,0.4-0.6,0.8-0.6c0.4,0,0.6,0.3,0.8,0.6
		c0.4,0.6,0.4,1.3,0.3,2c-0.1,0.1-0.2,0-0.1-0.1c0-0.2-0.1-0.5-0.1-0.7c-0.1-0.4-0.3-0.7-0.7-0.8c-0.4-0.1-0.6,0.2-0.8,0.5
		C43,108.7,43.2,108.5,43.2,108.4z"/>
	<path id="XMLID_135_" class="st23" d="M43.2,108.4c0.1,0.1,0,0.3,0.1,0.4c-0.1,0.2-0.1,0.3-0.2,0.5C43.1,109,43,108.6,43.2,108.4z"
		/>
	<path id="XMLID_134_" class="st24" d="M45,109.8c0,0,0.1,0.1,0.1,0.1c0,0.2,0,0.3-0.2,0.4C44.8,110.1,44.9,109.9,45,109.8z"/>
	<path id="XMLID_133_" class="st25" d="M41.2,113.4c1-0.2,1.8-0.2,2.7-0.1C42.8,114.6,42.7,114.6,41.2,113.4z"/>
</g>
</svg>
