<?xml version="1.0" encoding="utf-8"?>
<!-- Generator: Adobe Illustrator 19.0.0, SVG Export Plug-In . SVG Version: 6.00 Build 0)  -->
<svg version="1.1" id="Ebene_1" xmlns="http://www.w3.org/2000/svg" xmlns:xlink="http://www.w3.org/1999/xlink" x="0px" y="0px"
	 viewBox="0 0 283.5 283.5" style="enable-background:new 0 0 283.5 283.5;" xml:space="preserve">
<style type="text/css">
	.st0{fill:#FFFFFF;stroke:#000000;stroke-miterlimit:10;}
	.st1{fill:#E5272B;}
	.st2{fill:#C77A73;}
</style>
<circle id="XMLID_1_" class="st0" cx="141.7" cy="141.7" r="141.7"/>
<g id="XMLID_2_">
	<path id="XMLID_69_" class="st1" d="M135.2,113.9c38.6,0,77.2,0,115.8,0c1.4,0,2.8-0.1,4.2,0c1.8,0.1,3.5,0.3,5.2,0.8
		c0.9,0.3,1.9,0.6,2.8,0.9c2.4,1,4.3,2.6,5.2,5.2c0.1,0.4,0.2,0.8,0.2,1.2c0.1,1.9,0,3.7-0.6,5.5c-0.6,1.6-1.5,2.9-2.9,3.9
		c-1.3,0.9-2.8,1.3-4.4,1.6c-1.1,0.2-2.2,0.1-3.3,0.2c-1.1,0.1-2.1-0.1-3.2,0.2c-0.3,0.1-0.6,0-0.8,0c-21.8,0-43.5-0.1-65.3,0
		c-49.3,0.2-98.7,0-148,0.1c-0.5,0-0.6,0.2-0.6,0.6c0,11.5,0,23,0,34.6c0,0.7,0,0.7-0.7,0.7c-7.7,0-15.3,0-23,0
		c-1.2,0-1.2,0-1.2-1.2c0-17.9,0-35.8,0-53.8c0-0.7,0-0.7,0.7-0.7c0.2,0,0.4,0,0.6,0C55.8,113.9,95.5,113.9,135.2,113.9z
		 M135.6,127.7c31.5,0,63,0,94.5,0c0.7,0,1.4,0,2.1-0.2c1.5-0.5,2.7-1.3,3-2.9c0.4-1.9-0.2-3.8-2.3-4.6c-0.9-0.3-1.8-0.5-2.7-0.5
		c-62.9,0-125.9,0-188.8,0c-0.5,0-1,0-1.4,0c-0.4,0-0.5,0.1-0.5,0.5c0,2.3,0,4.7,0,7c0,0.5,0.1,0.7,0.7,0.7
		C72,127.7,103.8,127.7,135.6,127.7z"/>
	<path id="XMLID_66_" class="st1" d="M121.3,169.6c-3.4,0-6.7,0-10,0c-1.9,0-3.7,0-5.6,0c-0.4,0-0.6-0.1-0.6-0.5
		c-0.3-1.3-0.6-2.6-1.1-3.9c-0.4-1.1-0.8-2.2-1.6-3.1c-0.7-0.8-1.7-1.2-2.7-1.3c-1.2-0.2-2.4-0.3-3.6-0.2c-0.7,0.1-1.4,0.1-2,0.1
		c-0.4,0-0.4,0.2-0.4,0.5c0,2.6,0,5.1,0,7.7c0,0.5-0.1,0.6-0.6,0.6c-4.3,0-8.5,0-12.8,0c-0.4,0-1,0.3-1.2-0.1
		c-0.2-0.3-0.1-0.8-0.1-1.2c0-9.3,0-18.6,0-27.8c0-0.4,0.1-0.6,0.6-0.6c10.1,0,20.3,0,30.4,0c1.1,0,2.1,0.4,3.1,0.7
		c1.1,0.4,2.3,0.8,3.3,1.5c0.9,0.6,1.7,1.4,2.4,2.2c1,1.2,1.6,2.6,1.9,4.1c0.3,1.7,0.2,3.4-0.6,5c-0.9,1.9-2.1,3.5-3.3,5.2
		c-0.1,0.1-0.1,0.1-0.2,0.2c-0.9,0.9-0.7,0.6-0.2,1.7c1.6,3.1,3.2,6.1,4.8,9.1C121.3,169.4,121.3,169.5,121.3,169.6z M98.5,153.5
		c1.5,0,3.1,0,4.6,0c1,0,1.8-0.5,2.2-1.4c0.3-0.5,0.4-1.1,0.5-1.6c0.4-2.4-1-4-3.4-4c-2.8,0-5.7,0-8.5,0c-0.4,0-0.6,0.1-0.6,0.5
		c0,2,0,4,0,6c0,0.4,0.1,0.5,0.5,0.5C95.5,153.5,97,153.5,98.5,153.5z"/>
	<path id="XMLID_65_" class="st1" d="M149.5,169.5c-5.4,0-10.9,0-16.3,0c-0.4,0-0.5-0.1-0.5-0.5c0-9.5,0-19,0-28.5
		c0-0.4,0.1-0.5,0.5-0.5c10.4,0,20.8,0,31.2,0c0.4,0,0.5,0.1,0.5,0.5c0,1.8,0,3.7,0,5.5c0,0.3-0.1,0.4-0.4,0.4c-5.4,0-10.8,0-16.1,0
		c-0.3,0-0.4,0.1-0.4,0.4c0,1.8,0,3.6,0,5.3c0,0.5,0.3,0.4,0.5,0.4c3.9,0,7.8,0,11.7,0c1.1,0,2.3,0,3.4,0c0.4,0,0.5,0.1,0.5,0.5
		c0,1.5,0,3,0,4.4c0,0.4-0.1,0.5-0.5,0.5c-5,0-10,0-15,0c-0.5,0-0.6,0.1-0.6,0.6c0,1.7,0,3.4,0,5c0,0.3,0.1,0.4,0.4,0.4
		c4.8,0,9.7,0,14.5,0c1,0,1.9,0,2.9,0c0.3,0,0.4,0.1,0.4,0.4c0,1.5,0,3,0,4.5c0,0.4-0.1,0.5-0.5,0.5c-3.7,0-7.4,0-11.1,0
		C152.9,169.5,151.2,169.5,149.5,169.5z"/>
	<path id="XMLID_64_" class="st1" d="M194.2,169.5c-5,0-10.1,0-15.1,0c-0.4,0-0.6-0.1-0.6-0.6c0-9.5,0-19.1,0-28.6
		c0-0.4,0.1-0.5,0.5-0.5c4.3,0,8.6,0,12.9,0c0.4,0,0.5,0.1,0.5,0.5c0,7.7,0,15.4,0,23.1c0,0.4,0,0.6,0.6,0.6c5.5,0,11,0,16.5,0
		c0.4,0,0.5,0.1,0.5,0.5c0,1.5,0,3.1,0,4.6c0,0.3-0.1,0.4-0.4,0.4C204.4,169.5,199.3,169.5,194.2,169.5z"/>
	<path id="XMLID_63_" class="st1" d="M215.8,140c4.5,0,8.9,0,13.4,0c0.3,0,0.4,0.1,0.4,0.4c0,0.7,0,1.5,0,2.2c0,6.9,0,13.8,0,20.7
		c0,0.2,0,0.5,0,0.7c0.2,0.2,0.4,0.1,0.7,0.1c5.4,0,10.8,0,16.2,0c0.4,0,0.5,0.1,0.5,0.5c0,1.4,0,2.8,0,4.1c0,0.6-0.2,0.7-0.7,0.7
		c-9.9,0-19.9,0-29.8,0c-0.7,0-0.7,0-0.7-0.7c0-8.5,0-17,0-25.5C215.8,142.1,215.8,141.1,215.8,140z"/>
	<path id="XMLID_62_" class="st1" d="M65.9,154.6c0,4.8,0,9.5,0,14.3c0,0.4-0.1,0.6-0.5,0.6c-3.6,0-7.2,0-10.8,0c-0.3,0-0.6,0-0.9,0
		c-0.4,0.1-0.5-0.1-0.5-0.5c0-8.7,0-17.5,0-26.2c0-0.8,0-1.7,0-2.5c0-0.3,0.1-0.5,0.4-0.5c4,0,7.9,0,11.9,0c0.5,0,0.4,0.2,0.4,0.5
		C65.9,145.1,65.9,149.9,65.9,154.6C65.9,154.6,65.9,154.6,65.9,154.6z"/>
	<path id="XMLID_61_" class="st1" d="M253.5,154.8c0-4.8,0-9.6,0-14.3c0-0.4,0.1-0.5,0.5-0.5c3.9,0,7.9,0,11.8,0
		c0.4,0,0.5,0.1,0.5,0.5c0,9.6,0,19.1,0,28.7c0,0.4-0.1,0.5-0.5,0.5c-3.9,0-7.8,0-11.7,0c-0.4,0-0.5-0.1-0.5-0.5
		C253.5,164.3,253.5,159.5,253.5,154.8z"/>
	<path id="XMLID_60_" class="st2" d="M215.8,140c0,1.1,0,2.1,0,3.2c0,8.5,0,17,0,25.5c0,0.7,0,0.7,0.7,0.7c9.9,0,19.9,0,29.8,0
		c0.5,0,0.7-0.1,0.7-0.7c0-1.4,0-2.7,0-4.1c0-0.4-0.1-0.5-0.5-0.5c-5.4,0-10.8,0-16.2,0c-0.2,0-0.5,0.1-0.7-0.1c5.6,0,11.2,0,16.8,0
		c0.7,0,0.7,0,0.7,0.7c0,1.4,0,2.9,0,4.3c0,0.5-0.1,0.6-0.6,0.6c-9.8,0-19.5,0-29.3,0c-0.3,0-0.7,0-1,0c-0.4,0-0.5-0.1-0.5-0.5
		c0-9.5,0-19.1,0-28.6C215.7,140.3,215.6,140.1,215.8,140z"/>
</g>
</svg>
