<?xml version="1.0" encoding="utf-8"?>
<!-- Generator: Adobe Illustrator 19.0.0, SVG Export Plug-In . SVG Version: 6.00 Build 0)  -->
<svg version="1.1" id="Ebene_1" xmlns="http://www.w3.org/2000/svg" xmlns:xlink="http://www.w3.org/1999/xlink" x="0px" y="0px"
	 viewBox="0 0 283.5 283.5" style="enable-background:new 0 0 283.5 283.5;" xml:space="preserve">
<style type="text/css">
	.st0{fill:#FFFFFF;stroke:#000000;stroke-miterlimit:10;}
	.st1{fill:#233E8B;}
	.st2{fill:#223D8A;}
	.st3{fill:#FEFEFF;}
</style>
<circle id="XMLID_1_" class="st0" cx="141.7" cy="141.7" r="141.7"/>
<g id="XMLID_2_">
	<path id="XMLID_90_" class="st1" d="M74.8,141.7c0,0.2,0,0.3,0,0.5c0,4.8,0,9.5,0,14.3c0,0.5,0.1,0.7,0.7,0.7c0.7,0,1.3,0,2,0
		c0.3,0,0.5,0.1,0.5,0.5c0,0.8,0,1.7,0,2.5c0,0.4-0.1,0.5-0.5,0.5c-3,0-6,0-9.1,0c-0.3,0-0.5-0.1-0.5-0.4c0-0.8,0-1.7,0-2.5
		c0-0.3,0.1-0.5,0.4-0.5c0.8,0,1.7,0,2.5,0c0.4,0,0.5-0.1,0.5-0.5c0-5,0-9.9,0-14.9c0-0.4-0.2-0.5-0.5-0.5c-0.9,0-1.9,0-2.8,0
		c-0.4,0-0.5,0-0.5-0.5c0-0.8,0-1.7,0-2.5c0-0.3,0.1-0.4,0.4-0.4c4,0,7.9,0,11.9,0c0.4,0,0.5,0.3,0.6,0.5c1.9,4.3,3.8,8.5,5.7,12.8
		c0.1,0.2,0.2,0.4,0.3,0.6c0.3-0.1,0.3-0.4,0.4-0.6c1.9-4.3,3.7-8.5,5.6-12.8c0.2-0.4,0.4-0.6,0.8-0.5c3.7,0,7.4,0,11.1,0
		c0.5,0,0.6,0.1,0.6,0.6c0,0.8,0,1.5,0,2.3c0,0.4-0.1,0.5-0.5,0.5c-1,0-2,0-2.9,0c-0.4,0-0.5,0.1-0.5,0.5c0,4.9,0,9.9,0,14.8
		c0,0.4,0.1,0.5,0.5,0.5c1,0,2,0,3,0c0.3,0,0.5,0.1,0.5,0.5c0,0.8,0,1.7,0,2.5c0,0.4-0.1,0.5-0.5,0.5c-4.2,0-8.3,0-12.5,0
		c-0.4,0-0.5-0.1-0.5-0.5c0-0.8,0-1.6,0-2.4c0-0.4,0.1-0.5,0.5-0.5c1,0,2,0,3,0c0.5,0,0.6-0.1,0.6-0.6c0-4.9,0-9.9,0-14.8
		c0-0.2,0.1-0.5-0.1-0.5c-0.4-0.1-0.4,0.2-0.5,0.4c-2.7,6.1-5.3,12.2-8,18.3c-0.2,0.4-0.4,0.7-0.9,0.6c-0.7-0.1-1.4,0-2.1,0
		c-0.5,0-0.7-0.1-0.9-0.6c-2.6-5.9-5.2-11.8-7.7-17.6C75.1,142,75,141.8,74.8,141.7C74.9,141.7,74.8,141.7,74.8,141.7z"/>
	<path id="XMLID_89_" class="st1" d="M178.9,151.8c1.3,1.8,2.5,3.5,3.7,5.2c0.2,0.2,0.4,0.2,0.6,0.2c0.7,0,1.4,0,2.1,0
		c0.3,0,0.4,0.1,0.4,0.4c0,0.8,0,1.6,0,2.4c0,0.3-0.1,0.3-0.4,0.3c-2.5,0-5,0-7.4,0c-0.2,0-0.3-0.1-0.5-0.2
		c-2.6-3.4-5.2-6.9-7.8-10.3c0,0,0-0.1-0.1-0.2c1.2,0,2.4,0,3.5,0c1.1,0,2.1-0.1,3.1-0.6c2-0.9,3-2.7,2.5-4.8
		c-0.4-1.8-1.8-2.5-3.5-2.9c-1.8-0.4-3.7-0.2-5.5-0.2c-1.5,0-1.5,0-1.5,1.5c0,2.4,0,4.8,0,7.2c0,2.2,0,4.5,0,6.7
		c0,0.4,0.1,0.6,0.5,0.6c1.1,0,2.3,0,3.4,0c0.4,0,0.6,0.1,0.6,0.5c0,0.8,0,1.5,0,2.3c0,0.3,0,0.5-0.4,0.5c-4.4,0-8.8,0-13.3,0
		c-0.3,0-0.4-0.1-0.4-0.4c0-0.8,0-1.6,0-2.4c0-0.4,0.1-0.5,0.5-0.5c0.9,0,1.8,0,2.7,0c0.4,0,0.5-0.1,0.5-0.5c0-5,0-10,0-15
		c0-0.4-0.1-0.5-0.5-0.4c-0.9,0-1.7,0-2.6,0c-0.4,0-0.6-0.1-0.6-0.5c0-0.7,0-1.5,0-2.2c0-0.4,0.1-0.5,0.5-0.5c1.6,0,3.2,0,4.8,0
		c4.1,0,8.3,0,12.4,0c2,0,3.9,0.3,5.7,1.1c2.8,1.3,4.1,3.3,4,6.3c-0.1,3-1.6,5-4.4,6.1C180.7,151.5,179.8,151.7,178.9,151.8z"/>
	<path id="XMLID_86_" class="st2" d="M116.8,137.8c2.5,0.1,5.5-0.1,8.5,0.1c1.2,0.1,2.4,0.4,3.5,0.8c3.1,1.3,4.4,4,4,7.4
		c-0.3,3.5-2.2,5.4-5.8,6c-1.5,0.3-3,0.4-4.5,0.4c-1.6,0-3.3,0-4.9,0c-0.4,0-0.5,0.1-0.5,0.5c0,1.2,0,2.3,0,3.5
		c0,0.4,0.1,0.5,0.5,0.5c1.2,0,2.4,0,3.6,0c0.4,0,0.5,0.1,0.5,0.5c0,0.8,0,1.6,0,2.4c0,0.3-0.1,0.4-0.4,0.4c-4.5,0-8.9,0-13.4,0
		c-0.3,0-0.4-0.1-0.4-0.4c0-0.9,0-1.7,0-2.6c0-0.4,0.2-0.4,0.5-0.4c0.9,0,1.8,0,2.7,0c0.4,0,0.5-0.1,0.5-0.5c0-5,0-10,0-14.9
		c0-0.4-0.1-0.5-0.5-0.5c-0.9,0-1.8,0-2.6,0c-0.4,0-0.5-0.1-0.5-0.5c0-0.8,0-1.6,0-2.4c0-0.4,0.2-0.5,0.5-0.5
		C110.8,137.8,113.5,137.8,116.8,137.8z M117.1,145.3c0,1.2,0,2.3,0,3.5c0,0.2-0.1,0.5,0.3,0.5c2,0,4,0.2,6-0.3
		c1-0.2,1.9-0.7,2.4-1.7c1.4-2.6-0.1-5.5-3-5.9c-1.8-0.2-3.5-0.1-5.3-0.1c-0.4,0-0.4,0.2-0.4,0.5C117.1,143,117.1,144.1,117.1,145.3
		z"/>
	<path id="XMLID_85_" class="st2" d="M54.1,160.3c-3.6,0-7.2,0-10.8,0c-0.7,0-0.8-0.2-0.8-0.8c0.1-0.6,0-1.3,0-1.9
		c0-0.5,0.1-0.6,0.6-0.6c0.9,0,1.8,0,2.6,0c0.4,0,0.5-0.1,0.5-0.5c0-5,0-10,0-14.9c0-0.4-0.1-0.5-0.5-0.5c-0.8,0-1.6,0-2.4,0
		c-0.6,0-0.8-0.1-0.8-0.7c0.1-0.6,0-1.3,0-1.9c0-0.5,0.1-0.7,0.7-0.7c6.4,0,12.8,0,19.1,0c1,0,1.9,0,2.9,0c0.3,0,0.5,0.1,0.5,0.4
		c0,1.9,0,3.8,0,5.8c0,0.4-0.1,0.4-0.5,0.4c-0.7,0-1.3,0-2,0c-0.3,0-0.5-0.1-0.5-0.4c0-0.8,0-1.6,0-2.4c0-0.4-0.1-0.5-0.5-0.5
		c-3.2,0-6.5,0-9.7,0c-0.4,0-0.4,0.1-0.4,0.5c0,1.9,0,3.8,0,5.7c0,0.4,0.2,0.5,0.5,0.5c2.3,0,4.6,0,6.9,0c0.5,0,0.7,0.1,0.7,0.6
		c0,0.6,0,1.2,0,1.8c0,0.5-0.1,0.7-0.6,0.7c-2.3,0-4.6,0-6.9,0c-0.5,0-0.6,0.1-0.6,0.6c0,1.7,0,3.4,0,5.1c0,0.4,0.1,0.5,0.5,0.5
		c3.1,0,6.3,0,9.4,0c0.4,0,0.5-0.1,0.5-0.5c0-1,0-2,0-3c0-0.5,0.1-0.6,0.6-0.6c0.7,0,1.4,0,2.1,0c0.3,0,0.4,0.1,0.4,0.4
		c0,2.2,0,4.3,0,6.5c0,0.4-0.2,0.4-0.5,0.4C61.5,160.3,57.8,160.3,54.1,160.3z"/>
	<path id="XMLID_84_" class="st2" d="M145,137.8c3.6,0,7.3,0,10.9,0c0.5,0,0.6,0.1,0.6,0.6c0,1.8,0,3.7,0,5.5c0,0.4-0.1,0.5-0.5,0.5
		c-0.7,0-1.3,0-2,0c-0.3,0-0.4-0.1-0.4-0.4c0-0.8,0-1.6,0-2.4c0-0.4-0.1-0.5-0.5-0.5c-3.2,0-6.4,0-9.6,0c-0.5,0-0.6,0.2-0.5,0.6
		c0,1.8,0,3.7,0,5.5c0,0.4,0.1,0.6,0.6,0.6c2.3,0,4.7,0,7,0c0.4,0,0.6,0.1,0.6,0.5c0,0.7,0,1.4,0,2.1c0,0.4-0.1,0.5-0.5,0.5
		c-2.3,0-4.6,0-6.9,0c-0.5,0-0.7,0.1-0.7,0.7c0,1.7,0,3.3,0,5c0,0.4,0.1,0.6,0.6,0.6c3.1,0,6.3,0,9.4,0c0.4,0,0.5-0.1,0.5-0.5
		c0-1,0-2,0-3.1c0-0.4,0.1-0.5,0.5-0.5c0.7,0,1.4,0,2.1,0c0.3,0,0.5,0.1,0.5,0.4c0,2.2,0,4.3,0,6.5c0,0.5-0.2,0.4-0.5,0.4
		c-3.4,0-6.7,0-10.1,0c-4,0-7.9,0-11.9,0c-0.4,0-0.6-0.1-0.6-0.6c0-0.7,0-1.5,0-2.2c0-0.4,0.1-0.5,0.5-0.5c0.9,0,1.8,0,2.6,0
		c0.3,0,0.5-0.1,0.5-0.5c0-5,0-10,0-15c0-0.4-0.1-0.5-0.5-0.5c-0.9,0-1.8,0-2.7,0c-0.3,0-0.5-0.1-0.5-0.4c0-0.8,0-1.6,0-2.4
		c0-0.4,0.2-0.5,0.5-0.5C137.6,137.8,141.3,137.8,145,137.8z"/>
	<path id="XMLID_83_" class="st1" d="M22.1,158.5c0,0.6,0,1,0,1.5c0,0.3-0.1,0.4-0.4,0.4c-0.9,0-1.8,0-2.7,0c-0.3,0-0.4-0.1-0.4-0.4
		c0-1.9,0-3.8,0-5.8c0-0.3,0.1-0.4,0.4-0.4c0.8,0,1.7,0,2.5,0c0.2,0,0.4,0,0.4,0.3c0.4,1.7,1.6,2.5,3.2,2.9c2,0.5,4,0.7,6.1,0.2
		c0.4-0.1,0.7-0.2,1-0.4c1.1-0.6,1.8-1.3,1.8-2.6c-0.1-1.3-0.9-2.1-2.1-2.5c-1.3-0.5-2.7-0.7-4.1-1c-1.7-0.4-3.5-0.7-5.1-1.4
		c-2.7-1.1-3.9-3-3.8-5.7c0-1.1,0.5-2,1.1-2.8c1.6-2.2,3.9-3.1,6.5-3.4c3-0.3,5.8,0.2,8.6,1.2c0.6,0.2,1.2,0.6,1.9,1
		c0-0.3,0-0.5,0-0.6c0-1,0-1,1.1-1c0.5,0,1.2-0.2,1.6,0.1c0.3,0.3,0.1,1,0.1,1.6c0,1.6,0,3.3,0,4.9c0,0.4-0.1,0.6-0.5,0.5
		c0,0-0.1,0-0.1,0c-1.4,0.2-2.3-0.2-3.2-1.5c-1.9-2.8-6.6-3.8-9.6-2.1c-1.7,0.9-1.8,2.7-0.2,3.8c1,0.7,2.1,1,3.3,1.3
		c2.1,0.5,4.2,1,6.2,1.8c0.4,0.2,0.8,0.3,1.2,0.5c2.1,1.1,3.3,2.8,3.3,5.2c0,2.5-1.2,4.3-3.4,5.6c-1.8,1-3.7,1.3-5.7,1.3
		c-2.8,0-5.4-0.5-7.9-1.7C22.7,158.9,22.4,158.8,22.1,158.5z"/>
	<path id="XMLID_78_" class="st1" d="M268.2,149.6c0,7.8-6.4,14.2-14.3,14.2c-7.8,0-14.2-6.5-14.1-14.3c0-7.8,6.4-14.2,14.3-14.2
		C261.8,135.4,268.2,141.8,268.2,149.6z M258,160.6c0.1,0,0.2,0,0.3-0.1c8.1-3.3,10.1-13.7,3.8-19.7c-2-2-4.4-3.2-7.4-3.1
		c-1.7,0.1-3.2,0.7-3.8,2.4c-0.9,2.1-0.4,4,1,5.7c0.9,1,1.9,1.8,3.2,2.4c0.9,0.4,1.7,0.9,2.4,1.6c3.3,3,3.4,8.2,0.4,10.8
		c-0.1,0.1-0.1,0.1-0.2,0.2C257.9,160.7,258,160.7,258,160.6z M249.9,138.4c-0.2-0.1-0.4,0.1-0.6,0.2c-8.3,3.5-9.9,14.6-2.9,20.3
		c2,1.6,4.1,2.6,6.7,2.5c2-0.1,3.6-1.2,4-3.1c0.5-1.9,0.1-3.6-1.3-5c-1-1.1-2.2-1.9-3.6-2.6c-4.9-2.4-6-8.1-2.4-12.2
		C249.9,138.4,249.9,138.4,249.9,138.4z M250.1,138.2C250,138.2,250,138.3,250.1,138.2C250,138.3,250,138.3,250.1,138.2
		C250.1,138.3,250.1,138.3,250.1,138.2C250.1,138.3,250.1,138.2,250.1,138.2z"/>
	<path id="XMLID_77_" class="st1" d="M215,137.8c3.7,0,7.5,0,11.2,0c0.5,0,0.6,0.1,0.6,0.6c0,2.1,0,4.3,0,6.4c0,0.5-0.2,0.6-0.6,0.6
		c-0.8,0-1.6,0-2.4,0c-0.4,0-0.5-0.1-0.5-0.5c0-1.1,0-2.2,0-3.4c0-0.4-0.1-0.5-0.5-0.5c-1.4,0-2.8,0-4.2,0c-0.4,0-0.5,0.1-0.5,0.5
		c0,5,0,10,0,15c0,0.4,0.1,0.5,0.5,0.5c1,0,1.9,0,2.9,0c0.4,0,0.6,0.1,0.6,0.5c0,0.8,0,1.5,0,2.3c0,0.3-0.1,0.5-0.4,0.5
		c-4.3,0-8.6,0-12.9,0c-0.3,0-0.5-0.1-0.5-0.4c0-0.8,0-1.6,0-2.4c0-0.4,0.1-0.5,0.5-0.5c1,0,2,0,3,0c0.4,0,0.5-0.1,0.5-0.5
		c0-5,0-10,0-14.9c0-0.4-0.1-0.5-0.5-0.5c-1.4,0-2.8,0-4.2,0c-0.4,0-0.5,0.1-0.5,0.5c0,1.1,0,2.2,0,3.3c0,0.5-0.1,0.6-0.6,0.5
		c-0.9,0-1.7,0-2.6,0c-0.3,0-0.4-0.1-0.4-0.4c0-2.3,0-4.5,0-6.8c0-0.5,0.3-0.4,0.6-0.4C207.6,137.8,211.3,137.8,215,137.8z"/>
	<path id="XMLID_76_" class="st1" d="M191.6,149.1c0-2.5,0-4.9,0-7.4c0-0.5-0.1-0.6-0.6-0.6c-0.9,0-1.7,0-2.6,0
		c-0.3,0-0.5-0.1-0.5-0.5c0-0.8,0-1.6,0-2.4c0-0.3,0.1-0.4,0.4-0.4c4.1,0,8.2,0,12.3,0c0.4,0,0.4,0.1,0.4,0.5c0,0.8,0,1.5,0,2.3
		c0,0.4-0.1,0.6-0.5,0.5c-0.9,0-1.7,0-2.6,0c-0.3,0-0.5,0.1-0.5,0.4c0,5,0,10,0,15c0,0.4,0.2,0.5,0.5,0.5c0.9,0,1.7,0,2.6,0
		c0.4,0,0.6,0.1,0.5,0.5c0,0.8,0,1.6,0,2.4c0,0.3-0.1,0.4-0.4,0.4c-4.1,0-8.2,0-12.3,0c-0.3,0-0.5,0-0.4-0.4c0-0.8,0-1.7,0-2.5
		c0-0.3,0.1-0.4,0.5-0.4c0.8,0,1.7,0,2.5,0c0.5,0,0.7-0.1,0.7-0.6C191.6,154,191.6,151.5,191.6,149.1z"/>
	<path id="XMLID_72_" class="st3" d="M258,160.6c-0.1,0.1-0.1,0.1-0.2,0.1c0.1-0.1,0.1-0.1,0.2-0.2C258,160.5,258,160.6,258,160.6z"
		/>
	<path id="XMLID_71_" class="st3" d="M250.1,138.2C250.1,138.2,250.1,138.3,250.1,138.2C250.1,138.3,250.1,138.3,250.1,138.2
		C250,138.3,250,138.3,250.1,138.2C250,138.3,250,138.2,250.1,138.2z"/>
</g>
</svg>
