<?xml version="1.0" encoding="utf-8"?>
<!-- Generator: Adobe Illustrator 19.0.0, SVG Export Plug-In . SVG Version: 6.00 Build 0)  -->
<svg version="1.1" id="Ebene_1" xmlns="http://www.w3.org/2000/svg" xmlns:xlink="http://www.w3.org/1999/xlink" x="0px" y="0px"
	 viewBox="0 0 283.5 283.5" style="enable-background:new 0 0 283.5 283.5;" xml:space="preserve">
<style type="text/css">
	.st0{fill:#FFFFFF;stroke:#000000;stroke-miterlimit:10;}
	.st1{fill:#E62A29;}
	.st2{fill:#020203;}
	.st3{fill:#020304;}
	.st4{fill:#B4B2B6;}
	.st5{fill:#FCFCFC;}
	.st6{fill:#FDFDFD;}
	.st7{fill:#FBFBFB;}
	.st8{fill:#E1E0E3;}
</style>
<circle id="XMLID_1_" class="st0" cx="141.7" cy="141.7" r="141.7"/>
<g id="XMLID_2_">
	<path id="XMLID_55_" class="st1" d="M8.6,159.3c4.2-10.1,8.5-20.1,12.5-30.2c0.9-2.3,2-3.1,4.5-3.1c9.7,0.2,19.5,0.1,29.4,0.1
		c-0.1,1.8-1.1,3.2-1.7,4.7c-3.8,8.8-7.8,17.6-11.5,26.4c-0.9,2.1-2,2.9-4.4,2.9c-9.6-0.2-19.3-0.1-28.9-0.1
		C8.6,159.7,8.6,159.5,8.6,159.3z"/>
	<path id="XMLID_54_" class="st1" d="M274.8,126.6c-4.5,10-9,19.9-13.3,29.9c-1.1,2.7-2.5,3.5-5.4,3.4c-9.2-0.2-18.4-0.1-27.5-0.1
		c-0.7-1.1,0.1-1.8,0.4-2.5c3.9-9.6,7.9-19.2,11.7-28.9c0.8-2,1.7-2.6,3.8-2.6c10.1,0.1,20.2,0.1,30.2,0.1
		C274.8,126.2,274.8,126.4,274.8,126.6z"/>
	<path id="XMLID_53_" class="st2" d="M95.7,145.9c1.7-4.2,3.7-8.3,5-12.6c1-3.5,2.9-4.6,6.2-4c0.6,0.1,1.3,0,2.4,0
		c-3.5,8.5-7,16.6-10.1,25c-1.2,3.3-2.8,4.5-6.4,4.4c-6.6-0.3-6.6-0.1-5.4-6.7c0.8-4.5,1.3-9.1,1.2-13.9c-2.1,5.1-4.2,10.2-6.3,15.4
		c-2.2,5.4-2.2,5.4-8.7,5c1.2-3.1,2.4-6.2,3.6-9.2c2.4-5.9,4.9-11.8,7.2-17.8c0.6-1.5,1.3-2.3,3.1-2.2c2.5,0.2,5.1,0.1,7.6,0
		c1.7-0.1,1.9,0.5,1.6,2.1c-0.7,4.4-1.2,8.8-1.8,13.1C94.9,145.1,94.1,146.1,95.7,145.9z"/>
	<path id="XMLID_52_" class="st2" d="M136.5,142.7c3.3,1,3.4,2.7,2.7,5.2c-1,3.3-3,6.1-3.3,9.6c-0.1,1-0.8,0.9-1.4,0.9
		c-7.7-0.2-8.9,1.4-5.4-6.9c0.5-1.3,1.1-2.7,1.5-4c0.3-1.1-0.2-2-1.4-2.2c-1-0.3-1.9-0.1-2.3,1.1c-1.1,3-2.6,5.9-3.6,8.9
		c-0.8,2.4-2,3.7-4.7,3.3c-1.6-0.3-3.3,0-5.4,0c3.3-8.1,6.5-15.9,9.8-23.7c2.3-5.5,2.3-5.5,8.4-5.5c2.7,0,5.3-0.1,8,0
		c4.8,0.2,6.2,2.5,4.6,7.1C142.6,139.7,140.1,141.4,136.5,142.7z"/>
	<path id="XMLID_51_" class="st2" d="M69.3,129.3c-2.9,7.1-5.8,13.8-8.5,20.7c-0.5,1.3-2.2,3.1-0.3,4c2.2,1.1,3.2-1,4-2.9
		c2.5-6.1,5.2-12.1,7.5-18.3c1-2.8,2.5-4.1,5.5-3.6c1.3,0.2,2.6,0,4.2,0c-0.2,1.9-1.1,3.4-1.7,4.9c-2.3,5.7-4.4,11.5-6.8,17.2
		c-2.8,6.6-13.2,10.2-19.6,6.9c-2-1.1-3.2-2.8-2.5-5.2c2.4-7.8,5.9-15.2,8.8-22.8c0.4-1,1-1,1.8-1C64.1,129.3,66.5,129.3,69.3,129.3
		z"/>
	<path id="XMLID_50_" class="st2" d="M159.9,128.6c1.1,0.1,2,0.1,2.9,0.2c6,1,7.1,2.8,5,8.5c-1.7,4.8-3.6,9.5-5.5,14.1
		c-3.3,8-14.5,9-19.8,6.7c-2.3-1-2.8-3.2-2.1-5.4c2-6.3,4.2-12.6,7.4-18.3C150.4,129.9,155.2,128.9,159.9,128.6z"/>
	<path id="XMLID_49_" class="st2" d="M193.7,158.5c0.6-2.5,1.2-4.7,1.8-6.9c-2.4-0.5-4.6-0.7-5.6,2c-1.7,4.7-5.1,5.9-9.7,4.6
		c-0.3-1,0.6-1.7,1.1-2.5c4.9-8.1,10-16.1,14.9-24.3c1-1.6,2-2.3,3.9-2.2c3,0.2,6,0,9.2,0c-2.3,9.4-4.5,18.6-6.7,27.8
		c-0.2,0.9-0.7,1.5-1.8,1.4C198.5,158.4,196.2,158.5,193.7,158.5z"/>
	<path id="XMLID_48_" class="st3" d="M193.9,129.3c-3.6,4.5-6.7,8.7-10,12.6c-3.3,3.8-6,8-7.4,12.8c-0.9,3-2.4,4.4-5.6,3.9
		c-1.4-0.2-2.8,0-4.2,0c0-0.4-0.2-0.7-0.1-0.8c4.5-7.7,4.3-16.3,4.2-24.8c0-2.7,0.4-3.9,3.6-3.7c5.3,0.3,5.3,0.1,4.4,5.4
		c-0.3,1.5-0.4,3-0.7,4.9c2.3-1.9,3.6-4.2,4.8-6.4c1.7-3,3.9-4.6,7.4-3.9C191.2,129.5,192.2,129.3,193.9,129.3z"/>
	<path id="XMLID_47_" class="st3" d="M225.3,129.3c-3.4,8.4-6.7,16.4-10,24.6c3.1,0,5.8,0,8.8,0c-0.5,3.2-1.5,5.1-5.1,4.8
		c-4.5-0.4-9.1-0.1-13.8-0.1c0.1-2,1.1-3.6,1.7-5.2c2.8-7,5.8-14,8.5-21.1c0.9-2.4,2.1-3.2,4.5-2.9
		C221.5,129.5,223.2,129.3,225.3,129.3z"/>
	<path id="XMLID_46_" class="st3" d="M100.8,158.6c2.5-6.2,4.8-12.1,7.2-18c0.6-1.4,1.2-2.8,1.8-4.3c3-7.3,2.9-7.3,11.1-6.8
		c0.7,1.1-0.2,1.9-0.6,2.7c-3.1,7.8-6.3,15.5-9.4,23.3c-0.9,2.3-2,3.7-4.8,3.2C104.6,158.3,102.9,158.6,100.8,158.6z"/>
	<path id="XMLID_45_" class="st4" d="M95.7,145.9c-0.2,0.7-0.5,1.4-0.9,2.7c-0.6-2-0.4-3.1,0.2-4.1C95.3,145,95.5,145.4,95.7,145.9z
		"/>
	<path id="XMLID_44_" class="st5" d="M129.3,140.5c0.8-2,1.6-3.8,2.3-5.8c0.6-1.7,1.7-0.9,2.7-0.8c1.4,0.2,0.9,1.3,0.8,2.1
		C134.5,139.3,132.9,140.6,129.3,140.5z"/>
	<path id="XMLID_43_" class="st6" d="M160.4,134.5c-0.2,0.7-0.4,1.1-0.5,1.5c-2.2,5.5-4.5,11-6.7,16.4c-0.7,1.6-2.1,2.3-3.5,1.6
		c-1.6-0.7-0.5-2.1-0.1-3.1c1.9-4.8,3.8-9.6,5.7-14.4c0.5-1.3,1.3-2.6,2.8-3C159.1,133.3,159.9,133.6,160.4,134.5z"/>
	<path id="XMLID_42_" class="st7" d="M198.4,140.8c-0.3,1.5-0.7,3-1,4.5c-0.3,1.6-1.3,1.8-3.1,1.2c1.2-2.2,2.3-4.4,3.5-6.5
		C198.3,139.9,198.7,140,198.4,140.8z"/>
	<path id="XMLID_41_" class="st8" d="M198.4,140.8c-0.2-0.3-0.5-0.5-0.7-0.8c0.1-0.7,0.4-1.4,1.1-1.9
		C199.3,139.1,199.1,140,198.4,140.8z"/>
</g>
</svg>
