<?xml version="1.0" encoding="utf-8"?>
<!-- Generator: Adobe Illustrator 19.0.0, SVG Export Plug-In . SVG Version: 6.00 Build 0)  -->
<svg version="1.1" id="Ebene_1" xmlns="http://www.w3.org/2000/svg" xmlns:xlink="http://www.w3.org/1999/xlink" x="0px" y="0px"
	 viewBox="0 0 283.5 283.5" style="enable-background:new 0 0 283.5 283.5;" xml:space="preserve">
<style type="text/css">
	.st0{fill:#FFFFFF;stroke:#000000;stroke-miterlimit:10;}
	.st1{fill:#020203;}
	.st2{fill:#1F2025;}
	.st3{fill:#535157;}
	.st4{fill:#959296;}
	.st5{fill:#C1BFC2;}
	.st6{fill:#636066;}
	.st7{fill:#737176;}
	.st8{fill:#827F84;}
	.st9{fill:#AAA7AB;}
	.st10{fill:#105FAB;}
	.st11{fill:#020303;}
	.st12{fill:#020304;}
	.st13{fill:#D31517;}
	.st14{fill:#030304;}
	.st15{fill:#040506;}
	.st16{fill:#D9432E;}
</style>
<circle id="XMLID_1_" class="st0" cx="141.7" cy="141.7" r="141.7"/>
<g id="XMLID_2_">
	<path id="XMLID_64_" class="st1" d="M21.6,140c3.6,0,7.2,0.2,10.8,0c2-0.1,3,0.7,3.9,2.4c2.5,5,5.2,9.9,8,15.3
		c2.3-4.1,4.9-7.8,6.5-11.9c2-4.8,5-6.7,10.1-5.7c2.5,0.5,5.2,0.1,7.7,1.1c2.3,0.9,4,2.4,4,5c0,2.5-1.6,4-3.8,4.9
		c-1.3,0.6-2.6,1.1-4.2,1.8c3.5,3.8,6.9,7.5,10.8,11.7c-3.8,0-7.1,0-10.4,0c-0.8,0-1.2-0.7-1.6-1.2c-2.5-2.9-4.9-5.8-7.4-8.7
		c-1.4-1.6-1.5-2.7,1-3.1c1.2-0.2,2.4-0.5,3.4-0.9c1.8-0.8,3-2.1,2.9-4.2c-0.1-2.1-1.6-3.2-3.6-3.9c-1.9-0.6-2.7,0.3-3.5,1.7
		c-3.5,6-7.2,12-10.6,18c-0.9,1.7-1.9,2.7-3.9,2.3c-0.5-0.1-1-0.1-1.5,0c-3.6,0.8-5.5-1-7.1-4.1c-3-5.8-6.4-11.5-9.8-17.1
		c-0.5-0.8-0.6-1.9-1.7-2.2C21.6,140.9,21.6,140.4,21.6,140z"/>
	<path id="XMLID_63_" class="st1" d="M261.9,162.3c-1.3,3.2-4.2,3.5-6.7,0.6c-3.5-4-6.9-8-10.4-12c-0.1-0.1-0.3-0.1-0.8-0.3
		c0,4-0.1,8,0,11.9c0,1.7-0.4,2.2-2.1,2.2c-1.8,0-2.1-0.7-2.1-2.3c0.2-6.4,0.3-12.8,0.6-19.2c0-1-0.8-2.6,0.9-3
		c1.4-0.3,2.9-0.2,4,1.2c3.6,4.5,7.4,8.9,11.1,13.4c0.4,0.5,0.9,1,1.9,2c0-4.7,0.2-8.8-0.1-12.8c-0.2-3.1,0.7-4.4,3.8-4c0,1,0,2,0,3
		c-0.5,1.2-0.5,2.4,0,3.6c0,1,0,2,0,3c-0.5,0.5-0.2,1.2-0.3,1.9c0,0.4,0,0.8,0,1.2c0,0.4,0,0.8,0,1.2c0,0.4,0,0.8,0,1.2
		c0,0.5,0,1.1,0,1.6c0,0.4,0,0.8,0,1.2c0.1,0.6-0.2,1.3,0.3,1.9C261.9,160.7,261.9,161.5,261.9,162.3z"/>
	<path id="XMLID_62_" class="st2" d="M261.9,146.7c-0.9-1.2-0.9-2.4,0-3.6C261.9,144.3,261.9,145.5,261.9,146.7z"/>
	<path id="XMLID_61_" class="st3" d="M261.4,151.5c-0.1-0.7-0.2-1.4,0.5-1.8c0,0.6,0,1.2,0,1.8C261.7,151.7,261.5,151.7,261.4,151.5
		z"/>
	<path id="XMLID_60_" class="st4" d="M261.4,156.9c0-0.6,0-1.2,0-1.8c0.2-0.3,0.3-0.3,0.5,0c0,0.6,0,1.2,0,1.8
		C261.7,157.1,261.6,157.1,261.4,156.9z"/>
	<path id="XMLID_59_" class="st5" d="M261.9,159.9c-1-0.4-0.5-1.2-0.5-1.8c0.2-0.3,0.3-0.3,0.5,0
		C261.9,158.7,261.9,159.3,261.9,159.9z"/>
	<path id="XMLID_58_" class="st6" d="M261.4,151.5c0.2,0,0.4,0,0.5,0c0,0.4,0,0.8,0,1.2c-0.2,0.3-0.3,0.3-0.5,0
		C261.4,152.3,261.4,151.9,261.4,151.5z"/>
	<path id="XMLID_57_" class="st7" d="M261.4,152.7c0.2,0,0.3,0,0.5,0c0,0.4,0,0.8,0,1.2c-0.2,0.3-0.3,0.3-0.5,0
		C261.4,153.5,261.4,153.1,261.4,152.7z"/>
	<path id="XMLID_56_" class="st8" d="M261.4,153.9c0.2,0,0.3,0,0.5,0c0,0.4,0,0.8,0,1.2c-0.2,0-0.3,0-0.5,0
		C261.4,154.7,261.4,154.3,261.4,153.9z"/>
	<path id="XMLID_55_" class="st9" d="M261.9,158.1c-0.2,0-0.3,0-0.5,0c0-0.4,0-0.8,0-1.2c0.2,0,0.3,0,0.5,0
		C261.9,157.3,261.9,157.7,261.9,158.1z"/>
	<path id="XMLID_54_" class="st10" d="M218.6,131.4c-53-16.2-105.7-17.7-158.3,0.3c3.5-3.4,7.5-5.8,11.7-7.9
		c17.6-9.3,36.5-14.7,56.1-17.4c11.9-1.6,23.9-2,35.9-1.2c3.1,0.2,6,0.9,8.9,2.3c14.3,7.3,28.7,14.5,43.1,21.8
		C216.8,129.7,217.8,129.9,218.6,131.4z"/>
	<path id="XMLID_53_" class="st11" d="M151.8,164.7c-4.9,0-9.8-0.1-14.7,0c-1.8,0-2.4-0.3-2.4-2.3c0.1-6.7,0.1-13.4,0-20.1
		c0-1.7,0.5-2.3,2.2-2.2c6.3,0.1,12.6,0.1,18.9,0c1.2,0,2.1,0,2.1,1.7c0,1.8-1.2,1.5-2.2,1.4c-3.5-0.1-7-0.1-10.5-0.3
		c-1.7-0.1-2.1,0.5-2.2,2.2c-0.1,7.5-0.2,7.5,7.3,7.5c2,0,4,0,6,0c0.9,0,1.5,0.2,1.5,1.3c0,1.1-0.3,1.7-1.5,1.6
		c-3.8,0-7.6,0.1-11.4-0.1c-2.6-0.2-2.1,1.6-1.9,2.9c0.1,1.3-1.2,3.3,1.8,3.3c7-0.1,14,0,21-0.1c0.9,0,1.8-0.2,2.6-0.4
		c2.5-0.8,3-3.2,0.9-4.7c-1.6-1.2-3.5-1.9-5.2-2.8c-2.4-1.2-4-3-3.8-5.9c0.1-2.9,1.5-4.8,4.1-6.1c2.7-1.2,5.6-1.6,8.5-1.6
		c8.9-0.1,17.8-0.1,26.7-0.1c1.1,0,2.6-0.5,2.5,1.5c-0.1,2.1-1.6,1.3-2.6,1.3c-6.2,0.1-6.2,0.1-6.2,6.2c0,4.4-0.1,8.8,0,13.2
		c0.1,1.9-0.6,2.3-2.4,2.3c-5.9,0-5.9,0.1-5.9-5.9c0.1-4.4,0.1-8.8,0.3-13.2c0.1-1.8-0.3-2.7-2.4-2.6c-3.8,0.2-7.6,0-11.4,0
		c-1.7,0-3.3,0.5-3.7,2.4c-0.4,1.8,1,2.6,2.4,3.4c1.6,0.9,3.3,1.8,4.9,2.8c2.3,1.4,3.6,3.4,3.3,6.2c-0.3,2.7-1.9,4.3-4.3,5.3
		c-2.6,1.2-5.4,1.5-8.2,1.6C161.2,164.6,156.5,164.6,151.8,164.7C151.8,164.6,151.8,164.7,151.8,164.7z"/>
	<path id="XMLID_52_" class="st12" d="M115.4,164.4c7.6-3.3,10.3-7.2,9.6-13.2c-0.6-5.1-6.9-9.7-11.8-8.7c-1.7,0.3-1.3,1.5-1.3,2.5
		c0.1,5.8,0.2,11.6,0.4,17.4c0.1,1.8-0.3,2.4-2.2,2.4c-6.7,0-6.7,0.1-6.7-6.6c0-5.3,0-10.6,0-15.9c0-1.5,0.4-2.1,2-2.1
		c5.6,0.2,11.2-0.2,16.8,0.5c5.4,0.7,9.3,4.1,10.5,9.3c1.1,4.7-1.1,9.5-5.5,12.3C123.9,164.3,120.6,164.9,115.4,164.4z"/>
	<path id="XMLID_51_" class="st13" d="M107.5,105.3c23.9-8.9,48.5-14.6,73.9-16.5c0.1,0.3,0.2,0.6,0.3,0.9c-2.4,1-4.9,1.9-7.3,3
		c-3.8,1.8-8.2,3-9.1,8.2c-0.2,1.1-1.3,0.7-2,0.6c-10.5-0.8-21-0.3-31.4,0.7c-7.8,0.7-15.4,2.3-23,3.7
		C108.3,106,107.5,106.4,107.5,105.3z"/>
	<path id="XMLID_50_" class="st14" d="M76.3,152.3c0-3.4,0.1-6.8,0-10.2c0-1.6,0.5-2,2-2c6.7,0.1,13.4,0,20.1,0
		c1.1,0,1.9-0.1,1.9,1.5c0.1,1.8-1,1.6-2.1,1.6c-3.5-0.1-7,0-10.5-0.2c-1.5-0.1-2,0.3-2.1,2c-0.3,7.7-0.3,7.7,7.4,7.7
		c1.6,0,3.2,0,4.8,0c1.1,0,2.5-0.6,2.4,1.5c-0.1,1.9-1.3,1.4-2.3,1.4c-3.1,0-6.2,0.3-9.3-0.1c-3.5-0.4-3.1,1.6-3.2,3.9
		c-0.2,2.8,1.4,2.4,3.2,2.4c3.3-0.1,6.6-0.1,9.9-0.2c1.1,0,1.9-0.1,1.9,1.5c0,1.5-0.7,1.6-1.8,1.6c-6.8,0-13.6-0.1-20.4,0
		c-1.4,0-1.9-0.4-1.9-1.8C76.3,159.4,76.3,155.8,76.3,152.3z"/>
	<path id="XMLID_49_" class="st15" d="M204.5,152.2c0-3.4,0-6.8,0-10.2c0-1.4,0.4-1.9,1.9-1.9c6,0.1,12,0,18,0
		c1.2,0,1.9,0.2,1.9,1.6c0,1.6-1,1.5-2,1.4c-3.4,0-6.8,0-10.2-0.2c-1.6-0.1-2,0.4-2.1,2c-0.3,7.7-0.3,7.7,7.4,7.7c1.7,0,3.4,0,5.1,0
		c1,0,1.4,0.2,1.4,1.3c0,1.1-0.3,1.6-1.5,1.6c-3.5-0.1-7,0.1-10.5-0.1c-1.6-0.1-2,0.5-2,2c-0.1,4.3-0.1,4.3,4.1,4.2
		c2.7-0.1,5.4-0.1,8.1-0.1c1.1,0,2.2-0.3,2.1,1.5c-0.1,1.6-1,1.5-2,1.5c-5.9,0-11.8-0.1-17.7,0c-1.8,0-2.2-0.7-2.1-2.3
		C204.5,159.1,204.4,155.6,204.5,152.2z"/>
	<path id="XMLID_48_" class="st12" d="M229.5,152.3c0-3.3,0.1-6.6,0-9.9c-0.1-1.9,0.6-2.5,2.4-2.3c0.9,0.1,1.8,0.1,2.7,0
		c1.3-0.1,1.8,0.4,1.8,1.7c0,7.1,0,14.2,0,21.2c0,1.1-0.3,1.7-1.5,1.6c-0.4,0-0.8,0-1.2,0c-4.1,0-4.1,0-4.1-4
		C229.5,157.9,229.5,155.1,229.5,152.3z"/>
	<path id="XMLID_47_" class="st16" d="M107.5,105.3c0.5,0.2,0.9,0.4,1.4,0.6c-1.4,0.7-2.8,0.9-4.7,1.2
		C105.2,105.6,106.4,105.5,107.5,105.3z"/>
</g>
</svg>
