<?xml version="1.0" encoding="utf-8"?>
<!-- Generator: Adobe Illustrator 19.0.0, SVG Export Plug-In . SVG Version: 6.00 Build 0)  -->
<svg version="1.1" id="Ebene_1" xmlns="http://www.w3.org/2000/svg" xmlns:xlink="http://www.w3.org/1999/xlink" x="0px" y="0px"
	 viewBox="0 0 2834.6 850.4" style="enable-background:new 0 0 2834.6 850.4;" xml:space="preserve">
<style type="text/css">
	.st0{fill:none;stroke:#1D1D1B;stroke-width:5;stroke-miterlimit:10;}
	.st1{fill:none;stroke:#1D1D1B;stroke-width:6;stroke-miterlimit:10;}
	.st2{fill:none;stroke:#1D1D1B;stroke-width:4;stroke-linecap:round;stroke-linejoin:round;stroke-miterlimit:10;}
	.st3{fill:none;stroke:#1D1D1B;stroke-width:5;stroke-linecap:round;stroke-linejoin:round;stroke-miterlimit:10;}
	.st4{fill:#1D1D1B;}
	.st5{fill:none;}
	.st6{font-family:'HelveticaNeue-Bold';}
	.st7{font-size:80px;}
	.st8{fill:#62F1AC;}
	.st9{fill:#FFFFFF;stroke:#62F1AC;stroke-width:7;stroke-miterlimit:10;}
	.st10{fill:#FFFFFF;stroke:#62F1AC;stroke-width:6;stroke-miterlimit:10;}
	.st11{fill:#FFFFFF;stroke:#1D1D1B;stroke-width:7;stroke-miterlimit:10;}
</style>
<g id="XMLID_36_">
	<g id="XMLID_2_">
		<circle id="XMLID_3_" class="st0" cx="490" cy="319.6" r="169.4"/>
		<g id="XMLID_4_">
			<path id="XMLID_29_" class="st1" d="M551.5,414.5H428.6c-5.6,0-10.3-4.6-10.3-10.3V235c0-5.6,4.6-10.3,10.3-10.3h122.9
				c5.6,0,10.3,4.6,10.3,10.3v169.2C561.7,409.8,557.1,414.5,551.5,414.5z"/>
			<g id="XMLID_46_">
				<line id="XMLID_28_" class="st2" x1="437.9" y1="287.5" x2="542.2" y2="287.5"/>
				<line id="XMLID_27_" class="st2" x1="437.9" y1="296" x2="542.2" y2="296"/>
				<line id="XMLID_26_" class="st2" x1="437.9" y1="304.4" x2="542.2" y2="304.4"/>
				<line id="XMLID_25_" class="st2" x1="437.9" y1="312.9" x2="542.2" y2="312.9"/>
				<line id="XMLID_24_" class="st2" x1="437.9" y1="321.3" x2="542.2" y2="321.3"/>
				<line id="XMLID_23_" class="st2" x1="437.9" y1="329.8" x2="542.2" y2="329.8"/>
				<line id="XMLID_22_" class="st2" x1="437.9" y1="338.2" x2="542.2" y2="338.2"/>
				<line id="XMLID_21_" class="st2" x1="437.9" y1="346.7" x2="542.2" y2="346.7"/>
				<line id="XMLID_20_" class="st2" x1="437.9" y1="355.1" x2="492.5" y2="355.1"/>
				<line id="XMLID_19_" class="st2" x1="437.9" y1="363.6" x2="492.5" y2="363.6"/>
				<line id="XMLID_18_" class="st2" x1="437.9" y1="372" x2="492.5" y2="372"/>
				<line id="XMLID_17_" class="st2" x1="437.9" y1="380.4" x2="492.5" y2="380.4"/>
				<line id="XMLID_16_" class="st2" x1="437.9" y1="388.9" x2="492.5" y2="388.9"/>
			</g>
			<circle id="XMLID_15_" class="st2" cx="523.3" cy="372" r="20.1"/>
			<g id="XMLID_42_">
				<line id="XMLID_14_" class="st3" x1="512.5" y1="372.9" x2="521.5" y2="381.9"/>
				<line id="XMLID_13_" class="st3" x1="521.5" y1="381.9" x2="537.6" y2="366.2"/>
			</g>
			<g id="XMLID_31_">
				<path id="XMLID_12_" class="st4" d="M443.9,273.7h-5.5l7.3-11.6l-6.9-11.1h5.7l4,7.4l4.2-7.4h5.5l-6.9,10.9l7.4,11.7h-5.7
					l-4.3-7.7L443.9,273.7z"/>
				<path id="XMLID_38_" class="st4" d="M475,258.7c1.4,1.4,2.1,3.6,2.1,6.4c0,2.9-0.7,5.2-2,6.8c-1.3,1.5-3,2.3-5.2,2.3
					c-1.3,0-2.5-0.3-3.4-1c-0.5-0.4-1-0.9-1.4-1.6v8.7h-4.3v-23.3h4.2v2.5c0.5-0.7,1-1.3,1.5-1.7c1-0.7,2.1-1.1,3.5-1.1
					C472,256.6,473.7,257.3,475,258.7z M471.7,261.9c-0.6-1-1.5-1.5-2.9-1.5c-1.6,0-2.7,0.8-3.3,2.3c-0.3,0.8-0.5,1.8-0.5,3
					c0,2,0.5,3.3,1.6,4.1c0.6,0.5,1.3,0.7,2.2,0.7c1.2,0,2.2-0.5,2.8-1.4c0.6-0.9,1-2.2,1-3.8C472.5,264,472.3,262.9,471.7,261.9z"
					/>
				<path id="XMLID_9_" class="st4" d="M489.5,256.5c0.1,0,0.2,0,0.4,0v4.5c-0.3,0-0.5-0.1-0.7-0.1c-0.2,0-0.4,0-0.5,0
					c-1.8,0-2.9,0.6-3.6,1.7c-0.3,0.6-0.5,1.7-0.5,3v8h-4.4v-16.8h4.2v2.9c0.7-1.1,1.3-1.9,1.8-2.3c0.8-0.7,1.9-1,3.2-1
					C489.3,256.5,489.4,256.5,489.5,256.5z"/>
				<path id="XMLID_34_" class="st4" d="M503.3,257.3c1.2,0.5,2.1,1.3,2.9,2.5c0.7,1,1.1,2.2,1.3,3.5c0.1,0.8,0.2,1.9,0.2,3.3h-12.2
					c0.1,1.7,0.7,2.9,1.8,3.5c0.7,0.4,1.5,0.6,2.4,0.6c1,0,1.8-0.3,2.4-0.8c0.3-0.3,0.6-0.7,0.9-1.1h4.5c-0.1,1-0.7,2-1.6,3
					c-1.5,1.6-3.6,2.4-6.3,2.4c-2.2,0-4.2-0.7-5.9-2.1c-1.7-1.4-2.6-3.6-2.6-6.7c0-2.9,0.8-5.1,2.3-6.7c1.5-1.5,3.5-2.3,6-2.3
					C500.8,256.5,502.1,256.7,503.3,257.3z M496.8,261.1c-0.6,0.6-1,1.5-1.2,2.6h7.5c-0.1-1.2-0.5-2.1-1.2-2.6
					c-0.7-0.6-1.6-0.9-2.6-0.9C498.3,260.1,497.4,260.4,496.8,261.1z"/>
				<path id="XMLID_6_" class="st4" d="M513.3,268.3c0.1,0.8,0.3,1.3,0.6,1.7c0.6,0.6,1.5,0.9,3,0.9c0.9,0,1.5-0.1,2.1-0.4
					c0.5-0.3,0.8-0.6,0.8-1.1c0-0.5-0.2-0.9-0.6-1.1c-0.4-0.3-1.9-0.7-4.6-1.3c-1.9-0.5-3.2-1.1-4-1.8c-0.8-0.7-1.2-1.7-1.2-3
					c0-1.5,0.6-2.9,1.8-4c1.2-1.1,2.9-1.7,5.1-1.7c2.1,0,3.8,0.4,5.1,1.2s2.1,2.3,2.3,4.3h-4.4c-0.1-0.6-0.2-1-0.5-1.3
					c-0.5-0.6-1.3-0.9-2.5-0.9c-1,0-1.6,0.2-2,0.5s-0.6,0.6-0.6,1c0,0.5,0.2,0.9,0.6,1.1c0.4,0.2,2,0.6,4.6,1.2c1.8,0.4,3,1,3.9,1.9
					c0.9,0.8,1.3,1.9,1.3,3.1c0,1.7-0.6,3-1.9,4.1c-1.2,1-3.1,1.6-5.7,1.6c-2.6,0-4.6-0.6-5.8-1.7c-1.2-1.1-1.9-2.5-1.9-4.2
					L513.3,268.3L513.3,268.3z"/>
				<path id="XMLID_30_" class="st4" d="M530.8,268.3c0.1,0.8,0.3,1.3,0.6,1.7c0.6,0.6,1.5,0.9,3,0.9c0.9,0,1.5-0.1,2.1-0.4
					c0.5-0.3,0.8-0.6,0.8-1.1c0-0.5-0.2-0.9-0.6-1.1c-0.4-0.3-1.9-0.7-4.6-1.3c-1.9-0.5-3.2-1.1-4-1.8c-0.8-0.7-1.2-1.7-1.2-3
					c0-1.5,0.6-2.9,1.8-4s2.9-1.7,5.1-1.7c2.1,0,3.8,0.4,5.1,1.2s2.1,2.3,2.3,4.3h-4.4c-0.1-0.6-0.2-1-0.5-1.3
					c-0.5-0.6-1.3-0.9-2.5-0.9c-1,0-1.6,0.2-2,0.5c-0.4,0.3-0.6,0.6-0.6,1c0,0.5,0.2,0.9,0.6,1.1c0.4,0.2,2,0.6,4.6,1.2
					c1.8,0.4,3,1,3.9,1.9c0.9,0.8,1.3,1.9,1.3,3.1c0,1.7-0.6,3-1.9,4.1c-1.2,1-3.1,1.6-5.7,1.6c-2.6,0-4.6-0.6-5.8-1.7
					c-1.3-1.1-1.9-2.5-1.9-4.2L530.8,268.3L530.8,268.3z"/>
			</g>
		</g>
	</g>
	<rect id="XMLID_103_" x="246.7" y="562.6" class="st5" width="476.6" height="216.6"/>
	<text id="XMLID_104_" transform="matrix(1 0 0 1 352.3805 619.6904)"><tspan x="0" y="0" class="st6 st7">Xpress </tspan><tspan x="-70.2" y="96" class="st6 st7">completed</tspan></text>
</g>
<g id="XMLID_37_">
	<rect id="XMLID_110_" x="2127.7" y="562.6" class="st5" width="460.6" height="183.8"/>
	<text id="XMLID_109_" transform="matrix(1 0 0 1 2140.2856 619.6904)"><tspan x="0" y="0" class="st8 st6 st7">Breakdown </tspan><tspan x="93.3" y="96" class="st8 st6 st7">solved</tspan></text>
	<g id="XMLID_35_">
		<circle id="XMLID_102_" class="st9" cx="2358" cy="319.6" r="169.4"/>
		<g id="AWWqmQ.tif">
			<g id="XMLID_111_">
				<path id="XMLID_120_" class="st10" d="M2257.5,328.7c0.2,0,0.4-0.2,0.5-0.3c0.2-0.2,0.4-0.4,0.5-0.5
					c8.2-8.2,16.3-16.3,24.5-24.5c0.2-0.2,0.4-0.4,0.6-0.6c0.2-0.2,0.4-0.2,0.6,0c0.2,0.2,0.4,0.4,0.6,0.6
					c16,16,31.9,31.9,47.9,47.9c0.2,0.2,0.4,0.4,0.6,0.6c0.1,0.1,0.3,0.1,0.4,0c0.2-0.2,0.4-0.4,0.6-0.6
					c20.8-20.8,41.6-41.6,62.5-62.5c11.4-11.4,22.7-22.7,34.1-34.1c0.2-0.2,0.5-0.5,0.7-0.8c0.1,0,0.1,0,0.1,0
					c0.2,0.2,0.4,0.5,0.6,0.7c8.5,8.5,17.1,17.1,25.6,25.6c0.2,0.2,0.4,0.4,0.7,0.6c0,0.1,0,0.2,0,0.3c-0.3,0.3-0.5,0.6-0.8,0.9
					c-15.8,15.9-31.7,31.7-47.4,47.5c-17.7,17.9-35.6,35.6-53.3,53.5c-7.6,7.7-15.3,15.4-23,23c-0.3,0.3-0.5,0.6-0.8,0.8
					c-0.1,0-0.1,0-0.2,0c-0.1-0.3-0.2-0.4-0.4-0.6c-1.3-1.3-2.6-2.7-3.9-4c-1.6-1.7-3.2-3.3-4.8-5c-1.6-1.7-3.3-3.3-4.9-5.1
					c-1.5-1.6-3.2-3.2-4.7-4.8c-1.6-1.7-3.3-3.3-4.9-5.1c-1.5-1.6-3.2-3.2-4.7-4.8c-1.6-1.7-3.3-3.3-4.9-5.1
					c-1.5-1.6-3.2-3.2-4.7-4.8c-1.6-1.7-3.3-3.4-5-5.1c-1.5-1.6-3.1-3.2-4.6-4.8c-1.6-1.8-3.4-3.4-5.1-5.2c-1.5-1.6-3.2-3.2-4.7-4.8
					c-1.6-1.7-3.3-3.3-4.9-5.1c-1.5-1.6-3.2-3.2-4.7-4.8c-1.6-1.7-3.3-3.3-4.9-5.1c-1-1.1-2.1-2.2-3.2-3.3c-0.2-0.2-0.4-0.4-0.6-0.5
					C2257.5,328.8,2257.5,328.8,2257.5,328.7z"/>
			</g>
		</g>
	</g>
</g>
<g id="XMLID_40_">
	<rect id="XMLID_108_" x="1502" y="562.6" class="st5" width="463.3" height="183.8"/>
	<text id="XMLID_107_" transform="matrix(1 0 0 1 1530.6915 619.6904)"><tspan x="0" y="0" class="st8 st6 st7">Servicecar </tspan><tspan x="10.4" y="96" class="st8 st6 st7">on its way</tspan></text>
	<g id="XMLID_33_">
		<circle id="XMLID_101_" class="st9" cx="1732" cy="319.6" r="169.4"/>
		<g id="_x30_qD97e.tif">
			<g id="XMLID_112_">
				<path id="XMLID_162_" class="st10" d="M1641.3,351.2c0-28.2,0-56.5,0-84.7c39.5,0,79.1,0,118.6,0c0.1,0,0.3,0.1,0.4,0.1
					c0.3,0,0.6,0.1,0.8,0.1c2.4,0.5,4.5,1.6,6.1,3.5c1.1,1.3,1.9,2.7,2.3,4.3c0.3,1,0.4,2.1,0.4,3.2c0,24.2,0,48.3,0,72.5
					c0,0.1,0,0.3,0,0.4c0,0.1,0,0.2,0,0.2c0,0.2-0.1,0.3-0.3,0.3c-0.2,0-0.5,0-0.7,0c-42.3,0-84.6,0-126.9,0
					C1641.8,351.2,1641.5,351.2,1641.3,351.2z M1670.7,332.6c0,0.2,0,0.4,0,0.6c0.3,2.9,2.5,5,5,5.6c1.6,0.3,3.1,0.1,4.4-0.7
					c1.4-0.8,2.4-2,2.9-3.5c0.1-0.4,0.3-0.7,0.5-1c0.4-0.7,0.8-1.4,1.3-2c1.1-1.6,2.5-3,3.8-4.4c0.5-0.5,1-1,1.5-1.5
					c0.4-0.4,0.9-0.8,1.3-1.2c1.3-1.1,2.6-2.1,3.9-3.2c2.4-1.9,4.8-3.9,7.2-5.8c2.4-2,4.8-3.9,7.3-5.9c2.7-2.2,5.4-4.3,8-6.5
					c0.4-0.3,0.9-0.7,1.3-0.9c0.9-0.5,1.9-0.9,2.9-1.2c1-0.3,1.9-0.5,2.9-0.5c0.4,0,0.9,0,1.3-0.1c1.3-0.2,2.5-0.6,3.6-1.3
					c1.6-1,2.7-2.4,3.6-4c0-0.1,0.1-0.1,0.1-0.2c0.1-0.3-0.1-0.6-0.5-0.5c-0.1,0-0.3,0.1-0.4,0.1c-0.8,0.3-1.6,0.6-2.4,1
					c-0.9,0.4-1.8,0.7-2.7,1.1c-0.5,0.2-0.9,0.1-1.4-0.1c-0.1-0.1-0.3-0.2-0.4-0.3c-0.3-0.3-0.6-0.6-0.8-0.9
					c-0.7-1.1-1.2-2.3-1.4-3.7c-0.1-0.4,0-0.8,0.1-1.2c0.1-0.6,0.4-1,1-1.2c0,0,0.1,0,0.1-0.1c1.6-0.7,3.3-1.3,4.9-2
					c0.1-0.1,0.3-0.1,0.4-0.2c0.3-0.2,0.2-0.5-0.1-0.6c-0.1-0.1-0.3-0.1-0.4-0.1c-0.8-0.2-1.6-0.3-2.4-0.4c-0.8-0.1-1.6,0-2.4,0.1
					c-1.7,0.3-3.3,1-4.6,2.1c-1.1,0.9-1.8,2-2,3.5c-0.1,0.6-0.2,1.2-0.4,1.8c-0.4,1.3-0.9,2.4-1.8,3.4c-0.6,0.8-1.3,1.4-2.1,2
					c-0.9,0.8-1.9,1.5-2.8,2.3c-3.2,2.6-6.5,5.2-9.7,7.9c-2.2,1.8-4.4,3.5-6.5,5.3c-3,2.4-6,4.9-9,7.2c-1.6,1.2-3.2,2.4-4.9,3.4
					c-0.8,0.4-1.6,0.8-2.4,1.1c-0.7,0.3-1.5,0.5-2.2,0.5C1673.3,326.5,1670.7,329.3,1670.7,332.6z"/>
				<path id="XMLID_159_" class="st10" d="M1822.7,362.4c0,0.1-0.1,0.2-0.1,0.3c-0.2,1.4-1.6,3-3.8,3.1c-0.6,0-1.1,0-1.7,0
					c-0.1,0-0.2,0-0.2,0c-0.2,0-0.3-0.1-0.3-0.3c-0.1-0.2-0.1-0.3-0.1-0.5c-0.7-2.6-1.9-4.9-3.6-7c-1.6-2-3.5-3.7-5.8-5
					c-2.2-1.3-4.5-2.1-7-2.4c-1.2-0.2-2.5-0.3-3.8-0.2c-3.8,0.2-7.4,1.3-10.5,3.5c-1.1,0.8-2.1,1.6-3,2.5c-1.2,1.3-2.3,2.7-3.2,4.3
					c-0.8,1.4-1.4,2.9-1.8,4.4c-0.2,0.7-0.2,0.7-0.8,0.7c-0.9,0-1.8,0-2.7,0c-0.1,0-0.3,0-0.4,0c-0.1,0-0.2-0.1-0.2-0.2
					c0-0.1,0-0.2,0-0.3c0-0.2,0-0.3,0-0.5c0-20.7,0-41.3,0-62c0-0.2,0-0.4,0-0.6c0-0.3,0.1-0.4,0.4-0.4c0.1,0,0.2,0,0.3,0
					c0.3,0,0.5,0,0.8,0c8.8,0,17.7,0,26.5,0c1,0,2,0.1,2.9,0.5c1.9,0.7,3.4,1.9,4.3,3.8c0.6,1.2,1.1,2.3,1.7,3.5
					c0.3,0.7,0.7,1.5,1,2.2c1,2.2,2.1,4.3,3.1,6.5c1.2,2.5,2.4,5,3.6,7.6c1.1,2.4,2.3,4.8,3.4,7.2c0.3,0.7,0.7,1.4,0.8,2.2
					c0.1,0.3,0.2,0.7,0.2,1.1c0,0.1,0,0.2,0.1,0.4C1822.7,345.2,1822.7,353.8,1822.7,362.4z M1791.4,308.9L1791.4,308.9
					c-2.7,0-5.5,0-8.2,0c-0.2,0-0.4,0-0.6,0c-1.2,0.1-2.1,1-2.2,2.3c0,0.1,0,0.3,0,0.4c0,3.7,0,7.5,0,11.2c0,0.2,0,0.3,0,0.5
					c0.1,1.1,0.9,2,2.1,2.1c0.2,0,0.4,0,0.6,0c3.5,0,7,0,10.5,0c0.7,0,1.4,0.1,2.1,0.4c0.7,0.3,1.4,0.7,2,1.2c1,0.8,1.9,1.7,2.7,2.6
					c0.8,0.9,1.5,1.9,2.3,2.8c0.2,0.2,0.4,0.4,0.6,0.7c0.5,0.5,1.2,0.8,2,0.9c0.1,0,0.3,0,0.4,0c2,0,3.9,0,5.9,0c0.2,0,0.3,0,0.5,0
					c0.6-0.1,1.1-0.4,1.4-1.1c0.2-0.5,0.1-0.9-0.1-1.3c-0.3-0.7-0.6-1.3-1-2c-0.8-1.6-1.5-3.2-2.3-4.8c-1.3-2.8-2.7-5.6-4-8.3
					c-0.8-1.6-1.5-3.2-2.3-4.8c-0.1-0.2-0.2-0.5-0.4-0.7c-0.6-1.1-1.5-1.7-2.7-2c-0.3-0.1-0.6-0.1-1-0.1
					C1796.9,308.9,1794.1,308.9,1791.4,308.9z"/>
				<path id="XMLID_156_" class="st10" d="M1795.3,386.8c-0.3-0.1-0.5-0.1-0.8-0.1c-3-0.5-5.6-1.7-7.9-3.6c-1.8-1.5-3.2-3.2-4.2-5.3
					c-0.9-1.8-1.5-3.6-1.7-5.6c-0.3-2.7,0-5.4,1.1-7.9c0.7-1.8,1.7-3.5,3.1-4.9c2.7-3,6-4.7,9.9-5.3c1-0.2,2.1-0.2,3.2-0.2
					c2.2,0.1,4.3,0.6,6.3,1.6c2.1,1,4,2.4,5.5,4.2c1.9,2.2,3.1,4.8,3.7,7.6c0.3,1.4,0.4,2.7,0.3,4.1c-0.2,2.6-0.9,5-2.2,7.3
					c-0.9,1.5-1.9,2.8-3.2,4c-1.8,1.6-3.8,2.8-6.1,3.5c-0.9,0.3-1.9,0.5-2.9,0.6c-0.1,0-0.2,0-0.3,0.1
					C1797.7,386.8,1796.5,386.8,1795.3,386.8z M1804.7,370.3c0.1-3.8-3-7.7-7.7-7.7c-4.2,0-7.7,3.3-7.7,7.7c0,4.7,3.9,7.7,7.7,7.7
					C1801.3,378,1804.8,374.6,1804.7,370.3z"/>
				<path id="XMLID_153_" class="st10" d="M1682,386.8c-0.3-0.1-0.5-0.1-0.8-0.2c-3.1-0.5-5.8-1.8-8.2-3.9c-1.6-1.4-2.9-3.1-3.9-5
					c-0.8-1.6-1.4-3.4-1.6-5.2c-0.1-0.8-0.2-1.7-0.2-2.5c0.1-2.8,0.8-5.4,2.1-7.9c0.9-1.6,2-2.9,3.3-4.2c1.6-1.4,3.4-2.5,5.4-3.3
					c1.2-0.4,2.4-0.7,3.7-0.9c1.1-0.1,2.3-0.2,3.4-0.1c2.1,0.2,4.1,0.8,6,1.7c3.2,1.6,5.6,4.1,7.3,7.3c0.9,1.8,1.5,3.8,1.7,5.9
					c0.3,2.7-0.1,5.4-1.2,8c-1,2.4-2.5,4.4-4.4,6.1c-2.3,2-5,3.3-8.1,3.8c-0.3,0-0.6,0.1-0.9,0.2
					C1684.5,386.8,1683.2,386.8,1682,386.8z M1683.8,378c4.1,0.1,7.7-3.2,7.7-7.7c0-4.2-3.3-7.7-7.7-7.7c-4.5,0-7.7,3.7-7.7,7.7
					C1676.1,374.6,1679.7,378.1,1683.8,378z"/>
				<path id="XMLID_152_" class="st10" d="M1733.4,355c11.9,0,23.7,0,35.6,0c0.2,0,0.4,0,0.7,0c0.2,0,0.3,0.1,0.3,0.3
					c0,0.2,0,0.4,0,0.6c0,2.5,0,5,0,7.4c0,2,0,3.9,0,5.9c0,0.2,0,0.4,0,0.6c0,0.1-0.1,0.2-0.2,0.2c-0.1,0-0.2,0-0.2,0
					c-0.2,0-0.3,0-0.5,0c-21.4,0-42.7,0-64.1,0c-0.2,0-0.4,0-0.7,0c-0.2,0-0.3-0.1-0.3-0.3c0-0.1,0-0.2,0-0.3
					c-0.1-3-0.9-5.8-2.3-8.4c-0.9-1.7-2-3.2-3.3-4.5c-0.3-0.3-0.7-0.7-1-1c-0.1-0.1-0.2-0.2-0.2-0.2c-0.1-0.1,0-0.2,0.1-0.2
					c0.1,0,0.2,0,0.2,0c0.2,0,0.4,0,0.6,0C1709.7,355,1721.6,355,1733.4,355z"/>
				<path id="XMLID_151_" class="st10" d="M1664.9,355c1.8,0,3.5,0,5.3,0c0.2,0,0.4-0.1,0.6,0.1c0,0.2-0.2,0.3-0.3,0.4
					c-1,0.9-1.8,1.8-2.6,2.9c-1.2,1.7-2.2,3.5-2.8,5.4c-0.4,1.2-0.7,2.4-0.9,3.6c-0.5,2.8-0.9,5.7-1.4,8.5c-0.2,1.2-0.4,2.4-0.6,3.6
					c-0.1,0.6-0.1,0.6-0.7,0.6c-2,0-4,0-5.9,0c-0.6,0-0.7,0-0.6-0.7c0.3-1.7,0.5-3.3,0.8-5c0.4-2.6,0.8-5.2,1.2-7.8
					c0.4-2.3,0.7-4.6,1.1-6.8c0.2-1.4,0.5-2.9,0.7-4.3c0,0,0,0,0,0c0.1-0.5,0.1-0.5,0.6-0.6c0.6,0,1.2,0,1.9,0
					C1662.4,355,1663.7,355,1664.9,355z"/>
				<path id="XMLID_150_" class="st10" d="M1676.3,327.7c0.1,0,0.2,0.1,0.3,0.1c1,0.4,0.7,0.3,1.7,0.2c0.3-0.1,0.6,0,0.8,0.3
					c0,0,0,0,0,0c0.3,0.5,0.7,0.8,1.3,0.9c0.1,0,0.1,0.1,0.2,0.1c0.2,0.1,0.3,0.2,0.3,0.4c0,0.2,0.1,0.4,0.1,0.6
					c0,0.3,0.1,0.5,0.3,0.7c0.1,0.2,0.3,0.3,0.4,0.5c0.1,0.1,0.1,0.3,0.1,0.4c-0.1,0.2-0.2,0.5-0.3,0.7c-0.1,0.2-0.1,0.4-0.1,0.7
					c0,0.2,0.1,0.4,0.1,0.6c0,0.2,0,0.4-0.2,0.5c-0.2,0.1-0.3,0.3-0.5,0.4c-0.2,0.2-0.4,0.4-0.5,0.6c-0.1,0.2-0.2,0.4-0.3,0.6
					c-0.1,0.2-0.2,0.2-0.3,0.3c-0.2,0-0.3,0.1-0.5,0.1c-0.4,0-0.7,0.2-1,0.5c-0.1,0.1-0.2,0.2-0.4,0.3c-0.1,0.1-0.3,0.1-0.5,0.1
					c-0.2-0.1-0.4-0.2-0.7-0.2c-0.2-0.1-0.5-0.1-0.7-0.1c-0.2,0-0.4,0-0.5,0.1c-0.3,0.1-0.5,0-0.6-0.3c-0.1-0.2-0.2-0.3-0.3-0.4
					c-0.2-0.2-0.4-0.3-0.6-0.4c-0.2-0.1-0.4-0.2-0.6-0.2c-0.3-0.1-0.4-0.3-0.4-0.5c0-0.2-0.1-0.3-0.1-0.5c0-0.3-0.1-0.6-0.4-0.8
					c-0.1-0.1-0.2-0.3-0.3-0.4c-0.2-0.2-0.2-0.4-0.1-0.6c0.1-0.2,0.1-0.4,0.2-0.6c0.1-0.2,0.1-0.5,0.1-0.7c0-0.2-0.1-0.4-0.1-0.6
					c0-0.2,0-0.4,0.2-0.5c0.2-0.1,0.3-0.3,0.5-0.4c0.2-0.2,0.4-0.4,0.5-0.7c0-0.1,0.1-0.3,0.2-0.4c0.1-0.3,0.3-0.4,0.6-0.5
					c0.2,0,0.4-0.1,0.5-0.1c0.3,0,0.5-0.1,0.7-0.3c0.2-0.1,0.3-0.3,0.5-0.4C1676.1,327.8,1676.2,327.7,1676.3,327.7z"/>
			</g>
		</g>
	</g>
</g>
<g id="XMLID_39_">
	<rect id="XMLID_106_" x="888.6" y="562.6" class="st5" width="441.5" height="183.8"/>
	<text id="XMLID_105_" transform="matrix(1 0 0 1 890.1361 619.6904)"><tspan x="0" y="0" class="st4 st6 st7">Repairshop </tspan><tspan x="21.5" y="96" class="st4 st6 st7">preparatio</tspan></text>
	<g id="XMLID_1_">
		<circle id="XMLID_5_" class="st11" cx="1109.3" cy="319.6" r="169.4"/>
		<g id="XMLID_32_">
			<g id="_x31_4X0Jv.tif">
				<g id="XMLID_113_">
					<path id="XMLID_127_" class="st1" d="M1013,388c0.3-0.6,0.3-1.2,0.4-1.8c0.7-3.9,2.4-7.2,5.1-10.1c2.6-2.7,5.7-4.5,9.4-5.4
						c1.1-0.3,2.3-0.4,3.4-0.5c1.7-0.1,3.3-0.4,4.9-0.9c3-0.9,5.9-2.2,8.6-3.7c5.8-3.2,11.1-7.1,16.3-11.1c3.6-2.8,7.2-5.7,10.8-8.6
						c5-4,10-8,14.9-12.1c3.6-2.9,7.3-5.9,10.9-8.8c3.8-3.1,7.6-6.2,11.4-9.3c3.3-2.7,6.6-5.3,9.9-8c4.1-3.3,8.1-6.6,12.2-9.9
						c3.3-2.7,6.6-5.3,9.9-8c2.7-2.2,5.4-4.3,8-6.7c4.2-3.8,7.2-8.4,8.7-13.9c0.5-1.8,0.8-3.6,1-5.4c0.3-2.9,1.4-5.4,3.2-7.7
						c1.9-2.5,4.3-4.3,7.1-5.8c2.3-1.2,4.6-2.3,7.2-3c1.6-0.4,3.2-0.7,4.8-0.8c0.2,0,0.5,0,0.7-0.1c1.3,0,2.6,0,4,0
						c0.2,0.1,0.4,0.1,0.5,0.1c1.5,0.1,3,0.3,4.5,0.6c1.3,0.2,2.5,0.5,3.8,0.9c0.9,0.2,1.2,0.8,1.1,1.6c-0.1,0.6-0.6,0.8-1.1,1
						c-3.8,1.6-7.7,3.2-11.5,4.8c-1.7,0.7-3.5,1.4-5.2,2.2c-0.9,0.4-1.5,1-1.9,1.9c-0.3,0.6-0.5,1.3-0.6,2c-0.2,1.4-0.1,2.8,0.2,4.2
						c0.7,3.9,2.2,7.5,4.5,10.7c0.9,1.3,2,2.4,3.5,3.1c1.1,0.6,2.3,0.6,3.5,0.1c2.9-1.2,5.7-2.4,8.6-3.6c2.6-1.1,5.1-2.1,7.7-3.2
						c1.1-0.4,1.5-0.3,2,0.7c0,0.3,0,0.6,0,0.9c-1.2,2.1-2.6,4-4.1,5.9c-2.4,3-5.2,5.7-8.5,7.7c-2.8,1.6-5.8,2.6-8.9,3.2
						c-1.6,0.3-3.2,0.4-4.9,0.4c-2.2,0-4.3,0.4-6.4,0.9c-3.6,0.7-7,1.9-10.3,3.5c-2.1,1.1-4,2.4-5.8,3.9c-2.1,1.7-4.2,3.4-6.3,5.1
						c-3.9,3.2-7.9,6.4-11.8,9.5c-3.5,2.8-7,5.6-10.5,8.4c-4.1,3.3-8.1,6.6-12.2,9.9c-3.3,2.7-6.6,5.3-9.9,8
						c-3.9,3.1-7.7,6.3-11.6,9.4c-3.2,2.6-6.5,5.2-9.7,7.8c-3.3,2.7-6.7,5.3-9.9,8.1c-3.4,3-6.7,6.2-9.8,9.6c-3,3.2-5.8,6.5-8.4,10
						c-1.6,2.2-3.1,4.4-4.5,6.8c-0.5,0.8-0.9,1.7-1.2,2.7c-0.7,2.3-1.8,4.4-3.3,6.2c-2.9,3.7-6.7,6-11.2,7c-0.8,0.2-1.6,0.3-2.4,0.4
						c-1.1,0-2.2,0-3.3,0c-0.4-0.2-0.8-0.1-1.2-0.2c-4.8-0.8-8.8-2.9-12-6.7c-2.5-2.9-4-6.3-4.4-10.1c0-0.3-0.1-0.6-0.3-0.8
						C1013,390.2,1013,389.1,1013,388z"/>
				</g>
			</g>
			<path id="XMLID_128_" class="st1" d="M1027.5,403.7c0.1,0,0.2,0,0.3-0.1c0.9-0.1,1.8-0.3,2.7-0.4c0.4-0.1,0.8-0.1,1.2,0.1
				c0.8,0.3,1.7,0.6,2.5,1c0.5,0.2,0.9,0.2,1.3-0.2c0.7-0.6,1.5-1.2,2.2-1.8c0.3-0.2,0.6-0.3,0.9-0.4c0.9-0.1,1.9-0.3,2.8-0.4
				c0.5-0.1,0.8-0.3,0.9-0.7c0.3-0.9,0.7-1.7,1-2.6c0.2-0.4,0.4-0.8,0.8-1.1c0.7-0.6,1.4-1.2,2.2-1.7c0.3-0.2,0.4-0.5,0.4-0.9
				c-0.2-0.9-0.3-1.8-0.4-2.7c-0.1-0.5,0-0.9,0.1-1.4c0.3-0.9,0.7-1.7,1-2.6c0.2-0.4,0.1-0.7-0.1-1c-0.6-0.8-1.2-1.5-1.9-2.3
				c-0.3-0.3-0.4-0.7-0.5-1.1c-0.1-0.9-0.3-1.8-0.4-2.7c-0.1-0.4-0.2-0.7-0.6-0.8c-0.8-0.3-1.7-0.7-2.5-1c-0.5-0.2-0.9-0.5-1.2-0.9
				c-0.5-0.7-1.1-1.3-1.5-1.9c-0.3-0.5-0.7-0.6-1.3-0.5c-0.9,0.2-1.8,0.3-2.7,0.4c-0.3,0.1-0.6,0-0.9-0.1c-0.9-0.4-1.8-0.7-2.7-1
				c-0.5-0.2-0.8-0.1-1.2,0.2c-0.7,0.6-1.4,1.2-2.1,1.7c-0.3,0.2-0.6,0.4-1,0.4c-1,0.1-2,0.3-2.9,0.5c-0.4,0.1-0.6,0.2-0.7,0.6
				c-0.3,0.9-0.7,1.8-1,2.6c-0.2,0.4-0.4,0.7-0.7,1c-0.7,0.6-1.5,1.2-2.2,1.8c-0.4,0.3-0.4,0.6-0.4,1c0.2,0.9,0.3,1.8,0.4,2.7
				c0.1,0.5,0,0.9-0.1,1.4c-0.4,0.9-0.7,1.8-1,2.6c-0.2,0.4-0.1,0.7,0.2,1c0.6,0.7,1.1,1.4,1.7,2c0.4,0.4,0.6,0.9,0.7,1.5
				c0.1,0.9,0.3,1.7,0.4,2.6c0.1,0.4,0.2,0.6,0.6,0.8c0.9,0.3,1.8,0.7,2.6,1c0.4,0.2,0.7,0.4,1,0.7c0.6,0.7,1.1,1.4,1.7,2.2
				C1027,403.4,1027.1,403.7,1027.5,403.7z"/>
		</g>
	</g>
</g>
</svg>
