<?xml version="1.0" encoding="utf-8"?>
<!-- Generator: Adobe Illustrator 19.0.0, SVG Export Plug-In . SVG Version: 6.00 Build 0)  -->
<svg version="1.1" id="Ebene_1" xmlns="http://www.w3.org/2000/svg" xmlns:xlink="http://www.w3.org/1999/xlink" x="0px" y="0px"
	 viewBox="-566 1013.8 283.5 99.2" style="enable-background:new -566 1013.8 283.5 99.2;" xml:space="preserve">
<style type="text/css">
	.st0{fill:#010202;}
	.st1{fill:#010203;}
	.st2{fill:#002620;}
	.st3{fill:#FFFFFF;}
	.st4{fill:none;stroke:#62F1AC;stroke-miterlimit:10;}
</style>
<g id="XMLID_3_">
	<path id="XMLID_83_" class="st0" d="M-511.2,1060.9c-0.2,0.9-0.5,1.6-0.7,2.5c-0.9,3-1.7,5.9-2.6,8.9c-0.2,0.4-0.1,0.5,0.4,0.5
		c0.4,0,0.9,0,1.3,0c1.1,0,1.6-0.3,1.9-1.3c0.4-1.1,0.6-2.2,0.9-3.2c1.7-5.9,3.4-11.7,5.1-17.5c0.1-0.3,0.2-0.4,0.5-0.4
		c1.3,0,2.4,0,3.7,0.2c2.6,0.5,3.8,2.1,3.9,4.8c0.1,2-0.5,3.9-1.9,5.5s-3.3,2.1-5.4,2.3c-0.3,0-0.8-0.1-0.7,0.5
		c0.5,0,1.1,0.1,1.6,0.3c2.1,0.6,3.4,2.3,3.4,4.6c-0.1,3-1.1,5.6-3.5,7.4c-1.4,1.1-3.1,1.6-4.9,1.8c-1.4,0.2-2.9,0.2-4.4,0.2
		c-5.5,0-10.9,0-16.4,0c-0.2,0-0.3,0-0.7,0c6.1-5.7,12.1-11.3,18.2-16.9C-511.3,1060.8-511.2,1060.8-511.2,1060.9z"/>
	<path id="XMLID_82_" class="st0" d="M-367,1055.4c1.9,0,3.6,0,5.2,0.3c2.8,0.5,3.6,2.6,3.3,4.9c-0.3,2.7-1.3,5.2-2,7.7
		c-0.5,1.8-0.9,3.7-1.7,5.4c-0.4,0.8-0.9,1.5-1.4,2.2c-1.1,1.4-2.7,1.8-4.4,2c-2.4,0.2-4.9,0.2-7.3,0c-1.2-0.1-2.3-0.4-3.1-1.2
		c-1.2-1-1.3-2.3-1.1-3.8c0.5-2.9,1.5-5.7,2.3-8.6c0.5-1.6,0.9-3.3,1.6-4.9c1.1-2.3,2.8-3.6,5.4-3.8
		C-369.1,1055.5-368,1055.5-367,1055.4z"/>
	<path id="XMLID_81_" class="st0" d="M-464,1077.7c-2.1,0-3.8,0-5.6,0c-0.4,0-0.5-0.1-0.3-0.5c2-7,4.1-14.1,6.1-21.1
		c0.1-0.2,0.2-0.4,0.5-0.4c3.4,0,6.8,0,10.3,0c0.7,0,1.3,0.1,2,0.2c2.7,0.5,3.4,2.7,3.2,4.9c-0.2,2.3-1.1,4.5-1.7,6.8
		c-0.5,1.8-0.9,3.6-1.6,5.3c-1.2,2.7-3.3,4.2-6.2,4.5C-459.7,1077.8-462,1077.7-464,1077.7z"/>
	<path id="XMLID_80_" class="st0" d="M-433.9,1055.7c-1.6,1.1-3.4,2.1-3.9,4.2c-1.1,3.9-2.3,7.9-3.4,11.8c-0.4,1.3,0.2,1.9,1.5,1.9
		c0.1,0,0.2,0,0.2,0c0.4,0.1,0.6-0.1,0.7-0.5c0.7-2.4,1.4-4.8,2-7.2c0.1-0.4,0.2-0.5,0.6-0.5c2.1,0,4.2,0,6.3,0
		c0.5,0,0.5,0.2,0.4,0.5c-1.1,3.8-2.2,7.4-3.2,11.2c-0.1,0.4-0.3,0.5-0.6,0.5c-2.7,0-5.6,0-8.3,0c-1.3,0-2.5-0.1-3.7-0.3
		c-2.2-0.5-3.6-2.4-3.4-4.6c0.2-2.5,1.1-4.9,1.7-7.3c0.5-2,1-4,1.9-5.9c0.7-1.6,1.6-3,3.4-3.6c1.3-0.5,2.5-0.5,3.8-0.5
		c1.3-0.1,2.5,0,3.7-0.1C-434,1055.5-433.9,1055.5-433.9,1055.7z"/>
	<path id="XMLID_79_" class="st0" d="M-398.5,1056.1c-0.3,0.3-0.6,0.6-1,0.9c-1.6,1-2.3,2.5-2.6,4.3c0,0.2-0.1,0.3-0.1,0.5
		c-0.1,0.7,0.1,1.1,0.8,1.5c0.6,0.4,1.4,0.4,2.1,0.5c1.1,0.2,2.2,0.5,3.3,1c1.2,0.5,1.6,1.5,1.8,2.7c0.2,2.1-0.4,4.1-1.3,6
		c-0.2,0.5-0.5,1.1-0.9,1.6c-0.9,1.6-2.2,2.3-3.8,2.6c-2.9,0.4-5.8,0.4-8.6,0.1c-2.7-0.3-4-2.3-3.4-5c0.2-0.9,0.4-1.6,0.7-2.5
		c0.1-0.2,0.2-0.3,0.4-0.3c2.3,0,4.5,0,6.7,0c-0.2,0.9-0.5,1.6-0.7,2.4c-0.2,0.7-0.1,1.2,0.3,1.3c0.5,0.3,1.6,0.2,1.9-0.3
		c0.6-1,0.9-2.2,1-3.4c0.1-0.5-0.2-0.9-0.8-1.1c-1.2-0.5-2.3-0.6-3.6-0.9c-0.4-0.1-0.7-0.2-1.1-0.3c-1.4-0.5-2.3-1.6-2.3-3.1
		c0-2.3,0.6-4.4,1.6-6.4c0.8-1.5,2.2-2.2,3.8-2.5c1.2-0.2,2.4-0.3,3.7-0.2c0.7-0.1,1.3,0,2-0.1c0.2,0,0.3,0.1,0.2,0.3
		C-398.3,1055.9-398.4,1056.1-398.5,1056.1z"/>
	<path id="XMLID_78_" class="st1" d="M-330.6,1066.3c0.4-0.3,0.8-0.6,1.1-0.9c0.9-0.8,2-1.2,3.1-1.2s2.3,0,3.4,0
		c0.3,0,0.4,0.1,0.3,0.4c-0.4,1.3-0.7,2.5-1.1,3.7c-0.1,0.3-0.2,0.3-0.5,0.3c-2.2,0-4.5,0-6.7,0c-0.4,0-0.5,0.2-0.6,0.5
		c-0.2,0.8-0.5,1.6-0.7,2.4c-0.3,1.2,0.1,1.6,1.3,1.7c2,0.1,3.8,0.1,5.8,0c0.4,0,0.5,0,0.4,0.5c-0.4,1.2-0.7,2.4-1,3.6
		c-0.1,0.3-0.2,0.5-0.5,0.5c-2.7,0-5.5,0-8.2,0c-0.9,0-1.8-0.2-2.7-0.5c-1.8-0.7-2.6-2.1-2.3-4c0.2-1.6,0.7-3.1,1.1-4.6
		c0.9-3,1.6-5.9,2.6-8.8c0.9-2.7,2.7-4,5.6-4c3.4,0,6.7,0,10,0c0.3,0,0.4,0.1,0.3,0.4c-0.4,1.2-0.7,2.4-1,3.6
		c-0.1,0.3-0.2,0.5-0.5,0.5c-1.9,0-3.8,0-5.6,0c-1.5,0-1.9,0.3-2.3,1.7c-0.4,1.4-0.8,2.7-1.2,4.1
		C-330.6,1066.1-330.6,1066.2-330.6,1066.3z"/>
	<path id="XMLID_77_" class="st1" d="M-409.4,1055.7c-0.4,1.4-0.9,2.8-1.3,4.2c-0.1,0.3-0.3,0.2-0.5,0.2c-1.8,0-3.7,0-5.5,0
		c-0.2,0-0.5,0-0.8,0c-0.6,0.1-1.2,0.4-1.3,1c-0.5,1.6-1,3.4-1.6,5.2c0.5-0.5,1-0.9,1.6-1.3c0.8-0.6,1.7-0.9,2.7-0.9
		c1.3,0,2.6,0,3.9,0c-0.3,1.2-0.6,2.3-0.9,3.4c-0.2,0.9-0.2,0.9-1.3,0.9c-2,0-4.1,0-6.1,0c-0.3,0-0.5,0.1-0.5,0.4
		c-0.2,0.9-0.5,1.7-0.7,2.6c-0.3,1.1,0.1,1.6,1.2,1.6c2,0.1,3.9,0.1,5.9,0.1c0.4,0,0.5,0.1,0.4,0.5c-0.4,1.2-0.7,2.4-1.1,3.7
		c-0.1,0.3-0.2,0.4-0.5,0.4c-2.8,0-5.6,0-8.4,0c-0.9,0-1.9-0.2-2.7-0.6c-1.5-0.7-2.2-1.9-2.1-3.6c0.1-1.6,0.6-3.1,1-4.5
		c0.9-3.1,1.6-6.3,2.7-9.4c0.9-2.5,2.7-3.8,5.4-3.8C-416.4,1055.7-412.9,1055.7-409.4,1055.7z"/>
	<path id="XMLID_76_" class="st1" d="M-393,1077.7c0.4-1.3,0.7-2.5,1.1-3.8c0.9-3.1,1.8-6.2,2.7-9.3c0.4-1.3,1.3-2.3,2.3-3.2
		c0.5-0.4,0.9-0.8,1.5-1.2c-0.9,0-1.7,0-2.5,0c-1.1,0-2.1,0-3.2,0c-0.3,0-0.4-0.1-0.3-0.4c0.4-1.3,0.8-2.5,1.1-3.8
		c0.1-0.3,0.2-0.4,0.5-0.4c1.5,0,3,0,4.4,0c3.1,0,6.1,0,9.2,0c0.2,0,0.4,0,0.6,0c-0.4,1.5-0.9,2.9-1.3,4.3c-0.1,0.2-0.2,0.2-0.5,0.2
		c-0.9,0-1.9,0-2.9,0c-0.3,0-0.5,0.1-0.5,0.4c-1.6,5.5-3.2,11-4.8,16.5c-0.1,0.4-0.2,0.5-0.6,0.5
		C-388.4,1077.7-390.7,1077.7-393,1077.7z"/>
	<path id="XMLID_75_" class="st1" d="M-344.6,1056.1C-344.7,1056.1-344.7,1056.1-344.6,1056.1c-1.7,1.3-3.4,2.3-4.1,4.5
		c-1.5,5.6-3.2,11.1-4.8,16.7c-0.1,0.4-0.3,0.5-0.7,0.5c-2.2,0-4.5,0-6.7,0c0.4-1.3,0.7-2.5,1.1-3.8c1.7-5.9,3.4-11.9,5.2-17.8
		c0.1-0.3,0.2-0.5,0.6-0.5c3.8,0,7.5,0,11.2,0c0.2,0,0.5-0.1,0.8,0.1c-0.2,0.2-0.4,0.2-0.5,0.2C-343.3,1056-344,1056-344.6,1056.1z"
		/>
	<path id="XMLID_74_" class="st1" d="M-466.6,1055.7c-0.7,2.3-1.3,4.6-2,7c-1.4,4.9-2.8,9.7-4.2,14.6c-0.1,0.4-0.2,0.5-0.6,0.5
		c-2.3,0-4.5,0-6.9,0c-0.1-0.2,0.1-0.4,0.1-0.5c2-7,4.1-14,6.1-21c0.1-0.2,0.1-0.5,0.5-0.5c2.3,0,4.6,0,6.9,0
		C-466.7,1055.7-466.7,1055.7-466.6,1055.7z"/>
	<path id="XMLID_73_" class="st1" d="M-486,1057.5c-0.2,0.2-0.5,0.5-0.8,0.8c-0.5,0.5-0.8,1-1,1.7c-1.6,5.8-3.4,11.6-5,17.4
		c-0.1,0.4-0.2,0.5-0.6,0.5c-2.1,0-4.1,0-6.3,0c-0.4,0-0.5-0.1-0.3-0.5c2-7,4.1-14.1,6.1-21.1c0-0.1,0.1-0.2,0.1-0.2
		c0.1-0.2,0.2-0.2,0.4-0.2c2.9,0,5.9,0,8.8,0c0.1,0,0.2,0,0.2,0.1c-0.2,0.3-0.5,0.5-0.8,0.7C-485.4,1056.8-485.8,1057.1-486,1057.5z
		"/>
	<path id="XMLID_72_" class="st1" d="M-344.6,1056.1c0.2-0.2,0.4-0.2,0.7-0.2c0.6,0,1.3,0,1.9,0c1.8,0.1,3.3,1.1,3.5,2.6
		c0.2,1.1,0.1,2.2-0.2,3.2c-1.5,5.2-3.1,10.5-4.5,15.7c-0.1,0.3-0.2,0.4-0.5,0.4c-2.2,0-4.4,0-6.6,0c-0.4,0-0.5-0.1-0.3-0.5
		c2-7,4-13.9,6-20.8C-344.7,1056.4-344.6,1056.2-344.6,1056.1z"/>
	<path id="XMLID_71_" class="st1" d="M-486,1057.5c-0.1-0.3,0.1-0.5,0.3-0.7c0.4-0.2,0.8-0.5,1.2-0.9c-0.2,0-0.4,0-0.5,0
		c-2.7,0-5.5,0-8.1,0c-0.2,0-0.5,0-0.7,0.1c0-0.2,0.2-0.2,0.3-0.2c3.8,0,7.6,0,11.3,0c0.5,0,1.1,0.1,1.6,0.2c1.9,0.5,2.9,2,2.7,4.1
		c-0.1,1-0.4,2.1-0.9,3.1c-0.8,1.7-2.1,2.6-3.9,2.8c-0.4,0.1-0.8,0.1-1.3,0.1c-0.2,0-0.2,0.1-0.3,0.3c-0.1,0.2,0.2,0.2,0.2,0.2
		c0.2,0.1,0.5,0.1,0.7,0.2c2,0.5,2.7,1.9,2.4,3.8c-0.3,2.3-1,4.4-1.6,6.6c-0.2,0.8-0.2,0.8-1,0.8c-2.3,0-4.5,0-6.9,0
		c2.1-7.3,4.1-14.5,6.3-21.7l-0.1-0.1C-484.7,1056.4-485.4,1057-486,1057.5z"/>
	<path id="XMLID_70_" class="st2" d="M-505.1,1050.3c-6.3,5.9-12.7,11.7-19.1,17.6c0,0-0.1,0-0.1-0.1c0.6-2.2,1.3-4.5,2-6.7
		c1-3.5,2-7,3.1-10.5c0.2-0.4,0.3-0.5,0.7-0.5c4.3,0,8.6,0,12.9,0C-505.5,1050.3-505.3,1050.2-505.1,1050.3z"/>
	<path id="XMLID_69_" class="st1" d="M-433.9,1055.7c-0.2-0.2-0.3-0.2-0.5-0.2c-1.2,0-2.3,0-3.4,0c0.8-0.2,1.5-0.1,2.3-0.1
		c1.7,0,3.4-0.1,5.1,0.3c2,0.4,3.1,2,2.7,4c-0.2,0.9-0.3,1.7-0.5,2.5c-0.1,0.3-0.2,0.5-0.6,0.5c-2.1,0-4.2,0-6.3,0
		c-0.5,0-0.5-0.2-0.4-0.5c0.5-2,1.2-4.1,1.7-6.1C-433.9,1056-433.9,1055.9-433.9,1055.7z"/>
	<path id="XMLID_68_" class="st1" d="M-398.5,1056.1c-0.1-0.2,0.1-0.4,0.2-0.6c-0.8,0-1.5,0-2.2,0c0.8-0.2,1.6-0.1,2.4-0.1
		c1,0,2.1,0.1,3.1,0.3c2.1,0.5,3,1.5,2.9,3.6c0,0.9-0.2,1.9-0.5,2.8c-0.1,0.2-0.2,0.3-0.4,0.3c-2.2,0-4.5,0-6.7,0
		c0.6-2.3,1.3-4.5,2-6.8C-398,1055.8-398.2,1056-398.5,1056.1z"/>
	<path id="XMLID_67_" class="st3" d="M-364.5,1055.7c0.2,0.2,0,0.4,0,0.6c-1.5,5.3-3.1,10.6-4.5,15.9c0,0.2-0.1,0.2-0.1,0.4
		c-0.4,1.2-0.9,1.5-2.1,1.3c-0.6-0.1-0.9-0.4-0.8-1c0.1-0.5,0.2-1.1,0.4-1.6c1.1-3.8,2.2-7.7,3.3-11.5c0.2-0.5,0.4-1,0.8-1.4
		C-366.7,1057.3-365.5,1056.5-364.5,1055.7z"/>
	<path id="XMLID_66_" class="st3" d="M-453.7,1056.1c-0.2,0.9-0.5,1.8-0.8,2.7c-1.3,4.4-2.5,8.8-3.8,13.2c-0.4,1.3-0.9,1.6-2.2,1.6
		c-1.1,0-1.1,0-0.8-1c1.2-4.1,2.4-8.4,3.6-12.5c0.3-1.2,1-2,2-2.7c0.6-0.5,1.3-0.9,1.9-1.4C-453.8,1056.1-453.7,1056.1-453.7,1056.1
		z"/>
</g>
<rect x="-549.6" y="1025.4" class="st4" width="249.6" height="77.6"/>
</svg>
