<?xml version="1.0" encoding="utf-8"?>
<!-- Generator: Adobe Illustrator 19.0.0, SVG Export Plug-In . SVG Version: 6.00 Build 0)  -->
<svg version="1.1" id="Ebene_1" xmlns="http://www.w3.org/2000/svg" xmlns:xlink="http://www.w3.org/1999/xlink" x="0px" y="0px"
	 viewBox="0 0 1417.3 2126" style="enable-background:new 0 0 1417.3 2126;" xml:space="preserve">
<style type="text/css">
	.st0{fill:none;stroke:#000000;stroke-width:5;stroke-miterlimit:10;}
	.st1{fill:#62F1AC;}
	.st2{fill:#62F1AC;stroke:#62F1AC;stroke-miterlimit:10;}
</style>
<path id="XMLID_138_" class="st0" d="M238.9,689c18.2,11.9,38.6,19.3,58.1,28.6c48.3,23.1,96.9,45.6,145.6,68c6.8,3.1,9,6.8,9,14.2
	c-0.2,181.9-0.2,363.9-0.1,545.8c0,6.2-0.3,10.6-7.4,13.9c-9.3,4.4-8.7,18.5,0.8,23c5.6,2.7,6.7,5.7,6.6,11.1
	c-0.1,51.9-0.2,103.8,0.1,155.6c0,8.5-1.8,9.2-9.1,5.7c-65.5-31-131.1-61.7-196.9-92.3c-6.6-3.1-9-6.7-9-14.1
	c0.4-51.2,0.2-102.4,0.2-153.5c0-5.7-0.1-10,6.7-13.3c9.4-4.5,9.3-18.4-0.2-23.1c-6.1-3-6.6-6.7-6.6-12.2
	c0.1-23.8-0.2-47.7-0.3-71.5c-1.5-17.8-0.5-35.7-0.6-53.6c-0.2-32.6-0.1-65.2-0.1-97.8c0-51.2,0-102.4,0-153.6
	c0-56.6,0-113.1,0-169.7c0-3.8-1-7.7,1-11.3C237.5,689,238.2,689,238.9,689z"/>
<path id="XMLID_137_" class="st0" d="M724.9,689c17.9,11.6,38,18.9,57.2,28.1c48.7,23.2,97.6,46,146.5,68.5c6.8,3.1,9,6.9,8.9,14.2
	c-0.2,127.3-0.2,254.5-0.1,381.8c0,5.9-0.4,9.9-6.9,13.2c-9.6,4.8-8.7,18.7,1.3,23.7c4.1,2.1,5.6,4,5.6,8.5
	c-0.1,109.4-0.1,218.7-0.2,328.1c0,0.7-0.3,1.3-0.6,2.5c-6.7-0.7-12.3-4.6-18.1-7.3c-62.2-29-124.2-58.3-186.5-87.2
	c-7.1-3.3-9.4-7.1-9.4-14.9c0.3-144.1,0.2-288.2,0.1-432.2c0-5.9,0.4-9.8,7.1-12.9c9.4-4.4,9.1-18.5-0.4-23c-6.2-3-6.7-6.7-6.7-12.2
	c0.1-92.9,0.1-185.8,0.1-278.7C723.5,689,724.2,689,724.9,689z"/>
<path id="XMLID_136_" class="st0" d="M695.5,689c0,92.2,0,184.4,0,276.6c0,6.4,0.9,12.3-7.8,14.6c-4.8,1.2-7.2,6.5-6.8,12
	c0.4,5.7,3.1,10.6,8.7,11.9c5.7,1.3,5.9,4.6,5.9,9.1c-0.1,145.9-0.1,291.7,0,437.6c0,5.1-1,8.2-6.1,10.6
	c-69,31.8-137.9,63.9-206.9,95.9c-0.6,0.3-1.3,0.2-2.3,0.3c-2.9-2.8-1.4-6.4-1.4-9.6c-0.1-50.8,0-101.7-0.2-152.5
	c0-6.2,1-9.8,7.5-12.7c10.3-4.7,10.4-19.5,0.2-23.2c-7.9-2.9-7.6-7.4-7.6-13.4c0-151.1,0-302.2,0-453.4c0-30.2,0.3-60.3-0.2-90.5
	c-0.2-8.9,2.3-13.3,10.8-17.2c65.6-29.9,130.9-60.6,196.3-91.1c2.7-1.3,6.2-1.7,7.7-4.9C694.1,689,694.8,689,695.5,689z"/>
<path id="XMLID_135_" class="st0" d="M1181.6,689c0,252.8,0,505.6,0.2,758.3c0,8.1-2.1,12.3-9.7,15.8
	c-66.2,30.3-132.3,61-198.3,91.9c-7.4,3.5-9.1,2.6-9.1-5.8c0.2-106.9,0.2-213.9,0.1-320.8c0-4.9,0.1-8.4,6.3-9.9
	c5.5-1.3,8.1-6.5,8.3-12.2c0.2-5.9-2.8-10.6-8.1-12.3c-6.3-1.9-6.4-6-6.4-11.2c0.1-128,0.1-255.9-0.1-383.9c0-7.2,2.6-10.4,8.8-13.3
	c65.2-30,130.3-60.3,195.4-90.6c3.7-1.7,8.1-2.5,10.7-6.2C1180.2,689,1180.9,689,1181.6,689z"/>
<g id="y0X1uu.tif">
	<g id="XMLID_1_">
		<path id="XMLID_131_" class="st1" d="M422.3,1351.2c-0.7,8.4-5.5,12.7-13.6,13.1c-7.3,0.3-14.2-7.1-13.9-14.2
			c0.4-7.6,7.3-13.7,15-13C418.2,1337.9,422,1343.1,422.3,1351.2z"/>
		<path id="XMLID_130_" class="st1" d="M266,1290.3c0.1-7.9,6.4-14.7,13.8-13.8c7.6,0.9,13,5.1,13.6,13.3
			c0.5,7.7-5.7,13.9-13.5,14.1C271.8,1303.9,266,1298.2,266,1290.3z"/>
		<path id="XMLID_129_" class="st1" d="M336.1,1309.5c-0.2,9.4-6.5,15.5-14.3,14.7c-8.2-0.8-12.6-6-12.9-13.9
			c-0.3-7.3,7.2-13.9,14.7-13.2C331.9,1297.8,335.9,1302.8,336.1,1309.5z"/>
		<path id="XMLID_128_" class="st1" d="M379.6,1331.1c-1,6.9-4.4,12.3-13,12.8c-8.2,0.4-14.3-5.1-14.4-13.1
			c-0.1-8.5,5.1-12.8,12.7-14.1C371.9,1315.6,379.3,1322.8,379.6,1331.1z"/>
		<path id="XMLID_127_" class="st1" d="M844,1155.8c0.1,7.8-6.1,13.6-14.3,13.6c-8-0.1-14.4-6.3-13.7-14.1c0.8-8,5.7-12.7,13.7-13.4
			C837.2,1141.3,843.9,1148.2,844,1155.8z"/>
		<path id="XMLID_126_" class="st1" d="M830.3,1103.8c7.3,0,14.3,7,14,14.1c-0.3,7.7-6.7,13.6-14.6,13.3
			c-8.5-0.3-12.6-5.5-13.3-13.3C815.8,1110.6,822.9,1103.8,830.3,1103.8z"/>
		<path id="XMLID_125_" class="st1" d="M829.3,1055.3c-7.7-0.4-14.3-7.3-13.2-14.6c1.2-7.6,5.6-12.8,14-12.8
			c7.8,0,13.9,6.5,13.7,14.2C843.5,1049.9,837.2,1055.7,829.3,1055.3z"/>
		<path id="XMLID_124_" class="st1" d="M901.5,1176c8.2,0.2,15,7.1,14.1,14.5c-1,7.9-5.5,12.8-13.9,12.9
			c-8.4,0.1-13.7-5.7-13.2-14.1C889,1180.7,894.3,1177,901.5,1176z"/>
		<path id="XMLID_123_" class="st1" d="M852.8,1171.8c0.2-7.3,4.9-11.9,12.9-12.6c7.6-0.7,14.5,6.1,14.1,13.8
			c-0.4,8.1-5,13-13.1,13.8C859.3,1187.5,852.8,1180.7,852.8,1171.8z"/>
		<path id="XMLID_122_" class="st1" d="M771.7,1009.9c-0.7,6.8-4.8,11.7-13.2,11.9c-8,0.2-14.3-6.2-14.1-13.9
			c0.2-7.2,7.7-14.4,14.8-13.4C767.1,995.6,771.9,1000,771.7,1009.9z"/>
		<path id="XMLID_121_" class="st1" d="M808,1024.9c-0.3,8.5-6.5,14.3-14.5,13.7c-8.5-0.6-12.6-6-12.9-13.8
			c-0.4-7.4,7.4-14.4,14.6-13.4C803.1,1012.4,807.6,1017.1,808,1024.9z"/>
		<path id="XMLID_120_" class="st1" d="M829.7,1093.3c-7.6-0.3-13.8-6.8-13.1-14.5c0.8-8.1,5.7-12.6,13.7-12.9
			c7.3-0.3,14.2,6.9,13.9,14C844,1087.2,837.1,1093.5,829.7,1093.3z"/>
		<path id="XMLID_119_" class="st1" d="M587.4,1027.8c7.8,0.2,13.7,6.6,13.4,14.5c-0.4,8.1-6.4,13.6-14.6,13
			c-8.4-0.6-12.7-5.4-12.8-13.7C573.3,1033.5,579.5,1027.6,587.4,1027.8z"/>
		<path id="XMLID_118_" class="st1" d="M586.5,1074.3c7.2-0.3,14.5,6.5,14.2,13.8c-0.3,8-4.3,13.1-12.7,13.7
			c-8.3,0.5-14.3-4.8-14.6-12.8C573.1,1081.1,578.9,1074.6,586.5,1074.3z"/>
		<path id="XMLID_117_" class="st1" d="M636.6,1024.9c0.2,7.9-5.7,13.8-13.7,13.8c-8.4-0.1-12.8-4.9-13.6-12.8
			c-0.8-7.2,5.8-14.1,13.3-14.6C630,1010.8,636.5,1017,636.6,1024.9z"/>
		<path id="XMLID_116_" class="st1" d="M672.4,1009.6c-0.6,7.7-7.1,13.1-15.2,12.2c-8.4-1-12-6.4-12.1-14.3
			c0-7.2,7.6-13.6,14.8-13.1C667.4,994.9,673.1,1001.8,672.4,1009.6z"/>
		<path id="XMLID_115_" class="st1" d="M586.9,1306.5c7.7-0.1,14.1,6.3,13.9,14c-0.2,8.4-5.4,12.7-13.1,13.8
			c-7.1,1-14.1-6-14.4-13.5C573.1,1313.1,579.2,1306.6,586.9,1306.5z"/>
		<path id="XMLID_114_" class="st1" d="M573.4,1274c0-7.7,6.4-14.3,14-13.7c7.8,0.7,12.9,5,13.4,13.3c0.4,7.4-6.3,14.4-13.5,14.5
			C580,1288.3,573.3,1281.5,573.4,1274z"/>
		<path id="XMLID_113_" class="st1" d="M600.8,1227.8c-0.1,7.7-6.6,14.1-14.3,13.4c-7.9-0.7-12.9-5-13.1-13.4
			c-0.2-7.4,6.5-14.3,13.7-14.3C594.2,1213.4,600.9,1220.4,600.8,1227.8z"/>
		<path id="XMLID_112_" class="st1" d="M587.4,1194.6c-8.2,0.2-14-5.4-14.1-13.4c0-7.6,6.4-14.7,13.8-14c7.7,0.7,12.9,5,13.6,13.3
			C601.4,1188.3,595.5,1194.4,587.4,1194.6z"/>
		<path id="XMLID_111_" class="st1" d="M600.8,1134.6c0,7.9-5.8,13.7-13.8,13.7c-8.1,0-13.9-5.9-13.5-13.8
			c0.4-8.3,5.6-12.6,13.2-13.5C593.7,1120,600.7,1127.3,600.8,1134.6z"/>
		<path id="XMLID_110_" class="st1" d="M537.6,1336.3c0.5-6.8,4.5-11.7,12.9-12.2c8.2-0.5,14.5,5.1,14.4,13.1
			c-0.1,8.4-5.3,12.8-12.9,14C545.1,1352.4,537.9,1345.1,537.6,1336.3z"/>
		<path id="XMLID_109_" class="st2" d="M529.3,1354.7c-1.2,8.2-6.2,12.7-14,13.4c-7.2,0.6-13.8-7-13.6-14.4
			c0.3-7.9,6.5-13.4,14.7-12.8C525.1,1341.5,528.4,1347,529.3,1354.7z"/>
		<path id="XMLID_108_" class="st1" d="M1036.7,902.8c5.2,3.1,8.4,5.2,11.8,6.9c8.9,4.5,17.5,15.8,26,13.1
			c7.6-2.4,12.1-14.5,17.8-22.4c5.1-7.1,10.4-14.1,15.1-21.4c2.5-3.8,4.8-4.6,8.3-1.9c0.6,0.4,1.2,0.8,1.8,1.1
			c23.7,13.4,23.7,13.4,8,35.4c-5.3,7.4-10.3,15-16,22.1c-4.5,5.6-5,9,2.3,12.6c7.8,3.8,15,9,22.6,13.3c4.5,2.6,5.9,4.9,2.3,9.7
			c-7.6,10-15,20.2-21.9,30.8c-3.3,5.1-5.9,4.2-10,1.5c-7.9-5.2-16.3-9.6-24.1-14.8c-5-3.3-7.6-2.2-10.8,2.4
			c-8.9,13-18.5,25.5-27.3,38.6c-3.3,4.9-5.9,6.9-11.4,2.8c-7-5.2-18.4-8.2-20.7-14.8c-2.2-6.1,8-13.5,12.7-20.4
			c5.5-8.1,11-16.3,17.2-23.8c4.6-5.6,2.5-8-2.7-10.8c-8.3-4.5-16.2-9.8-24.3-14.6c-2.9-1.7-5.4-3.2-2.5-7.2
			c8.3-11.3,16.3-22.7,24.4-34.2C1036,905.5,1036.3,903.9,1036.7,902.8z"/>
		<path id="XMLID_107_" class="st1" d="M1073.7,1065.8c7.8,0.3,13.7,6.8,13.2,14.6c-0.5,8-6.7,13.4-14.8,12.8
			c-8.4-0.7-12.4-5.9-12.6-13.9C1059.3,1071.7,1066,1065.5,1073.7,1065.8z"/>
		<path id="XMLID_106_" class="st1" d="M1071.2,1055.3c-6.6-0.6-11.4-4.7-11.8-13.1c-0.3-8.1,5.5-14.2,13.4-14.4
			c7.8-0.2,14.1,6,14.1,13.8C1086.8,1049.6,1080.8,1055.4,1071.2,1055.3z"/>
		<path id="XMLID_105_" class="st1" d="M1086.9,1118c-0.1,7.9-6.1,13.6-14.2,13.2c-8.2-0.4-12.8-4.9-13.2-13.1
			c-0.3-7.3,6.4-14.1,13.7-14.3C1080.5,1103.6,1087,1110.4,1086.9,1118z"/>
		<path id="XMLID_104_" class="st1" d="M1059.4,1155.7c0.1-8,6.2-14.1,14-13.8c7.3,0.2,14.1,7.3,13.4,14.6
			c-0.8,8-5.2,12.8-13.6,12.9C1065,1169.5,1059.3,1163.8,1059.4,1155.7z"/>
		<path id="XMLID_103_" class="st1" d="M1051.1,1171.6c-0.1,8.7-6.6,15.2-14,15.3c-7.2,0-13.6-6.9-13.4-14.4
			c0.2-7.4,7.3-14.3,14.4-13.4C1045.8,1160.1,1050.5,1164.7,1051.1,1171.6z"/>
		<path id="XMLID_102_" class="st1" d="M1015.2,1188.9c0.3,7.8-5.6,14-13.5,14c-8.2,0-13-4.2-13.8-12.4c-0.8-7.8,5-14.3,12.8-14.9
			C1007.8,1175,1015,1181.6,1015.2,1188.9z"/>
	</g>
</g>
</svg>
