<?xml version="1.0" encoding="utf-8"?>
<!-- Generator: Adobe Illustrator 19.0.0, SVG Export Plug-In . SVG Version: 6.00 Build 0)  -->
<svg version="1.1" id="Ebene_1" xmlns="http://www.w3.org/2000/svg" xmlns:xlink="http://www.w3.org/1999/xlink" x="0px" y="0px"
	 viewBox="0 0.3 1417.3 2126" style="enable-background:new 0 0.3 1417.3 2126;" xml:space="preserve">
<style type="text/css">
	.st0{fill:none;stroke:#000000;stroke-width:5;stroke-miterlimit:10;}
	.st1{fill:none;stroke:#62F1AC;stroke-width:5;stroke-miterlimit:10;}
	.st2{fill:#62F1AC;}
	.st3{fill:#FFFFFF;}
</style>
<g id="XMLID_1_">
	<g id="XMLID_2_">
		<path id="XMLID_38_" class="st0" d="M1449.8,2489.9c-8.4-2.4-16.8-4.7-25.2-7.3c-13-4-25.1-2.3-36.3,5.3
			c-12.9,8.7-25.5,18-38.7,26.3c-13.7,8.6-20.7,20.6-19.3,36.6c1.8,21.6-7.3,33.2-27.8,41.5c-84,34.1-167.3,69.7-250.6,105.2
			c-13.8,5.9-25.5,5.1-36.1-5.6c-16.9-17-36.4-23.5-59.9-15.9c-6,1.9-12.3,3-18.6,3.6c-25.2,2.4-42.8,13.9-50.4,39.3
			c-4.3,14.6-16.8,17.7-30.4,17.6c-36-0.2-72-0.6-108-0.5c-54.6,0-109.1,0-163.7,0.8c-19.1,0.3-32.6-5.3-39.9-24.5
			c-7.1-18.7-21.4-29.6-41.8-32c-7.2-0.9-14.6-2-21.5-4.2c-24.4-7.7-44.9-2.9-61.8,16.9c-7.8,9.1-17.7,10.6-29.1,5.8
			c-88.5-37.1-177.1-74-265.8-110.7c-12.7-5.3-17.7-15.3-17.4-27.8c0.7-25.1-9.9-42.6-32-54.4c-9.8-5.2-18.7-12.4-27.5-19.3
			c-14.5-11.3-30.4-13.5-46.7-6c-18.7,8.7-31.8,4.9-46.2-10.4c-61.7-65-124.5-129-187.6-192.7c-12.6-12.7-17.1-24.7-9.8-41.6
			c8.6-19.6,8.3-38.7-6.9-55.9c-4.1-4.7-7.3-10.4-10.2-16c-10.6-20.6-26.3-31.6-50.5-29.4c-15,1.4-24-6.6-29.6-20.8
			c-34.2-86.5-68.8-172.9-103.7-259.2c-5.9-14.6-3.5-25.9,6.5-37.4c22.2-25.7,25.1-56.8,8.8-86c-5.8-10.4-15.4-16.2-26.2-19.8
			c-14.6-4.9-21.9-13.8-22.3-30.1c-1.5-63.8-0.7-127.6-0.4-191.5c0.1-31.6-1.6-63.3,0.8-94.9c0.9-12.4,5.9-20.3,17-24.6
			c24.2-9.3,37.6-26.5,39.6-52.6c0.6-7.7,3-15.3,4.7-22.9c3.9-17.5,0.2-32.2-13.3-45.1c-17.3-16.5-17.6-21.9-8.5-43.8
			c34.9-83.6,69.9-167.2,104.2-251.1c6.3-15.4,15.1-22.8,32.3-23.9c33.1-2.2,58.3-24.5,66.7-56c3-11.4,0.8-22.5-4.6-32.6
			c-9.2-17-4.2-29.7,8.8-42.8c64.3-64.6,128.1-129.6,191.6-195c11-11.3,22.5-15.7,36.6-9.6c23.8,10.4,44.5,6.1,63.7-10.2
			c4.8-4.1,9.9-8.1,15.5-10.9c21.7-10.8,31.3-27.7,29.3-52.1c-1.2-14.8,6.6-23.6,20.8-29.5c85.8-35.3,171.1-71.3,256.2-107.6
			c14.9-6.3,27.1-5.4,38.6,6.2c16.5,16.7,35.9,22.4,58.8,15c5.5-1.8,11.4-2.9,17.2-3.4c25.9-2.1,43.8-13.7,51.6-39.7
			c4.6-15.3,17.9-17.7,31.8-17.7c47.8,0.1,95.5,0,143.3,0c42.9,0,85.8,0.3,128.7-0.1c18-0.2,30.8,5.5,37.6,23.4
			c7.5,19.9,22.7,31,44,33.7c7.7,1,15.4,2.5,22.9,4.6c21.6,6,40.5,2.6,55.6-15.1c10.4-12,21.9-13.2,36.6-7
			c85.7,36.2,171.6,72,257.7,107.4c14.7,6.1,21.8,15.9,21.4,31.1c-0.5,23.1,8.4,40.1,29.1,51.5c11.1,6,21.3,13.7,31.4,21.4
			c14.3,10.8,29.7,12.5,45.4,5.1c18.7-8.7,31.8-4.7,46.2,10.5c62.1,65.3,125.2,129.6,188.6,193.6c12.4,12.5,15.6,24.5,8.7,40.5
			c-8.7,20.3-8,39.7,7.6,57.2c3.8,4.3,6.8,9.6,9.4,14.8c10.6,20.6,26.4,31.6,50.6,29.4c14.9-1.3,24.1,6.5,29.7,20.7
			c34.2,86.5,68.8,172.9,103.7,259.2c5.9,14.6,3.6,25.9-6.4,37.4c-22.3,25.8-25.2,56.5-8.9,86c5.8,10.5,15.4,16.2,26.2,19.8
			c14.5,4.9,22.5,13.7,22.4,30.1c-0.3,34.6,0.9,69.2,0.8,103.8c-0.2,60.9,1.1,121.7-1.2,182.6c-0.5,12.4-5.7,20.4-16.8,24.7
			c-25,9.5-38,27.5-39.9,54c-0.5,6.7-2.5,13.4-4.2,20c-4.6,18.6-0.5,34.1,13.9,47.7c16.9,15.9,16.9,20.2,7.6,42.5
			c-34.2,82.3-68.7,164.5-102.3,247.1c-7.1,17.5-16,28.8-36.9,28.4c-37.5-0.9-49.9,29.1-63.6,55.7c-5.3,10.2-1.3,22.3,4.1,32.4
			c8.8,16.3,5.4,29.1-7.7,41.7c-23.4,22.7-46,46.3-68.9,69.6c-41.6,42.4-83.2,84.9-124.7,127.5
			C1467.3,2484.6,1460.5,2490.5,1449.8,2489.9z M717.9,2271.2c402.5,0.2,731-326,731.3-726.1c0.3-406.2-325.2-734.4-728.8-734.6
			c-403.5-0.3-731.6,326.3-731.9,728.6C-11.9,1943.5,314.4,2271.1,717.9,2271.2z"/>
		<path id="XMLID_30_" class="st0" d="M718.9,852.6c378.4-2.7,689.2,309.7,688.9,688.9c-0.3,368.4-296,688.6-689.8,688.6
			c-388.1-0.1-687.7-316.3-688.1-688.8C29.5,1162.4,340.5,849.7,718.9,852.6z"/>
	</g>
	<path id="XMLID_3_" class="st0" d="M717.5,2613.6c590.9,0.2,1073.2-478.6,1073.7-1066.1c0.5-596.4-477.4-1078.2-1070-1078.6
		C128.8,468.5-352.9,948-353.4,1538.6C-354,2132.5,125.1,2613.4,717.5,2613.6z"/>
</g>
<path id="XMLID_4_" class="st1" d="M1119.2,816L1119.2,816c-334.8-74.7-472.2-73.6-808.7,0l0,0c-28.9,8.5-50.3-2.9-50.3-57.8v-52.8
	c0-31.8,12.5-48.6,50.3-57.8l0,0c404.3-76.6,404.3-76.6,808.7,0l0,0c50.3,14.2,50.3,26,50.3,57.8v52.8
	C1169.6,810.4,1152,824.4,1119.2,816z"/>
<g id="XMLID_10_">
	<path id="XMLID_14_" class="st2" d="M885.7,730.5l10.4,0.9c0.5,1.5,0.6,2.9,0.5,4.3c-0.1,1.2-0.4,2-1,2.5c-0.5,0.4-1.4,0.6-2.6,0.5
		l-34.3-3c-0.5-1.7-0.7-3.3-0.5-4.7c0.1-1,0.4-1.7,1-2.2c0.6-0.4,1.4-0.6,2.6-0.5l6.6,0.6c1-6.7,2.7-24.1,5.1-52
		c1.3-14.9,2.1-25.8,2.3-32.6l-8.5-0.7c-0.4-1.7-0.6-3.3-0.5-4.7c0.1-1,0.4-1.7,1-2.2c0.6-0.4,1.4-0.6,2.6-0.5l31.4,2.8
		c14.8,1.3,25.2,4.3,31.1,8.9c5.9,4.6,8.5,11.4,7.7,20.2c-1.2,13.5-10.1,22-26.6,25.5c4.5,1.8,8,4.7,10.6,8.8c2.5,4,5.1,9.7,7.7,17
		c2.6,7.3,4.7,11.8,6.4,13.5s4.2,2.7,7.6,2.9c0.7,3.6,0.4,6-1,7.1s-4.6,1.5-9.6,1c-5.8-0.5-9.9-1.6-12.3-3.4
		c-2.4-1.7-4.6-7.3-6.5-16.8s-4.3-16.2-7-20.2s-7-6.3-12.8-6.8c-3-0.3-6-0.3-9-0.1C886.7,713.6,885.9,724.8,885.7,730.5z
		 M888.9,686.9l6.1,0.5c8.5,0.7,15-0.2,19.6-2.8s7.2-6.8,7.7-12.7c0.6-6.9-0.9-12.2-4.6-15.7c-3.7-3.6-9.2-5.7-16.5-6.3
		c-3.4-0.3-6.2-0.3-8.5,0c-0.8,4.2-1.8,14-3.2,29.5L888.9,686.9z"/>
</g>
<g id="XMLID_7_">
	<path id="XMLID_9_" class="st2" d="M536.4,745.5l-2.9,8c-2-0.1-4.9-0.9-8.9-2.3c-1.5-0.5-2.3-1.2-2.6-2c-0.3-0.9-0.1-2.1,0.5-3.8
		l45-123.5c2.6,0.4,5.4,1.1,8.6,2.2c1.7,0.6,2.7,1.4,3,2.1c0.2,0.8,0.1,1.8-0.3,3.2L536.4,745.5z"/>
</g>
<rect x="-1046.6" y="1092.5" class="st3" width="4724.8" height="1995.6"/>
<rect x="2485.2" y="2323.1" class="st3" width="55.2" height="189.3"/>
</svg>
