<?xml version="1.0" encoding="utf-8"?>
<!-- Generator: Adobe Illustrator 19.0.0, SVG Export Plug-In . SVG Version: 6.00 Build 0)  -->
<svg version="1.1" id="Ebene_1" xmlns="http://www.w3.org/2000/svg" xmlns:xlink="http://www.w3.org/1999/xlink" x="0px" y="0px"
	 viewBox="567 -922.2 1417.3 2126" style="enable-background:new 567 -922.2 1417.3 2126;" xml:space="preserve">
<style type="text/css">
	.st0{fill:none;stroke:#000000;stroke-width:5;stroke-linecap:round;stroke-linejoin:round;stroke-miterlimit:10;}
	.st1{fill:#FFFFFF;stroke:#000000;stroke-width:5;stroke-linecap:round;stroke-linejoin:round;stroke-miterlimit:10;}
	.st2{fill:#FFFFFF;stroke:#62F1AC;stroke-width:5;stroke-linecap:round;stroke-miterlimit:10;}
	.st3{fill:none;stroke:#62F1AC;stroke-width:5;stroke-miterlimit:10;}
	.st4{fill:#FFFFFF;stroke:#62F1AC;stroke-width:5;stroke-miterlimit:10;}
	.st5{fill:none;stroke:#62F1AC;stroke-width:5;stroke-linecap:round;stroke-miterlimit:10;}
</style>
<g id="_x34_zRUQ8.tif">
	<g>
		<path class="st0" d="M1179.7,63.5c0,1.5-0.3,3,0,4.4c2.8,13.2,5.8,26.5,8.7,39.7c2.6,11.8,5.4,23.5,7.9,35.3
			c2.8,13.2,5.3,26.5,8,39.7c2.6,12.5,5.3,24.9,7.9,37.3c2.6,12.2,5.3,24.3,7.9,36.5c2.7,12.4,5.3,24.9,7.9,37.3
			c2.6,12.2,5.3,24.3,7.9,36.5c2.2,10,4.2,20.1,6.4,30.2c3.1,14.6,6.3,29.1,9.5,43.7c2.3,10.3,4.9,20.6,7.1,31
			c2.5,11.9,4.7,23.8,7.2,35.7c2.6,12.4,5.3,24.9,7.9,37.3c2.6,12.2,5.3,24.3,7.9,36.5c2.2,10,4.2,20.1,6.4,30.2
			c3.1,14.6,6.4,29.1,9.5,43.7c2.2,10,4.2,20.1,6.4,30.2c2.6,12.2,5.3,24.3,7.9,36.5c2.7,12.4,5.3,24.9,7.9,37.3
			c2.6,12.2,5.3,24.3,7.9,36.5c0.8,3.9,1.8,7.7,2.9,11.9c20-0.4,40.1-0.7,60.8-1.1c-0.6-2.6-1-5.4-1.8-8.1
			c-6.3-21-12.7-42.1-19-63.1c-5.1-17.2-10.1-34.4-15.1-51.6c-5.6-19-11.1-38.1-16.7-57.1c-5-17.2-10.1-34.4-15.1-51.6
			c-5.6-19-11.1-38.1-16.7-57.1c-5-17.2-10.1-34.4-15.1-51.6S1282,395.2,1277,378c-5.6-19-11.1-38.1-16.7-57.1
			c-5-17.2-10.1-34.4-15.1-51.6c-5.6-19-11.1-38.1-16.7-57.1c-5-17.2-10.1-34.4-15.1-51.6c-5.6-19-11.1-38.1-16.7-57.1
			c-3.5-12.1-6.9-24.3-10.3-36.5c-0.2-0.7-0.5-1.3-1-2.4c-1.8-0.2-3.8-0.5-5.8-0.8"/>
	</g>
</g>
<g id="Z9HiOR.tif">
	<g>
		<path class="st1" d="M578.5-454.4"/>
		<path class="st1" d="M581.2-442.6c10.3,5.2,17.7,3.5,20.7-6.4c4.3-14.5,11.7-15.7,22.1-8.2c1.6,1.1,3.7,1.6,6.3,2.6
			c8.2-1.4,7-8.5,6.3-14.4c-1.7-14.2-1.9-14.1,11.6-20.2c4.9,3.2,13.7,3.3,8.9,14c-1.7,3.7,4.6,7.4,9.7,6.2
			c11.4-2.7,12.4-1.6,10.1,10c-0.4,2-0.1,4.2-0.1,6.8c4.6,1.4,8.6,2.6,13.5,4.2c1,1.7,2.7,4.5,4.8,8c14.6,0.3,27.9-2,34.8-16.9
			c3.5,1.2,5.6,2,6.9,2.4c2.3,4.7,4.4,9.1,7.1,14.6c4.7-3.1,7.9-5.2,11-7.4c5.4-3.8,9-2.6,11,3c-2.3,6.2-4.5,11.7-6.6,17.4
			c4.5,2.5,7.2,4,10.1,5.7c2.7-2.1,5.1-3.9,7.8-6.1c13.5,8.1,11.2-6.6,16.6-13c5.6,1.9,11.6,5.7,17.4,5.3c6.4-0.4,12.5-4.7,20.6-8.1
			c-5.3-4.9-9.1-8.4-13.2-12.2c1.2-7.1,8.2-11.1,16.2-8.2c2.6,1,4.9,2.9,7.3,4.5c7.3,4.9,10.2,3.8,12.8-4.5c0.7-2.2,2.5-4,3.7-5.8
			c13.1,5.2,19.3,16.9,16.2,29.4c-1.8,7.1,2.1,12,10,12.7c2.6-3.1,5.2-6.2,7.8-9.3c8.8,2.9,17.4,8.5,24.3-1.9
			c7.7,4,15.6,6.8,16.2,16.8c-4.8,1.8-9.5,3.5-13.6,5.1c-1.5,11.2,4,20.5,12.5,24c3.9,1.6,7.1,4.7,10.4,6.9
			c-1.8,7.7-3.4,14.2-5,20.8c7.7,2.8,14.4,5.3,23.2,8.5c1.6-1.9,4.2-5.1,6.8-8.2c0.2,0.3,0.5,0.7,0.7,1c5.3-3.5,10.6-7,16.1-10.7
			c8.7,5.1,8.8,6.1,2.9,22c1.9,3.8,3.9,7.9,7,14c-4.6,4.2-8.9,9.1-14.1,12.7c-10.1,6.9-13.4,17.2-2.6,25.6
			c10.4-3.3,11.1-21.4,26.2-17.8c5.8,17,5.8,17,19.3,14c3.5,3,7.4,6.4,12.1,10.5c4.5-3.6,8.5-6.9,12-9.8c15.9,6.7,7.7,17,3.1,27
			c5.1,3.5,9.7,6.7,14.1,9.8c-3.5,10.7-10.5,14.7-21.4,13.4c0,8,0,15,0,23.1c3.8,1.5,9.9,2.2,13.3,5.6s4,9.6,6,15.1
			c4.9,0,9.2,0,13.3,0c2.6,6.8,0.4,10.5-5.3,12.7c-7.5,2.9-12.4,8.2-14.3,17.4c4.2,3.6,8.6,7.4,13.3,11.4c-3.9,2.5-7,4.4-10.4,6.6
			c-3.9,12.9,12.4,8.6,14.3,17.8c-4.9,6-8.2,14-17.5,17.9c-11.9,5-23.2,11.8-34.6,18c-1.4,0.8-2.2,2.7-4.1,5.3
			c10.2,4.4,17.8-1.8,26.7-3.2c0.4,0.2,2.1,0.5,2.8,1.5c5,7.4,10.6,11.2,20.2,7.6c2.6-1,8.3,2.4,10.4,5.3c1.6,2.3,0.4,7.2-0.6,10.6
			c-3,10.1-9.4,17.7-20.7,23.3c5.7,5,9.7,8.5,13,11.4c4.7-0.8,8-1.6,11.4-1.9c12-1.3,15.8,4.9,16.3,13.6c0.5,7.6-2.3,14.2-7.2,20
			c-4,4.6-8.6,8.1-9.8,15.3c-0.7,4.4-8,7.7-12,11.2c-0.3,7,2.5,8,8.2,6.3c10.5-3.1,21.1-5.8,31.8-8.1c2.5-0.5,5.6,0.6,8.1,1.8
			c3.9,1.9,8.4,5,6.1,9.7c-1.9,4-6.1,7.2-9.8,10c-3.2,2.4-7.2,3.7-10.9,5.5c0.1,1,0.3,2,0.4,2.9c5.8,2.9,11.6,5.8,17.5,8.7
			c0.4,1,0.9,2,1.3,2.9c-5,3.2-10,6.4-15.5,10c5.3,6.4,8.6,10.4,12,14.6c-3,11.6-16.9,6.5-21.1,13.4c0,5.1,0,9.1,0,14
			c-5.5,4.6-12,10.2-19.1,16.2c6.5,11,22.3,10.4,23.2,25.8c-2.2,5.6-7.8,8.7-15.1,7.8c-3.4-4.2-6.5-8-10-12.5
			c-5.9,5.5-11.8,9.2-15,14.5c-5,8.3-11.8,9.7-20.3,9c-2.4-0.2-4.8,0-7.6,0c-1.9,2.9-4,6-6.1,9.3c1.2,2.8,3.1,5.7,3.6,8.9
			c0.6,3.8,1.2,8.2-0.1,11.7c-2.2,5.8-6,10.9-8.8,16.5c-2.1,4.4,1.8,10.3,6.2,8.8c7.4-2.5,10.1,2.5,15.4,7.3
			c-5.6,3.3-10.3,6.1-14.4,8.5c-10.1-1.1-20.1-6.6-27.4,3.8c1.2,5.6,2.3,10.4,3.7,16.5c-2.3,2.6-5.3,5.9-9.5,10.5
			c-3.8-6.4-7-11.7-10.4-17.4c-6.6,5.6-11.4,2.3-16.4-1.5c-6.7,6-13.2,11.7-20,17.8c2.3,12.5-5.1,20.4-15.3,26.5
			c-5.5,3.3-10.8,2.8-15.6-1.8c1.4-9.9-2.1-16.4-14.2-17.1c-5.6,2.4-9.4,13.5-20.6,8.9c-1.4-5.8-2.8-11.7-4.2-17.2
			c-5.8,0-9.7,0-13.5,0c-5.4,4.5-10.7,8.9-16.5,13.8c-3.6-3.2-6.7-5.9-11.2-9.8c-24.9,26.1-49.7,51.9-74.1,78
			c-2.4,2.5-3.6,7.1-3.6,10.8c-0.3,20.9-0.9,41.8,0,62.7c0.9,19.3,8,37.4,14.5,55.4c2.7,7.4,7.2,14.2,11,21.4c-35.4,0-71.4,0-107,0
			c6-14.5,12.6-28.6,17.5-43.2c3.2-9.5,5.1-19.9,5.5-29.9c0.8-21.2,0-42.4,0.4-63.6c0.2-10.2-2.7-18.8-9.2-26.3
			c-16.8-19.3-33.7-38.4-50.5-57.5c-2.9,3.2-5.5,6-7.8,8.6c-13.9-1.6-9.7-19.5-21.8-22.3c-12.4,4-14.8,21.7-30.4,22.1"/>
		<path class="st1" d="M810.2,264.4c-10-1.1-19.8-2.6-28.3-8.8c-2.2-1.6-6.6-0.7-9.8-0.1c-4,0.7-7.9,2.3-14,4.2
			c1.9,15.5-2.5,31.8,4.2,48.1c18.8-11.9,32.4-28.2,47.9-42.4"/>
		<path class="st1" d="M692.1,245.3c-4.9,3.6-9.7,7.2-14.7,10.8c-9.2-3.6-12.1-2.7-18.1,4.5c11.7,11.7,23.4,23.4,35.6,35.6
			c4.2,0.2,5.6-2.5,5.5-7.3c-0.2-10.9-0.4-21.8,0-32.7c0.2-5.8-1.2-9.8-7.4-10.9"/>
	</g>
</g>
<g id="CjcaZB.tif">
	<g>
		<path class="st0" d="M1076.2,52.2c6.1,10.3,5.6,20.6-0.6,30.5c-28.7,46.1-57.6,92-86.5,138c-16.8,26.8-33.7,53.7-50.5,80.5
			c-24.8,39.7-49.7,79.3-74.5,119c-23.3,37.3-46.7,74.7-70,112c-23.5,37.5-47,75-70.5,112.5"/>
		<path class="st0" d="M813.8,582.7c2.8-5.7,5.4-11.5,8.5-17c18.3-32.2,36.5-64.4,55-96.5c16.9-29.4,34-58.6,51-88
			c16.1-27.9,31.9-56,48-84c15.6-27.1,31.4-54,47-81c17.7-30.6,35.5-61.3,52.9-92c3.8-6.6,4.4-14.1,1.2-22
			C958,292.6,839,482.9,719.8,673.2c4.6,9.1,8,18.8,8.3,28.9c0.3,9.6-1.1,19.3-1.9,29.8c3.5-6.1,6.8-11.7,10.1-17.3
			c12-21,24-42,36-63c11.6-20.2,23.3-40.3,35-60.5c0.1-0.2,0.3-0.3,0.5-0.5"/>
		<path class="st0" d="M1075.9,51.7c-25.5,38.7-51,77.3-76.5,116c-33.5,51-67,102-100.5,153c-24.7,37.6-49.3,75.3-74,113"/>
		<path class="st0" d="M806.8,458.2c-0.2-13.3-0.6-26.7-0.4-40c0.1-6.5,9.3-10.4,14.3-6.4c1.4,1.1,2.4,3.5,2.5,5.4
			c0.3,5.8,0.1,11.7,0.1,18.3c-34.7,53-69.9,106.8-105.1,160.5c1.7,5.2,3.5,10.2,5,15.2c3,9.7,1.8,19.3-0.4,29
			c-1,4.5-2.4,8.6-5.6,12"/>
		<path class="st0" d="M826.8,560.2c0.2,0.3,0.5,0.7,0.5,1c0.4,18,0.8,36,1,54c0.1,10.3-2.7,13-14.1,13c-1.3-1.3-3.1-3.2-4.9-5
			c0-11,0-21.5,0-32"/>
		<path class="st0" d="M724.8,731.7c-1.2,2.8-2.3,5.7-3.5,8.5"/>
		<path class="st0" d="M812.8,581.7c0,1,0,2,0,3"/>
		<path class="st0" d="M808.8,588.7c0,0.7,0,1.3,0,2c0.3,0,0.6,0.1,0.9,0.1c0.4-1.4,0.7-2.7,1.1-4.1"/>
	</g>
</g>
<g id="XMLID_1_">
	<path id="XMLID_9_" class="st2" d="M975.8,510.1v34c0,6.8-6.7,12.3-15.1,12.3H935c-8.3,0-15.1-5.5-15.1-12.3v-34"/>
	<path id="XMLID_8_" class="st2" d="M1235.9,510.1v34c0,6.8-6.7,12.3-15.1,12.3h-25.6c-8.3,0-15.1-5.5-15.1-12.3v-34"/>
	<polyline id="XMLID_10_" class="st2" points="1261.7,64.3 1261.7,-11.3 899.6,-11.3 899.6,64.3 	"/>
	<g id="XMLID_28_">
		<path id="XMLID_30_" class="st3" d="M1261.7,274.5h20.1c6.8,0,12.3-6.7,12.3-15.1v-10h-5.4c-6.3,0-11.4-5.1-11.4-11.4v-82.4
			c0-6.3,5.1-11.4,11.4-11.4h5.4V141c0-8.3-5.5-15.1-12.3-15.1h-20.2"/>
		<path id="XMLID_29_" class="st4" d="M1294,249.4h5.4c6.3,0,11.4-5.1,11.4-11.4v-82.4c0-6.3-5.1-11.4-11.4-11.4h-5.4"/>
		<path id="XMLID_93_" class="st4" d="M1294,144.2h-5.4c-6.3,0-11.4,5.1-11.4,11.4V238c0,6.3,5.1,11.4,11.4,11.4h5.4"/>
	</g>
	<g id="XMLID_25_">
		<path id="XMLID_27_" class="st3" d="M899.6,274.5h-20.2c-6.8,0-12.3-6.7-12.3-15.1v-10h5.4c6.3,0,11.4-5.1,11.4-11.4v-82.4
			c0-6.3-5.1-11.4-11.4-11.4h-5.4V141c0-8.3,5.5-15.1,12.3-15.1h20.2"/>
		<path id="XMLID_26_" class="st4" d="M867.2,249.4h-5.4c-6.3,0-11.4-5.1-11.4-11.4v-82.4c0-6.3,5.1-11.4,11.4-11.4h5.4"/>
		<path id="XMLID_94_" class="st4" d="M867.2,249.4h5.4c6.3,0,11.4-5.1,11.4-11.4v-82.4c0-6.3-5.1-11.4-11.4-11.4h-5.4"/>
	</g>
	<path id="XMLID_24_" class="st4" d="M1252.4,510.1H908.8c-5,0-9.1-4.1-9.1-9.1V70.5c0-9.4,7.7-17,17-17h327.8c9.4,0,17,7.7,17,17
		V501C1261.7,506,1257.4,510.1,1252.4,510.1z"/>
	<path id="XMLID_23_" class="st3" d="M983.2,483H924c-2.4,0-4.4-2-4.4-4.4v-27.8c0-2.4,2-4.4,4.4-4.4h59.3c2.4,0,4.4,2,4.4,4.4v27.8
		C987.8,481,985.8,483,983.2,483z"/>
	<path id="XMLID_22_" class="st3" d="M1237.7,483h-59.3c-2.4,0-4.4-2-4.4-4.4v-27.8c0-2.4,2-4.4,4.4-4.4h59.3c2.4,0,4.4,2,4.4,4.4
		v27.8C1242.2,481,1240.2,483,1237.7,483z"/>
	<line id="XMLID_21_" class="st5" x1="940.8" y1="361.4" x2="1221.7" y2="361.4"/>
	<line id="XMLID_20_" class="st5" x1="940.8" y1="339.4" x2="1221.7" y2="339.4"/>
	<line id="XMLID_19_" class="st5" x1="940.8" y1="383.3" x2="1221.7" y2="383.3"/>
	<path id="XMLID_18_" class="st3" d="M985,436.2h-62.7c-1.5,0-2.8-1.2-2.8-2.8v-8.7c0-1.5,1.2-2.8,2.8-2.8H985
		c1.5,0,2.8,1.2,2.8,2.8v8.7C987.8,434.9,986.5,436.2,985,436.2z"/>
	<path id="XMLID_17_" class="st3" d="M1239.4,436.2h-62.7c-1.5,0-2.8-1.2-2.8-2.8v-8.7c0-1.5,1.2-2.8,2.8-2.8h62.7
		c1.5,0,2.8,1.2,2.8,2.8v8.7C1242.2,434.9,1240.9,436.2,1239.4,436.2z"/>
	<path id="XMLID_16_" class="st3" d="M1130.7,494.7h-100.1c-1.5,0-2.8-1.2-2.8-2.8v-18.4c0-1.5,1.2-2.8,2.8-2.8h100.1
		c1.5,0,2.8,1.2,2.8,2.8v18.4C1133.5,493.5,1132.2,494.7,1130.7,494.7z"/>
	<path id="XMLID_15_" class="st4" d="M1220.5,274.5H942c-4.7,0-8.5-3.8-8.5-8.5V115.6c0-4.7,3.8-8.5,8.5-8.5h278.5
		c4.7,0,8.5,3.8,8.5,8.5v150.3C1229,270.6,1225.2,274.5,1220.5,274.5z"/>
	<line id="XMLID_14_" class="st5" x1="1100.2" y1="253.9" x2="1200.9" y2="253.9"/>
	<line id="XMLID_13_" class="st5" x1="1162.2" y1="253.9" x2="1187.5" y2="273.4"/>
	<line id="XMLID_12_" class="st5" x1="975.8" y1="253.9" x2="1076.4" y2="253.9"/>
	<line id="XMLID_11_" class="st5" x1="1037.7" y1="253.9" x2="1063.2" y2="273.4"/>
	<line id="XMLID_7_" class="st5" x1="933.3" y1="514.1" x2="933.3" y2="552.4"/>
	<line id="XMLID_6_" class="st5" x1="947.8" y1="514.1" x2="947.8" y2="552.4"/>
	<line id="XMLID_5_" class="st5" x1="962.2" y1="514.1" x2="962.2" y2="552.4"/>
	<line id="XMLID_4_" class="st5" x1="1193.7" y1="514.1" x2="1193.7" y2="552.4"/>
	<line id="XMLID_3_" class="st5" x1="1208" y1="514.1" x2="1208" y2="552.4"/>
	<line id="XMLID_2_" class="st5" x1="1222.5" y1="514.1" x2="1222.5" y2="552.4"/>
</g>
<g id="a0gtcF.tif">
	<g>
		<path class="st0" d="M1972.7,499.1c-11.1-6.8-22.1-13.6-33.3-20.3c-17.8-10.7-35.7-21.3-53.6-32.1c-28.4-17-56.7-34.1-85.1-51.2
			c-22-13.3-43.9-26.5-65.9-39.8c-1.9-1.1-3.7-2.2-6-1c-0.7,0.4-1.8,0.1-2.7,0.1c-16.1,0-32.1-0.1-48.2,0c-5.3,0-10.6,0.4-16.5,0.7
			c11.4,9,22.4,17.6,33.3,26.3c15.2,12.1,30.3,24.2,45.5,36.2c16.9,13.4,33.7,26.8,50.6,40.1c15.1,12,30.1,24,45.2,35.9
			c3.7,2.9,7.4,5.7,11.1,8.7c2.8,2.3,6,0.9,9,1.1c2.8,0.2,5.6-0.4,8.4-0.5c9.5-0.3,19-0.4,28.5-0.6c6.3-0.2,12.6-0.4,18.9-0.6
			s12.6-0.4,18.9-0.6s12.6-0.4,18.9-0.6s12.6-0.4,18.9-0.6c1.4-0.1,2.8-0.6,4.2-0.9"/>
	</g>
</g>
<g id="a0gtcF.tif_2_">
	<g>
		<path class="st0" d="M1622.7,288.9c-4-2.4-8-4.9-12-7.3c-6.4-3.9-12.9-7.7-19.3-11.5c-10.2-6.1-20.4-12.3-30.6-18.4
			c-7.9-4.8-15.8-9.6-23.7-14.3c-0.7-0.4-1.3-0.8-2.2-0.3c-0.3,0.1-0.6,0-1,0c-5.8,0-11.6,0-17.4,0c-1.9,0-3.8,0.1-5.9,0.2
			c4.1,3.2,8.1,6.3,12,9.5c5.5,4.3,10.9,8.7,16.4,13c6.1,4.8,12.2,9.6,18.2,14.5c5.4,4.3,10.9,8.6,16.3,12.9c1.3,1.1,2.7,2.1,4,3.1
			c1,0.8,2.2,0.3,3.2,0.4s2-0.2,3-0.2c3.4-0.1,6.8-0.1,10.2-0.2c2.3-0.1,4.5-0.1,6.8-0.2s4.5-0.1,6.8-0.2c2.3-0.1,4.5-0.1,6.8-0.2
			s4.5-0.1,6.8-0.2c0.5,0,1-0.2,1.5-0.3"/>
	</g>
</g>
<g id="a0gtcF.tif_4_">
	<g>
		<path class="st0" d="M1492.9,209.5c-1.5-0.9-2.9-1.8-4.4-2.7c-2.3-1.4-4.7-2.8-7-4.2c-3.7-2.2-7.4-4.5-11.2-6.7
			c-2.9-1.7-5.8-3.5-8.6-5.2c-0.2-0.1-0.5-0.3-0.8-0.1c-0.1,0-0.2,0-0.3,0c-2.1,0-4.2,0-6.3,0c-0.7,0-1.4,0.1-2.2,0.1
			c1.5,1.2,2.9,2.3,4.4,3.4c2,1.6,4,3.2,6,4.8c2.2,1.8,4.4,3.5,6.6,5.3c2,1.6,4,3.1,5.9,4.7c0.5,0.4,1,0.8,1.5,1.1
			c0.4,0.3,0.8,0.1,1.2,0.1s0.7-0.1,1.1-0.1c1.2,0,2.5-0.1,3.7-0.1c0.8,0,1.7-0.1,2.5-0.1s1.7-0.1,2.5-0.1s1.7-0.1,2.5-0.1
			s1.7,0,2.5-0.1C1492.7,209.7,1492.9,209.6,1492.9,209.5"/>
	</g>
</g>
</svg>
