<?xml version="1.0" encoding="utf-8"?>
<!-- Generator: Adobe Illustrator 19.0.0, SVG Export Plug-In . SVG Version: 6.00 Build 0)  -->
<svg version="1.1" id="Ebene_1" xmlns="http://www.w3.org/2000/svg" xmlns:xlink="http://www.w3.org/1999/xlink" x="0px" y="0px"
	 viewBox="-424 -426.4 1417.3 2126" style="enable-background:new -424 -426.4 1417.3 2126;" xml:space="preserve">
<style type="text/css">
	.st0{fill:none;stroke:#1D1D1B;stroke-width:5;stroke-miterlimit:10;}
	.st1{fill:none;stroke:#62F1AC;stroke-width:5;stroke-miterlimit:10;}
</style>
<g id="XMLID_20_">
	<g id="aGaDgC.tif">
		<g id="XMLID_24_">
			<path id="XMLID_62_" class="st0" d="M499.2,923.5c0,0-428.3,1.5-473.6,0c-1.5,2-62.3-9.9-70.9-23.6c-2-2.7-2-6.9-1.2-9.9
				c7.6-30.5,24.4-8.4,24.1-21.7c-0.7-21.7-9.9-4.9,3-28.6c8.9-13.1,12.6-7.6,25.9-21.4c3.4-2,21.4-11.8,20.7-16
				c-0.7-3.9-3.4-6.2-6.9-6.9c-2.7-0.7-4.9,0.7-7.1,2c-9.6,5.7-19.5,11.1-29.1,16.7c-2.7,1.5-3.9,1.5-5.4-1.5
				c-15.3-28.6-25.9-58.9-33.2-90.6c-0.7-3,0.5-3.9,3-4.7c11.1-2,22.2-3.9,33.2-5.7c6.2-1.2,9.6-5.4,8.4-10.3
				c-1.2-4.9-5.4-8.1-11.6-6.9c-11.6,2-22.9,3.9-34.5,6.2c-2.7,0.5-3.4-0.5-3.4-2.7c-4.2-32.5-4.7-64.5,0-97c0.5-2.2,0.7-3.4,3.9-3
				c10.6,2.2,21.7,3.9,32.5,5.7c1.5,0.5,3,0.5,4.9,0.5c4.2-0.5,7.6-3.9,8.1-7.6c0.5-4.2-2.7-8.4-7.1-9.1c-10.6-2-21.7-3.9-32.5-5.7
				c-5.7-1.2-5.7-0.7-4.7-6.9c6.4-30.3,17.2-58.9,31.3-85.9c3.4-6.9,2.2-6.2,8.4-2.7c9.1,5.4,18.2,10.6,27.8,15.8
				c4.9,2.7,9.9,1.5,12.6-2.7c2.7-4.2,1.2-9.1-3.9-11.8c-10.3-5.7-20.2-11.8-30.5-17.5c-2.2-1.5-2.2-2.2-1.2-4.7
				c17.2-27.6,38.2-52,62.3-74.1c2-2,3-2,4.9,0.5c7.1,9.1,14.5,18,22.2,26.8c4.7,5.4,12.3,4.7,14.8-1.5c1.5-3.4,0.7-6.9-2-9.6
				c-7.1-8.9-14.5-17.5-22.2-26.4c-2-2.2-2-3.4,0.5-5.4c23.6-18.2,49.7-33.5,77.1-45.6c3-1.2,6.9-4.2,9.1-3c2.7,1.2,3,5.7,4.2,9.1
				c3,8.4,6.2,17.2,9.6,25.9c2,5.7,6.9,8.1,11.8,6.2c4.7-2,6.4-6.4,4.7-12.3c-3.9-10.6-7.6-21.4-11.8-32c-0.7-2.2-0.7-3.9,2.2-4.7
				c23.6-7.6,48-12.6,72.9-15.3c7.6-0.7,14.8-1.2,22.7-1.5c2.7,0,3.4,0.7,3.4,3.4c0,6.2,0,11.8,0,18c0,5.7,0,11.6,0,16.7
				c0,5.7,3.4,9.6,8.9,9.6c4.9,0,8.4-3.9,8.4-9.6c0-11.1,0-22.2,0-33.2c0-5.7-0.7-5.4,5.4-4.9c29.1,1.2,57.4,5.7,85.2,13.8
				c3,0.7,5.7,2,8.9,2.7c2.7,0.7,3,2,2,4.2c-3.9,10.6-7.6,21.4-11.6,31.8c-2.2,6.2-0.5,10.6,4.7,12.6c4.9,2,9.6-0.7,11.8-6.9
				c3.9-10.3,7.6-20.7,11.1-31.3c1.2-3.4,2.2-3.9,5.4-2.2c30.3,12.3,57.6,28.3,83.2,48c2.2,2,2,3,0.5,4.7
				c-7.6,8.9-14.8,17.5-22.7,26.8c-4.7,5.7-2.2,13.3,4.7,14.5c3.9,0.7,6.4-1.2,8.9-3.9c7.1-8.9,14.8-17.5,22.2-26.8
				c1.5-2.2,2.7-2,4.2-0.5c24.1,21.7,44.6,46.5,62.3,74.1c1.5,2.7,1.5,3.4-1.2,4.9c-10.3,5.7-20.2,11.6-30.5,17.5
				c-3,2-4.9,5.4-4.2,8.9c0.7,3.9,3,6.2,6.9,7.1c3,0.7,5.4-0.5,7.6-2c9.6-5.7,19.5-11.1,29.1-16.7c2.7-1.5,3.9-1.2,4.9,1.5
				c14.8,28.6,25.9,58.9,32.8,90.6c0.7,2.7,0.5,3.9-3,4.2c-11.6,2-22.9,3.9-34.5,6.2c-5.4,1.2-8.4,4.9-8.1,9.6
				c0.7,5.4,4.7,8.4,10.3,7.6c11.8-2,23.4-3.9,35.2-6.2c2.7-0.5,3.4,0,3.9,2.7c2.7,19.5,3.9,39.4,3,58.9c-0.5,13.1-1.5,25.9-3,38.9
				c-0.5,2.2-1.2,2.2-3,2c-11.8-2.2-23.6-4.2-35.5-6.2c-5.4-0.7-9.6,2-10.3,6.9c-0.7,4.7,2.7,9.1,7.6,9.9c11.1,2,22.2,3.9,32.8,5.7
				c3.9,0.7,4.7,2,3.9,5.7c-6.9,31-17.5,60.3-32.5,88.7c-1.5,3-3,3.9-6.2,2c-9.6-5.7-19.5-11.1-29.1-16.7c-4.9-2.7-9.9-2-12.6,2.7
				c-2.7,4.2-1.2,9.1,3.9,12.3c9.9,5.7,19.9,11.6,29.8,17.2c2.7,1.5,3,2.2,1.2,4.9c-17.5,27.6,63.8,24.4,41.1,50.7
				c-6.2,3-8.4,5.7-15.8,9.6c-0.7,0.5-5.4,10.3-1.5,11.1c11.1,2,10.3,9.6,8.9,11.8c-9.9,13.8-60.8,6.4-81,6.9h-31.8 M102.7,648.9
				c-0.5,98.3,79.1,182.5,182.5,182.5c102.7,0,182.5-83.2,182.5-182.5c0-99.7-80.3-182.5-182.5-182.5
				C182.2,466.4,102.2,550.9,102.7,648.9z"/>
			<path id="XMLID_30_" class="st0" d="M253.9,806.8c0.5,2.2-0.7,2.7-3.4,2c-47.8-11.6-84-38.7-107.6-81.8c-0.7-1.5-3-3.4,1.2-4.7
				c26.4-6.2,53.2-12.3,79.5-18c13.3-2.7,26.4,8.1,26.8,21.4c1.2,24.4,2.2,49,3.4,73.4C253.1,801.4,253.6,803.6,253.9,806.8z"/>
			<path id="XMLID_29_" class="st0" d="M446.7,652.1c0,5.7-0.5,12.6-1.2,19.5c-0.5,2.7-0.7,4.2-4.2,2.7c-23.6-9.9-47-20.2-70.7-29.8
				c-18-7.1-19.9-25.6-11.6-37.4c14.5-20.9,28.3-42.9,42.4-64.5c1.5-2.7,2.7-2.2,4.2-0.5c21.4,24.1,34.7,52,39.6,84
				C446,634.4,446.7,643,446.7,652.1z"/>
			<path id="XMLID_28_" class="st0" d="M316.2,804.8c1.2-26.4,2.2-52.7,3.9-79.1c0.7-14,14-24.1,28.6-20.7
				c25.6,5.7,51.2,11.8,76.8,17.5c3,0.7,3.9,1.5,2,4.7c-24.1,42.4-59.1,70.2-106.9,81.3C316.2,809.5,316.2,809.5,316.2,804.8z"/>
			<path id="XMLID_27_" class="st0" d="M125.6,675.3c-1.2-4.2-1.5-8.4-2-12.6c-2.7-45.1,10.6-84.7,40.1-118.7
				c3.4-3.9,3.4-3.9,6.2,0.5c13.8,20.9,27.6,42.4,41.1,63.3c6.4,10.3,6.4,20.2,0,29.1c-2.7,3.4-5.7,5.7-9.6,7.1
				c-24.9,10.3-50,20.9-74.9,31.3C126.3,675,126.1,675.3,125.6,675.3z"/>
			<path id="XMLID_26_" class="st0" d="M282.5,489.3c25.9,0,48,4.7,69.4,14.5c3.4,1.5,3.4,2.7,1.2,5.4c-16.7,19.9-33.2,40.1-50,59.8
				c-9.9,11.6-26.8,11.8-36.2,0c-16.7-19.9-33.2-40.1-50-59.8c-2.2-3-2.2-3.9,1.2-5.7C239.4,494,261.5,489.1,282.5,489.3z"/>
			<path id="XMLID_25_" class="st1" d="M323.8,650.6c0,21.7-17.2,38.9-39.4,38.7c-21.4,0-38.7-17.5-38.7-38.9
				c0-21.4,17.5-38.9,39.4-38.7C306.6,611.5,323.8,628.7,323.8,650.6z"/>
		</g>
	</g>
	<path id="XMLID_23_" class="st1" d="M499.2,923.5"/>
</g>
</svg>
