<?xml version="1.0" encoding="utf-8"?>
<!-- Generator: Adobe Illustrator 19.0.0, SVG Export Plug-In . SVG Version: 6.00 Build 0)  -->
<svg version="1.1" id="Ebene_1" xmlns="http://www.w3.org/2000/svg" xmlns:xlink="http://www.w3.org/1999/xlink" x="0px" y="0px"
	 viewBox="0 0 1417.3 2126" style="enable-background:new 0 0 1417.3 2126;" xml:space="preserve">
<style type="text/css">
	.st0{fill:none;stroke:#1D1D1B;stroke-width:5;stroke-miterlimit:10;}
	.st1{fill:none;stroke:#62F1AC;stroke-width:5;stroke-miterlimit:10;}
	.st2{fill:none;stroke:#000000;stroke-width:4;stroke-miterlimit:10;}
	.st3{fill:none;stroke:#62F1AC;stroke-width:4;stroke-miterlimit:10;}
</style>
<g id="XMLID_20_">
	<g id="aGaDgC.tif">
		<g id="XMLID_24_">
			<path id="XMLID_62_" class="st0" d="M394,615.7c0,0-173.9,0.6-192.3,0c-0.6,0.8-25.3-4-28.8-9.6c-0.8-1.1-0.8-2.8-0.5-4
				c3.1-12.4,9.9-3.4,9.8-8.8c-0.3-8.8-4-2,1.2-11.6c3.6-5.3,5.1-3.1,10.5-8.7c1.4-0.8,8.7-4.8,8.4-6.5c-0.3-1.6-1.4-2.5-2.8-2.8
				c-1.1-0.3-2,0.3-2.9,0.8c-3.9,2.3-7.9,4.5-11.8,6.8c-1.1,0.6-1.6,0.6-2.2-0.6c-6.2-11.6-10.5-23.9-13.5-36.8
				c-0.3-1.2,0.2-1.6,1.2-1.9c4.5-0.8,9-1.6,13.5-2.3c2.5-0.5,3.9-2.2,3.4-4.2c-0.5-2-2.2-3.3-4.7-2.8c-4.7,0.8-9.3,1.6-14,2.5
				c-1.1,0.2-1.4-0.2-1.4-1.1c-1.7-13.2-1.9-26.2,0-39.4c0.2-0.9,0.3-1.4,1.6-1.2c4.3,0.9,8.8,1.6,13.2,2.3c0.6,0.2,1.2,0.2,2,0.2
				c1.7-0.2,3.1-1.6,3.3-3.1c0.2-1.7-1.1-3.4-2.9-3.7c-4.3-0.8-8.8-1.6-13.2-2.3c-2.3-0.5-2.3-0.3-1.9-2.8
				c2.6-12.3,7-23.9,12.7-34.9c1.4-2.8,0.9-2.5,3.4-1.1c3.7,2.2,7.4,4.3,11.3,6.4c2,1.1,4,0.6,5.1-1.1c1.1-1.7,0.5-3.7-1.6-4.8
				c-4.2-2.3-8.2-4.8-12.4-7.1c-0.9-0.6-0.9-0.9-0.5-1.9c7-11.2,15.5-21.1,25.3-30.1c0.8-0.8,1.2-0.8,2,0.2c2.9,3.7,5.9,7.3,9,10.9
				c1.9,2.2,5,1.9,6-0.6c0.6-1.4,0.3-2.8-0.8-3.9c-2.9-3.6-5.9-7.1-9-10.7c-0.8-0.9-0.8-1.4,0.2-2.2c9.6-7.4,20.2-13.6,31.3-18.5
				c1.2-0.5,2.8-1.7,3.7-1.2c1.1,0.5,1.2,2.3,1.7,3.7c1.2,3.4,2.5,7,3.9,10.5c0.8,2.3,2.8,3.3,4.8,2.5c1.9-0.8,2.6-2.6,1.9-5
				c-1.6-4.3-3.1-8.7-4.8-13c-0.3-0.9-0.3-1.6,0.9-1.9c9.6-3.1,19.5-5.1,29.6-6.2c3.1-0.3,6-0.5,9.2-0.6c1.1,0,1.4,0.3,1.4,1.4
				c0,2.5,0,4.8,0,7.3c0,2.3,0,4.7,0,6.8c0,2.3,1.4,3.9,3.6,3.9c2,0,3.4-1.6,3.4-3.9c0-4.5,0-9,0-13.5c0-2.3-0.3-2.2,2.2-2
				c11.8,0.5,23.3,2.3,34.6,5.6c1.2,0.3,2.3,0.8,3.6,1.1c1.1,0.3,1.2,0.8,0.8,1.7c-1.6,4.3-3.1,8.7-4.7,12.9
				c-0.9,2.5-0.2,4.3,1.9,5.1c2,0.8,3.9-0.3,4.8-2.8c1.6-4.2,3.1-8.4,4.5-12.7c0.5-1.4,0.9-1.6,2.2-0.9c12.3,5,23.4,11.5,33.8,19.5
				c0.9,0.8,0.8,1.2,0.2,1.9c-3.1,3.6-6,7.1-9.2,10.9c-1.9,2.3-0.9,5.4,1.9,5.9c1.6,0.3,2.6-0.5,3.6-1.6c2.9-3.6,6-7.1,9-10.9
				c0.6-0.9,1.1-0.8,1.7-0.2c9.8,8.8,18.1,18.9,25.3,30.1c0.6,1.1,0.6,1.4-0.5,2c-4.2,2.3-8.2,4.7-12.4,7.1c-1.2,0.8-2,2.2-1.7,3.6
				c0.3,1.6,1.2,2.5,2.8,2.9c1.2,0.3,2.2-0.2,3.1-0.8c3.9-2.3,7.9-4.5,11.8-6.8c1.1-0.6,1.6-0.5,2,0.6c6,11.6,10.5,23.9,13.3,36.8
				c0.3,1.1,0.2,1.6-1.2,1.7c-4.7,0.8-9.3,1.6-14,2.5c-2.2,0.5-3.4,2-3.3,3.9c0.3,2.2,1.9,3.4,4.2,3.1c4.8-0.8,9.5-1.6,14.3-2.5
				c1.1-0.2,1.4,0,1.6,1.1c1.1,7.9,1.6,16,1.2,23.9c-0.2,5.3-0.6,10.5-1.2,15.8c-0.2,0.9-0.5,0.9-1.2,0.8c-4.8-0.9-9.6-1.7-14.4-2.5
				c-2.2-0.3-3.9,0.8-4.2,2.8c-0.3,1.9,1.1,3.7,3.1,4c4.5,0.8,9,1.6,13.3,2.3c1.6,0.3,1.9,0.8,1.6,2.3c-2.8,12.6-7.1,24.5-13.2,36
				c-0.6,1.2-1.2,1.6-2.5,0.8c-3.9-2.3-7.9-4.5-11.8-6.8c-2-1.1-4-0.8-5.1,1.1c-1.1,1.7-0.5,3.7,1.6,5c4,2.3,8.1,4.7,12.1,7
				c1.1,0.6,1.2,0.9,0.5,2c-7.1,11.2,25.9,9.9,16.7,20.6c-2.5,1.2-3.4,2.3-6.4,3.9c-0.3,0.2-2.2,4.2-0.6,4.5
				c4.5,0.8,4.2,3.9,3.6,4.8c-4,5.6-24.7,2.6-32.9,2.8H394 M233,504.2c-0.2,39.9,32.1,74.1,74.1,74.1c41.7,0,74.1-33.8,74.1-74.1
				c0-40.5-32.6-74.1-74.1-74.1C265.3,430.1,232.8,464.4,233,504.2z"/>
			<path id="XMLID_30_" class="st0" d="M294.4,568.3c0.2,0.9-0.3,1.1-1.4,0.8c-19.4-4.7-34.1-15.7-43.7-33.2
				c-0.3-0.6-1.2-1.4,0.5-1.9c10.7-2.5,21.6-5,32.3-7.3c5.4-1.1,10.7,3.3,10.9,8.7c0.5,9.9,0.9,19.9,1.4,29.8
				C294.1,566.1,294.3,567,294.4,568.3z"/>
			<path id="XMLID_29_" class="st0" d="M372.7,505.5c0,2.3-0.2,5.1-0.5,7.9c-0.2,1.1-0.3,1.7-1.7,1.1c-9.6-4-19.1-8.2-28.7-12.1
				c-7.3-2.9-8.1-10.4-4.7-15.2c5.9-8.5,11.5-17.4,17.2-26.2c0.6-1.1,1.1-0.9,1.7-0.2c8.7,9.8,14.1,21.1,16.1,34.1
				C372.4,498.3,372.7,501.8,372.7,505.5z"/>
			<path id="XMLID_28_" class="st0" d="M319.7,567.5c0.5-10.7,0.9-21.4,1.6-32.1c0.3-5.7,5.7-9.8,11.6-8.4
				c10.4,2.3,20.8,4.8,31.2,7.1c1.2,0.3,1.6,0.6,0.8,1.9c-9.8,17.2-24,28.5-43.4,33C319.7,569.4,319.7,569.4,319.7,567.5z"/>
			<path id="XMLID_27_" class="st0" d="M242.3,514.9c-0.5-1.7-0.6-3.4-0.8-5.1c-1.1-18.3,4.3-34.4,16.3-48.2
				c1.4-1.6,1.4-1.6,2.5,0.2c5.6,8.5,11.2,17.2,16.7,25.7c2.6,4.2,2.6,8.2,0,11.8c-1.1,1.4-2.3,2.3-3.9,2.9
				c-10.1,4.2-20.3,8.5-30.4,12.7C242.6,514.8,242.5,514.9,242.3,514.9z"/>
			<path id="XMLID_26_" class="st0" d="M306,439.4c10.5,0,19.5,1.9,28.2,5.9c1.4,0.6,1.4,1.1,0.5,2.2c-6.8,8.1-13.5,16.3-20.3,24.3
				c-4,4.7-10.9,4.8-14.7,0c-6.8-8.1-13.5-16.3-20.3-24.3c-0.9-1.2-0.9-1.6,0.5-2.3C288.5,441.3,297.5,439.3,306,439.4z"/>
			<path id="XMLID_25_" class="st1" d="M322.8,504.9c0,8.8-7,15.8-16,15.7c-8.7,0-15.7-7.1-15.7-15.8c0-8.7,7.1-15.8,16-15.7
				C315.8,489,322.8,496,322.8,504.9z"/>
		</g>
	</g>
	<path id="XMLID_23_" class="st1" d="M394,615.7"/>
</g>
<g id="XMLID_63_">
	<path id="XMLID_67_" class="st2" d="M428.5,1051.8H185.4c-14.4,0-26.2-11.8-26.2-26.2V915.3c0-14.4,11.8-26.2,26.2-26.2h243.1
		c14.4,0,26.2,11.8,26.2,26.2v110.3C454.5,1040,442.9,1051.8,428.5,1051.8z"/>
	<path id="XMLID_66_" class="st2" d="M189.6,877.9v-14.7c0-5,4.1-8.8,8.8-8.8h4.4c5,0,8.8,4.1,8.8,8.8v3.3c0,1.3,0.9,2.2,2.2,2.2
		h17.7c1.3,0,2.2-0.9,2.2-2.2v-14.7c0-2.4,2-4.4,4.4-4.4h137c2.4,0,4.4,2,4.4,4.4v14.7c0,1.3,0.9,2.2,2.2,2.2h17.7
		c1.3,0,2.2-0.9,2.2-2.2v-3.3c0-5,4.1-8.8,8.8-8.8h4.4c5,0,8.8,4.1,8.8,8.8v14.7H189.6z"/>
	<polygon id="XMLID_65_" class="st3" points="224.6,940.6 224.6,960.3 205.3,960.3 205.3,982.8 224.6,982.8 224.6,1000.4 
		246.5,1000.4 246.5,982.8 266.8,982.8 266.8,960.3 246.5,960.3 246.5,940.6 	"/>
	<rect id="XMLID_64_" x="350.4" y="959.2" class="st3" width="61.7" height="22.7"/>
</g>
<g id="XMLID_72_">
	<g id="YpW3j1.tif">
		<g id="XMLID_70_">
			<path id="XMLID_71_" class="st2" d="M283,1455.8c13.7,13.7,27.1,27.1,40.8,40.8c5.4,5.4,5.4,8.8-0.1,14.4
				c-2.9,2.9-5.7,5.7-8.6,8.6c-2.4,2.4-5.4,3.3-8.6,2.1c-2.5-1.1-4-0.1-5.7,1.6c-7.6,7.6-15.2,15.2-22.9,22.9
				c-12,12-29.4,12.5-42.2,1.3c-4.1-3.6-7-3.9-11.6-0.5c-2.4,1.7-4.8,2.4-7.5,1.2c-2.8-1.1-4.4-0.2-6.1,1.7
				c-6.5,6.8-13.4,13.2-19.7,20c-2.7,2.7-4.4,2.4-6.8,0c-4.7-5-9.6-9.8-14.5-14.5c-2.8-2.5-2.9-4.6-0.1-7.1
				c6.8-6.5,13.3-13.3,20-19.7c1.7-1.7,2.7-3.1,1.6-5.7c-1.1-2.8-0.4-5.4,1.3-7.9c3.1-4.6,3-7.6-0.7-11.6
				c-10.9-12.3-10.5-29.9,1-41.6c7.5-7.7,15.5-15.5,23.1-23.1c1.8-1.8,2.8-3.5,1.6-6.2c-1.1-3-0.4-5.9,1.9-8.2c3-3,5.9-5.9,9-9
				c5.2-5.2,8.8-5.2,14,0C255.7,1428.5,269.2,1442,283,1455.8z"/>
		</g>
	</g>
	<path id="XMLID_69_" class="st3" d="M331.3,1436.3l-26.6,26.6l-9.8-9.8l26.6-26.6c2.8-2.8,7.1-2.8,9.9,0l0,0
		C333.9,1429.3,333.8,1433.8,331.3,1436.3z"/>
	<path id="XMLID_68_" class="st3" d="M296,1401l-26.6,26.6l-9.8-9.8l26.6-26.6c2.8-2.8,7.1-2.8,9.9,0l0,0
		C298.6,1394,298.5,1398.4,296,1401z"/>
	<path id="XMLID_59_" class="st3" d="M347.5,1452.5l-26.6,26.6l-9.8-9.8l26.6-26.6c2.8-2.8,7.1-2.8,9.9,0l0,0
		C350.2,1445.5,350,1450,347.5,1452.5z"/>
	<path id="XMLID_58_" class="st3" d="M313.7,1418.8l-26.6,26.6l-9.8-9.8l26.6-26.6c2.8-2.8,7.1-2.8,9.9,0l0,0
		C316.4,1411.8,316.3,1416.2,313.7,1418.8z"/>
	<path id="XMLID_57_" class="st2" d="M446.6,1440.8v-101.5c0-13.2-9.2-27.7-20.4-32.3l-86.6-35.9c-11.2-4.6-20.4,2.3-20.4,15.4V1388
		c0,13.2,9.2,27.7,20.4,32.3l86.8,36C437.6,1461,446.6,1454,446.6,1440.8z"/>
	<path id="XMLID_56_" class="st2" d="M382.9,1419.3c26.2,10.8,47.4-5.2,47.4-35.9s-21.2-64.4-47.4-75.2s-47.4,5.2-47.4,35.9
		S356.7,1408.4,382.9,1419.3z"/>
	<path id="XMLID_37_" class="st3" d="M359.5,1380.5c5.1,2.1,9.2-1,9.2-6.9s-4.1-12.4-9.2-14.5c-5.1-2.1-9.2,1-9.2,6.9
		S354.4,1378.4,359.5,1380.5z"/>
	<path id="XMLID_36_" class="st3" d="M382.9,1406.3c5.1,2.1,9.2-1,9.2-6.9c0-5.9-4.1-12.4-9.2-14.5c-5.1-2.1-9.2,1-9.2,6.9
		C373.7,1397.7,377.8,1404.2,382.9,1406.3z"/>
	<path id="XMLID_35_" class="st3" d="M382.9,1375.9c5.1,2.1,9.2-1,9.2-6.9s-4.1-12.4-9.2-14.5c-5.1-2.1-9.2,1-9.2,6.9
		C373.7,1367.3,377.8,1373.8,382.9,1375.9z"/>
	<path id="XMLID_34_" class="st3" d="M382.9,1342.4c5.1,2.1,9.2-1,9.2-6.9s-4.1-12.4-9.2-14.5c-5.1-2.1-9.2,1-9.2,6.9
		C373.7,1333.8,377.8,1340.3,382.9,1342.4z"/>
	<path id="XMLID_33_" class="st3" d="M406.1,1369.3c5.1,2.1,9.2-1,9.2-6.9s-4.1-12.4-9.2-14.5c-5.1-2.1-9.2,1-9.2,6.9
		C397,1360.7,401.1,1367.2,406.1,1369.3z"/>
	<path id="XMLID_32_" class="st3" d="M406.1,1399.8c5.1,2.1,9.2-1,9.2-6.9s-4.1-12.4-9.2-14.5c-5.1-2.1-9.2,1-9.2,6.9
		C397,1391.2,401.1,1397.7,406.1,1399.8z"/>
	<path id="XMLID_31_" class="st3" d="M359.5,1349.9c5.1,2.1,9.2-1,9.2-6.9s-4.1-12.4-9.2-14.5c-5.1-2.1-9.2,1-9.2,6.9
		S354.4,1347.8,359.5,1349.9z"/>
</g>
<path id="XMLID_76_" class="st1" d="M306.9,1161.4L306.9,1161.4c-111.7,0-202.2-90.5-202.2-202.2v0c0-111.7,90.5-202.2,202.2-202.2
	h0c111.7,0,202.2,90.5,202.2,202.2v0C509.2,1070.9,418.6,1161.4,306.9,1161.4z"/>
<path id="XMLID_77_" class="st1" d="M307,707L307,707c-111.7,0-202.2-90.5-202.2-202.2v0c0-111.7,90.5-202.2,202.2-202.2h0
	c111.7,0,202.2,90.5,202.2,202.2v0C509.2,616.5,418.7,707,307,707z"/>
<path id="XMLID_78_" class="st1" d="M306.9,1626.6L306.9,1626.6c-111.7,0-202.2-90.5-202.2-202.2v0c0-111.7,90.5-202.2,202.2-202.2
	h0c111.7,0,202.2,90.5,202.2,202.2v0C509.1,1536.1,418.6,1626.6,306.9,1626.6z"/>
<path id="XMLID_73_" class="st1" d="M-196.1,528.1c-0.6,1.2-1.2,1.6-2.5,0.8c-3.9-2.3-7.9-4.5-11.8-6.8c-2-1.1-4-0.8-5.1,1.1
	c-1.1,1.7-0.5,3.7,1.6,5c4,2.3,8.1,4.7,12.1,7c1.1,0.6,1.2,0.9,0.5,2c-7.1,11.2,25.9,9.9,16.7,20.6c-2.5,1.2-3.4,2.3-6.4,3.9
	c-0.3,0.2-2.2,4.2-0.6,4.5c4.5,0.8,4.2,3.9,3.6,4.8c-4,5.6-24.7,2.6-32.9,2.8h-12.9 M-233.7,573.7c0,0-173.9,0.6-192.3,0
	c-0.6,0.8-25.3-4-28.8-9.6c-0.8-1.1-0.8-2.8-0.5-4c3.1-12.4,9.9-3.4,9.8-8.8c-0.3-8.8-4-2,1.2-11.6c3.6-5.3,5.1-3.1,10.5-8.7
	c1.4-0.8,8.7-4.8,8.4-6.5c-0.3-1.6-1.4-2.5-2.8-2.8c-1.1-0.3-2,0.3-2.9,0.8c-3.9,2.3-7.9,4.5-11.8,6.8c-1.1,0.6-1.6,0.6-2.2-0.6"/>
</svg>
